<svg width="175" height="173" viewBox="0 0 175 173" fill="none" xmlns="http://www.w3.org/2000/svg">
<g clip-path="url(#clip0_1609_10093)">
<path d="M105.271 86.6421C112.294 86.9808 116.749 83.8111 118.717 90.6861C119.037 91.805 119.017 93.398 119.892 95.9179C121.921 101.761 130.571 103.107 134.928 100.643C143.211 95.9586 133.206 88.2757 133.206 88.2757C133.206 88.2757 136.24 67.321 115.74 75.049" fill="#96C4D4"/>
<path d="M129.892 101.961C128.31 101.961 126.671 101.68 125.167 101.111C122.479 100.093 120.559 98.2656 119.76 95.9642C119.191 94.3271 119 93.092 118.846 92.0996C118.764 91.5707 118.693 91.114 118.582 90.7251C117.192 85.8732 114.548 86.1385 110.545 86.5433C108.989 86.6996 107.225 86.8786 105.264 86.7832C105.186 86.7798 105.127 86.7132 105.13 86.6353C105.134 86.5574 105.203 86.493 105.278 86.5015C107.218 86.5935 108.971 86.4185 110.517 86.2627C114.512 85.8597 117.399 85.5695 118.853 90.6477C118.969 91.0536 119.041 91.5182 119.124 92.0567C119.276 93.0378 119.466 94.2588 120.026 95.8722C120.797 98.0935 122.658 99.8598 125.267 100.847C128.497 102.069 132.351 101.938 134.859 100.52C136.867 99.3845 137.944 97.9744 138.059 96.3289C138.331 92.4378 133.172 88.4281 133.12 88.3881C133.079 88.357 133.059 88.3062 133.066 88.256C133.079 88.1656 134.313 79.1974 129.474 75.2968C126.516 72.9118 121.912 72.8728 115.789 75.181C115.716 75.2093 115.635 75.1714 115.608 75.0986C115.58 75.0258 115.617 74.9445 115.69 74.9169C121.912 72.5708 126.609 72.625 129.652 75.0772C134.364 78.8757 133.47 87.2907 133.356 88.2136C133.99 88.7138 138.609 92.501 138.34 96.348C138.218 98.094 137.093 99.5804 134.997 100.766C133.594 101.559 131.783 101.961 129.892 101.961Z" fill="#004E69"/>
<path d="M134.928 100.644C131.522 102.569 125.491 102.168 122.051 99.1076C121.091 98.2558 120.334 97.1934 119.891 95.9199C119.018 93.3994 119.037 91.8058 118.717 90.6864C116.748 83.8125 112.295 86.9811 105.27 86.6424L115.739 75.0498C121.459 72.894 125.347 72.9702 127.981 74.2019C134.782 77.3857 133.206 88.2766 133.206 88.2766C133.206 88.2766 143.21 95.9606 134.928 100.645V100.644Z" fill="#96C4D4"/>
<path d="M129.858 101.945C127.081 101.945 124.081 101.102 121.958 99.2127C120.93 98.3005 120.19 97.2082 119.759 95.9657C119.191 94.3276 118.999 93.0919 118.845 92.0984C118.764 91.5694 118.693 91.1133 118.582 90.7244C117.192 85.8736 114.547 86.1401 110.545 86.5426C108.989 86.6995 107.225 86.8773 105.263 86.7819C105.208 86.7796 105.16 86.7458 105.14 86.695C105.119 86.6442 105.129 86.5866 105.166 86.5459L115.635 74.9534C115.65 74.937 115.669 74.924 115.689 74.9161C120.89 72.9562 125.046 72.6723 128.04 74.0722C134.543 77.1166 133.481 87.1962 133.356 88.2129C133.989 88.7131 138.609 92.5008 138.339 96.3479C138.217 98.0945 137.093 99.5808 134.997 100.766C133.649 101.528 131.809 101.944 129.858 101.944L129.858 101.945ZM113.364 86.0639C115.897 86.0639 117.771 86.8705 118.853 90.6476C118.969 91.0535 119.04 91.518 119.124 92.056C119.276 93.0377 119.465 94.2598 120.025 95.8737C120.44 97.0699 121.153 98.1221 122.145 99.0022C125.67 102.139 131.675 102.321 134.859 100.522C136.867 99.386 137.943 97.9759 138.059 96.3298C138.332 92.4382 133.173 88.4285 133.121 88.3885C133.08 88.3574 133.06 88.3066 133.067 88.2564C133.083 88.1486 134.549 77.4327 127.922 74.3302C125.005 72.9658 120.934 73.2486 115.821 75.1702L105.576 86.5138C107.399 86.5759 109.051 86.4105 110.518 86.2631C111.541 86.1598 112.492 86.0644 113.364 86.0644V86.0639Z" fill="#004E69"/>
<g opacity="0.6">
<path d="M137.031 99.0078C137.045 92.4912 132.174 90.1373 132.174 90.1373C132.174 90.1373 133.75 79.2464 126.949 76.0626C124.315 74.8309 120.427 74.7547 114.707 76.9105L105.9 86.6611C105.693 86.6588 105.481 86.6526 105.27 86.6419L115.739 75.0493C121.459 72.8935 125.347 72.9697 127.981 74.2015C134.782 77.3852 133.206 88.2761 133.206 88.2761C133.206 88.2761 141.135 94.3659 137.031 99.0078Z" fill="white"/>
</g>
<path d="M129.883 102.665C128.216 102.665 126.495 102.37 124.917 101.773C122.029 100.68 119.961 98.7001 119.092 96.1971C118.503 94.4997 118.298 93.1754 118.147 92.2084C118.069 91.7032 118.001 91.2668 117.902 90.9202C116.676 86.6357 114.65 86.84 110.614 87.2465C109.033 87.4056 107.243 87.5868 105.228 87.4892C104.762 87.4666 104.401 87.0692 104.424 86.6018C104.446 86.1338 104.845 85.7692 105.31 85.7957C107.197 85.8866 108.923 85.7127 110.445 85.5597C114.451 85.155 117.912 84.8067 119.529 90.4528C119.658 90.901 119.732 91.3865 119.82 91.9482C119.967 92.901 120.152 94.0876 120.691 95.64C121.392 97.6598 123.105 99.2742 125.514 100.186C128.512 101.321 132.211 101.206 134.51 99.9053C136.299 98.8943 137.255 97.675 137.354 96.2824C137.602 92.7757 132.738 88.9874 132.689 88.9495C132.446 88.7627 132.323 88.4584 132.367 88.1553C132.379 88.0695 133.551 79.488 129.028 75.8458C126.277 73.6319 121.906 73.6308 116.036 75.8436C115.6 76.0084 115.111 75.7866 114.946 75.3485C114.782 74.9105 115.003 74.4211 115.44 74.2562C121.913 71.8159 126.842 71.9073 130.092 74.5272C134.743 78.2771 134.306 85.8962 134.1 87.912C135.37 88.98 139.308 92.6103 139.042 96.3981C138.903 98.3959 137.657 100.072 135.343 101.382C133.838 102.233 131.9 102.665 129.883 102.665Z" fill="#004E69"/>
<path d="M131.68 90.7525C131.802 90.2597 131.931 89.8222 132.026 89.3926C132.076 89.1792 132.11 88.967 132.164 88.7654C132.22 88.5633 132.27 88.3646 132.37 88.1693L132.383 88.1422C132.527 87.8572 132.875 87.7431 133.159 87.8882C133.353 87.987 133.468 88.1806 133.476 88.3838C133.485 88.6491 133.417 88.9049 133.327 89.1487C133.234 89.3926 133.094 89.6173 132.944 89.8278C132.638 90.2472 132.263 90.608 131.806 90.8518C131.763 90.875 131.709 90.8586 131.687 90.8157C131.676 90.7959 131.674 90.7728 131.68 90.7519V90.7525Z" fill="#004E69"/>
<g opacity="0.3">
<path d="M128.554 90.4572C128.554 90.4572 127.245 94.3872 122.051 99.1076C121.091 98.2558 120.334 97.1934 119.891 95.9199C119.018 93.3994 119.037 91.8058 118.717 90.6864C116.748 83.8125 112.295 86.981 105.27 86.6423L115.739 75.0498C116.24 74.8612 116.726 74.6896 117.199 74.5344C123.227 72.5564 129.403 77.0707 129.328 83.4258C129.28 87.4575 128.554 90.4572 128.554 90.4572Z" fill="#004E69"/>
</g>
<path d="M120.435 95.0987C120.435 95.0987 112.595 103.367 92.3274 101.93C79.7934 101.04 66.2803 90.9631 66.2803 90.9631L90.3224 68.0372C90.3224 68.0372 94.0266 66.0321 99.0125 64.3532C100.483 63.8554 102.067 63.3891 103.698 63.0075C107.06 62.2251 110.633 61.8164 113.871 62.3019C116.031 62.6264 118.044 63.349 119.748 64.6231C125 68.5548 126.809 73.2734 126.891 77.8115C127.058 86.8135 120.435 95.0992 120.435 95.0992L120.435 95.0987Z" fill="#96C4D4"/>
<path d="M96.8997 102.237C95.4473 102.237 93.9211 102.185 92.3177 102.071C79.8863 101.189 66.332 91.1778 66.1962 91.0767C66.163 91.0519 66.1421 91.0135 66.1399 90.9717C66.1376 90.93 66.1534 90.8893 66.1832 90.8611L90.2253 67.9351C90.2344 67.9266 90.2445 67.9193 90.2552 67.9131C90.2924 67.8928 94.027 65.8832 98.9673 64.2196C100.553 63.6822 102.134 63.2283 103.666 62.8699C107.552 61.9655 110.993 61.7273 113.892 62.162C116.218 62.5114 118.217 63.3011 119.832 64.5097C124.513 68.0141 126.936 72.4884 127.032 77.8088C127.199 86.7583 120.612 95.1039 120.545 95.1874C120.543 95.1902 120.54 95.1936 120.537 95.1964C120.465 95.2727 113.651 102.238 96.8991 102.238L96.8997 102.237ZM66.4999 90.9492C67.9466 91.9957 80.6536 100.96 92.3374 101.79C112.132 103.194 120.114 95.2269 120.329 95.0056C120.521 94.7623 126.914 86.5715 126.751 77.8138C126.656 72.5849 124.271 68.1852 119.663 64.7361C118.086 63.5563 116.13 62.7841 113.85 62.4414C110.986 62.013 107.581 62.2489 103.729 63.1453C102.207 63.5015 100.635 63.9531 99.0568 64.4872C94.3059 66.0869 90.6789 68.0062 90.4051 68.153L66.4993 90.9492H66.4999Z" fill="#004E69"/>
<g opacity="0.3">
<path d="M120.434 95.0992C120.434 95.0992 112.594 103.368 92.3265 101.931C79.7925 101.041 66.2793 90.9637 66.2793 90.9637L69.3401 88.0447C74.5463 89.9335 84.1271 93.0089 92.6927 93.6174C112.961 95.0546 120.434 87.1629 120.434 87.1629C120.434 87.1629 126.895 84.4149 126.461 74.3223C126.736 75.4857 126.87 76.6536 126.891 77.8114C127.058 86.8135 120.434 95.0992 120.434 95.0992Z" fill="#004E69"/>
</g>
<path d="M126.891 77.8111C123.422 82.0799 116.716 83.3585 110.712 80.5495C103.796 77.3149 100.431 69.8833 103.196 63.9482C103.348 63.6241 103.513 63.3103 103.697 63.0071C109.301 61.7037 115.489 61.4367 119.747 64.6222C125 68.5539 126.809 73.2726 126.891 77.8106V77.8111Z" fill="white"/>
<path d="M96.9967 102.948C95.4992 102.948 93.9251 102.893 92.2665 102.776C79.6317 101.88 66.3343 92.0601 65.7749 91.6424C65.5749 91.4933 65.4504 91.263 65.4352 91.0135C65.42 90.764 65.5157 90.5201 65.6966 90.348L89.7392 67.4237C89.7933 67.3717 89.8542 67.3277 89.9201 67.2922C90.7449 66.8456 110.234 56.4425 120.255 63.943C124.528 67.142 126.999 71.1488 127.599 75.8522C128.863 85.7772 121.414 95.2303 121.096 95.6277C121.082 95.6464 121.066 95.6644 121.049 95.6819C120.745 96.0031 113.946 102.948 96.9961 102.948H96.9967ZM67.6081 90.8667C70.7022 93.0101 81.9838 100.346 92.386 101.085C111.414 102.435 119.315 95.013 119.801 94.5354C120.277 93.9229 127.061 84.9881 125.919 76.0594C125.378 71.8324 123.132 68.2134 119.242 65.3012C110.422 58.6994 92.3127 67.9504 90.8215 68.7328L67.6081 90.8662V90.8667Z" fill="#004E69"/>
<path d="M33.7075 87.6709C33.7075 87.6709 16.1375 96.2073 16.1612 97.9487C16.1854 99.6902 38.6224 91.4372 38.6224 91.4372" fill="#DD8E58"/>
<path d="M16.7208 98.3187C16.4588 98.3187 16.2695 98.2848 16.1648 98.2126C16.0718 98.1482 16.0217 98.0579 16.0205 97.9512C15.9957 96.1713 31.8396 88.4225 33.6458 87.5441C33.7162 87.5097 33.8001 87.5396 33.8339 87.6096C33.8677 87.6796 33.839 87.7637 33.7686 87.7981C26.7382 91.2139 16.2853 96.7353 16.3017 97.9473C16.3017 97.9557 16.3017 97.9648 16.3242 97.98C16.4031 98.0342 16.5484 98.0602 16.7529 98.0602C19.2735 98.0602 30.8323 94.1527 38.5736 91.3054C38.6474 91.2794 38.7274 91.3161 38.7545 91.3895C38.7815 91.4623 38.7438 91.5436 38.6711 91.5707C36.6756 92.3045 20.216 98.3193 16.7203 98.3193L16.7208 98.3187Z" fill="#004E69"/>
<path d="M38.624 91.4364L36.6865 89.9523L33.7091 87.6689C33.7091 87.6689 24.957 91.9191 19.8156 95.0357C17.6731 96.3346 16.1548 97.4376 16.1621 97.949C16.1875 99.6899 38.624 91.4364 38.624 91.4364Z" fill="#E57C35"/>
<g opacity="0.3">
<path d="M38.623 91.4362C38.623 91.4362 16.1865 99.6903 16.1612 97.95C16.155 97.473 17.4834 96.475 19.4085 95.2856C23.2101 94.5692 31.8304 91.6016 36.6174 89.9014L36.685 89.9522L38.6224 91.4357L38.623 91.4362Z" fill="#004E69"/>
</g>
<path d="M16.6913 99.0417C16.1228 99.0417 15.9307 98.9091 15.7656 98.795C15.4845 98.6014 15.3206 98.2971 15.3161 97.9613C15.3065 97.2839 15.2935 96.357 24.5273 91.4097C28.881 89.0772 33.2951 86.9298 33.339 86.9084C33.7588 86.7052 34.2658 86.8802 34.4697 87.3013C34.6737 87.723 34.4979 88.2299 34.0776 88.4342C27.5999 91.5813 20.6783 95.2951 18.0389 97.1845C21.5673 96.4699 30.352 93.5768 38.3322 90.6414C38.7706 90.48 39.2573 90.7058 39.4179 91.1455C39.579 91.5853 39.3536 92.0724 38.9153 92.2339C38.8629 92.2531 33.6179 94.1803 28.2579 95.9567C20.6828 98.4676 17.8738 99.0417 16.6913 99.0417Z" fill="#004E69"/>
<path d="M144.562 104.049C144.562 104.049 160.152 120.171 161.936 119.74C163.72 119.309 146.538 98.1025 146.538 98.1025" fill="#E57C35"/>
<g opacity="0.3">
<path d="M146.538 98.1016L144.562 104.05C144.562 104.05 160.151 120.171 161.935 119.742C162.454 119.617 161.374 117.741 159.58 115.145C154.398 110.522 147.058 102.929 147.058 102.929L148.041 99.9706C147.115 98.8111 146.538 98.1016 146.538 98.1016Z" fill="#004E69"/>
</g>
<path d="M161.812 120.612C161.055 120.612 159.336 119.754 151.993 112.668C147.909 108.726 143.993 104.68 143.954 104.639C143.629 104.303 143.638 103.767 143.973 103.44C144.309 103.114 144.844 103.123 145.169 103.459C150.955 109.443 157.464 115.711 160.456 118.005C158.301 114.471 151.963 106.144 145.882 98.6375C145.587 98.274 145.642 97.74 146.005 97.4447C146.368 97.1501 146.901 97.2054 147.195 97.5684C147.236 97.618 151.269 102.599 155.18 107.722C163.352 118.425 163.064 119.281 162.853 119.905C162.741 120.236 162.472 120.482 162.134 120.564C162.04 120.587 161.939 120.612 161.812 120.612Z" fill="#004E69"/>
<path d="M160.118 96.5509C160.393 96.7536 160.378 97.1707 160.077 97.3339C102.527 128.579 31.1728 91.8486 18.6529 80.6529C18.0275 80.0969 17.6709 79.3032 17.6709 78.4666C17.6709 76.7427 19.0833 75.5312 20.5976 75.5312C21.1469 75.5312 21.7097 75.6899 22.2252 76.0416C41.3293 89.0612 102.367 112.372 160.302 82.8562C159.017 83.5765 158.058 86.3956 158.058 89.7617C158.058 93.1278 158.927 95.672 160.119 96.5509H160.118Z" fill="#E57C35"/>
<g opacity="0.5">
<path d="M158.397 86.4285C101.037 114.484 41.1203 91.5417 22.2252 78.6638C21.7103 78.3121 21.1469 78.1535 20.5976 78.1535C19.5081 78.1535 18.4748 78.7801 17.9768 79.7702C17.7785 79.3677 17.6709 78.9223 17.6709 78.4657C17.6709 76.7417 19.0833 75.5303 20.5976 75.5303C21.1469 75.5303 21.7097 75.6889 22.2252 76.0406C41.3293 89.0602 102.367 112.371 160.302 82.8552C159.476 83.3175 158.785 84.6447 158.397 86.4285Z" fill="white"/>
</g>
<g opacity="0.3">
<path d="M18.6533 78.9584C31.1321 90.1191 102.073 126.649 159.527 95.9312C158.989 95.1843 158.559 94.0288 158.306 92.6339C83.6196 121.936 26.331 83.4518 18.5693 78.876C18.5975 78.9031 18.6234 78.9324 18.6533 78.959V78.9584Z" fill="#004E69"/>
</g>
<g opacity="0.35">
<path d="M29.4424 82.549C30.5968 83.3099 31.808 84.0037 33.0249 84.6738C34.2446 85.3421 35.4824 85.9766 36.7331 86.5857C37.9832 87.1948 39.2446 87.7813 40.519 88.3379C41.7888 88.9058 43.0733 89.4387 44.3612 89.9626C49.5245 92.0337 54.8231 93.756 60.1893 95.213C65.5605 96.6536 71.0106 97.804 76.5001 98.6801C81.988 99.559 87.5361 100.039 93.0921 100.284C104.206 100.748 115.38 100.117 126.37 98.3482C131.861 97.454 137.309 96.2556 142.621 94.6247C145.272 93.7972 147.891 92.8692 150.439 91.7898C151.71 91.2434 152.96 90.6524 154.181 90.0156C155.403 89.3806 156.593 88.6896 157.727 87.9287L157.73 87.9264C158.053 87.7091 158.491 87.796 158.707 88.12C158.924 88.444 158.838 88.8827 158.514 89.0994C158.502 89.1079 158.487 89.1169 158.474 89.1243C156.009 90.5502 153.437 91.7159 150.81 92.7094C148.19 93.721 145.518 94.5717 142.824 95.3196C137.433 96.8144 131.954 97.9338 126.442 98.8032C123.685 99.2401 120.918 99.6064 118.144 99.9051C116.757 100.053 115.369 100.189 113.978 100.304C112.589 100.428 111.198 100.536 109.805 100.625C104.237 100.985 98.6498 101.095 93.0679 100.919C87.4865 100.746 81.9119 100.245 76.3875 99.3931C73.628 98.9494 70.8838 98.4334 68.1548 97.8373C65.4258 97.2446 62.7092 96.5903 60.0163 95.8497C54.6282 94.3752 49.3273 92.5801 44.1606 90.4542C41.5792 89.3868 39.0322 88.2352 36.5421 86.9673C35.2959 86.3362 34.0627 85.6797 32.848 84.9893C31.6339 84.2956 30.4345 83.5843 29.2723 82.7923C29.2041 82.746 29.1866 82.6534 29.2328 82.5851C29.2785 82.5179 29.3697 82.4999 29.4373 82.5445L29.4418 82.5473L29.4424 82.549Z" fill="#004E69"/>
</g>
<path d="M108.95 110.473C95.3533 110.473 82.6993 108.348 72.2723 105.731C46.5277 99.2682 25.0895 87.5453 18.089 81.285C17.2856 80.5715 16.8242 79.5435 16.8242 78.4659C16.8242 76.3801 18.5166 74.6826 20.5972 74.6826C21.3431 74.6826 22.0709 74.9101 22.7008 75.3403C32.2979 81.8805 52.233 90.8397 76.8272 94.5609C97.4502 97.6809 128.606 98.0523 159.917 82.0996C160.328 81.8901 160.83 82.0493 161.048 82.4563C161.264 82.8633 161.116 83.3697 160.714 83.5955C159.823 84.0951 158.903 86.5377 158.903 89.7609C158.903 92.9842 159.787 95.2535 160.619 95.8677C160.987 96.1386 161.188 96.5716 161.157 97.0255C161.126 97.472 160.873 97.866 160.48 98.0788C143.452 107.324 125.503 110.473 108.95 110.473ZM20.5966 76.3784C19.596 76.3784 18.516 77.1766 18.516 78.4659C18.516 79.0586 18.7701 79.6242 19.2135 80.0177C24.6146 84.8481 44.788 97.0836 72.6836 104.086C95.391 109.785 128.78 113.131 159.188 96.8494C157.973 95.555 157.21 92.8713 157.21 89.7609C157.21 87.9608 157.468 86.3045 157.92 84.9785C145.122 91.1214 131.396 95.1344 117.075 96.9154C103.956 98.5468 90.3291 98.3187 76.5743 96.238C51.6989 92.4745 31.4929 83.3838 21.7481 76.7425C21.3943 76.5009 21.0073 76.3789 20.5966 76.3789V76.3784ZM159.614 97.2321C159.614 97.2321 159.615 97.2326 159.616 97.2332C159.616 97.2332 159.615 97.2326 159.614 97.2321Z" fill="#004E69"/>
<path d="M163.855 89.7615C163.855 93.678 162.556 96.851 160.955 96.851C159.353 96.851 158.057 93.6774 158.057 89.7615C158.057 86.3954 159.016 83.5763 160.301 82.856C160.343 82.8334 160.389 82.8108 160.431 82.7877C160.434 82.7849 160.437 82.7849 160.44 82.7849C160.606 82.7081 160.779 82.6714 160.955 82.6714C162.557 82.6714 163.855 85.845 163.855 89.7609V89.7615Z" fill="#FFA76C"/>
<g opacity="0.35">
<path d="M163.856 89.7608C163.856 93.6773 162.557 96.8503 160.956 96.8503C159.354 96.8503 158.058 93.6767 158.058 89.7608C158.058 89.0235 158.103 88.3145 158.188 87.645C158.558 90.529 159.656 92.6194 160.956 92.6194C162.255 92.6194 163.356 90.5296 163.726 87.645C163.811 88.3117 163.856 89.023 163.856 89.7608Z" fill="#004E69"/>
</g>
<path d="M160.954 97.699C158.496 97.699 157.21 93.7058 157.21 89.7611C157.21 86.0862 158.286 83.0136 159.887 82.1161L160.034 82.0393C160.058 82.0263 160.084 82.0145 160.11 82.0037C160.378 81.8846 160.662 81.8242 160.954 81.8242C163.413 81.8242 164.701 85.8175 164.701 89.7616C164.701 93.7058 163.413 97.6996 160.954 97.6996L160.954 97.699ZM160.787 83.5578L160.698 83.6046C159.823 84.0958 158.902 86.5383 158.902 89.7616C158.902 93.5139 160.137 96.0039 160.954 96.0039C161.77 96.0039 163.008 93.5144 163.008 89.7616C163.008 86.0088 161.772 83.52 160.954 83.52C160.897 83.52 160.845 83.5318 160.791 83.5561C160.79 83.5561 160.788 83.5572 160.787 83.5578H160.787Z" fill="#004E69"/>
<g opacity="0.3">
<path d="M135.431 103.835C135.946 103.865 136.485 103.835 137.01 103.777C137.538 103.72 138.063 103.632 138.58 103.511C139.614 103.266 140.621 102.912 141.576 102.451C142.528 101.983 143.423 101.407 144.247 100.746C144.655 100.41 145.054 100.065 145.425 99.6879L146.005 99.1166C146.204 98.9275 146.411 98.7446 146.618 98.5639C148.297 97.1346 150.261 96.0841 152.298 95.2808C153.32 94.8789 154.369 94.5521 155.431 94.2738C156.502 93.996 157.557 93.7781 158.696 93.6336C159.083 93.5845 159.435 93.8589 159.484 94.2461C159.533 94.6333 159.259 94.9867 158.873 95.0358C158.851 95.0387 158.829 95.0403 158.808 95.0409H158.787C158.298 95.0567 157.759 95.107 157.244 95.1713C156.724 95.2362 156.204 95.3175 155.687 95.414C154.652 95.6105 153.63 95.8741 152.627 96.2004C150.622 96.845 148.71 97.8007 147.044 99.0878C146.839 99.2521 146.635 99.418 146.436 99.5902L145.844 100.127C145.444 100.503 145.014 100.845 144.578 101.176C144.138 101.502 143.679 101.801 143.209 102.08C142.736 102.354 142.249 102.602 141.753 102.827C140.76 103.28 139.719 103.62 138.656 103.847C137.59 104.075 136.513 104.206 135.406 104.169C135.313 104.166 135.24 104.088 135.243 103.995C135.246 103.902 135.324 103.829 135.417 103.832C135.418 103.832 135.419 103.832 135.42 103.832H135.431L135.431 103.835Z" fill="#004E69"/>
<path d="M75.719 101.783C78.8689 102.433 82.0328 102.99 85.2102 103.447L87.5967 103.761L89.9888 104.023C90.7843 104.123 91.5854 104.173 92.3832 104.251C93.1809 104.33 93.9809 104.383 94.7809 104.434C95.5803 104.489 96.3803 104.542 97.1814 104.569C97.9825 104.6 98.7825 104.649 99.5837 104.657C100.385 104.67 101.185 104.707 101.987 104.708C102.788 104.709 103.589 104.72 104.39 104.713C107.595 104.685 110.797 104.527 113.989 104.252C117.18 103.971 120.36 103.559 123.515 103.009C126.671 102.463 129.8 101.761 132.879 100.893C134.416 100.45 135.942 99.969 137.439 99.418C138.189 99.1454 138.927 98.8456 139.655 98.5295C140.019 98.3714 140.377 98.2026 140.732 98.0299L141.257 97.7618L141.801 97.4744C143.268 96.7327 144.834 96.1558 146.463 95.8667C148.08 95.5822 149.79 95.5168 151.361 96.1044C151.397 96.1179 151.416 96.1592 151.402 96.1958C151.392 96.2241 151.366 96.2416 151.338 96.2421H151.331C150.93 96.2506 150.529 96.2856 150.135 96.3042C149.739 96.3341 149.347 96.3765 148.956 96.4154C148.176 96.4967 147.399 96.5944 146.634 96.7592C145.102 97.077 143.603 97.5693 142.188 98.2546L141.11 98.7993C140.741 98.9777 140.37 99.1504 139.996 99.3119C139.248 99.6342 138.494 99.9373 137.731 100.213C136.21 100.774 134.668 101.27 133.115 101.722C130.005 102.61 126.851 103.328 123.67 103.89C120.491 104.458 117.286 104.88 114.069 105.163C110.853 105.453 107.624 105.587 104.395 105.59C102.781 105.585 101.167 105.565 99.5549 105.496C98.7482 105.473 97.9437 105.41 97.138 105.364C96.3324 105.323 95.5285 105.255 94.7245 105.185C88.2919 104.67 81.9151 103.547 75.6864 101.919C75.6486 101.91 75.6261 101.871 75.6362 101.833C75.6458 101.797 75.683 101.774 75.719 101.782V101.783Z" fill="#004E69"/>
</g>
<g opacity="0.35">
<path d="M17.858 79.4823C17.7797 79.2712 17.7239 79.0516 17.6963 78.8252C17.7245 79.051 17.7797 79.2712 17.858 79.4823Z" fill="#004E69"/>
</g>
<g opacity="0.35">
<path d="M17.6854 78.4434C17.6769 78.4473 17.6719 78.4547 17.6719 78.4654C17.6719 78.4547 17.6769 78.4479 17.6854 78.4434Z" fill="#004E69"/>
</g>
<g opacity="0.35">
<path d="M18.3958 80.3892C18.2719 80.2481 18.1609 80.0968 18.0674 79.9365C18.1609 80.0974 18.2719 80.2481 18.3958 80.3892Z" fill="#004E69"/>
</g>
<g opacity="0.35">
<path d="M29.8604 88.1605C29.0125 87.6829 28.2018 87.2127 27.4277 86.7515C28.2018 87.2127 29.0131 87.6823 29.8604 88.1605Z" fill="#004E69"/>
</g>
<g opacity="0.35">
<path d="M35.3467 91.0907C34.8222 90.8248 34.3067 90.5595 33.8008 90.2959C34.3067 90.5601 34.8216 90.8248 35.3467 91.0907Z" fill="#004E69"/>
</g>
<g opacity="0.35">
<path d="M17.7239 78.4412C17.7121 78.4396 17.7042 78.4401 17.6963 78.4412C17.7042 78.4401 17.7126 78.439 17.7239 78.4412Z" fill="#004E69"/>
</g>
<g opacity="0.35">
<path d="M24.6162 85.0156C22.5149 83.6664 20.796 82.4341 19.5059 81.3779C20.796 82.4341 22.5149 83.667 24.6162 85.0156Z" fill="#004E69"/>
</g>
<g opacity="0.35">
<path d="M159.815 96.2802C159.815 96.2802 159.814 96.2793 159.813 96.2783C159.813 96.2783 159.814 96.2793 159.815 96.2802Z" fill="#004E69"/>
</g>
<g opacity="0.35">
<path d="M159.952 96.4126C159.957 96.4165 159.961 96.4211 159.965 96.4244C159.96 96.4205 159.956 96.416 159.952 96.4126Z" fill="#004E69"/>
</g>
<g opacity="0.35">
<path d="M160.209 96.6356C160.209 96.6356 160.205 96.6329 160.204 96.6309C160.205 96.6322 160.207 96.6336 160.209 96.6356Z" fill="#004E69"/>
</g>
<g opacity="0.35">
<path d="M17.918 78.5142C17.9433 78.5266 17.9715 78.5401 18.0008 78.5554C17.9715 78.5401 17.9433 78.526 17.918 78.5142Z" fill="#004E69"/>
</g>
<g opacity="0.35">
<path d="M17.8193 78.4712C17.8379 78.4785 17.8576 78.487 17.8796 78.4972C17.8576 78.487 17.8374 78.4785 17.8193 78.4712Z" fill="#004E69"/>
</g>
<g opacity="0.35">
<path d="M17.7451 78.4463C17.7581 78.4497 17.7716 78.4531 17.7879 78.4593C17.7716 78.4536 17.7575 78.4497 17.7451 78.4463Z" fill="#004E69"/>
</g>
<g opacity="0.35">
<path d="M18.6536 80.6516C18.7815 80.7662 18.9173 80.8837 19.0576 81.0033C18.9173 80.8837 18.7815 80.7657 18.6536 80.6516Z" fill="#004E69"/>
</g>
<g opacity="0.35">
<path d="M74.6865 105.446C73.9463 105.27 73.2094 105.091 72.4775 104.908C73.2094 105.091 73.9463 105.271 74.6865 105.446Z" fill="#004E69"/>
</g>
<g opacity="0.35">
<path d="M94.6931 108.886C92.4892 108.655 90.3044 108.374 88.1416 108.051C90.3044 108.375 92.4892 108.655 94.6931 108.886Z" fill="#004E69"/>
</g>
<g opacity="0.35">
<path d="M43.8382 95.0942C40.8123 93.767 37.9836 92.4269 35.3848 91.1094C37.9842 92.4269 40.8123 93.767 43.8382 95.0942Z" fill="#004E69"/>
</g>
<g opacity="0.35">
<path d="M94.6934 108.886C95.557 108.976 96.424 109.058 97.2933 109.134C96.424 109.059 95.557 108.977 94.6934 108.886Z" fill="#004E69"/>
</g>
<g opacity="0.35">
<path d="M107.044 109.634C106.139 109.62 105.236 109.598 104.336 109.565C105.237 109.597 106.139 109.62 107.044 109.634Z" fill="#004E69"/>
</g>
<g opacity="0.35">
<path d="M160.076 97.3324C142.995 106.606 124.698 109.892 107.084 109.635C124.698 109.892 142.995 106.607 160.076 97.3324C160.195 97.2686 160.268 97.1653 160.298 97.0513C160.268 97.1653 160.195 97.2686 160.076 97.3324Z" fill="#004E69"/>
</g>
<g opacity="0.35">
<path d="M78.535 106.311C77.4229 106.075 76.3193 105.828 75.2246 105.573C76.3198 105.828 77.4235 106.075 78.535 106.311Z" fill="#004E69"/>
</g>
<g opacity="0.35">
<path d="M50.7535 97.957C50.1721 97.7301 49.5969 97.5026 49.0273 97.2734C49.5975 97.5026 50.1727 97.7307 50.7535 97.957Z" fill="#004E69"/>
</g>
<g opacity="0.35">
<path d="M47.6008 96.6932C47.4813 96.6441 47.3624 96.595 47.2441 96.5459C47.363 96.595 47.4819 96.6441 47.6008 96.6932Z" fill="#004E69"/>
</g>
<g opacity="0.35">
<path d="M45.5633 95.8401C45.4658 95.7989 45.3684 95.7571 45.2715 95.7153C45.3684 95.7571 45.4658 95.7983 45.5633 95.8401Z" fill="#004E69"/>
</g>
<g opacity="0.35">
<path d="M54.4208 99.3429C53.7368 99.0929 53.0591 98.8405 52.3887 98.5859C53.0591 98.84 53.7368 99.0923 54.4208 99.3429Z" fill="#004E69"/>
</g>
<g opacity="0.35">
<path d="M61.2424 101.688C60.7207 101.52 60.203 101.35 59.6875 101.18C60.2024 101.351 60.7207 101.52 61.2424 101.688Z" fill="#004E69"/>
</g>
<g opacity="0.35">
<path d="M58.7298 100.859C58.3636 100.735 57.9991 100.61 57.6357 100.485C57.9986 100.61 58.3631 100.734 58.7298 100.859Z" fill="#004E69"/>
</g>
<g opacity="0.35">
<path d="M56.6499 100.142C56.1693 99.9733 55.6916 99.8034 55.2178 99.6323C55.6921 99.8034 56.1693 99.9733 56.6499 100.142Z" fill="#004E69"/>
</g>
<path d="M8.41114 99.6909C13.2398 100.743 18.3339 96.1616 18.3339 96.1616C18.3339 96.1616 15.5987 89.8743 10.7694 88.822C5.94073 87.7698 0.84668 92.3513 0.84668 92.3513C0.84668 92.3513 3.58187 98.6387 8.41114 99.6909Z" fill="#8AC457"/>
<path d="M9.88787 99.9866C9.38646 99.9866 8.88224 99.9375 8.3814 99.8285C3.53805 98.7735 0.745955 92.4714 0.717786 92.4076C0.693561 92.3517 0.707646 92.2868 0.752716 92.2462C0.804547 92.1999 5.95663 87.6297 10.7994 88.6836C15.6428 89.7387 18.4349 96.0407 18.463 96.1045C18.4872 96.1604 18.4732 96.2253 18.4281 96.266C18.3819 96.3077 14.2354 99.9866 9.88787 99.9866ZM8.44112 99.5525C12.8231 100.505 17.5047 96.6843 18.1622 96.1232C17.7965 95.3396 15.1222 89.9137 10.7397 88.9591C6.35831 88.0051 1.67609 91.8273 1.01863 92.3884C1.38426 93.172 4.05861 98.5979 8.44112 99.5525Z" fill="#004E69"/>
<g opacity="0.5">
<path d="M3.69327 92.6419C3.69327 92.6419 7.34677 89.3571 11.398 88.9913C11.1941 88.9241 10.9834 88.866 10.7693 88.8197C5.94002 87.7686 0.847656 92.3523 0.847656 92.3523C0.847656 92.3523 3.58172 98.6403 8.41099 99.6914C9.15014 99.8517 9.8983 99.8816 10.6324 99.815C6.1941 98.3902 3.69384 92.6425 3.69384 92.6425L3.69327 92.6419Z" fill="white"/>
</g>
<g opacity="0.3">
<path d="M18.3345 96.1614C18.3345 96.1614 15.5977 89.8757 10.7695 88.8201C8.97067 88.4267 7.13744 88.8156 5.5459 89.462C5.84843 89.484 6.15491 89.5286 6.45631 89.5946C11.2856 90.6457 14.0196 96.9337 14.0196 96.9337C14.0196 96.9337 12.0112 98.7418 9.31658 99.8239C13.8568 100.189 18.3345 96.162 18.3345 96.162V96.1614Z" fill="#004E69"/>
</g>
<path d="M9.90885 100.696C9.3528 100.696 8.79167 100.641 8.23055 100.519C3.03847 99.388 0.189475 92.9628 0.0706021 92.6896C-0.0753124 92.3549 0.00975742 91.9637 0.281305 91.7198C0.502712 91.5206 5.7562 86.8623 10.9494 87.9924C16.1415 89.1237 18.9905 95.5488 19.1094 95.8215C19.2553 96.1562 19.1702 96.5474 18.8987 96.7913C18.7015 96.9685 14.4992 100.695 9.90885 100.695V100.696ZM8.59055 98.8619C12.1212 99.6318 15.9477 96.9736 17.2795 95.9316C16.5004 94.4294 14.1207 90.4198 10.5894 89.6504C7.05704 88.8787 3.23227 91.5381 1.90045 92.5807C2.6796 94.0828 5.0593 98.0925 8.59055 98.8619Z" fill="#004E69"/>
<path d="M8.5519 93.8317L18.0459 95.2311C18.5096 95.2994 18.8296 95.7312 18.7614 96.1958C18.6932 96.6604 18.2623 96.981 17.7992 96.9127C17.762 96.9071 17.7214 96.8981 17.6865 96.8885L8.47021 94.211C8.36711 94.1811 8.30796 94.0733 8.33782 93.97C8.36486 93.8757 8.45782 93.8176 8.55246 93.8317H8.5519Z" fill="#004E69"/>
<path d="M33.7706 104.585C34.4173 99.6761 29.4388 94.9688 29.4388 94.9688C29.4388 94.9688 23.4118 98.2203 22.765 103.13C22.1182 108.039 27.0968 112.746 27.0968 112.746C27.0968 112.746 33.1238 109.494 33.7706 104.585Z" fill="#8AC457"/>
<path d="M27.0972 112.887C27.0623 112.887 27.0274 112.874 27.0003 112.848C26.9502 112.801 21.9772 108.035 22.6257 103.111C23.2741 98.187 29.3113 94.8768 29.3721 94.844C29.4251 94.8152 29.491 94.8237 29.5355 94.866C29.5856 94.9135 34.5586 99.6795 33.9101 104.604C33.2617 109.527 27.2245 112.837 27.1637 112.87C27.1428 112.881 27.1197 112.887 27.0972 112.887V112.887ZM29.4161 95.1432C28.6668 95.5728 23.4922 98.6928 22.9051 103.148C22.3187 107.603 26.5079 111.961 27.1203 112.571C27.8696 112.141 33.0442 109.021 33.6313 104.566C34.2183 100.11 30.0285 95.7529 29.4161 95.1432Z" fill="#004E69"/>
<g opacity="0.5">
<path d="M33.7705 104.584C33.8172 104.223 33.8353 103.864 33.8257 103.508C32.1558 107.285 27.726 109.672 27.726 109.672C27.726 109.672 23.4522 105.632 23.339 101.133C23.059 101.76 22.8562 102.428 22.7649 103.129C22.1187 108.038 27.0967 112.744 27.0967 112.744C27.0967 112.744 33.1248 109.492 33.771 104.584H33.7705Z" fill="white"/>
</g>
<g opacity="0.3">
<path d="M31.8325 108.783C32.7863 107.593 33.5621 106.178 33.7711 104.584C34.4173 99.6755 29.4393 94.9692 29.4393 94.9692C29.4393 94.9692 23.4112 98.2213 22.765 103.13C22.7239 103.447 22.7047 103.766 22.7098 104.083C24.6934 101.605 27.4455 100.12 27.4455 100.12C27.4455 100.12 31.7965 104.235 31.8325 108.784V108.783Z" fill="#004E69"/>
</g>
<path d="M27.0984 113.593C26.8871 113.593 26.6781 113.514 26.5176 113.361C26.3012 113.157 21.2325 108.296 21.9277 103.018C22.6229 97.739 28.7773 94.3621 29.0392 94.221C29.3604 94.0477 29.7559 94.1002 30.0212 94.3508C30.2375 94.5552 35.3062 99.4167 34.611 104.695C33.9158 109.973 27.7615 113.35 27.5001 113.491C27.3739 113.559 27.2359 113.592 27.099 113.592L27.0984 113.593ZM29.299 96.0393C27.8697 96.9419 24.0781 99.6498 23.6055 103.239C23.1328 106.829 26.0922 110.429 27.2393 111.673C28.6685 110.77 32.4601 108.063 32.9327 104.473C33.4054 100.883 30.446 97.2823 29.299 96.0387V96.0393Z" fill="#004E69"/>
<path d="M27.9316 104.929L28.5373 95.3326C28.5666 94.8641 28.9699 94.5085 29.437 94.5384C29.9046 94.5677 30.2595 94.9719 30.2297 95.4404C30.2274 95.4777 30.2212 95.5195 30.2144 95.555L28.3147 104.98C28.2933 105.085 28.1914 105.153 28.086 105.132C27.9897 105.113 27.9249 105.025 27.9311 104.929L27.9316 104.929Z" fill="#004E69"/>
<path d="M163.734 104.107C159.477 106.614 158.838 113.438 158.838 113.438C158.838 113.438 165.099 116.195 169.356 113.687C173.613 111.179 174.252 104.356 174.252 104.356C174.252 104.356 167.991 101.599 163.734 104.107Z" fill="#8AC457"/>
<path d="M165.045 114.873C161.802 114.873 158.825 113.586 158.781 113.567C158.725 113.542 158.692 113.485 158.698 113.424C158.704 113.356 159.394 106.5 163.663 103.985C167.932 101.469 174.246 104.199 174.309 104.227C174.365 104.251 174.398 104.309 174.392 104.369C174.386 104.438 173.697 111.293 169.427 113.809C168.083 114.601 166.536 114.873 165.045 114.873ZM158.99 113.348C159.789 113.676 165.422 115.841 169.285 113.566C173.147 111.29 173.998 105.304 174.101 104.445C173.303 104.118 167.669 101.952 163.806 104.228C159.944 106.504 159.093 112.49 158.99 113.348Z" fill="#004E69"/>
<g opacity="0.5">
<path d="M163.172 104.389C162.865 104.57 162.579 104.775 162.309 104.997C166.463 103.456 171.718 105.768 171.718 105.768C171.718 105.768 171.165 111.641 167.685 114.491C168.065 114.35 168.437 114.18 168.794 113.969C173.051 111.462 173.69 104.638 173.69 104.638C173.69 104.638 167.428 101.881 163.172 104.388V104.389Z" fill="white"/>
</g>
<g opacity="0.3">
<path d="M163.733 104.108C159.479 106.614 158.839 113.438 158.839 113.438C158.839 113.438 165.099 116.195 169.356 113.688C170.032 113.29 170.616 112.785 171.122 112.215C167.721 112.347 164.484 110.923 164.484 110.923C164.484 110.923 164.936 106.09 167.62 103.064C166.287 103.116 164.931 103.401 163.733 104.108Z" fill="#004E69"/>
</g>
<path d="M165.02 115.591C161.681 115.591 158.682 114.295 158.498 114.214C158.164 114.067 157.962 113.722 157.996 113.358C158.024 113.062 158.729 106.072 163.306 103.376C166.964 101.221 171.849 102.58 173.779 103.265C174.62 103.564 175.123 104.42 174.974 105.302C174.632 107.325 173.444 112.263 169.785 114.418C168.301 115.293 166.621 115.591 165.02 115.591ZM159.767 112.889C161.355 113.463 165.815 114.79 168.928 112.956C171.973 111.162 173.004 106.808 173.306 105.019C173.318 104.95 173.28 104.887 173.214 104.864C171.507 104.258 167.209 103.043 164.164 104.838C161.042 106.676 160.037 111.22 159.767 112.89V112.889Z" fill="#004E69"/>
<path d="M167.595 108.504L159.679 113.926C159.293 114.19 158.765 114.091 158.501 113.704C158.236 113.317 158.335 112.788 158.722 112.523C158.753 112.501 158.789 112.481 158.822 112.464L167.399 108.169C167.495 108.121 167.611 108.16 167.659 108.256C167.703 108.344 167.674 108.45 167.595 108.504Z" fill="#004E69"/>
<path d="M69.2865 85.9229C69.2865 90.6725 62.9463 110.403 68.8048 114.11C75.9586 118.636 83.3433 108.327 82.9653 91.4826" fill="#96C4D4"/>
<path d="M72.2187 115.318C71.0525 115.318 69.8773 114.955 68.7303 114.229C64.3906 111.483 66.5387 100.517 68.1072 92.5101C68.6643 89.6639 69.146 87.206 69.146 85.9224C69.146 85.8445 69.2091 85.7812 69.2869 85.7812C69.3646 85.7812 69.4277 85.8445 69.4277 85.9224C69.4277 87.2337 68.9438 89.704 68.3832 92.5648C66.9179 100.044 64.7038 111.348 68.8807 113.99C70.937 115.292 73.0852 115.377 75.0936 114.238C79.9617 111.477 83.0688 102.333 82.8254 91.4855C82.8237 91.4076 82.8851 91.3427 82.9628 91.341H82.9662C83.0423 91.341 83.1054 91.402 83.1071 91.4787C83.3527 102.428 80.1882 111.673 75.2322 114.483C74.2514 115.04 73.2378 115.318 72.2187 115.318V115.318Z" fill="#004E69"/>
<g opacity="0.3">
<path d="M68.8059 114.11C66.9547 112.939 66.3226 110.17 66.3203 106.78C66.7034 107.609 67.2234 108.268 67.913 108.705C74.1569 112.656 80.5794 105.299 81.8582 92.1565C81.9106 91.6169 82.4656 91.2787 82.9664 91.4831C83.3427 108.328 75.958 118.635 68.8059 114.11Z" fill="#004E69"/>
</g>
<path d="M70.1326 85.9233C70.1253 86.6509 70.0357 87.2939 69.9439 87.9436C69.8492 88.5888 69.7377 89.2222 69.6222 89.8533C69.3906 91.1138 69.141 92.3608 68.8982 93.6066C68.412 96.0967 67.9484 98.581 67.6109 101.072C67.2842 103.556 67.0498 106.066 67.2318 108.493C67.3309 109.695 67.5394 110.894 68.0109 111.89C68.243 112.387 68.5484 112.817 68.9191 113.139L69.0599 113.257L69.2098 113.361C69.3101 113.431 69.4503 113.5 69.5681 113.57C69.8103 113.723 70.0678 113.828 70.323 113.94C70.8385 114.139 71.3692 114.29 71.9067 114.31C72.1748 114.347 72.4424 114.307 72.7106 114.304C72.9748 114.25 73.2447 114.233 73.5027 114.14C74.5551 113.858 75.5123 113.185 76.341 112.373C77.1754 111.557 77.8666 110.565 78.4593 109.513C79.0537 108.46 79.5545 107.341 79.9708 106.185C80.3939 105.032 80.7573 103.851 81.0649 102.649C81.3646 101.445 81.6204 100.226 81.8317 98.9937C82.2536 96.5285 82.4908 94.0227 82.6835 91.4898V91.4875C82.6953 91.3312 82.8317 91.2143 82.9877 91.2262C83.1257 91.2369 83.2328 91.3447 83.2474 91.4774C83.5353 94.0266 83.5562 96.6143 83.3133 99.1907L83.2102 100.157C83.1742 100.478 83.1179 100.798 83.0728 101.119C82.9843 101.761 82.8581 102.4 82.7308 103.038C82.4581 104.311 82.106 105.572 81.6621 106.807C81.2086 108.039 80.6767 109.252 80.0018 110.402C79.3303 111.551 78.5308 112.648 77.5438 113.605C76.5607 114.554 75.3697 115.386 73.9602 115.772C73.6165 115.889 73.2492 115.925 72.8909 115.989C72.5258 116.003 72.1591 116.045 71.7951 116.001C71.0622 115.967 70.354 115.771 69.6915 115.511C69.3647 115.37 69.0363 115.23 68.7382 115.046C68.5833 114.955 68.4374 114.884 68.2768 114.774L68.0363 114.605L67.8109 114.419C67.2222 113.908 66.7884 113.269 66.4836 112.618C65.8695 111.305 65.6594 109.948 65.545 108.627C65.3495 105.977 65.6019 103.393 65.9343 100.844C66.2797 98.2948 66.7501 95.7794 67.238 93.2809C67.4813 92.0317 67.7304 90.7864 67.958 89.5468C68.0712 88.927 68.1799 88.3083 68.2695 87.6963C68.3574 87.0884 68.4368 86.468 68.4402 85.9233V85.9086C68.4436 85.4406 68.825 85.0635 69.2926 85.0669C69.7596 85.0703 70.136 85.4525 70.1326 85.9204V85.9227V85.9233Z" fill="#004E69"/>
<g opacity="0.3">
<path d="M116.185 69.4218C115.024 73.3857 108.827 75.0199 104.265 72.9742C100.514 71.2931 100.048 66.9628 100.034 65.0616C100.029 64.5869 99.5914 64.2369 99.1283 64.3306C99.09 64.339 99.0523 64.3453 99.0117 64.3537C100.482 63.8558 102.066 63.3896 103.697 63.008C107.059 62.2256 110.632 61.8169 113.87 62.3023C115.882 64.549 116.817 67.2603 116.185 69.4224L116.185 69.4218Z" fill="#004E69"/>
</g>
<path d="M101.663 63.372C102.042 63.2952 102.398 63.5809 102.401 63.9676C102.414 65.5166 102.793 69.0435 105.847 70.4124C109.565 72.0788 114.611 70.7466 115.557 67.5183C116.998 62.5987 108.464 54.1786 98.6412 60.2972C95.7207 62.1166 94.8232 65.1349 94.8232 65.1349C94.8232 65.1349 97.5646 64.2786 98.7765 63.9941C99.7105 63.7751 100.901 63.5273 101.664 63.372H101.663Z" fill="#96C4D4"/>
<path d="M109.338 71.2703C108.109 71.2703 106.875 71.0276 105.79 70.541C102.642 69.1297 102.273 65.474 102.261 63.968C102.26 63.8268 102.196 63.6953 102.087 63.6061C101.976 63.5158 101.831 63.4802 101.692 63.5096C101.034 63.6434 99.7847 63.9013 98.8089 64.1305C97.6157 64.4105 94.8929 65.2601 94.8653 65.2691C94.8163 65.2844 94.7617 65.2714 94.7245 65.2347C94.6873 65.198 94.6738 65.1438 94.6884 65.0941C94.6974 65.0631 95.6349 62.0029 98.5673 60.1768C103.258 57.2549 108.394 57.2894 112.306 60.2705C114.964 62.2953 116.356 65.2923 115.693 67.5576C115.327 68.8051 114.331 69.8602 112.888 70.5274C111.817 71.0225 110.58 71.2703 109.338 71.2703ZM101.788 63.2183C101.96 63.2183 102.128 63.277 102.264 63.3877C102.439 63.5299 102.541 63.7405 102.542 63.9663C102.554 65.4176 102.906 68.9395 105.905 70.2836C108.014 71.228 110.708 71.224 112.769 70.2711C114.138 69.6383 115.08 68.6465 115.422 67.4786C116.054 65.3228 114.702 62.4511 112.135 60.4957C108.32 57.5891 103.303 57.5598 98.7154 60.4173C96.369 61.8787 95.3402 64.1554 95.049 64.9174C95.7707 64.6945 97.7644 64.0865 98.7442 63.8567C99.7239 63.627 100.976 63.3679 101.635 63.2341C101.686 63.2239 101.737 63.2189 101.788 63.2189L101.788 63.2183Z" fill="#004E69"/>
<g opacity="0.3">
<path d="M115.701 66.7441C115.678 67.0089 115.631 67.2674 115.558 67.518C114.612 70.7464 109.564 72.0798 105.848 70.4134C102.793 69.0439 102.415 65.5169 102.402 63.9673C102.399 63.5795 102.042 63.2956 101.664 63.3718C100.902 63.5265 99.711 63.7743 98.778 63.9927C97.5656 64.2789 94.8242 65.1353 94.8242 65.1353C94.8242 65.1353 95.1375 64.0842 95.9921 62.8502C96.6986 62.6317 98.7042 62.0193 99.694 61.7884C100.629 61.5699 101.818 61.3221 102.581 61.1652C102.96 61.089 103.315 61.3752 103.319 61.7607C103.332 63.3103 103.711 66.8373 106.766 68.2067C109.873 69.5993 113.909 68.8977 115.701 66.7441Z" fill="#004E69"/>
</g>
<g opacity="0.6">
<path d="M115.625 67.2489C114.707 62.4541 107.157 56.8311 98.6428 62.1363C97.3904 62.9141 96.5127 63.9127 95.916 64.8007C95.2879 64.9915 94.8242 65.1354 94.8242 65.1354C94.8242 65.1354 95.7211 62.1171 98.6428 60.2983C108.289 54.2892 116.694 62.2994 115.625 67.2484V67.2489Z" fill="white"/>
</g>
<path d="M109.34 71.9868C108.019 71.9868 106.693 71.7204 105.503 71.187C102.133 69.6764 101.619 65.9213 101.562 64.2589C100.811 64.413 99.7853 64.6286 98.9701 64.82C97.8017 65.0943 95.1025 65.9366 95.0755 65.945C94.7769 66.0382 94.4518 65.9586 94.2293 65.739C94.0067 65.5188 93.9234 65.1937 94.0129 64.8934C94.0535 64.7573 95.0383 61.5442 98.1955 59.578C103.145 56.4953 108.58 56.5444 112.733 59.709C115.619 61.9077 117.114 65.2174 116.37 67.7576C115.946 69.2039 114.815 70.4158 113.184 71.17C112.005 71.7148 110.675 71.9874 109.34 71.9874V71.9868ZM101.65 62.5434C102.01 62.5434 102.362 62.6647 102.649 62.8945C103.02 63.1908 103.24 63.634 103.251 64.1093C103.289 65.6989 103.721 68.531 106.194 69.6391C108.125 70.5045 110.59 70.5011 112.475 69.6301C113.656 69.0842 114.462 68.2493 114.746 67.2801C115.289 65.4291 114.011 62.8126 111.709 61.0587C108.136 58.3373 103.419 58.322 99.089 61.0181C97.8039 61.8185 96.9464 62.8888 96.4073 63.7694C97.1819 63.5408 98.0304 63.2992 98.5847 63.1694C99.4574 62.9645 100.557 62.7342 101.327 62.5767C101.434 62.5546 101.542 62.5439 101.65 62.5439V62.5434Z" fill="#004E69"/>
<path d="M66.6143 43.348C66.6143 43.348 66.9833 21.3494 84.9127 22.2024C86.973 22.3006 97.2755 23.7328 101.621 31.6764C102.241 32.8105 102.249 34.5536 100.384 34.5768C100.384 34.5768 103.979 38.9375 103.308 43.764C102.637 48.5899 99.7847 46.4544 99.7847 46.4544C99.7847 46.4544 100.344 53.2696 95.0513 52.932L66.6143 43.3485V43.348Z" fill="#96C4D4"/>
<path d="M95.4239 53.0846C95.2988 53.0846 95.1721 53.0807 95.0425 53.0722C95.0301 53.0716 95.0183 53.0688 95.0064 53.0649L66.5694 43.4814C66.5114 43.4616 66.4725 43.4069 66.4737 43.3453C66.4753 43.2341 66.7356 32.1299 73.2252 26.0327C76.2685 23.1735 80.2026 21.8391 84.9192 22.062C88.2324 22.2195 97.714 24.2421 101.744 31.6088C102.088 32.2383 102.339 33.234 101.911 33.9684C101.736 34.2688 101.379 34.6221 100.658 34.7017C101.361 35.645 104.035 39.557 103.447 43.7834C103.205 45.5215 102.653 46.5827 101.804 46.9378C101.062 47.2471 100.311 46.9288 99.9382 46.7193C99.967 47.6011 99.9202 50.3462 98.3591 51.9398C97.6137 52.7008 96.6273 53.0846 95.4222 53.0846H95.4239ZM95.0785 52.7917C96.3647 52.8718 97.3997 52.5167 98.1591 51.7428C99.9072 49.959 99.6475 46.5003 99.6447 46.4659C99.6402 46.4106 99.6684 46.3581 99.7168 46.331C99.7653 46.3039 99.8244 46.3073 99.8695 46.3411C99.8791 46.3485 100.827 47.0439 101.698 46.677C102.448 46.3626 102.943 45.3758 103.169 43.7444C103.824 39.0348 100.311 34.7102 100.276 34.6667C100.241 34.625 100.234 34.5668 100.257 34.5177C100.279 34.4686 100.328 34.4364 100.383 34.4359C101.005 34.4279 101.437 34.223 101.668 33.8262C102.013 33.2346 101.831 32.354 101.497 31.7443C97.5298 24.4911 88.1755 22.499 84.9056 22.3437C80.2668 22.1213 76.4037 23.4332 73.419 26.2376C67.3486 31.9402 66.8004 42.1136 66.7582 43.2477L95.0785 52.7917Z" fill="#004E69"/>
<g opacity="0.6">
<path d="M100.019 46.5997C99.8708 46.5189 99.784 46.4535 99.784 46.4535C99.784 46.4535 100.345 53.2703 95.0517 52.9311L94.415 52.7171C98.7457 50.7132 98.8826 44.603 98.8826 44.603C98.8826 44.603 99.3818 45.6671 100.018 46.5997H100.019Z" fill="white"/>
</g>
<g opacity="0.6">
<path d="M103.309 43.7634C103.155 44.8721 103.206 46.6119 101.256 46.9218C103.963 41.5122 97.2174 33.655 97.2174 33.655C99.0833 33.6318 101.486 35.2237 100.865 34.0896C96.5183 26.1454 86.2158 24.7122 84.1555 24.6145C74.3866 24.1505 69.83 30.4712 67.7061 36.3211C69.4131 29.9643 73.7731 21.6723 84.9127 22.2024C86.973 22.3001 97.2754 23.7328 101.62 31.677C102.24 32.811 102.248 34.5531 100.385 34.5768C100.385 34.5768 103.979 38.937 103.308 43.7634H103.309Z" fill="white"/>
</g>
<path d="M95.4293 53.7919C95.2879 53.7919 95.1443 53.7873 94.9978 53.7777C94.924 53.7732 94.8519 53.7585 94.782 53.7354L66.345 44.1519C65.9957 44.0339 65.7625 43.7031 65.7687 43.334C65.7766 42.8665 66.038 31.8176 72.7433 25.5172C75.9309 22.522 80.0401 21.1215 84.9533 21.3558C85.0762 21.3614 97.3189 22.0478 102.363 31.2689C102.797 32.0603 103.097 33.3355 102.521 34.3245C102.395 34.5413 102.166 34.8382 101.78 35.0686C102.859 36.7175 104.668 40.1344 104.148 43.8798C103.869 45.8832 103.173 47.1313 102.078 47.5891C101.564 47.8037 101.062 47.807 100.627 47.7229C100.543 49.0557 100.184 51.0885 98.8654 52.4342C97.982 53.3357 96.8282 53.7913 95.4305 53.7913L95.4293 53.7919ZM95.2119 52.091C96.2564 52.1396 97.0552 51.8601 97.6564 51.2465C98.9223 49.9544 99.0135 47.3989 98.9414 46.5234C98.9138 46.1909 99.084 45.8736 99.3752 45.7122C99.6659 45.5502 100.025 45.575 100.291 45.7748C100.292 45.7748 100.944 46.2304 101.429 46.0227C101.909 45.8172 102.289 44.9512 102.47 43.6467C103.08 39.2594 99.7651 35.1566 99.7313 35.116C99.5245 34.8642 99.48 34.5154 99.6175 34.2196C99.7549 33.9243 100.048 33.733 100.374 33.729C100.731 33.7245 100.961 33.6376 101.059 33.4699C101.229 33.1781 101.152 32.5825 100.879 32.0841C97.0671 25.1159 88.0322 23.1994 84.8728 23.0493C80.4345 22.8376 76.7466 24.0829 73.9061 26.7484C68.5805 31.7471 67.6487 40.3828 67.4915 42.7486L95.2124 52.0905L95.2119 52.091Z" fill="#004E69"/>
<path d="M51.3198 51.9836C51.3198 51.9836 32.3492 40.9047 23.7898 56.7129C22.8062 58.5295 18.6924 68.1017 23.2225 75.9409C23.8693 77.0597 25.3532 77.9697 26.3391 76.3835C26.3391 76.3835 28.2 81.7236 32.667 83.6486C37.1346 85.5735 36.7886 82.0222 36.7886 82.0222C36.7886 82.0222 42.317 86.0319 44.7706 81.3206L51.3198 51.9836Z" fill="#96C4D4"/>
<path d="M34.9203 84.3622C34.286 84.3622 33.5141 84.1674 32.6116 83.7785C28.6995 82.0929 26.7446 77.7745 26.3041 76.6833C25.8624 77.2602 25.3734 77.3951 25.0291 77.3771C24.1807 77.3635 23.4601 76.6331 23.1013 76.0121C18.8996 68.7414 22.0849 59.5677 23.6663 56.6464C25.9181 52.4878 29.0967 49.8075 33.1142 48.6808C41.6809 46.2772 51.2949 51.8064 51.3912 51.8623C51.4442 51.8934 51.4712 51.9549 51.4577 52.0153L44.9084 81.3523C44.9056 81.3641 44.9017 81.376 44.8961 81.3867C44.2566 82.6145 43.353 83.3738 42.2104 83.6441C40.0409 84.1556 37.6736 82.7743 36.9355 82.2933C36.922 82.7212 36.8048 83.5301 36.1558 84.0049C35.8296 84.2431 35.4172 84.3628 34.9203 84.3628V84.3622ZM26.339 76.2424C26.3441 76.2424 26.3491 76.2424 26.3548 76.243C26.4083 76.2492 26.4545 76.2853 26.4719 76.3367C26.4905 76.3898 28.3655 81.6413 32.7226 83.5188C34.2336 84.1697 35.3327 84.2566 35.9891 83.7762C36.7536 83.2163 36.6493 82.0477 36.6482 82.0359C36.6426 81.9806 36.6702 81.9275 36.7181 81.8998C36.766 81.8727 36.8257 81.8756 36.8707 81.9077C36.8989 81.9281 39.7169 83.9428 42.1451 83.3681C43.1992 83.1186 44.0375 82.4135 44.6363 81.2716L51.1591 52.0548C50.1693 51.5033 41.2003 46.7034 33.188 48.9518C29.2471 50.0576 26.1266 52.6916 23.9131 56.7802C22.352 59.6626 19.2072 68.712 23.3441 75.8699C23.6917 76.4716 24.3486 77.0835 25.0331 77.0943C25.0393 77.0943 25.0455 77.0943 25.0517 77.0943C25.5024 77.0943 25.895 76.8301 26.2196 76.3079C26.2455 76.2662 26.2905 76.2413 26.339 76.2413V76.2424Z" fill="#004E69"/>
<g opacity="0.6">
<path d="M51.3199 51.9831L51.0472 53.2018C45.9385 50.8744 32.391 46.2748 25.533 58.9439C24.5939 60.6775 20.8074 69.4678 24.395 77.0773C23.9212 76.8503 23.4981 76.414 23.2232 75.9409C18.6919 68.1006 22.8063 58.5301 23.7899 56.7136C32.3488 40.9031 51.3199 51.9825 51.3199 51.9825V51.9831Z" fill="white"/>
</g>
<path d="M51.4839 59.468C56.7926 63.914 53.9109 71.966 47.8833 75.3694C41.8557 78.7727 33.3555 78.3702 29.6558 71.7921C26.2592 65.7526 28.1516 57.6289 34.4197 54.6946C39.9442 52.1086 47.2399 55.9139 51.4833 59.468H51.4839Z" fill="#007095"/>
<path d="M39.9597 77.6241C35.7964 77.6241 31.7919 75.8769 29.5333 71.8611C27.7446 68.6813 27.3536 64.8743 28.4601 61.4162C29.4522 58.3154 31.5474 55.883 34.3603 54.5666C39.8003 52.0201 47.0329 55.5567 51.5738 59.3597C53.6239 61.0769 54.6177 63.5014 54.3715 66.1873C54.038 69.8266 51.518 73.479 47.9518 75.4925C45.5225 76.8637 42.7062 77.6246 39.9592 77.6246L39.9597 77.6241ZM38.4583 53.984C37.0713 53.984 35.726 54.2386 34.4792 54.8223C31.7384 56.1054 29.6961 58.478 28.7283 61.5025C27.6455 64.8862 28.0286 68.6113 29.7784 71.7228C33.4403 78.2343 41.824 78.6283 47.8138 75.2464C51.3016 73.2769 53.7659 69.7109 54.0915 66.1614C54.2594 64.329 53.9275 61.699 51.3935 59.5765C47.9659 56.706 42.9901 53.984 38.4589 53.984H38.4583Z" fill="#004E69"/>
<path d="M52.7585 70.5767C51.6373 72.4972 49.9427 74.2053 47.8824 75.3693C41.8554 78.7716 33.3558 78.3708 29.6561 71.7915C26.2589 65.7525 28.1519 57.6283 34.42 54.6946C35.4735 54.2029 36.5884 53.9421 37.7372 53.8682C42.6132 53.5503 48.0475 56.5919 51.483 59.4685C54.9776 62.3938 54.9247 66.881 52.7585 70.5773V70.5767Z" fill="#007095"/>
<path d="M39.9603 77.624C35.7964 77.624 31.7919 75.8768 29.5333 71.861C27.7446 68.6817 27.3536 64.8748 28.4601 61.4172C29.4522 58.3164 31.5474 55.8834 34.3603 54.567C35.3868 54.0877 36.5198 53.8055 37.7276 53.7276C42.598 53.4103 48.0724 56.4293 51.5732 59.3607C54.8019 62.063 55.3146 66.4943 52.8797 70.6496C51.7219 72.6327 49.9715 74.3527 47.9512 75.4935C45.5225 76.8647 42.7062 77.6251 39.9597 77.6251L39.9603 77.624ZM38.4471 53.9861C38.2121 53.9861 37.9783 53.9935 37.7462 54.0087C36.5733 54.0844 35.4741 54.3581 34.4798 54.8222C31.739 56.1047 29.6967 58.4773 28.7288 61.5024C27.646 64.886 28.0291 68.6106 29.7795 71.7221C33.4415 78.2336 41.8245 78.6271 47.8143 75.2463C49.7918 74.1297 51.505 72.4458 52.638 70.5056C54.9996 66.4757 54.5112 62.1855 51.3935 59.5764C48.1022 56.821 43.0527 53.9861 38.4476 53.9861H38.4471Z" fill="#004E69"/>
<g opacity="0.3">
<path d="M52.7586 70.5768C47.362 72.0332 41.295 70.7338 38.3226 65.4517C36.2793 61.8164 36.1503 57.4268 37.7367 53.8677C42.6128 53.5499 48.0471 56.5914 51.4826 59.4681C54.9772 62.3933 54.9242 66.8805 52.758 70.5768H52.7586Z" fill="#004E69"/>
</g>
<path d="M39.9558 78.3301C35.5592 78.3301 31.3175 76.4735 28.9186 72.2081C27.0342 68.8573 26.6223 64.8454 27.7885 61.2004C28.8415 57.9105 31.0691 55.3274 34.0617 53.9263C39.8025 51.2393 47.3264 54.882 52.0261 58.8177C54.2593 60.6878 55.3421 63.3286 55.074 66.2515C54.7202 70.115 52.0605 73.984 48.2982 76.1077C45.7647 77.5381 42.8273 78.3301 39.9558 78.3301ZM38.4786 54.6844C37.1839 54.6844 35.9338 54.9209 34.7778 55.4623C32.2172 56.6613 30.3068 58.8826 29.3998 61.7181C28.3767 64.9148 28.7389 68.4345 30.393 71.3755C33.8381 77.5026 41.78 77.8418 47.4678 74.6304C50.7602 72.7721 53.0841 69.4218 53.3889 66.0963C53.5416 64.4322 53.2407 62.0443 50.941 60.1183C47.6166 57.3342 42.807 54.685 38.4791 54.685L38.4786 54.6844Z" fill="#004E69"/>
<path d="M72.1921 47.7754C73.2377 54.6284 81.6044 56.3298 87.6314 52.9265C93.6584 49.5231 97.7186 42.0294 94.0195 35.4513C90.6229 29.4117 82.708 26.8252 76.956 30.6779C71.8867 34.0728 71.356 42.2975 72.1921 47.7754Z" fill="#007095"/>
<path d="M81.189 54.7692C79.496 54.7692 77.8555 54.4265 76.4307 53.7316C74.011 52.5512 72.4561 50.444 72.0521 47.797C71.1581 41.9358 71.8848 33.9047 76.8769 30.5606C79.4577 28.8321 82.6194 28.297 85.7799 29.0523C89.305 29.8951 92.3529 32.2022 94.141 35.3826C97.8897 42.0487 93.8098 49.6006 87.6994 53.0503C85.6825 54.1889 83.3912 54.7692 81.1884 54.7692H81.189ZM72.3305 47.7547C72.8296 51.026 74.9028 52.6726 76.5541 53.4782C79.7529 55.0384 84.0735 54.7731 87.5619 52.8047C93.5517 49.4228 97.5585 42.0335 93.8965 35.5214C92.1467 32.4094 89.1647 30.1519 85.7152 29.3272C82.6312 28.5894 79.5484 29.1116 77.0335 30.796C72.1513 34.0656 71.4488 41.9754 72.3305 47.7547Z" fill="#004E69"/>
<path d="M87.632 52.9265C85.3599 54.2113 82.7537 54.7684 80.334 54.5946C76.3358 54.3146 72.8434 52.0447 72.1916 47.7754C71.4721 43.0573 71.7662 36.302 75.1025 32.3505C75.6377 31.7126 76.2535 31.1487 76.9577 30.6779C82.7098 26.8246 90.6235 29.4106 94.0207 35.4513C97.7204 42.0288 93.659 49.5237 87.632 52.9253V52.9265Z" fill="#007095"/>
<path d="M81.2086 54.7665C80.9122 54.7665 80.617 54.7558 80.3229 54.7349C75.8261 54.4199 72.6565 51.7617 72.0514 47.7966C71.2988 42.8612 71.6768 36.1883 74.994 32.2594C75.5511 31.5955 76.1849 31.0243 76.8785 30.5608C79.4593 28.8323 82.6198 28.2955 85.7809 29.0513C89.306 29.8936 92.3538 32.2018 94.1426 35.3827C95.8682 38.4508 96.0321 42.0201 94.6028 45.4342C93.3076 48.5282 90.7922 51.3039 87.7004 53.0493C85.7201 54.1687 83.4452 54.7665 81.2086 54.7665ZM82.9928 29C80.8576 29 78.8058 29.6096 77.0351 30.7962C76.3635 31.2444 75.7494 31.7982 75.2097 32.4417C71.9534 36.2989 71.5872 42.8804 72.3303 47.7543C72.9145 51.5816 75.9849 54.1489 80.3432 54.4538C82.8046 54.6316 85.3674 54.0445 87.5623 52.8037C90.6006 51.0888 93.0721 48.3628 94.3437 45.3253C95.3302 42.9679 96.0535 39.354 93.8975 35.521C92.1471 32.4084 89.1646 30.1498 85.7156 29.3257C84.8035 29.1078 83.8902 28.9994 82.9928 28.9994V29Z" fill="#004E69"/>
<g opacity="0.3">
<path d="M80.3331 54.5947C76.3348 54.3147 72.8424 52.0448 72.1906 47.7755C71.4711 43.0574 71.7652 36.3021 75.1015 32.3506C78.8204 32.9377 82.3235 35.282 84.2975 38.7943C87.475 44.4433 84.9319 50.764 80.3331 54.5941V54.5947Z" fill="#004E69"/>
</g>
<path d="M81.1881 55.4728C79.3887 55.4728 77.6417 55.1075 76.1228 54.3669C73.4885 53.0821 71.7955 50.7869 71.3555 47.904C70.4299 41.8373 71.2181 33.5014 76.4856 29.9732C79.2315 28.1341 82.5904 27.5628 85.9447 28.3644C89.6602 29.2529 92.872 31.6837 94.7565 35.0351C98.7221 42.0863 94.459 50.0451 88.0467 53.6653C85.9261 54.8626 83.5126 55.4728 81.1876 55.4728H81.1881ZM73.0288 47.6471C73.4817 50.6158 75.3645 52.1106 76.8637 52.8422C79.8603 54.3031 83.9239 54.0469 87.2163 52.188C92.9036 48.9771 96.7278 41.9937 93.2827 35.8672C91.6286 32.9261 88.8112 30.7923 85.5526 30.0133C82.6625 29.3224 79.7769 29.8084 77.427 31.3822C72.8203 34.4678 72.1786 42.0727 73.0293 47.6466L73.0288 47.6471Z" fill="#004E69"/>
<path d="M34.9257 85.0662C34.1865 85.0662 33.3201 84.8534 32.3319 84.4278C28.8649 82.9336 26.8852 79.6132 26.0362 77.8339C25.639 78.0456 25.2683 78.0919 25.017 78.0839C23.8739 78.0653 22.9415 77.1469 22.4897 76.3662C17.2306 67.2659 22.9866 56.4179 23.0458 56.3095C25.3917 51.9765 28.715 49.1811 32.9229 48.0001C41.7752 45.5163 51.3425 51.0162 51.7453 51.2516C52.0636 51.4379 52.2253 51.8088 52.1447 52.1689L45.5955 81.5059C45.5791 81.5782 45.5538 81.6476 45.52 81.7131C44.7814 83.1311 43.7223 84.0117 42.3707 84.3313C40.5386 84.7637 38.6181 84.0191 37.4367 83.401C37.2834 83.8176 37.0198 84.2466 36.5708 84.5751C36.1229 84.9031 35.573 85.0668 34.9251 85.0668L34.9257 85.0662ZM26.3387 75.5358C26.3697 75.5358 26.4007 75.5375 26.4322 75.5409C26.7562 75.5764 27.0305 75.796 27.1376 76.1043C27.155 76.1534 28.9393 81.1198 33.0012 82.8698C34.2091 83.3902 35.1443 83.5139 35.5691 83.209C35.9984 82.9003 35.9465 82.106 35.946 82.0987C35.9195 81.769 36.0862 81.4501 36.3741 81.2875C36.662 81.1255 37.0175 81.1424 37.2851 81.336C37.3099 81.3541 39.88 83.1808 41.9876 82.6801C42.8203 82.482 43.4699 81.9395 43.9701 81.0233L50.3549 52.4252C48.2541 51.3341 40.3983 47.6592 33.373 49.6349C29.626 50.6883 26.6525 53.2059 24.5342 57.1179C23.0255 59.9037 19.981 68.6399 23.9556 75.5166C24.2396 76.0083 24.7083 76.3831 25.0452 76.3888C25.2351 76.3933 25.4322 76.2397 25.621 75.9355C25.7765 75.6854 26.0491 75.5358 26.3393 75.5358H26.3387Z" fill="#004E69"/>
<path d="M58.2301 43.9523C72.8311 35.7083 92.5363 43.5074 99.054 55.0971C106.08 67.5912 97.2309 79.3672 82.7454 87.5457C68.2599 95.7241 53.6233 97.2087 46.5969 84.7147C40.0792 73.125 43.629 52.1956 58.2301 43.9523Z" fill="#96C4D4"/>
<path d="M62.4935 94.0317C62.284 94.0317 62.0766 94.0289 61.8704 94.0238C54.9995 93.8415 49.8198 90.7328 46.4745 84.7841C43.2221 79.0008 42.4306 70.8737 44.3573 63.0447C46.4627 54.4903 51.3646 47.6661 58.1606 43.8292C72.7577 35.5875 92.5345 43.2161 99.1767 55.0277C102.522 60.9764 102.493 67.0261 99.0888 73.0092C96.0899 78.2811 90.4624 83.3503 82.8145 87.6681C75.4275 91.8387 68.4186 94.0312 62.4935 94.0312V94.0317ZM71.7115 40.6556C66.9008 40.6556 62.3217 41.8038 58.2992 44.0753C51.5714 47.8738 46.7173 54.6348 44.6306 63.113C42.7207 70.8737 43.5016 78.9235 46.7196 84.6458C50.0131 90.5019 55.1127 93.5621 61.8778 93.7416C67.8783 93.9025 75.0726 91.7156 82.6765 87.4226C90.2798 83.1296 95.8708 78.0971 98.8449 72.8698C102.196 66.9793 102.225 61.0227 98.9322 55.1666C95.7142 49.4442 89.2466 44.6054 81.632 42.222C78.2872 41.1755 74.9475 40.6561 71.7126 40.6561L71.7115 40.6556Z" fill="#004E69"/>
<g opacity="0.6">
<path d="M100.905 68.3322C101.273 64.9153 100.569 61.3669 98.54 57.7614C92.0223 46.1712 72.3171 38.3732 57.7166 46.6165C50.2744 50.8175 45.7032 58.3169 43.8711 66.1933C45.2226 57.3776 49.9511 48.6256 58.2287 43.9521C72.8315 35.7087 92.5367 43.5067 99.0544 55.097C101.614 59.6502 102.066 64.1075 100.905 68.3322Z" fill="white"/>
</g>
<g opacity="0.3">
<path d="M100.127 70.5851C97.4292 77.0497 91.0027 82.881 82.7442 87.5443C68.2598 95.7239 53.6233 97.208 46.5957 84.7145C41.7873 76.1618 42.4577 62.524 49.0092 52.6504C44.7506 61.911 44.8228 73.0666 48.9692 80.4412C55.9968 92.9341 70.6333 91.4506 85.1177 83.2711C91.5126 79.6611 96.8095 75.35 100.127 70.5851Z" fill="#004E69"/>
</g>
<path d="M86.3087 75.1752C88.3183 78.7485 85.7859 82.621 81.3763 85.111C76.9668 87.601 72.3493 87.7653 70.3398 84.192C68.3302 80.6187 71.1409 77.2419 75.551 74.7519C79.9611 72.2619 84.2991 71.602 86.3093 75.1752H86.3087Z" fill="white"/>
<path d="M62.4918 94.7385C62.2771 94.7385 62.0636 94.7356 61.8518 94.73C54.716 94.5409 49.3352 91.3108 45.8597 85.1307C42.5212 79.1944 41.7037 70.8748 43.6727 62.8753C45.8248 54.1296 50.8473 47.1467 57.8152 43.2127C72.7525 34.7791 92.993 42.5901 99.7918 54.6799C103.267 60.8601 103.237 67.1446 99.7022 73.3586C96.6397 78.7417 90.9197 83.9029 83.1609 88.2834C75.668 92.5138 68.5396 94.7379 62.4918 94.7379V94.7385ZM58.6456 44.6906C52.089 48.3926 47.3549 54.9944 45.3155 63.2812C43.4474 70.872 44.2017 78.7287 47.3341 84.2981C50.4969 89.9227 55.3966 92.8621 61.8963 93.0348C67.7683 93.1866 74.8376 91.0365 82.3299 86.8067C89.8223 82.5763 95.3208 77.6364 98.2318 72.5198C101.451 66.8601 101.48 61.1378 98.3169 55.5131C95.1851 49.9438 88.8685 45.2268 81.4206 42.896C73.2906 40.3513 65.2016 40.9886 58.645 44.6906H58.6456Z" fill="#004E69"/>
<path d="M88.5109 58.8857C89.1024 59.3249 89.4557 59.9713 89.6912 60.63C89.9176 61.2973 90.0072 62.0159 89.9424 62.7396C89.876 63.4604 89.6529 64.1926 89.2534 64.8333C88.8596 65.4751 88.3047 66.0204 87.6788 66.4094C87.0557 66.7915 86.3408 67.0653 85.587 67.1427C84.8349 67.2217 84.067 67.0969 83.396 66.8057C82.054 66.2158 81.0659 65.067 80.6918 63.7653C80.6484 63.6134 80.7357 63.4554 80.8867 63.4119C81.0056 63.3774 81.129 63.4243 81.1971 63.5197L81.2039 63.5293C81.8946 64.4974 82.8535 65.216 83.8704 65.4875C84.8867 65.7709 85.8996 65.5581 86.7774 64.9863C87.6377 64.4167 88.2196 63.5688 88.4523 62.5217C88.57 62.0023 88.6061 61.4446 88.5554 60.8874C88.5075 60.3292 88.3684 59.7743 88.1092 59.2826L88.0906 59.2476C88.0174 59.1087 88.0703 58.936 88.2089 58.8632C88.3086 58.8101 88.4258 58.8231 88.5109 58.8863V58.8857Z" fill="#004E69"/>
<path d="M56.4566 76.9074C56.7423 77.3844 57.1445 77.7908 57.5958 78.121C58.0454 78.453 58.5406 78.7109 59.0442 78.8797C60.0589 79.2224 61.0837 79.1631 62.0161 78.7205C62.9586 78.2644 63.6651 77.5069 63.9496 76.4891C64.2442 75.4769 64.1276 74.283 63.6589 73.1896L63.6544 73.1789C63.5924 73.0338 63.6594 72.8661 63.8036 72.8035C63.9174 72.7544 64.0459 72.786 64.1253 72.8723C65.0425 73.867 65.5118 75.3093 65.3197 76.7651C65.2205 77.4911 64.9298 78.2142 64.4724 78.8176C64.0155 79.4233 63.4115 79.8947 62.7625 80.2306C62.1056 80.5659 61.3535 80.7589 60.6009 80.764C59.8471 80.7748 59.1068 80.5862 58.4566 80.2701C57.8054 79.9506 57.2386 79.5018 56.7862 78.9622C56.3457 78.4191 55.9772 77.7812 55.9085 77.0474C55.8938 76.891 56.0088 76.7521 56.1648 76.7375C56.2769 76.7267 56.38 76.7838 56.4347 76.8741L56.455 76.9085L56.4566 76.9074Z" fill="#004E69"/>
<path d="M69.8435 65.3254C70.1759 64.9867 70.6024 64.7463 71.0638 64.6368C73.9849 63.9424 78.2097 66.4923 80.3545 69.0585C82.3314 71.4237 84.4451 75.6309 78.3708 79.0603C72.297 82.4896 69.8002 78.4992 68.8052 75.579C67.7258 72.4116 67.7371 67.4694 69.8435 65.3254Z" fill="#004E69"/>
<path d="M50.4619 53.4483C49.2952 49.4991 52.8856 35.8947 58.1255 38.1148C58.8968 38.4417 60.4838 39.7852 59.5143 41.7863C58.6303 43.6119 58.0219 45.5651 58.2101 45.1428C59.1193 43.0999 63.7317 36.7634 66.539 39.2179C67.8765 40.3869 66.9255 42.9932 65.4624 44.2594" fill="#96C4D4"/>
<path d="M50.4615 53.5893C50.4007 53.5893 50.3443 53.5497 50.3263 53.4882C49.4373 50.4789 51.3043 41.7308 54.6322 38.7514C55.7736 37.7285 56.9668 37.4706 58.1798 37.9843C58.6141 38.1689 59.4451 38.7334 59.8001 39.68C60.0581 40.3676 60.004 41.0969 59.6406 41.8477C59.3099 42.5302 59.0226 43.22 58.8012 43.7958C60.0271 41.8703 62.3572 39.0591 64.4902 38.5883C65.3076 38.4082 66.0282 38.5838 66.6316 39.111C67.0839 39.5067 67.3223 40.0853 67.32 40.7853C67.3172 41.9967 66.591 43.4684 65.5544 44.3654C65.4958 44.4167 65.4068 44.41 65.3555 44.3512C65.3048 44.2925 65.311 44.2028 65.3702 44.152C66.3493 43.3047 67.0355 41.9194 67.0383 40.7842C67.04 40.1683 66.8349 39.6631 66.4462 39.3233C65.9138 38.8575 65.2761 38.7029 64.5504 38.8632C61.9454 39.4384 59.013 43.6829 58.3381 45.1991C58.3116 45.2584 58.2789 45.3318 58.1905 45.3402C58.1403 45.3476 58.0896 45.3216 58.0603 45.2798C57.9375 45.1026 58.8868 42.7565 59.3871 41.7235C59.7155 41.045 59.7663 40.3907 59.5364 39.7782C59.2141 38.9196 58.4367 38.3986 58.0699 38.2434C56.9668 37.776 55.8733 38.0176 54.8198 38.9608C51.5567 41.8827 49.7252 50.458 50.5962 53.4075C50.6181 53.482 50.5759 53.5605 50.501 53.5831C50.4874 53.587 50.4739 53.5887 50.461 53.5887L50.4615 53.5893Z" fill="#004E69"/>
<g opacity="0.6">
<path d="M58.2099 44.8602L58.0302 45.8029C57.9744 46.0964 58.1649 46.3798 58.4567 46.4391C59.0161 46.552 59.5761 46.2612 59.8127 45.7408C60.4488 44.3425 62.0702 41.5804 64.5079 40.7664C64.5079 40.7664 66.4865 39.5206 66.8352 42.049L67.1794 39.4105L66.2803 38.3701L64.1423 38.553L61.5507 40.0614L60.4882 41.4613L58.2105 44.8607L58.2099 44.8602Z" fill="white"/>
</g>
<g opacity="0.6">
<path d="M59.534 39.5261C59.5531 39.534 59.5746 39.5458 59.5943 39.5549C59.2427 38.799 58.5565 38.2977 58.1255 38.1148C52.8856 35.8947 49.2952 49.4991 50.4619 53.4483L51.6518 52.7195C51.7346 47.4319 55.023 37.6147 59.534 39.5261Z" fill="white"/>
</g>
<path d="M50.4616 54.2967C50.0965 54.2967 49.7596 54.0579 49.6509 53.6893C48.6942 50.4507 50.6018 41.4137 54.1635 38.2248C55.8615 36.7046 57.4345 36.9005 58.4559 37.3341C59.1246 37.6174 60.0508 38.3372 60.4615 39.4317C60.568 39.7162 60.6328 40.0092 60.6553 40.3073C61.7849 39.1489 63.0778 38.1768 64.3386 37.8986C65.3713 37.6705 66.3251 37.9053 67.0958 38.5793C67.7065 39.1134 68.0282 39.8771 68.0259 40.7882C68.0226 42.2113 67.2147 43.8647 66.0158 44.9017C65.6626 45.2077 65.1279 45.1687 64.8226 44.8142C64.5172 44.4597 64.5561 43.924 64.9099 43.6181C65.7195 42.9175 66.3313 41.6993 66.3336 40.7837C66.3347 40.3728 66.2164 40.0611 65.9831 39.8568C65.6186 39.5379 65.2119 39.4425 64.7032 39.5542C62.4857 40.0436 59.6525 43.9844 58.9832 45.4877C58.7854 45.9319 58.4435 46.0273 58.257 46.0448C57.9522 46.0731 57.6553 45.9348 57.4812 45.683C57.1984 45.2743 57.3145 44.9616 57.7454 43.7976C57.9618 43.2144 58.3116 42.3276 58.7533 41.4154C58.9978 40.9107 59.0384 40.4569 58.8767 40.0273C58.6576 39.443 58.0976 39.0225 57.7962 38.8949C57.2593 38.6674 56.4153 38.4811 55.2908 39.4882C52.2897 42.1752 50.4514 50.4242 51.2734 53.2072C51.4058 53.656 51.1506 54.1279 50.7021 54.2611C50.6221 54.2848 50.541 54.2961 50.4616 54.2961V54.2967Z" fill="#004E69"/>
<g opacity="0.7">
<path d="M70.3795 70.9086C69.317 71.9964 70.3328 74.9109 71.4009 76.0816C72.5074 77.2948 73.3958 77.809 74.0432 77.192C74.9474 76.3306 74.4105 75.0718 73.442 73.8942C72.7575 73.0616 71.6905 69.5656 70.3795 70.908V70.9086Z" fill="white"/>
<path d="M73.4227 77.5957C73.4103 77.5957 73.3979 77.5957 73.385 77.5957C72.8244 77.576 72.1608 77.1255 71.2965 76.1777C70.2616 75.0431 69.1202 71.997 70.2785 70.811C70.5388 70.5446 70.8143 70.43 71.0988 70.474C71.8402 70.5869 72.4272 71.7357 72.9456 72.749C73.1686 73.1847 73.3794 73.5968 73.5506 73.8057C75.0943 75.6838 74.723 76.74 74.1399 77.296C73.9303 77.4958 73.6892 77.5963 73.4227 77.5963V77.5957ZM70.4797 71.008C69.5112 71.9999 70.4329 74.8128 71.5044 75.9875C72.3033 76.863 72.9213 77.2966 73.3946 77.3135C73.6019 77.3259 73.781 77.248 73.9455 77.0911C74.6678 76.403 74.4616 75.3581 73.3332 73.9852C73.1422 73.7526 72.9348 73.3473 72.6948 72.8771C72.2317 71.9716 71.6554 70.8438 71.0565 70.7529C70.865 70.723 70.6763 70.8071 70.4797 71.008Z" fill="#004E69"/>
</g>
<path d="M101.271 97.1138C108.294 97.4525 112.749 94.2828 114.717 101.158C115.037 102.277 115.017 103.87 115.892 106.39C117.921 112.233 126.571 113.578 130.928 111.114C139.211 106.43 129.206 98.7474 129.206 98.7474C129.206 98.7474 132.24 77.7927 111.74 85.5206" fill="#96C4D4"/>
<path d="M125.892 112.434C124.31 112.434 122.671 112.153 121.167 111.583C118.479 110.566 116.559 108.738 115.76 106.436C115.191 104.799 115 103.564 114.846 102.572C114.764 102.043 114.693 101.586 114.582 101.197C113.192 96.3454 110.547 96.6108 106.545 97.0155C104.989 97.1719 103.226 97.3508 101.264 97.2554C101.186 97.252 101.127 97.1854 101.13 97.1075C101.134 97.0296 101.202 96.967 101.278 96.9737C103.218 97.0657 104.971 96.8907 106.517 96.7349C110.512 96.3319 113.399 96.0412 114.853 101.12C114.969 101.526 115.041 101.99 115.124 102.529C115.276 103.51 115.466 104.731 116.026 106.344C116.797 108.566 118.658 110.332 121.267 111.319C124.497 112.542 128.351 112.411 130.859 110.992C132.867 109.857 133.944 108.447 134.059 106.801C134.331 102.91 129.172 98.9004 129.12 98.8603C129.079 98.8292 129.059 98.7784 129.066 98.7282C129.079 98.6379 130.313 89.6697 125.474 85.769C122.516 83.3846 117.911 83.3462 111.789 85.6533C111.716 85.6815 111.635 85.6437 111.608 85.5709C111.58 85.498 111.617 85.4168 111.69 85.3891C117.912 83.0436 122.609 83.0978 125.651 85.5494C130.364 89.3485 129.47 97.7629 129.356 98.6864C129.99 99.1866 134.609 102.974 134.34 106.821C134.218 108.567 133.093 110.053 130.997 111.239C129.594 112.032 127.783 112.434 125.892 112.434V112.434Z" fill="#004E69"/>
<g opacity="0.6">
<path d="M132.868 109.932C134.266 101.018 126.903 102.645 126.903 102.645C126.903 102.645 131.723 82.2849 112.527 86.2623C112.096 86.3515 111.769 85.8835 112.02 85.5206C132.521 77.7943 129.487 98.7473 129.487 98.7473C129.487 98.7473 137.946 105.244 132.867 109.933L132.868 109.932Z" fill="white"/>
</g>
<g opacity="0.3">
<path d="M130.928 111.115C126.57 113.578 117.92 112.232 115.891 106.39C115.017 103.87 115.036 102.276 114.717 101.159C112.747 94.283 108.295 97.4521 101.271 97.1151L104.616 93.4097C110.415 93.1851 114.165 91.2962 115.925 97.4476C116.245 98.567 116.226 100.159 117.102 102.679C119.131 108.522 127.781 109.869 132.136 107.404C133.001 106.914 133.668 106.393 134.165 105.85C134.412 107.675 133.678 109.559 130.928 111.115H130.928Z" fill="#004E69"/>
</g>
<path d="M101.311 96.2668C102.396 96.3142 103.487 96.2876 104.589 96.2007C105.691 96.1206 106.802 95.9817 107.957 95.8897C108.536 95.8456 109.127 95.814 109.74 95.8321C110.351 95.8513 110.991 95.9213 111.631 96.1166C112.271 96.3057 112.901 96.6512 113.409 97.1079C113.922 97.5623 114.316 98.1053 114.626 98.6597C114.938 99.2163 115.157 99.7898 115.355 100.362C115.442 100.65 115.54 100.925 115.613 101.254C115.684 101.565 115.732 101.859 115.777 102.143C115.945 103.273 116.13 104.311 116.446 105.35C116.522 105.608 116.608 105.865 116.695 106.12C116.789 106.351 116.869 106.589 116.987 106.81C117.087 107.039 117.223 107.25 117.347 107.466C117.491 107.672 117.625 107.883 117.789 108.074C118.104 108.466 118.461 108.829 118.86 109.149C119.255 109.471 119.68 109.766 120.135 110.013C121.951 111.022 124.108 111.482 126.215 111.431C127.27 111.407 128.318 111.237 129.291 110.914C129.779 110.744 130.23 110.545 130.667 110.279C131.114 110.012 131.541 109.722 131.909 109.39L132.185 109.141L132.426 108.87C132.601 108.698 132.709 108.492 132.852 108.305C133.082 107.904 133.246 107.482 133.321 107.036C133.451 106.143 133.233 105.167 132.783 104.249C132.343 103.327 131.705 102.461 131.002 101.654C130.647 101.251 130.272 100.862 129.881 100.489C129.495 100.119 129.07 99.7492 128.675 99.4404C128.421 99.2428 128.305 98.934 128.34 98.6365L128.343 98.6207C128.406 98.0923 128.447 97.4979 128.463 96.9306C128.477 96.3571 128.481 95.7819 128.451 95.2095C128.406 94.0652 128.281 92.9255 128.032 91.827C127.779 90.7313 127.438 89.6633 126.926 88.7002C126.42 87.7349 125.741 86.8876 124.914 86.2243C124.088 85.5588 123.106 85.0835 122.04 84.8182C121.777 84.7431 121.499 84.7115 121.229 84.6545C121.092 84.6324 120.958 84.5952 120.818 84.5845L120.399 84.5517L119.979 84.5178C119.839 84.5049 119.699 84.4896 119.557 84.4964L118.703 84.502C118.418 84.4919 118.132 84.5359 117.846 84.5585L116.984 84.6353C116.413 84.7324 115.837 84.8114 115.263 84.9232C114.694 85.0536 114.117 85.1653 113.547 85.3121C112.982 85.4758 112.413 85.6316 111.84 85.784L111.824 85.788C111.674 85.828 111.519 85.7383 111.479 85.5876C111.442 85.4498 111.514 85.3093 111.641 85.2551C112.192 85.018 112.748 84.7843 113.307 84.5591C113.871 84.344 114.449 84.1633 115.022 83.9635C115.602 83.7851 116.199 83.6542 116.789 83.4972L117.697 83.3392C118.001 83.2923 118.302 83.2251 118.614 83.2116L119.543 83.1371C119.853 83.1066 120.17 83.1371 120.483 83.1371L120.955 83.1489C121.113 83.1523 121.27 83.1839 121.428 83.2003C121.743 83.2466 122.061 83.268 122.375 83.3369C123.637 83.5723 124.871 84.1148 125.932 84.8972C126.996 85.6841 127.842 86.7335 128.467 87.8619C129.092 88.9949 129.522 90.208 129.789 91.4363C130.063 92.6653 130.195 93.9066 130.241 95.1434C130.265 95.7627 130.253 96.3802 130.23 96.9984C130.203 97.6221 130.158 98.2182 130.07 98.8725L129.737 98.0534C130.228 98.4452 130.646 98.8285 131.075 99.2405C131.499 99.6498 131.905 100.077 132.294 100.524C133.065 101.423 133.78 102.396 134.31 103.518C134.849 104.62 135.193 105.941 134.994 107.297C134.884 107.969 134.635 108.613 134.296 109.19C134.105 109.457 133.933 109.748 133.708 109.978C133.601 110.099 133.494 110.222 133.384 110.339L133.033 110.659C132.562 111.083 132.05 111.429 131.528 111.74C131.001 112.061 130.415 112.322 129.836 112.52C128.667 112.909 127.462 113.098 126.262 113.127C123.867 113.18 121.452 112.677 119.312 111.495C118.776 111.202 118.268 110.852 117.789 110.461C117.307 110.074 116.866 109.628 116.473 109.14C116.271 108.901 116.099 108.637 115.921 108.378C115.762 108.105 115.594 107.838 115.465 107.55C115.318 107.27 115.214 106.972 115.098 106.679C115.002 106.398 114.91 106.12 114.826 105.836C114.481 104.709 114.27 103.515 114.107 102.41C114.064 102.135 114.02 101.872 113.965 101.632C113.916 101.408 113.827 101.149 113.75 100.897C113.579 100.402 113.392 99.9157 113.149 99.4855C112.664 98.6156 112.017 97.9919 111.134 97.7378C110.251 97.4686 109.177 97.4979 108.089 97.5803C106.995 97.6673 105.865 97.8078 104.717 97.8914C103.57 97.9817 102.401 98.0122 101.231 97.9603C100.764 97.9394 100.402 97.5437 100.423 97.0757C100.444 96.6077 100.839 96.2453 101.306 96.2662H101.312L101.311 96.2668Z" fill="#004E69"/>
<path d="M124 103.974C125.063 103.231 126.027 102.41 126.78 101.502C127.163 101.051 127.451 100.558 127.722 100.083C127.997 99.6019 128.157 99.099 128.374 98.5858L128.419 98.4797C128.602 98.0496 129.098 97.8492 129.527 98.0321C129.879 98.1822 130.077 98.5452 130.036 98.9082C130.014 99.0933 129.981 99.2785 129.946 99.4636C129.926 99.5556 129.909 99.6488 129.886 99.7397C129.857 99.8289 129.823 99.9164 129.791 100.005C129.725 100.181 129.665 100.361 129.58 100.527C129.491 100.691 129.403 100.856 129.305 101.015C128.907 101.643 128.394 102.178 127.832 102.61C127.269 103.044 126.663 103.39 126.034 103.66C125.401 103.922 124.756 104.124 124.077 104.204C124.01 104.212 123.948 104.163 123.94 104.095C123.935 104.048 123.956 104.004 123.992 103.979L123.999 103.974H124Z" fill="#004E69"/>
<path d="M81.937 82.4418C82.9544 82.4418 83.7792 81.5158 83.7792 80.3735C83.7792 79.2312 82.9544 78.3052 81.937 78.3052C80.9195 78.3052 80.0947 79.2312 80.0947 80.3735C80.0947 81.5158 80.9195 82.4418 81.937 82.4418Z" fill="#004E69"/>
<path d="M39.6716 31.8586C39.364 31.8586 39.0812 31.6836 38.9437 31.4048C38.799 31.1107 38.8446 30.7579 39.0598 30.5106L41.9877 27.1473L39.4367 27.3082C38.9911 27.3359 38.6035 26.996 38.5759 26.5473C38.5477 26.099 38.8874 25.7124 39.3353 25.6847L43.8271 25.4019C44.1499 25.3787 44.4609 25.5594 44.6062 25.8541C44.7516 26.1487 44.7054 26.501 44.4902 26.7482L41.5623 30.1115L44.1133 29.9506C44.5567 29.9201 44.946 30.2628 44.9741 30.7116C45.0023 31.1598 44.6626 31.5465 44.2147 31.5741L39.7229 31.8569C39.706 31.8581 39.6885 31.8586 39.6716 31.8586Z" fill="#007095"/>
<path d="M26.8161 24.2891C26.5085 24.2891 26.2257 24.1141 26.0883 23.8353C25.9435 23.5412 25.9891 23.1884 26.2049 22.9411L31.9502 16.341L26.3908 16.691C25.9452 16.7192 25.5576 16.3788 25.53 15.93C25.5018 15.4818 25.8415 15.0951 26.2894 15.0675L33.7902 14.595C34.1136 14.5735 34.424 14.7525 34.5693 15.0472C34.7141 15.3413 34.6685 15.6941 34.4527 15.9413L28.7074 22.5414L34.2668 22.1915C34.7119 22.1604 35.0995 22.5036 35.1276 22.9524C35.1558 23.4006 34.8161 23.7873 34.3682 23.815L26.8674 24.2874C26.8505 24.2886 26.833 24.2891 26.8161 24.2891Z" fill="#007095"/>
<path d="M39.0485 13.61C38.72 13.61 38.4181 13.4237 38.2716 13.1256C38.1172 12.8112 38.1657 12.4347 38.3955 12.1705L46.8924 2.4103L38.4338 2.94319C37.9589 2.97593 37.5448 2.60957 37.5144 2.13088C37.4846 1.65218 37.8474 1.2401 38.3251 1.20961L48.8563 0.546893C49.2045 0.523184 49.5335 0.715113 49.6879 1.02954C49.8422 1.34396 49.7938 1.72049 49.5639 1.98467L41.0671 11.7449L49.5256 11.212C50.0017 11.1832 50.4146 11.5456 50.445 12.0243C50.4749 12.503 50.1121 12.9151 49.6343 12.9455L39.1031 13.6088C39.0851 13.61 39.0665 13.6105 39.0485 13.6105V13.61Z" fill="#007095"/>
<path d="M74.8483 102.5C76.0495 103.532 77.0433 104.666 77.7658 106.046C78.4882 107.427 78.9232 108.91 79.0427 110.402C79.1622 111.893 78.9636 113.359 78.4596 114.705C77.9556 116.051 77.1575 117.247 76.1166 118.216C75.0758 119.186 73.8154 119.906 72.4166 120.332C71.0179 120.758 69.5119 120.879 67.9957 120.689C66.4795 120.498 64.9867 119.999 63.6137 119.224C62.2407 118.45 61.0179 117.416 60.0241 116.191L68.2227 110.098L74.8483 102.5Z" fill="#B13680"/>
<path d="M70.6306 112.349L70.8114 112.262L70.907 112.085L75.4257 103.737C75.5141 103.819 75.6111 103.915 75.7161 104.024C76.0594 104.381 76.4412 104.833 76.8156 105.314C77.5734 106.288 78.2526 107.319 78.5122 107.87C79.051 109.013 79.3274 110.267 79.3213 111.544C79.3152 112.822 79.0266 114.093 78.4739 115.27C77.9212 116.446 77.1179 117.5 76.1189 118.355C75.12 119.211 73.9503 119.848 72.6916 120.221C71.4329 120.595 70.1165 120.696 68.834 120.519C68.2105 120.433 67.2871 120.177 66.3636 119.842C65.4384 119.507 64.5758 119.115 64.061 118.782C63.9524 118.711 63.8839 118.612 63.846 118.415C63.8031 118.191 63.8126 117.904 63.8452 117.523C63.8509 117.457 63.8573 117.388 63.864 117.316C63.8926 117.007 63.9255 116.653 63.9198 116.319C63.9161 116.101 63.8966 115.868 63.842 115.635L70.6306 112.349Z" stroke="#6A214C" stroke-width="1.24531"/>
<path d="M74.808 102.434C75.959 103.014 77.0036 104.712 77.7272 106.091C78.4507 107.47 78.8874 108.952 79.009 110.441C79.1306 111.93 78.9344 113.393 78.4331 114.735C77.9318 116.078 77.1365 117.271 76.0985 118.237C75.0604 119.203 73.8027 119.921 72.4064 120.344C71.0101 120.766 69.5063 120.885 67.9917 120.693C66.4772 120.5 64.9857 120 63.6133 119.224C62.2409 118.449 61.0181 117.416 60.0237 116.191L68.2025 110.121L74.808 102.434Z" fill="#B13680"/>
<path d="M75.3146 103.629C76.2482 104.71 76.4413 106.385 75.8184 108.335C75.1993 110.273 73.7975 112.379 71.7352 114.159C69.6728 115.94 67.3855 117.02 65.3776 117.35C63.3575 117.682 61.7292 117.247 60.7956 116.165C59.862 115.084 59.6689 113.41 60.2918 111.46C60.9109 109.521 62.3127 107.416 64.375 105.635C66.4374 103.854 68.7247 102.775 70.7326 102.445C72.7527 102.113 74.381 102.548 75.3146 103.629Z" fill="white" stroke="#B13680" stroke-width="1.24531"/>
<ellipse cx="68.0598" cy="109.826" rx="8.02316" ry="4.1761" transform="rotate(-40.8083 68.0598 109.826)" fill="#E7D161"/>
<ellipse cx="72.3142" cy="108.058" rx="1.0015" ry="0.549325" transform="rotate(-13.3476 72.3142 108.058)" fill="#8B6B2C"/>
<ellipse cx="72.2819" cy="105.459" rx="1.0015" ry="0.549325" transform="rotate(-13.3476 72.2819 105.459)" fill="#8B6B2C"/>
<ellipse cx="69.2985" cy="106.971" rx="1.0015" ry="0.549325" transform="rotate(-93.455 69.2985 106.971)" fill="#8B6B2C"/>
<ellipse cx="64.7173" cy="111.482" rx="1.0015" ry="0.549325" transform="rotate(-179.289 64.7173 111.482)" fill="#8B6B2C"/>
<ellipse cx="67.0116" cy="113.281" rx="1.0015" ry="0.549325" transform="rotate(106.602 67.0116 113.281)" fill="#8B6B2C"/>
<ellipse cx="63.2763" cy="114.527" rx="1.0015" ry="0.549325" transform="rotate(106.602 63.2763 114.527)" fill="#8B6B2C"/>
<ellipse cx="69.7867" cy="110.771" rx="1.0015" ry="0.549325" transform="rotate(45.0923 69.7867 110.771)" fill="#8B6B2C"/>
<ellipse cx="66.0504" cy="108.281" rx="1.0015" ry="0.549325" transform="rotate(45.0923 66.0504 108.281)" fill="#8B6B2C"/>
</g>
<defs>
<clipPath id="clip0_1609_10093">
<rect width="175" height="173" fill="white"/>
</clipPath>
</defs>
</svg>
