<svg xmlns="http://www.w3.org/2000/svg" width="263" height="40" fill="none" viewBox="0 0 263 40"><g clip-path="url(#clip0_3656_4433)"><path fill="#fff" d="M65.1494 0.626953H62.5558C61.1303 0.626953 60.1969 1.32235 59.7555 2.71313C59.3253 4.08685 57.145 10.9256 56.8835 11.7575C56.2551 13.7626 54.4206 19.1508 54.4206 19.1508H54.0452C54.0452 19.1508 52.2149 13.7626 51.5823 11.7575C51.3209 10.9256 49.1405 4.08685 48.7103 2.71313C48.2746 1.32235 47.3411 0.626953 45.9101 0.626953H43.3164L49.9966 19.9998L43.3164 39.3727H45.9101C47.3355 39.3727 48.2689 38.6773 48.7103 37.2865C49.1405 35.9128 51.3209 29.074 51.5823 28.2421C52.2107 26.237 54.0452 20.8488 54.0452 20.8488H54.4206C54.4206 20.8488 56.2509 26.237 56.8835 28.2421C57.145 29.074 59.3253 35.9128 59.7555 37.2865C60.1913 38.6773 61.1247 39.3727 62.5558 39.3727H65.1494L58.4692 19.9998L65.1494 0.626953Z"/><path fill="#fff" d="M114.972 20C114.972 31.0452 106.2 40 95.3742 40C84.5484 40 75.7764 31.0452 75.7764 20C75.7764 8.95478 84.5526 0 95.3784 0C106.204 0 114.976 8.95478 114.976 20H114.972ZM110.105 20.0811C110.105 11.3055 103.463 4.16382 95.2983 4.16382C87.1336 4.16382 80.4913 11.3012 80.4913 20.0811C80.4913 28.8609 87.1336 35.9983 95.2983 35.9983C103.463 35.9983 110.105 28.8567 110.105 20.0811Z"/><path fill="#fff" d="M18.8219 0.626953H13.0315L0 39.3727H2.85512C4.30306 39.3727 5.24915 38.6773 5.69337 37.2865C6.36392 35.2003 13.934 11.9111 13.934 11.9111C14.672 9.55613 15.6462 4.79078 15.6462 4.79078H16.2029C16.2029 4.79078 17.1771 9.55613 17.9151 11.9111C17.9151 11.9111 25.4852 35.2003 26.1558 37.2865C26.6028 38.6773 27.5489 39.3727 28.994 39.3727H31.8491L18.8219 0.626953Z"/><path fill="#fff" d="M152.202 0.626953H149.997C148.571 0.626953 147.859 1.34794 147.859 2.78992V35.2131H146.981C146.981 35.2131 145.741 30.4478 145.003 28.0928L135.325 0.626953H127.4V39.3727H129.606C131.032 39.3727 131.744 38.6517 131.744 37.2097V4.78651H132.621C132.621 4.78651 133.861 9.55187 134.599 11.9068L144.278 39.3684H152.202V0.626953Z"/><path fill="#fff" d="M172.851 39.373H171.43V0.652832H172.851V39.373Z"/><path fill="#fff" d="M204.447 35.5931L205.21 37.931L205.974 35.5931L218.828 0.652832H220.38L206.079 39.3687H204.346L190.045 0.652832H191.597L204.451 35.5931H204.447Z"/><path fill="#fff" d="M247.86 23.3619L261.267 0.652832H263L248.568 24.6631V39.3687H247.147V24.6673L232.72 0.652832H234.613L247.86 23.3619Z"/></g><defs><clipPath id="clip0_3656_4433"><rect width="263" height="40" fill="#fff"/></clipPath></defs></svg>