<svg width="263" height="40" viewBox="0 0 263 40" fill="none" xmlns="http://www.w3.org/2000/svg">
<g clip-path="url(#clip0_1206_12589)">
<path d="M65.1489 0.626953H62.5553C61.1298 0.626953 60.1964 1.32235 59.755 2.71313C59.3248 4.08685 57.1445 10.9256 56.883 11.7575C56.2546 13.7626 54.4201 19.1508 54.4201 19.1508H54.0448C54.0448 19.1508 52.2144 13.7626 51.5818 11.7575C51.3204 10.9256 49.14 4.08685 48.7099 2.71313C48.2741 1.32235 47.3406 0.626953 45.9096 0.626953H43.3159L49.9961 19.9998L43.3159 39.3727H45.9096C47.335 39.3727 48.2684 38.6773 48.7099 37.2865C49.14 35.9128 51.3204 29.074 51.5818 28.2421C52.2102 26.237 54.0448 20.8488 54.0448 20.8488H54.4201C54.4201 20.8488 56.2504 26.237 56.883 28.2421C57.1445 29.074 59.3248 35.9128 59.755 37.2865C60.1908 38.6773 61.1242 39.3727 62.5553 39.3727H65.1489L58.4687 19.9998L65.1489 0.626953Z" fill="#1B1B1B"/>
<path d="M114.972 20C114.972 31.0452 106.2 40 95.3745 40C84.5486 40 75.7766 31.0452 75.7766 20C75.7766 8.95478 84.5528 0 95.3787 0C106.205 0 114.977 8.95478 114.977 20H114.972ZM110.106 20.0811C110.106 11.3055 103.463 4.16382 95.2986 4.16382C87.1338 4.16382 80.4916 11.3012 80.4916 20.0811C80.4916 28.8609 87.1338 35.9983 95.2986 35.9983C103.463 35.9983 110.106 28.8567 110.106 20.0811Z" fill="#1B1B1B"/>
<path d="M18.8219 0.626953H13.0315L0 39.3727H2.85512C4.30306 39.3727 5.24915 38.6773 5.69337 37.2865C6.36392 35.2003 13.934 11.9111 13.934 11.9111C14.672 9.55613 15.6462 4.79078 15.6462 4.79078H16.2029C16.2029 4.79078 17.1771 9.55613 17.9151 11.9111C17.9151 11.9111 25.4852 35.2003 26.1558 37.2865C26.6028 38.6773 27.5489 39.3727 28.994 39.3727H31.8491L18.8219 0.626953Z" fill="#1B1B1B"/>
<path d="M152.203 0.626953H149.997C148.572 0.626953 147.859 1.34794 147.859 2.78992V35.2131H146.982C146.982 35.2131 145.742 30.4478 145.004 28.0928L135.325 0.626953H127.401V39.3727H129.607C131.032 39.3727 131.745 38.6517 131.745 37.2097V4.78651H132.622C132.622 4.78651 133.862 9.55187 134.6 11.9068L144.279 39.3684H152.203V0.626953Z" fill="#1B1B1B"/>
<path d="M172.851 39.373H171.429V0.652832H172.851V39.373Z" fill="#1B1B1B"/>
<path d="M204.447 35.5931L205.21 37.931L205.973 35.5931L218.828 0.652832H220.38L206.079 39.3687H204.346L190.045 0.652832H191.597L204.451 35.5931H204.447Z" fill="#1B1B1B"/>
<path d="M247.86 23.3619L261.267 0.652832H263L248.568 24.6631V39.3687H247.147V24.6673L232.72 0.652832H234.613L247.86 23.3619Z" fill="#1B1B1B"/>
</g>
<defs>
<clipPath id="clip0_1206_12589">
<rect width="263" height="40" fill="white"/>
</clipPath>
</defs>
</svg>
