<svg xmlns="http://www.w3.org/2000/svg" viewBox="0 0 32 32" width="32" height="32"><title>advertising megaphone</title><g class="nc-icon-wrapper" fill="#111111"><path d="M22.055 31.661a4.088 4.088 0 0 1-3.615-2.164l-.897-1.897c-.252.133-.512.272-.779.416l-.463.25a4.12 4.12 0 0 1-1.926.483 4.119 4.119 0 0 1-3.56-2.046 1 1 0 0 1-.083-.136 4.077 4.077 0 0 1 1.681-5.502c7.519-4.09 8.275-5.102 10.783-8.454.276-.37.559-.747.87-1.155a1.007 1.007 0 0 1 .878-.39.995.995 0 0 1 .8.526l5.808 10.905a.997.997 0 0 1-.815 1.468c-.653.044-1.242.074-1.792.102-3.078.153-4.814.24-9.621 2.622l.904 1.912c.347.647 1.05 1.063 1.823 1.063.34 0 .68-.085.98-.245a1 1 0 0 1 .94 1.765 4.12 4.12 0 0 1-1.916.477zm-9.592-6.102c.018.028.034.056.05.084a2.104 2.104 0 0 0 2.842.861l.458-.25.874-.465-1.799-3.806c-.477.266-.984.545-1.525.84a2.095 2.095 0 0 0-.9 2.736zm6.006-.679c5.174-2.555 7.154-2.653 10.375-2.813l.207-.011-4.335-8.14c-2.119 2.83-3.176 4.199-8.085 7.073l1.838 3.891zM7.315 18.663a3.003 3.003 0 0 1-3-3V8.616l-2.331 2.099A1 1 0 1 1 .645 9.229l8.658-7.796a3 3 0 0 1 4.014 0l4.998 4.496V2.663a1 1 0 0 1 2 0v5.065l1.668 1.501a1 1 0 1 1-1.339 1.487l-2.33-2.097v5.044a1 1 0 0 1-2 0V6.819l-4.334-3.9a1.005 1.005 0 0 0-1.339 0L6.315 6.815v8.846a1 1 0 0 0 1 1h6a1 1 0 0 1 0 2h-6z" fill="#111111"/></g></svg>