<svg xmlns="http://www.w3.org/2000/svg" width="32" height="32" viewBox="0 0 32 32"><title>advertising megaphone 2</title><g fill="#111" class="nc-icon-wrapper"><path fill="#111" d="M17.917 30.728a.992.992 0 0 1-.778-.373.999.999 0 0 1 .152-1.406l3.048-2.454a.997.997 0 0 1 .629-.222h.044l3.913.195a.24.24 0 0 0 .24-.175l1.028-3.782a.992.992 0 0 1 .42-.576l3.278-2.134a.242.242 0 0 0 .09-.284l-1.393-3.657a.997.997 0 0 1 0-.713l1.393-3.658a.243.243 0 0 0-.092-.282l-3.277-2.14a1.008 1.008 0 0 1-.419-.575l-1.022-3.78a.236.236 0 0 0-.231-.175l-3.919.195-.052.001a1.003 1.003 0 0 1-.625-.221l-3.05-2.459a.24.24 0 0 0-.297.002l-3.048 2.46a1.003 1.003 0 0 1-.625.221l-.056-.001-3.907-.199a.243.243 0 0 0-.238.175L8.099 8.489a1.007 1.007 0 0 1-.419.576l-3.277 2.14a.232.232 0 0 0-.092.284l1.394 3.658a.997.997 0 0 1 0 .713l-.598 1.565a1.005 1.005 0 0 1-1.292.578.995.995 0 0 1-.578-1.291l.462-1.21L2.44 12.2a2.253 2.253 0 0 1 .867-2.67l2.96-1.93.924-3.411a2.24 2.24 0 0 1 2.272-1.65l3.526.18L15.74.497a2.24 2.24 0 0 1 2.808 0l2.752 2.22 3.528-.175c.037-.003.077-.003.117-.003 1.004 0 1.89.68 2.154 1.652l.922 3.41 2.959 1.933a2.249 2.249 0 0 1 .867 2.669l-1.258 3.303 1.258 3.301a2.253 2.253 0 0 1-.867 2.67l-2.959 1.927-.928 3.412a2.237 2.237 0 0 1-2.156 1.654l-.116-.003-3.526-.176-2.752 2.216a.999.999 0 0 1-.626.22zm-7.682 1.27a3.7 3.7 0 0 1-3.183-1.782l-.739-1.135-2.113.663a1 1 0 0 1-1.84.632L.152 26.897a1 1 0 0 1 1.272-1.44l11-13.958-.061-.098a1.001 1.001 0 0 1 1.689-1.072l8.392 13.222a1.001 1.001 0 0 1-.844 1.536.995.995 0 0 1-.844-.464l-.03-.048-6.927 2.166a4.032 4.032 0 0 1-1.434 4.586 3.728 3.728 0 0 1-2.13.672zM8.744 29.15a1.733 1.733 0 0 0 2.381.598l.083-.054a2.004 2.004 0 0 0 .684-2.357l-3.596 1.125.448.688zm-5.547-1.188l16.418-5.136-6.055-9.537-10.897 13.83.534.843z"/></g></svg>