<svg xmlns="http://www.w3.org/2000/svg" width="32" height="32" viewBox="0 0 32 32"><title>alarm bell</title><g fill="#111" class="nc-icon-wrapper"><path fill="#111" d="M15.987 32.001a3.78 3.78 0 0 1-3.624-2.718 1 1 0 0 1 1.918-.564 1.78 1.78 0 0 0 3.42.001 1.007 1.007 0 0 1 1.24-.679 1 1 0 0 1 .679 1.242A3.792 3.792 0 0 1 15.987 32zm-11.999-6a1.005 1.005 0 0 1-.899-.561.996.996 0 0 1 .111-1.055c.008-.012 1.788-2.585 1.788-10.384a10.983 10.983 0 0 1 10-10.954V1a1 1 0 0 1 2 0v2.046a10.983 10.983 0 0 1 10 10.954c0 8.404 1.661 10.248 1.677 10.266a1.008 1.008 0 0 1 .25 1.09.993.993 0 0 1-.927.644h-24zm22.28-2c-.643-1.642-1.281-4.626-1.281-10 0-4.962-4.038-9-9-9s-9 4.038-9 9c0 5.276-.774 8.37-1.395 10h20.676z"/></g></svg>