<svg xmlns="http://www.w3.org/2000/svg" viewBox="0 0 32 32" width="32" height="32"><title>alarm bell timer</title><g class="nc-icon-wrapper" fill="#111111"><path d="M1 26.001a1.001 1.001 0 0 1-.841-1.541C.173 24.436 2 21.375 2 14.001A10.981 10.981 0 0 1 12 3.047V1a1 1 0 0 1 2 0v3a1 1 0 0 1-1 1 9.01 9.01 0 0 0-9 9c0 5.099-.81 8.284-1.445 10h20.689a10.777 10.777 0 0 1-.885-2.66.996.996 0 0 1 .982-1.19 1 1 0 0 1 .982.809 8.886 8.886 0 0 0 1.49 3.459.996.996 0 1 1-.812 1.582H1zm22-8c-4.963 0-9-4.037-9-9s4.037-9 9-9 9 4.038 9 9-4.037 9-9 9zm0-16a7.008 7.008 0 0 0-7 7c0 3.86 3.14 7 7 7s7-3.14 7-7a7.008 7.008 0 0 0-7-7zm0 10a1 1 0 0 1-1-1v-5a1 1 0 0 1 2 0v4h2a1 1 0 0 1 0 2h-3zm-10.004 20a3.78 3.78 0 0 1-3.624-2.718 1.001 1.001 0 0 1 .96-1.282c.44 0 .835.295.959.718a1.787 1.787 0 0 0 2.213 1.208 1.779 1.779 0 0 0 1.208-1.208 1.007 1.007 0 0 1 1.24-.679 1.001 1.001 0 0 1 .68 1.241 3.768 3.768 0 0 1-2.564 2.564 3.779 3.779 0 0 1-1.072.156z" fill="#111111"/></g></svg>