<svg xmlns="http://www.w3.org/2000/svg" width="32" height="32" viewBox="0 0 32 32"><title>analytics board graph line</title><g fill="#111" class="nc-icon-wrapper"><path fill="#111" d="M2.045 4.118c-.663.16-1.28.626-1.64 1.237l-.343.582v20.126l.348.59c.225.383.554.712.937.937l.59.348h28.126l.59-.348c.383-.225.712-.554.937-.937l.348-.59V5.936l-.348-.59a2.666 2.666 0 0 0-.937-.937l-.59-.348-13.813-.02c-7.597-.01-13.99.024-14.205.076M29.75 6.25c.246.246.25.417.25 9.75s-.004 9.504-.25 9.75c-.247.247-.417.25-13.75.25s-13.503-.003-13.75-.25C2.004 25.504 2 25.333 2 16s.004-9.504.25-9.75C2.497 6.003 2.667 6 16 6s13.503.003 13.75.25m-3.223 3.917c-.157.088-1.498 1.977-2.98 4.198l-2.693 4.04-1.718-1.702c-2.257-2.236-2.017-2.233-4.217-.055-.915.907-1.688 1.624-1.716 1.594-.028-.03-.737-1.32-1.574-2.867-.837-1.547-1.661-2.94-1.832-3.094-.396-.358-.825-.358-1.214 0-.394.363-4.451 7.153-4.54 7.6-.09.45.113.8.577.992.759.314.943.119 2.77-2.94.92-1.54 1.71-2.801 1.755-2.804.045-.002.72 1.181 1.5 2.63.78 1.449 1.552 2.77 1.716 2.938a.987.987 0 0 0 .678.303c.32 0 .656-.275 2.17-1.776L17 17.45l1.79 1.775c1.817 1.8 2.026 1.935 2.648 1.696.218-.084 6.43-9.306 6.533-9.698.032-.123-.012-.394-.098-.603-.249-.6-.766-.773-1.346-.452"/></g></svg>