<?xml version="1.0" encoding="utf-8"?>
<!-- Generator: Adobe Illustrator 22.1.0, SVG Export Plug-In . SVG Version: 6.00 Build 0)  -->
<svg version="1.1" id="Layer_1" xmlns="http://www.w3.org/2000/svg" xmlns:xlink="http://www.w3.org/1999/xlink" x="0px" y="0px"
	 viewBox="0 0 24 24" width="32" height="32" style="enable-background:new 0 0 24 24;" xml:space="preserve">
<title>analytics-graph-lines</title>
<g>
	<path d="M0.749,24c-0.053,0-0.107-0.006-0.16-0.018c-0.014-0.003-0.039-0.01-0.053-0.015c-0.024-0.006-0.062-0.019-0.098-0.035
		c-0.01-0.005-0.038-0.019-0.048-0.025c-0.027-0.015-0.057-0.032-0.084-0.053c-0.008-0.006-0.035-0.027-0.042-0.033
		c-0.027-0.023-0.048-0.044-0.067-0.065c-0.011-0.011-0.024-0.024-0.032-0.035c-0.012-0.015-0.021-0.028-0.029-0.041
		c-0.011-0.016-0.022-0.033-0.033-0.051c-0.013-0.022-0.024-0.042-0.034-0.063c-0.01-0.02-0.019-0.043-0.027-0.068
		c-0.009-0.025-0.016-0.05-0.022-0.075c-0.004-0.016-0.008-0.038-0.011-0.06c-0.004-0.026-0.006-0.048-0.008-0.07
		C0,23.279-0.001,23.262-0.001,23.25V0.75c0-0.414,0.336-0.75,0.75-0.75s0.75,0.336,0.75,0.75v9.287l6.965-3.482
		c0.517-0.258,1.098-0.395,1.68-0.395c0.273,0,0.546,0.03,0.811,0.089l4.207,0.936c0.158,0.035,0.321,0.053,0.484,0.053
		c0.554,0,1.086-0.202,1.498-0.568l5.599-4.98c0.137-0.122,0.314-0.19,0.499-0.19c0.106,0,0.21,0.022,0.307,0.066
		c0.269,0.121,0.443,0.39,0.443,0.684v6.657C24,8.971,24,9.035,23.992,9.098v6.587c0.004,0.048,0.004,0.095,0,0.14v7.426
		c0,0.414-0.336,0.75-0.75,0.75H0.749z M22.492,22.5v-5.768l-6.749,1.841c-0.322,0.087-0.653,0.132-0.984,0.132
		c-0.139,0-0.28-0.008-0.418-0.023l-4.945-0.549c-0.083-0.009-0.166-0.014-0.249-0.014c-0.512,0-0.996,0.17-1.4,0.493L2.887,22.5
		H22.492z M1.499,21.69L6.81,17.44c0.672-0.538,1.48-0.822,2.335-0.822c0.138,0,0.278,0.008,0.415,0.023l4.947,0.549
		c0.085,0.01,0.169,0.014,0.252,0.014c0.198,0,0.396-0.027,0.589-0.079l7.143-1.948v-5.009l-6.59,2.995
		c-0.491,0.223-1.013,0.336-1.552,0.336H9.079c-0.408,0-0.808,0.111-1.157,0.32l-6.423,3.854V21.69z M1.499,15.925l5.651-3.391
		C7.732,12.185,8.399,12,9.078,12h5.27c0.324,0,0.637-0.068,0.932-0.202l7.211-3.278V3.921l-4.351,3.87
		c-0.687,0.61-1.573,0.947-2.495,0.947c-0.272,0-0.544-0.03-0.809-0.089l-4.207-0.936c-0.16-0.036-0.323-0.054-0.487-0.054
		c-0.349,0-0.697,0.082-1.007,0.237l-7.635,3.817V15.925z"/>
</g>
</svg>
