<svg xmlns="http://www.w3.org/2000/svg" width="32" height="32" viewBox="0 0 32 32"><title>analytics graph</title><g fill="#111" class="nc-icon-wrapper"><path fill="#111" d="M1 32a1 1 0 0 1-1-1V1a1 1 0 0 1 2 0v12.235l6.061-3.638A3.003 3.003 0 0 1 11 6a3.003 3.003 0 0 1 2.99 3.235l3.835 1.704A3.008 3.008 0 0 1 20 10c.339 0 .668.056.985.168l5.119-6.397A2.916 2.916 0 0 1 26 3c0-1.655 1.345-3 3-3s3 1.345 3 3a3.003 3.003 0 0 1-4.699 2.472l-4.754 5.944a3 3 0 1 1-5.538 1.348l-3.833-1.703A3.01 3.01 0 0 1 11 12a3.004 3.004 0 0 1-1.907-.69L2 15.568v9.816l4.024-2.012A3.003 3.003 0 0 1 9 20c1.28 0 2.41.82 2.828 2h4.343a3.013 3.013 0 0 1 2.828-2c.734 0 1.437.27 1.984.753L26 17.967A3.004 3.004 0 0 1 29 15c1.655 0 3 1.345 3 3s-1.345 3-3 3a3.01 3.01 0 0 1-2.332-1.116l-4.71 2.616a3.003 3.003 0 0 1-2.96 3.5 3.01 3.01 0 0 1-2.827-2h-4.343A3.013 3.013 0 0 1 9 26a2.972 2.972 0 0 1-2.08-.843L2 27.62V30h29a1 1 0 0 1 0 2H1zm18-10a1 1 0 1 0 0 2 1 1 0 0 0 0-2zM9 22a1 1 0 1 0 0 2 1 1 0 0 0 0-2zm20-5a1 1 0 1 0 0 2 1 1 0 0 0 0-2zm-9-5a1 1 0 1 0 0 2 1 1 0 0 0 0-2zm-9-4a1 1 0 1 0 0 2 1 1 0 0 0 0-2zm18-6a1 1 0 1 0 0 2 1 1 0 0 0 0-2z"/></g></svg>