<svg xmlns="http://www.w3.org/2000/svg" viewBox="0 0 32 32" width="32" height="32"><title>analytics pie 2</title><g class="nc-icon-wrapper" fill="#111111"><path d="M18 14a1 1 0 0 1-1-1V1a1 1 0 0 1 1-1c7.168 0 13 5.832 13 13a1 1 0 0 1-1 1H18zm10.955-2C28.476 6.761 24.239 2.524 19 2.045V12h9.955zM14 32a12.917 12.917 0 0 1-9.192-3.807A12.91 12.91 0 0 1 1 19.001 12.916 12.916 0 0 1 4.808 9.81 12.912 12.912 0 0 1 14 6a1.004 1.004 0 0 1 1 1v11.655l7.201 9.164c.166.209.239.472.207.737s-.165.503-.375.667A13.06 13.06 0 0 1 14.001 32zM13 8.045a10.955 10.955 0 0 0-6.777 3.178A10.928 10.928 0 0 0 3 19a10.92 10.92 0 0 0 3.223 7.778A10.928 10.928 0 0 0 14.001 30c2.107 0 4.21-.625 5.982-1.77l-6.768-8.613A1.008 1.008 0 0 1 13 19V8.045zm12.415 19.391a.99.99 0 0 1-.787-.383l-7.415-9.436a1.004 1.004 0 0 1-.112-1.056A1.007 1.007 0 0 1 18 16h12a1 1 0 0 1 1 .999 12.903 12.903 0 0 1-4.968 10.222.995.995 0 0 1-.617.215zm.141-2.439A10.821 10.821 0 0 0 28.957 18H20.06l5.497 6.997z" fill="#111111"/></g></svg>