<svg xmlns="http://www.w3.org/2000/svg" width="32" height="32" viewBox="0 0 32 32"><title>analytics graph line</title><g fill="#111" class="nc-icon-wrapper"><path fill="#111" d="M16 32C7.177 32 0 24.823 0 16S7.177 0 16 0s16 7.177 16 16-7.177 16-16 16zm0-30C8.28 2 2 8.28 2 16s6.28 14 14 14 14-6.28 14-14S23.72 2 16 2zM9 24a1 1 0 0 1-1-1V10a1 1 0 0 1 2 0v6.033l2.41-1.757a1.55 1.55 0 0 1 .867-.276 1.49 1.49 0 0 1 1.251.67l.016.025 2.908 2.924 1.653-3.295a1.492 1.492 0 0 1 .967-.75l2.845-.555a1.003 1.003 0 0 1 1.174.79 1 1 0 0 1-.791 1.172l-2.533.494-1.874 3.73a1.492 1.492 0 0 1-.733.672 1.501 1.501 0 0 1-1.855-.574l-3.108-3.126L10 18.508V22h13a1 1 0 0 1 0 2H9z"/></g></svg>