<svg xmlns="http://www.w3.org/2000/svg" width="32" height="32" viewBox="0 0 32 32"><title>archive folder</title><g fill="#111" class="nc-icon-wrapper"><path fill="#111" d="M5 15.5a1 1 0 0 1 0-2h22a1 1 0 0 1 0 2H5zm0-5a1 1 0 0 1 0-2h22a1 1 0 0 1 0 2H5zm0-5a1 1 0 0 1 0-2h22a1 1 0 0 1 0 2H5zm-2 23a3.003 3.003 0 0 1-3-3v-5c0-1.103.897-2 2-2h10a1 1 0 0 1 1 1 3.003 3.003 0 0 0 3 3 3.003 3.003 0 0 0 3-3 1 1 0 0 1 1-1h10c1.103 0 2 .897 2 2v5a3.003 3.003 0 0 1-3 3H3zm-1-3a1 1 0 0 0 1 1h26a1 1 0 0 0 1-1v-5h-9.1c-.467 2.31-2.5 4-4.9 4s-4.432-1.69-4.9-4H2v5z"/></g></svg>