<svg xmlns="http://www.w3.org/2000/svg" viewBox="0 0 32 32" width="32" height="32"><title>archive</title><g class="nc-icon-wrapper" fill="#111111"><path d="M7 30a5.005 5.005 0 0 1-5-5V13a1 1 0 0 1 2 0v12a3.003 3.003 0 0 0 3 3h18a3.003 3.003 0 0 0 3-3V13a1 1 0 0 1 2 0v12a5.005 5.005 0 0 1-5 5H7zM1 10a1 1 0 0 1-1-1V5a3.003 3.003 0 0 1 3-3h26a3.003 3.003 0 0 1 3 3v4a1 1 0 0 1-1 1H1zm29-2V5a1 1 0 0 0-1-1H3a1 1 0 0 0-1 1v3h28zM14 18a3.003 3.003 0 0 1-3-3 3.003 3.003 0 0 1 3-3h4a3.003 3.003 0 0 1 3 3 3.003 3.003 0 0 1-3 3h-4zm0-4a1 1 0 0 0 0 2h4a1 1 0 0 0 0-2h-4z" fill="#111111"/></g></svg>