<svg xmlns="http://www.w3.org/2000/svg" viewBox="0 0 32 32" width="32" height="32"><title>arrow left</title><g class="nc-icon-wrapper" fill="#111111"><path d="M7.282 8.282C.446 15.12 0 15.592 0 16c0 .409.445.88 7.282 7.717C13.957 30.392 14.6 31 14.976 31c.53 0 1.024-.506 1.024-1.047 0-.341-.709-1.094-6.28-6.669L3.44 17h27.948l.306-.33c.399-.43.399-.965 0-1.363L31.386 15H3.443l6.279-6.286C15.435 2.994 16 2.39 16 2.02 16 1.473 15.525 1 14.976 1c-.377 0-1.022.61-7.694 7.283" fill="#111111"/></g></svg>