<svg xmlns="http://www.w3.org/2000/svg" viewBox="0 0 32 32" width="32" height="32"><title>arrow button right 3</title><g class="nc-icon-wrapper" fill="#111111"><path d="M7.672 32a2.003 2.003 0 0 1-1.561-3.25L16.312 16 6.112 3.25A2.003 2.003 0 0 1 7.672 0h6.959c.916 0 1.769.41 2.342 1.125l10.9 13.624c.588.736.588 1.764.002 2.499L16.973 30.875A2.99 2.99 0 0 1 14.631 32H7.672zm0-2h6.959a.996.996 0 0 0 .78-.375L26.312 16 15.411 2.375A.996.996 0 0 0 14.63 2H7.672l10.701 13.375a.993.993 0 0 1 0 1.249L7.672 30l-.39-.313.39.313z" fill="#111111"/></g></svg>