<svg xmlns="http://www.w3.org/2000/svg" width="32" height="32" viewBox="0 0 32 32"><title>arrow button right</title><g fill="#111" class="nc-icon-wrapper"><path fill="#111" d="M11.37 32a1.965 1.965 0 0 1-1.383-.607L6.405 27.71a2.044 2.044 0 0 1-.004-2.844L15.02 16 6.405 7.14a2.043 2.043 0 0 1-.004-2.844L10.032.563a1.975 1.975 0 0 1 2.81.045l13.582 13.968c.77.8.77 2.048.003 2.844L12.803 31.432a1.984 1.984 0 0 1-1.388.568h-.046zM7.838 5.687c-.016.016-.015.044.004.062l9.289 9.554a.996.996 0 0 1 0 1.394l-9.293 9.558c-.015.016-.015.044.004.062l3.572 3.675L24.99 16.029c.016-.016.014-.042-.004-.062L11.413 2.007 7.84 5.687z"/></g></svg>