<svg xmlns="http://www.w3.org/2000/svg" viewBox="0 0 32 32" width="32" height="32"><title>arrow left 1</title><g class="nc-icon-wrapper" fill="#111111"><path d="M13.899 7.34c-4.01 4.041-7.398 7.516-7.531 7.723-.319.494-.319 1.38 0 1.874.133.207 3.522 3.682 7.531 7.723 6.726 6.781 7.32 7.347 7.7 7.344a1.051 1.051 0 0 0 1.026-1.03c0-.377-.605-1.016-7.28-7.692l-7.28-7.281 7.28-7.284c6.969-6.973 7.28-7.304 7.28-7.742 0-.552-.45-.973-1.048-.98-.35-.003-1.116.729-7.679 7.345" fill="#111111"/></g></svg>