<svg xmlns="http://www.w3.org/2000/svg" width="32" height="32" viewBox="0 0 32 32"><title>arrow right</title><g fill="#111" class="nc-icon-wrapper"><path fill="#111" d="M16.307 1.307c-.2.2-.307.448-.307.713 0 .37.566.973 6.278 6.694L28.557 15H.614l-.307.307c-.399.398-.399.932 0 1.362L.613 17H28.56l-6.28 6.284C16.71 28.86 16 29.612 16 29.954c0 .54.495 1.046 1.024 1.046.377 0 1.02-.609 7.694-7.283C31.555 16.882 32 16.41 32 16c0-.409-.445-.88-7.282-7.718C18.046 1.611 17.4 1 17.024 1a.997.997 0 0 0-.717.307"/></g></svg>