<?xml version="1.0" encoding="utf-8"?>
<!-- Generator: Adobe Illustrator 22.1.0, SVG Export Plug-In . SVG Version: 6.00 Build 0)  -->
<svg version="1.1" id="Regular" xmlns="http://www.w3.org/2000/svg" xmlns:xlink="http://www.w3.org/1999/xlink" x="0px" y="0px" viewBox="0 0 24 24" style="enable-background:new 0 0 24 24;" xml:space="preserve" width="32" height="32">
	<title>beach-palm-sunbed</title>
	<g>
		<path d="M21.002,24c-0.345,0-0.644-0.234-0.727-0.568L19.666,21h-5.283c-0.132,0-0.265-0.013-0.398-0.038l-1.312,2.623
		C12.545,23.841,12.288,24,12.002,24c-0.115,0-0.231-0.027-0.335-0.079c-0.37-0.185-0.52-0.636-0.336-1.006l1.349-2.698
		c-0.103-0.118-0.192-0.243-0.265-0.375l-2.588-5.261c-0.088-0.18-0.101-0.383-0.037-0.573c0.065-0.19,0.199-0.343,0.379-0.431
		c0.102-0.05,0.217-0.077,0.331-0.077c0.288,0,0.546,0.161,0.673,0.419l0.901,1.831H16.5c0.414,0,0.75,0.336,0.75,0.75
		s-0.336,0.75-0.75,0.75h-3.689l0.933,1.897c0.048,0.085,0.134,0.173,0.241,0.239c0.006,0.003,0.018,0.01,0.032,0.02
		c0.112,0.062,0.238,0.094,0.365,0.094h8.868c0.414,0,0.75,0.336,0.75,0.75S23.663,21,23.25,21h-2.038l0.517,2.068
		c0.1,0.401-0.144,0.809-0.545,0.91C21.124,23.992,21.063,24,21.002,24z" />
		<path d="M5.999,24c-0.382,0-0.702-0.287-0.745-0.667c-0.538-4.794,0.014-9.694,1.596-14.259C1.93,13.858,1.625,20.56,1.52,22.857
		c-0.008,0.168-0.014,0.314-0.021,0.437C1.475,23.69,1.147,24,0.75,24c-0.008,0-0.039-0.001-0.047-0.001
		c-0.197-0.011-0.381-0.1-0.514-0.25c-0.133-0.15-0.2-0.342-0.188-0.542c0.007-0.117,0.013-0.257,0.021-0.417
		c0.108-2.366,0.427-9.367,5.532-14.539H1.5c-0.435-0.02-0.815-0.197-1.088-0.498C0.14,7.451,0.001,7.062,0.021,6.657
		c0.007-0.153,0.038-0.305,0.091-0.449C0.82,4.35,2.6,3.092,4.57,3.038L4.051,2.075C3.682,1.396,3.935,0.542,4.616,0.171
		C4.822,0.059,5.053,0,5.283,0l0.058,0.001c0.797,0.047,1.584,0.17,2.345,0.366C7.71,0.373,7.73,0.38,7.75,0.387
		c1.163,0.414,2.144,1.239,2.759,2.301c0.305-0.271,0.648-0.495,1.013-0.659c0.64-0.272,1.305-0.409,1.984-0.409
		c1.179,0,2.329,0.424,3.236,1.194c0.122,0.099,0.234,0.231,0.319,0.378c0.187,0.325,0.237,0.703,0.139,1.065
		c-0.097,0.362-0.329,0.665-0.654,0.852l-2.129,1.267c1.418,1.003,2.222,2.728,2.037,4.477c-0.01,0.227-0.084,0.471-0.214,0.683
		c-0.271,0.443-0.743,0.707-1.264,0.707c-0.271,0-0.538-0.075-0.77-0.217l-5.59-3.422c-1.777,4.624-2.425,9.649-1.874,14.561
		c0.022,0.199-0.034,0.395-0.159,0.552s-0.304,0.255-0.503,0.277C6.057,23.998,6.028,24,5.999,24z M8.602,6.839
		c0.002,0,0.021,0.009,0.038,0.02l6.321,3.869c0-0.006,0.001-0.013,0.002-0.02c0.148-1.367-0.57-2.708-1.788-3.339
		c-0.546-0.272-1.139-0.446-1.755-0.512c-0.411-0.044-0.71-0.415-0.665-0.826c0.041-0.382,0.36-0.67,0.743-0.67
		c0.028,0,0.056,0.002,0.084,0.005c0.389,0.042,0.789,0.124,1.19,0.244l2.906-1.73c-0.627-0.493-1.393-0.76-2.175-0.76
		c-0.474,0-0.938,0.095-1.38,0.283C11.662,3.61,11.261,3.974,11,4.427c-0.089,0.214-0.273,0.376-0.498,0.437
		c-0.021,0.006-0.066,0.013-0.088,0.015c-0.008,0.002-0.029,0.005-0.052,0.007c-0.018,0.002-0.038,0.004-0.054,0.004
		c-0.013,0-0.027-0.001-0.041-0.002c-0.109-0.003-0.22-0.033-0.321-0.087c-0.21-0.113-0.352-0.316-0.387-0.551
		C9.229,3.123,8.379,2.214,7.279,1.811C6.681,1.66,6.067,1.559,5.452,1.512l0.962,1.786c0.48,0.142,0.937,0.338,1.362,0.584
		c0.173,0.1,0.297,0.262,0.349,0.456c0.052,0.194,0.025,0.396-0.075,0.569c-0.134,0.231-0.383,0.374-0.65,0.374
		c-0.131,0-0.261-0.035-0.375-0.101c-0.69-0.399-1.475-0.621-2.272-0.643l-0.06,0c-1.398,0-2.674,0.883-3.176,2.198L8.25,6.75
		c0.017,0,0.05,0.003,0.067,0.005c0.011,0,0.029,0.002,0.047,0.005c0.01,0.001,0.021,0.003,0.03,0.005
		C8.419,6.769,8.439,6.774,8.46,6.781C8.475,6.785,8.489,6.79,8.503,6.794c0.012,0.004,0.025,0.008,0.036,0.013
		C8.562,6.817,8.582,6.828,8.602,6.839L8.602,6.839z" />
	</g>
</svg>