<svg xmlns="http://www.w3.org/2000/svg" width="32" height="32" viewBox="0 0 32 32"><title>bin 1</title><g fill="#111" class="nc-icon-wrapper"><path fill="#111" d="M12.001 1.165c-.24.076-.727.422-1.082.768-.721.704-.917 1.205-.918 2.348L10 5H1.614l-.307.307c-.399.398-.399.932 0 1.362.292.316.364.331 1.562.331 1.192 0 1.256.013 1.256.262 0 .87 1.777 21.37 1.88 21.686.223.684.848 1.394 1.524 1.73l.645.322h15.652l.645-.322c.676-.336 1.301-1.046 1.524-1.73.103-.316 1.88-20.815 1.88-21.686 0-.249.064-.262 1.256-.262 1.198 0 1.27-.015 1.563-.33.398-.43.398-.965 0-1.363L30.385 5H22v-.719c-.001-.395-.063-.944-.138-1.218-.18-.658-1.237-1.7-1.939-1.91-.672-.2-7.286-.19-7.922.012m7.692 2.142c.252.252.307.43.307 1V5h-8v-.693c0-.57.055-.748.307-1L12.614 3h6.772l.307.307m6.181 3.974c0 .155-.392 4.978-.871 10.719l-.871 10.438-.323.28-.323.282H8.514l-.323-.281-.323-.282L6.998 18c-.48-5.74-.872-10.564-.872-10.719L6.125 7h19.75v.281m-13.568 5.026l-.307.307v10.725l.306.33c.412.444.976.444 1.388 0l.306-.33V12.613l-.307-.307A1.007 1.007 0 0 0 13 12c-.243 0-.5.113-.693.307m6 0l-.307.307v10.724l.306.331c.412.444.976.444 1.387 0l.307-.33V12.613l-.307-.307A1.007 1.007 0 0 0 19 12c-.244 0-.5.113-.693.307"/></g></svg>