<svg xmlns="http://www.w3.org/2000/svg" width="32" height="32" viewBox="0 0 32 32"><title>briefcase</title><g fill="#111" class="nc-icon-wrapper"><path fill="#111" d="M3 31a3.003 3.003 0 0 1-3-3V10a3.003 3.003 0 0 1 3-3h1V6a1 1 0 0 1 2 0v1h3.279l1.316-3.95A2.996 2.996 0 0 1 13.44 1h5.117c1.294 0 2.436.824 2.847 2.05L22.72 7H26V6a1 1 0 0 1 2 0v1h1a3.003 3.003 0 0 1 3 3v18a3.003 3.003 0 0 1-3 3H3zM3 9a1 1 0 0 0-1 1v18a1 1 0 0 0 1 1h26a1 1 0 0 0 1-1V10a1 1 0 0 0-1-1H3zm17.612-2l-1.105-3.317A.999.999 0 0 0 18.559 3H13.44a.997.997 0 0 0-.948.684L11.388 7h9.224zM7 16a1 1 0 0 1 0-2h18a1 1 0 0 1 0 2H7zm0 8a1 1 0 0 1 0-2h18a1 1 0 0 1 0 2H7z"/></g></svg>