<svg xmlns="http://www.w3.org/2000/svg" width="32" height="32" viewBox="0 0 32 32"><title>buildings 1</title><g fill="#111" class="nc-icon-wrapper"><path fill="#111" d="M4 20a1 1 0 0 1 0-2h6c.552 0 1 .448 1 1s-7 1-7 1zm0 4a1 1 0 0 1 0-2h6a1 1 0 0 1 0 2H4zm0 4a1 1 0 0 1 0-2h6a1 1 0 0 1 0 2H4zm0-16a1 1 0 0 1 0-2h6a1 1 0 0 1 0 2H4zm0 4a1 1 0 0 1 0-2h6a1 1 0 0 1 0 2H4zm21 4a1 1 0 0 1 0-2h2a1 1 0 0 1 0 2h-2zm0 4a1 1 0 0 1 0-2h2a1 1 0 0 1 0 2h-2zm0 4a1 1 0 0 1 0-2h2a1 1 0 0 1 0 2h-2zm0-12a1 1 0 0 1 0-2h2a1 1 0 0 1 0 2h-2zM1.667 32A1.669 1.669 0 0 1 0 30.333V5.667C0 4.748.748 4 1.667 4H4V1a1 1 0 0 1 2 0v3h6.333C13.252 4 14 4.748 14 5.667V16h6V9.667C20 8.748 20.748 8 21.667 8h8.666C31.252 8 32 8.748 32 9.667v20.666c0 .919-.748 1.667-1.667 1.667H1.667zM30 30V10h-8v20h8zm-10 0V18h-6v12h6zm-8 0V6H2v24h10z"/></g></svg>