<svg xmlns="http://www.w3.org/2000/svg" viewBox="0 0 32 32" width="32" height="32"><title>bulb</title><g class="nc-icon-wrapper" fill="#111111"><path d="M16 4a1 1 0 0 1-1-1V1a1 1 0 0 1 2 0v2a1 1 0 0 1-1 1zM2 16a1 1 0 0 1 0-2h2a1 1 0 0 1 0 2H2zm4.467-8.59a.996.996 0 0 1-.694-.28L4.307 5.722A1.003 1.003 0 0 1 5 4c.26 0 .505.099.693.279L7.16 5.688a.997.997 0 0 1 .028 1.415 1.008 1.008 0 0 1-.721.306zM28 16a1 1 0 0 1 0-2h2a1 1 0 0 1 0 2h-2zm-2.467-8.59a1.001 1.001 0 0 1-.693-1.722l1.467-1.41a.996.996 0 0 1 1.414.029 1.001 1.001 0 0 1-.028 1.414l-1.466 1.41a1 1 0 0 1-.694.278zM16 32a1 1 0 0 1-1-1v-2h-1a3.003 3.003 0 0 1-3-3v-2.344c-3.092-1.743-5.045-5.11-5-8.664a10.13 10.13 0 0 1 9.983-9.993C21.51 5.096 25.903 9.48 26 14.98c.047 3.56-1.905 6.931-5 8.675V26a3.003 3.003 0 0 1-3 3h-1v2a1 1 0 0 1-1 1zm-3-6a1 1 0 0 0 1 1h4a1 1 0 0 0 1-1v-2h-6v2zm6.87-4A7.86 7.86 0 0 0 24 15.013 8.133 8.133 0 0 0 15.983 7 8.121 8.121 0 0 0 8 15.023 7.857 7.857 0 0 0 12.13 22H15v-3.585l-2.707-2.707a.996.996 0 0 1 0-1.415c.188-.189.44-.293.707-.293s.519.104.707.293L16 16.587l2.293-2.294a.992.992 0 0 1 1.414 0c.189.188.293.44.293.707s-.104.519-.293.707L17 18.413V22h2.87z" fill="#111111"/></g></svg>