<svg xmlns="http://www.w3.org/2000/svg" width="32" height="32" viewBox="0 0 32 32"><title>business contract handshake sign</title><g fill="#111" class="nc-icon-wrapper"><path fill="#111" d="M3 32a3.003 3.003 0 0 1-3-3V5a5.005 5.005 0 0 1 5-5h18.015A4.02 4.02 0 0 1 27 3.997V6a1 1 0 0 1-1 1h-5v6a1 1 0 0 1-2 0V4a3.97 3.97 0 0 1 .543-2H5a3.003 3.003 0 0 0-3 3v24a1 1 0 0 0 1 1h1.913a1 1 0 0 1 0 2H3zM25 5V4a2.013 2.013 0 0 0-2.001-2A2.013 2.013 0 0 0 21 4.003V5h4zM5 7a1 1 0 0 1 0-2h9a1 1 0 0 1 0 2H5zm0 4a1 1 0 0 1 0-2h9a1 1 0 0 1 0 2H5zm0 4a1 1 0 0 1 0-2h4.479a1 1 0 0 1 0 2H5zm12.96 16.952c-.561 0-1.105-.23-1.5-.63l-3.73-2.847h-1.245a2.528 2.528 0 0 1-2.14.998L9 29.475a1 1 0 0 1 0-2h.4l.059.501v-.5a.528.528 0 0 0 .542-.49L10 19.904c-.015-.219-.253-.431-.521-.431l-.051.001h-.427A1 1 0 1 1 9 17.475h.4l.107-.003a2.48 2.48 0 0 1 1.773.759l4.015-1.703a3.427 3.427 0 0 1 1.282-.25c.644 0 1.266.18 1.808.527l2.82-1.408a3.623 3.623 0 0 1 2.923-.168l5.85 2.306a2.43 2.43 0 0 1 .674-.058l.345-.001a1.001 1.001 0 0 1 .002 2h-.4l-.05-.001a.581.581 0 0 0-.124.014.961.961 0 0 1-.18.074.504.504 0 0 0-.248.401L30 27.048c.014.223.248.43.518.43H31a1 1 0 0 1 0 2h-.4a2.507 2.507 0 0 1-2.57-2.115l-4.957.992-3.77 3.112a2.112 2.112 0 0 1-1.342.485zm-4.893-5.477c.217 0 .433.073.606.205l4.066 3.101a.997.997 0 0 1 .14.131.11.11 0 0 0 .081.039.1.1 0 0 0 .068-.026l3.88-3.204a.987.987 0 0 1 .152-.125l1.65-1.361a.12.12 0 0 0 .027-.154L21.12 22.17l-.492.208a2.887 2.887 0 0 1-2.292-.028 3 3 0 0 1-1.571-1.669 2.997 2.997 0 0 1 .084-2.376 1.384 1.384 0 0 0-.792.072l-4.059 1.721.003 6.378h1.067zm12.194-2.69a2.11 2.11 0 0 1 .391 2.012l2.348-.47v-5.424c.019-.327.092-.634.215-.915l-4.803-1.892a1.644 1.644 0 0 0-1.301.084l-3.024 1.51a1.024 1.024 0 0 0-.456 1.275.992.992 0 0 0 .518.558.907.907 0 0 0 .704.008l3.007-1.27a1 1 0 0 1 .779 1.843l-.572.241 2.194 2.44z"/></g></svg>