<svg xmlns="http://www.w3.org/2000/svg" width="32" height="32" viewBox="0 0 32 32"><title>button refresh arrow</title><g fill="#111" class="nc-icon-wrapper"><path fill="#111" d="M16.964 29.996a13.89 13.89 0 0 1-5.359-1.072.996.996 0 0 1-.538-1.307.997.997 0 0 1 1.306-.54 11.899 11.899 0 0 0 4.594.919 11.913 11.913 0 0 0 8.272-3.319A11.88 11.88 0 0 0 28.92 16.3a11.881 11.881 0 0 0-3.309-8.532 11.856 11.856 0 0 0-8.644-3.687 11.895 11.895 0 0 0-8.265 3.314 11.916 11.916 0 0 0-3.662 7.777c-.186 2.667.5 5.264 1.95 7.452v-3.627a1 1 0 0 1 2 0v6a1 1 0 0 1-1 1h-.318a.485.485 0 0 1-.128 0H1.991a1 1 0 0 1 0-2h3.514a13.956 13.956 0 0 1-2.429-9.285l.01-.101.025-.263.008-.06a14.053 14.053 0 0 1 4.21-8.395 13.953 13.953 0 0 1 9.686-3.884c1.846 0 3.65.359 5.358 1.067a.987.987 0 0 1 .347.24 13.843 13.843 0 0 1 4.337 3.068c5.322 5.561 5.126 14.416-.436 19.737a13.907 13.907 0 0 1-9.654 3.874h-.003z"/></g></svg>