<svg xmlns="http://www.w3.org/2000/svg" width="32" height="32" viewBox="0 0 32 32"><title>button refresh arrows</title><g fill="#111" class="nc-icon-wrapper"><path fill="#111" d="M6.556 25.999H1a1 1 0 0 1 0-2h3.516a13.99 13.99 0 0 1-2.5-8.294 13.91 13.91 0 0 1 4.316-9.81 13.947 13.947 0 0 1 9.687-3.888c1.85 0 3.657.361 5.369 1.072A.997.997 0 0 1 21.004 5a.979.979 0 0 1-.384-.077 11.933 11.933 0 0 0-4.601-.919A11.956 11.956 0 0 0 7.715 7.34a11.924 11.924 0 0 0-3.7 8.409A11.968 11.968 0 0 0 6 22.625v-3.628A1 1 0 1 1 8 19v6a1 1 0 0 1-1 1h-.317a.485.485 0 0 1-.06.004L6.556 26zM15.993 30a13.94 13.94 0 0 1-5.384-1.077.996.996 0 0 1-.538-1.308.997.997 0 0 1 1.306-.54 11.948 11.948 0 0 0 4.616.925 11.947 11.947 0 0 0 8.312-3.344 11.921 11.921 0 0 0 3.69-8.413 11.964 11.964 0 0 0-1.996-6.877v3.632a1 1 0 0 1-1.999 0v-6a1 1 0 0 1 1-1h6a1 1 0 0 1 0 2h-3.513a14.004 14.004 0 0 1 2.509 8.286 13.917 13.917 0 0 1-4.304 9.816 13.947 13.947 0 0 1-9.699 3.9z"/></g></svg>