<svg xmlns="http://www.w3.org/2000/svg" viewBox="0 0 32 32" width="32" height="32"><title>calendar date</title><g class="nc-icon-wrapper" fill="#111111"><path d="M9 26a1 1 0 0 1 0-2h1v-6H9a1 1 0 0 1 0-2h1c1.103 0 2 .897 2 2v6h1a1 1 0 0 1 0 2H9zm10.44 0a.99.99 0 0 1-.91-.587.99.99 0 0 1-.025-.765L21 18h-2.556a1 1 0 0 1 0-2H21a1.992 1.992 0 0 1 1.417.593 1.99 1.99 0 0 1 .454 2.11l-2.494 6.649a1.008 1.008 0 0 1-.937.648zM3 32a3.003 3.003 0 0 1-3-3V7a3.003 3.003 0 0 1 3-3h5V1a1 1 0 0 1 2 0v3h12V1a1 1 0 0 1 2 0v3h5a3.003 3.003 0 0 1 3 3v22a3.003 3.003 0 0 1-3 3H3zm-1-3a1 1 0 0 0 1 1h26a1 1 0 0 0 1-1V14H2v15zm28-17V7a1 1 0 0 0-1-1h-5v2a1 1 0 0 1-2 0V6H10v2a1 1 0 0 1-2 0V6H3a1 1 0 0 0-1 1v5h28z" fill="#111111"/></g></svg>