<svg xmlns="http://www.w3.org/2000/svg" width="32" height="32" viewBox="0 0 32 32"><title>chat translate</title><g fill="#111" class="nc-icon-wrapper"><path fill="#111" d="M2.001.165C1.369.365.305 1.45.138 2.062c-.2.735-.188 11.178.014 11.861.096.324.385.747.781 1.144.709.708 1.278.933 2.363.933H4v2.67c0 2.66.001 2.67.306 3 .212.228.434.33.718.33.367 0 .657-.246 2.694-2.291C9.73 17.689 10 17.37 10 17.016 10 16.479 9.522 16 8.988 16c-.338 0-.598.195-1.694 1.274L6 18.547V16.58c0-1.921-.007-1.973-.307-2.273C5.404 14.018 5.305 14 4 14c-1.34 0-1.397-.011-1.693-.33L2 13.337V2.614l.307-.307L2.614 2h14.772l.307.307c.304.304.307.327.307 2.67 0 2.333.004 2.365.306 2.692.412.444.976.444 1.387 0 .304-.327.307-.357.306-2.719 0-1.333-.06-2.608-.137-2.888-.18-.657-1.237-1.699-1.939-1.908-.693-.207-15.27-.197-15.922.01m5 4c-.632.202-1.696 1.286-1.863 1.898C5.062 6.342 5 7.617 5 8.95c-.001 2.362.002 2.392.305 2.72.205.22.436.33.694.33.619 0 1-.507 1-1.33V10h2v.67c0 .823.381 1.33 1 1.33.258 0 .49-.11.694-.33.303-.328.306-.358.305-2.72 0-1.333-.06-2.608-.137-2.888-.18-.657-1.237-1.699-1.939-1.908A3.365 3.365 0 0 0 7 4.164m1.692 2.143c.252.252.307.43.307 1V8H7v-.693C7 6.473 7.362 6 8 6c.243 0 .5.113.693.307m5.308 3.857c-.632.202-1.696 1.286-1.863 1.898-.2.734-.188 11.178.014 11.861.203.687 1.238 1.722 1.925 1.925.34.1 1.52.152 3.497.152h2.982l3.009 3c2.693 2.684 3.052 3 3.416 3 .278 0 .502-.104.712-.33.306-.33.307-.34.307-3V26h.704c.388 0 .922-.065 1.189-.145.685-.206 1.466-.921 1.81-1.66l.294-.633.001-5.5c0-3.584-.047-5.674-.136-6-.18-.657-1.237-1.699-1.939-1.908-.693-.207-15.27-.197-15.922.01m15.692 2.143l.307.307v10.725l-.306.33c-.296.32-.355.331-1.694.331-1.305 0-1.404.018-1.693.307-.3.3-.307.352-.307 2.277v1.97l-2.289-2.277L21.422 24h-6.809l-.306-.33-.307-.332V12.614l.307-.307.307-.307h14.772l.307.307m-8.13.844c-.43.246-.555.514-.559 1.193L21 15h-1.693c-1.631 0-1.705.011-2 .307-.37.37-.394.884-.062 1.318.239.31.253.313 2.75.375l2.509.062-.47.797c-.652 1.102-1.82 2.342-2.56 2.717a4.55 4.55 0 0 1-1.26.389c-1.126.133-1.577.981-.907 1.704.387.418 1.119.443 2.21.075.841-.283 1.168-.465 1.954-1.09l.534-.425.44.386c.803.705 2.47 1.385 3.395 1.385.834 0 1.33-.661 1.034-1.377-.165-.399-.393-.516-1.536-.79-.734-.176-1.819-.748-2.012-1.06-.033-.055.188-.518.493-1.03s.615-1.113.69-1.337l.135-.406h.872c.781 0 .903-.034 1.178-.33.398-.43.398-.965 0-1.363-.296-.296-.37-.307-2-.307H23l-.004-.656c-.004-.692-.134-.96-.581-1.199-.338-.18-.531-.178-.852.006"/></g></svg>