<svg xmlns="http://www.w3.org/2000/svg" viewBox="0 0 32 32" width="32" height="32"><title>check circle</title><g class="nc-icon-wrapper" fill="#111111"><path d="M15.061 19.992a3.036 3.036 0 0 1-2.474-1.27l-4.392-6.149a1.001 1.001 0 0 1 1.628-1.162l4.392 6.148a1.023 1.023 0 0 0 .846.433 1.023 1.023 0 0 0 .791-.372L30.24.35a.996.996 0 0 1 1.408-.127.99.99 0 0 1 .356.677.99.99 0 0 1-.228.73L17.386 18.9a3.01 3.01 0 0 1-2.325 1.092zm-.057 11.968c-2.776 0-5.493-.775-7.861-2.239-7.026-4.348-9.203-13.6-4.856-20.625C5.036 4.653 9.808 2.001 15.05 2.001c2.776 0 5.493.775 7.86 2.239a1 1 0 1 1-1.054 1.7 12.94 12.94 0 0 0-6.809-1.939c-4.544 0-8.68 2.299-11.061 6.147C.22 16.235 2.107 24.252 8.195 28.02a12.93 12.93 0 0 0 6.809 1.94c4.544 0 8.68-2.299 11.063-6.148a12.956 12.956 0 0 0 .765-12.235.996.996 0 0 1 .493-1.326 1 1 0 0 1 1.326.493 14.953 14.953 0 0 1-.883 14.12c-2.75 4.443-7.52 7.096-12.764 7.096z" fill="#111111"/></g></svg>