<svg xmlns="http://www.w3.org/2000/svg" viewBox="0 0 32 32" width="32" height="32"><title>check circle 1</title><g class="nc-icon-wrapper" fill="#111111"><path d="M12.433 23.888a2.387 2.387 0 0 1-1.997-1.065l-3.253-4.616a1 1 0 0 1 1.636-1.152l3.266 4.636a.408.408 0 0 0 .348.197.392.392 0 0 0 .315-.159l10.47-13.246a1 1 0 1 1 1.566 1.24l-10.457 13.23a2.375 2.375 0 0 1-.564.528 2.373 2.373 0 0 1-1.33.407zM16 31.998c-8.823 0-16-7.177-16-16s7.177-16 16-16 16 7.178 16 16-7.177 16-16 16zm0-30c-7.72 0-14 6.28-14 14s6.28 14 14 14 14-6.28 14-14-6.28-14-14-14z" fill="#111111"/></g></svg>