<svg xmlns="http://www.w3.org/2000/svg" viewBox="0 0 32 32" width="32" height="32"><title>check double 1</title><g class="nc-icon-wrapper" fill="#111111"><path d="M14.139 27.807a2.975 2.975 0 0 1-2.118-.879l-3.969-3.97a.992.992 0 0 1 0-1.413.992.992 0 0 1 1.413 0l3.97 3.97a.99.99 0 0 0 .848.282.997.997 0 0 0 .66-.389L30.2 5.064a1.007 1.007 0 0 1 1.4-.201 1 1 0 0 1 .201 1.4L16.544 26.605a2.973 2.973 0 0 1-1.976 1.17 2.895 2.895 0 0 1-.43.032zm-7.57.14a2.983 2.983 0 0 1-2.097-.855L.48 23.107a1 1 0 1 1 1.412-1.416l3.97 3.962c.19.187.445.291.711.291a.987.987 0 0 0 .711-.299.997.997 0 0 1 1.415-.014.995.995 0 0 1 .016 1.414 2.976 2.976 0 0 1-2.146.902zm5.816-6.67a1 1 0 0 1-.798-1.6L22.44 5.205a1.007 1.007 0 0 1 1.4-.2c.441.332.53.96.2 1.4L13.187 20.877a1.007 1.007 0 0 1-.802.4z" fill="#111111"/></g></svg>