<svg xmlns="http://www.w3.org/2000/svg" width="32" height="32" viewBox="0 0 32 32"><title>check 2</title><g fill="#111" class="nc-icon-wrapper"><path fill="#111" d="M1.97.123A2.783 2.783 0 0 0 .405 1.355l-.343.583v28.125l.348.59c.225.383.554.712.937.937l.59.348h28.126l.59-.348c.383-.225.712-.554.937-.937l.348-.59V1.936l-.348-.59a2.666 2.666 0 0 0-.937-.937l-.59-.347L16.188.04C8.556.029 2.158.066 1.97.123M29.75 2.25c.247.247.25.417.25 13.75s-.003 13.503-.25 13.75c-.247.247-.417.25-13.75.25s-13.503-.003-13.75-.25C2.003 29.503 2 29.333 2 16s.003-13.503.25-13.75C2.497 2.003 2.667 2 16 2s13.503.003 13.75.25m-6.228 6.033c-.16.085-2.667 3.164-5.57 6.842-3.353 4.246-5.37 6.698-5.523 6.717-.185.023-.66-.566-2.032-2.52-1.737-2.471-1.946-2.69-2.559-2.695-.35-.003-.838.564-.838.97 0 .466 3.49 5.449 4.108 5.864.767.517 1.881.504 2.697-.03.29-.19 10.773-13.368 11.05-13.891.224-.423.173-.773-.162-1.108-.337-.337-.724-.386-1.171-.149"/></g></svg>