<svg xmlns="http://www.w3.org/2000/svg" width="32" height="32" viewBox="0 0 32 32"><title>coffee cup</title><g fill="#111" class="nc-icon-wrapper"><path fill="#111" d="M1 28a1 1 0 0 1 0-2h5.687A11.06 11.06 0 0 1 2 17V7a3.003 3.003 0 0 1 3-3h16c1.28 0 2.41.82 2.828 2H25a7.033 7.033 0 0 1 7 6.997c-.01 3.852-3.15 6.992-6.997 7.003h-1.42a10.95 10.95 0 0 1-4.262 6h11.68A1 1 0 1 1 31 28H1zM5 6a1 1 0 0 0-1 1v10c0 4.963 4.037 9 9 9s9-4.037 9-9V7a1 1 0 0 0-1-1H5zm20 12a5.027 5.027 0 0 0 5-5.003A5.027 5.027 0 0 0 24.997 8H24v9c0 .33-.016.664-.047 1H25z"/></g></svg>