<?xml version="1.0" encoding="utf-8"?>
<!-- Generator: Adobe Illustrator 22.1.0, SVG Export Plug-In . SVG Version: 6.00 Build 0)  -->
<svg version="1.1" id="Regular" xmlns="http://www.w3.org/2000/svg" xmlns:xlink="http://www.w3.org/1999/xlink" x="0px" y="0px"
	 viewBox="0 0 24 24" style="enable-background:new 0 0 24 24;" xml:space="preserve" width="32" height="32">
<title>coffee-cup-hot</title>
<g>
	<path d="M8.25,5.25c-0.2,0-0.389-0.078-0.53-0.22C7.578,4.889,7.5,4.7,7.5,4.5s0.078-0.389,0.22-0.53
		C8.013,3.677,8.025,3.64,7.626,3.041C7.272,2.51,6.535,1.405,7.72,0.22C7.861,0.078,8.05,0,8.25,0l0,0c0.2,0,0.389,0.078,0.53,0.22
		C8.922,0.361,9,0.55,9,0.75S8.922,1.139,8.78,1.28C8.487,1.573,8.475,1.61,8.874,2.209C9.228,2.74,9.965,3.845,8.78,5.03
		C8.639,5.172,8.45,5.25,8.25,5.25z"/>
	<path d="M12,5.25c-0.2,0-0.389-0.078-0.53-0.22c-0.142-0.141-0.22-0.33-0.22-0.53s0.078-0.389,0.22-0.53
		c0.293-0.293,0.306-0.329-0.094-0.929C11.022,2.51,10.285,1.405,11.47,0.22C11.611,0.078,11.8,0,12,0l0,0
		c0.2,0,0.389,0.078,0.53,0.22c0.142,0.141,0.22,0.33,0.22,0.53s-0.078,0.389-0.22,0.53c-0.293,0.293-0.306,0.329,0.094,0.929
		c0.354,0.531,1.091,1.637-0.094,2.821C12.389,5.172,12.2,5.25,12,5.25z"/>
	<path d="M15.75,5.25c-0.2,0-0.389-0.078-0.53-0.22C15.078,4.889,15,4.7,15,4.5s0.078-0.389,0.22-0.53
		c0.293-0.293,0.306-0.329-0.094-0.929C14.772,2.51,14.035,1.404,15.22,0.22C15.361,0.078,15.55,0,15.75,0l0,0
		c0.2,0,0.389,0.078,0.53,0.22c0.142,0.141,0.22,0.33,0.22,0.53s-0.078,0.389-0.22,0.53c-0.293,0.293-0.306,0.329,0.094,0.929
		c0.354,0.531,1.091,1.637-0.094,2.821C16.139,5.172,15.95,5.25,15.75,5.25z"/>
	<path d="M12,24c-6.414,0-11.25-1.935-11.25-4.5c0-1.018,0.699-2.434,3.967-3.49c-0.436-1.618-0.508-3.494-0.214-5.582
		C4.575,8.33,7.79,6.75,12,6.75c4.208,0,7.424,1.579,7.497,3.677c0.295,2.088,0.223,3.964-0.214,5.583
		c2.562,0.831,3.967,2.063,3.967,3.49C23.25,22.065,18.414,24,12,24z M5.225,17.423C3.173,18.085,2.25,18.932,2.25,19.5
		c0,1.542,4.738,3,9.75,3s9.75-1.458,9.75-3c0-0.571-0.923-1.419-2.975-2.078c-0.239,0.511-0.461,0.833-0.573,0.979
		C17.626,19.503,15.182,21,12,21c-3.182,0-5.626-1.497-6.203-2.599C5.687,18.255,5.464,17.934,5.225,17.423z M5.83,12.683
		c-0.027,3.307,1.169,4.819,1.182,4.835c0.046,0.054,0.087,0.122,0.117,0.192C7.282,18.078,9.155,19.5,12,19.5
		c2.845,0,4.718-1.422,4.871-1.789c0.031-0.074,0.073-0.141,0.124-0.201c0.008-0.01,1.202-1.521,1.175-4.827
		c-0.243,0.175-0.517,0.338-0.82,0.489c-0.021,0.011-0.042,0.022-0.064,0.032C15.897,13.879,14.021,14.25,12,14.25
		c-2.021,0-3.897-0.371-5.285-1.046c-0.023-0.01-0.044-0.021-0.066-0.032C6.347,13.021,6.073,12.858,5.83,12.683z M8.396,12.263
		C9.433,12.579,10.687,12.75,12,12.75c1.313,0,2.567-0.171,3.604-0.487c-0.965-0.661-2.114-1.021-3.286-1.021
		c-0.094,0-0.188,0.002-0.282,0.007c-0.006,0-0.03,0.001-0.036,0.001l-0.033-0.001c-0.095-0.005-0.188-0.007-0.281-0.007
		C10.511,11.243,9.361,11.602,8.396,12.263z M12,8.25c-3.717,0-6,1.31-6,2.25c0,0.338,0.316,0.732,0.857,1.082L6.97,11.47
		c0.015-0.016,0.034-0.032,0.053-0.048c1.309-1.083,2.965-1.679,4.663-1.679c0.105,0,0.21,0.002,0.315,0.007
		c0.106-0.005,0.212-0.007,0.318-0.007c1.696,0,3.351,0.596,4.66,1.68c0.019,0.015,0.037,0.032,0.054,0.05l0.111,0.111
		C17.684,11.232,18,10.838,18,10.5C18,9.56,15.717,8.25,12,8.25z"/>
</g>
</svg>
