<svg xmlns="http://www.w3.org/2000/svg" viewBox="0 0 32 32" width="32" height="32"><title>cog double</title><g class="nc-icon-wrapper" fill="#111111"><path d="M11.733 32.005a2.397 2.397 0 0 1-1.774-.789l-.668-.743A.387.387 0 0 0 9 30.347a.39.39 0 0 0-.288.126l-.668.743a2.401 2.401 0 0 1-3.383.173 2.381 2.381 0 0 1-.785-1.897l.05-.996a.396.396 0 0 0-.373-.417h-.041l-.996.052-.116.002a2.38 2.38 0 0 1-1.613-.628 2.376 2.376 0 0 1-.775-1.66 2.384 2.384 0 0 1 .785-1.88l.743-.668a.39.39 0 0 0 .127-.27.384.384 0 0 0-.102-.284l-.025-.026-.741-.666a2.381 2.381 0 0 1-.788-1.656 2.373 2.373 0 0 1 .614-1.726 2.405 2.405 0 0 1 1.896-.785l1.002.05c.236 0 .402-.163.414-.373a.2.2 0 0 0 0-.04l-.05-1a2.388 2.388 0 0 1 .637-1.73 2.382 2.382 0 0 1 1.665-.764l.084-.002c.668 0 1.31.28 1.762.767l.677.744a.395.395 0 0 0 .272.128h.004a.396.396 0 0 0 .31-.13l.663-.738a2.397 2.397 0 0 1 3.382-.173c.536.485.822 1.177.785 1.897l-.052.997a.395.395 0 0 0 .373.416h.043l.997-.05.12-.003a2.393 2.393 0 0 1 1.607 4.168l-.743.668a.39.39 0 0 0-.126.27.384.384 0 0 0 .132.315l.736.663c.476.43.754 1.017.788 1.656a2.38 2.38 0 0 1-.614 1.725 2.405 2.405 0 0 1-1.781.79l-.115-.003-1.001-.052c-.235 0-.403.164-.413.373a.2.2 0 0 0 0 .04l.052.999a2.397 2.397 0 0 1-2.268 2.513h-.13zm-8.201-5.929l.125.003a2.399 2.399 0 0 1 2.267 2.518l-.05.995a.39.39 0 0 0 .394.413.396.396 0 0 0 .29-.129l.666-.739a2.396 2.396 0 0 1 3.553-.001l.668.743a.396.396 0 0 0 .582-.003.39.39 0 0 0 .101-.284l-.052-.995a2.4 2.4 0 0 1 2.515-2.517l1.004.052c.133 0 .23-.047.305-.13a.39.39 0 0 0-.03-.554l-.74-.665a2.373 2.373 0 0 1-.787-1.898 2.38 2.38 0 0 1 .785-1.656l.744-.668a.387.387 0 0 0 .127-.309.39.39 0 0 0-.396-.375l-1.014.051a3.848 3.848 0 0 1-.125.003l-.125-.003a2.399 2.399 0 0 1-2.267-2.519l.052-.996a.39.39 0 0 0-.392-.412.385.385 0 0 0-.292.13l-.665.74a2.383 2.383 0 0 1-1.771.79l-.127-.002a2.383 2.383 0 0 1-1.654-.784l-.667-.734a.38.38 0 0 0-.28-.12.4.4 0 0 0-.29.126.384.384 0 0 0-.106.282l.05.983a2.397 2.397 0 0 1-2.397 2.519l-.121-.003-.997-.05a.39.39 0 0 0-.31.129.392.392 0 0 0 .029.556l.74.665a2.376 2.376 0 0 1 .786 1.897 2.378 2.378 0 0 1-.785 1.656l-.744.668a.39.39 0 0 0-.127.307.39.39 0 0 0 .128.273.373.373 0 0 0 .261.103l1.01-.052.129-.004zm5.47-.073c-1.655 0-3-1.346-3-3s1.345-3 3-3 3 1.345 3 3-1.347 3-3 3zm0-4a1 1 0 1 0 0 2 1 1 0 0 0 0-2zm11.262-3.998a2.393 2.393 0 0 1-2.388-2.516l.05-.996a.396.396 0 0 0-.373-.417l-.069-.5.027.5-.996.052-.11.003a2.395 2.395 0 0 1-1.61-4.168l.742-.668a.393.393 0 0 0 .026-.556l-.028-.028-.739-.664a2.381 2.381 0 0 1-.788-1.656 2.373 2.373 0 0 1 .615-1.726 2.399 2.399 0 0 1 1.896-.785l.998.05a.405.405 0 0 0 .416-.373v-.042l-.05-.998a2.387 2.387 0 0 1 .637-1.73 2.382 2.382 0 0 1 1.665-.764l.088-.002a2.4 2.4 0 0 1 1.756.767l.676.744a.393.393 0 0 0 .586-.001l.664-.738A2.397 2.397 0 0 1 27.337.62c.536.485.823 1.177.786 1.899l-.052.996a.395.395 0 0 0 .373.417h.043l.997-.05.12-.003a2.392 2.392 0 0 1 1.607 4.168l-.743.668a.39.39 0 0 0-.127.27.39.39 0 0 0 .131.314l.737.662a2.397 2.397 0 0 1 .174 3.382 2.408 2.408 0 0 1-1.784.788l-.112-.003-1.003-.052a.401.401 0 0 0-.283.1.388.388 0 0 0-.129.272v.043l.052.996A2.396 2.396 0 0 1 25.856 18l-.117.003a2.404 2.404 0 0 1-1.78-.788l-.668-.744a.387.387 0 0 0-.291-.127.39.39 0 0 0-.264.101l-.03.03-.663.737a2.381 2.381 0 0 1-1.779.793zm-2.732-5.929l.127.003a2.398 2.398 0 0 1 2.264 2.518l-.051.995a.39.39 0 0 0 .392.413.397.397 0 0 0 .293-.129l.666-.74a2.39 2.39 0 0 1 1.777-.79 2.4 2.4 0 0 1 1.776.787l.67.744a.396.396 0 0 0 .582-.001.385.385 0 0 0 .1-.283l-.052-.996a2.376 2.376 0 0 1 .79-1.906 2.392 2.392 0 0 1 1.729-.611l.997.052a.393.393 0 0 0 .281-.685l-.738-.666a2.376 2.376 0 0 1-.787-1.896c.032-.638.31-1.226.784-1.656l.744-.669a.387.387 0 0 0 .127-.31.387.387 0 0 0-.13-.271.372.372 0 0 0-.257-.102l-1.024.052a1.907 1.907 0 0 1-.252 0 2.379 2.379 0 0 1-1.653-.79 2.375 2.375 0 0 1-.611-1.728l.052-.995a.39.39 0 0 0-.392-.413.385.385 0 0 0-.292.129l-.665.74a2.383 2.383 0 0 1-1.776.79 2.4 2.4 0 0 1-1.776-.786l-.667-.735a.396.396 0 0 0-.675.29l.051.981a2.392 2.392 0 0 1-2.52 2.516l-.995-.05a.41.41 0 0 0-.31.129.385.385 0 0 0-.1.282c.005.107.05.2.129.272l.74.666a2.397 2.397 0 0 1 .003 3.552l-.744.668a.39.39 0 0 0-.127.306.39.39 0 0 0 .128.274.384.384 0 0 0 .264.104l1.007-.052a3.453 3.453 0 0 1 .121-.003zm5.47-.073c-1.655 0-3-1.346-3-3s1.345-3 3-3 3 1.345 3 3-1.347 3-3 3zm0-4a1 1 0 1 0 0 2 1 1 0 0 0 0-2z" fill="#111111"/></g></svg>