<svg xmlns="http://www.w3.org/2000/svg" width="32" height="32" viewBox="0 0 32 32"><title>cog play</title><g fill="#111" class="nc-icon-wrapper"><path fill="#111" d="M9.867.163c-1.071.303-2.075 1.27-2.432 2.344-.183.551-.207.915-.143 2.117.068 1.258.048 1.507-.148 1.873-.4.746-.837.88-2.765.847-1.967-.033-2.267.057-3.247.974-1.04.972-1.359 2.234-.934 3.69.173.593.363.843 1.49 1.961 1.914 1.898 1.915 2.166.008 4.065C.672 19.054.37 19.437.206 19.93c-.439 1.31-.16 2.565.803 3.62.934 1.022 1.566 1.224 3.669 1.176 1.473-.034 1.668-.013 1.973.213.573.423.703.947.634 2.562-.076 1.775.144 2.495 1.041 3.405.992 1.006 2.263 1.314 3.682.894.59-.175.848-.371 1.958-1.49 1.892-1.907 2.197-1.91 4-.049.965.996 1.328 1.285 1.87 1.488 1.394.522 2.685.232 3.792-.85.985-.964 1.189-1.642 1.074-3.581-.071-1.202-.052-1.435.15-1.807.403-.75.851-.892 2.524-.802 1.85.1 2.506-.089 3.461-.992 1.075-1.017 1.396-2.26.962-3.725-.175-.589-.371-.847-1.49-1.957-1.911-1.897-1.912-2.168-.005-4.068C31.68 12.595 32 12.024 32 10.938c0-1.341-.875-2.733-2.096-3.334-.537-.265-.759-.292-2.41-.292-2.048 0-2.296-.08-2.67-.867-.178-.377-.199-.664-.127-1.796.11-1.745-.083-2.481-.887-3.375C23.014.388 22.302.069 21.125.069c-1.297 0-1.816.28-3.226 1.739-1.706 1.765-2.172 1.762-3.843-.03C13.46 1.142 12.803.57 12.474.407c-.702-.35-1.85-.457-2.607-.243m1.54 1.95c.163.062.856.675 1.539 1.362 1.072 1.078 1.334 1.275 1.92 1.449.856.253 1.41.254 2.268.001.593-.174.84-.363 1.95-1.492 1.321-1.344 1.747-1.582 2.436-1.364 1.035.327 1.262.85 1.153 2.654-.065 1.06-.039 1.494.122 2.047.25.864 1.083 1.836 1.926 2.251.538.265.758.291 2.426.291 2.078 0 2.381.11 2.712.977.322.847.138 1.22-1.292 2.627-1.129 1.11-1.318 1.357-1.492 1.95-.255.867-.253 1.556.007 2.33.164.49.47.881 1.496 1.908 1.42 1.422 1.595 1.78 1.28 2.607-.329.865-.634.975-2.711.984-1.73.007-1.87.026-2.475.338-.873.45-1.626 1.333-1.879 2.203-.159.546-.185.984-.12 2.041.095 1.574-.045 2.073-.697 2.47-.462.281-1.15.322-1.559.092-.149-.083-.717-.63-1.263-1.214-1.268-1.356-1.856-1.669-3.15-1.672-1.284-.003-1.917.335-3.214 1.722-1.284 1.373-1.885 1.609-2.753 1.08-.703-.429-.82-.83-.723-2.487.078-1.323.06-1.523-.194-2.195-.35-.93-1.06-1.71-1.904-2.088-.595-.268-.803-.291-2.315-.264-1.87.034-2.237-.071-2.656-.758-.534-.876-.289-1.485 1.128-2.807.638-.595 1.213-1.256 1.361-1.562.385-.796.462-1.784.208-2.667-.191-.668-.33-.855-1.432-1.927-.671-.653-1.286-1.31-1.365-1.46-.38-.716.026-1.79.796-2.112.338-.141.74-.164 1.782-.1 1.06.064 1.494.038 2.047-.123.865-.251 1.827-1.075 2.244-1.922.267-.541.294-.761.296-2.413.002-1.547.037-1.87.23-2.167.376-.573 1.214-.838 1.866-.59m-.1 8.819L11 11.24v10.1l.306.33c.187.202.44.331.647.331.402 0 8.332-4.592 8.766-5.075.357-.4.357-.826 0-1.224-.434-.484-8.365-5.076-8.766-5.076-.194 0-.471.132-.646.307m5.594 4.734c.598.35 1.076.647 1.062.658-.025.021-1.712 1.015-3.87 2.28L13 19.246v-5.863l1.406.824 2.495 1.46"/></g></svg>