<svg xmlns="http://www.w3.org/2000/svg" viewBox="0 0 32 32" width="32" height="32"><title>cog double 2</title><g class="nc-icon-wrapper" fill="#111111"><path d="M14.42 31.993a2.747 2.747 0 0 1-2.032-.902l-.839-.936a.741.741 0 0 0-1.1.005l-.83.928a2.752 2.752 0 0 1-2.039.905 2.733 2.733 0 0 1-2.736-2.878l.063-1.246a.744.744 0 0 0-.706-.778h-.076l-1.244.062a2.74 2.74 0 0 1-1.976-4.77l.928-.836a.745.745 0 0 0-.001-1.102l-.925-.834a2.721 2.721 0 0 1-.9-1.896 2.74 2.74 0 0 1 2.878-2.875l1.283.064a.74.74 0 0 0 .74-.777l-.065-1.252a2.725 2.725 0 0 1 .704-1.976 2.727 2.727 0 0 1 2.032-.904 2.75 2.75 0 0 1 2.036.902l.837.935a.739.739 0 0 0 .512.241h.033a.748.748 0 0 0 .554-.242l.833-.931a2.752 2.752 0 0 1 2.039-.905 2.733 2.733 0 0 1 2.736 2.878l-.063 1.246a.737.737 0 0 0 .69.78h.085l1.249-.063a2.73 2.73 0 0 1 2.877 2.595 2.73 2.73 0 0 1-.902 2.178l-.924.835a.744.744 0 0 0 .004 1.107l.921.832c.543.489.863 1.161.901 1.892a2.724 2.724 0 0 1-.7 1.977 2.75 2.75 0 0 1-2.045.905l-.13-.002-1.278-.064a.739.739 0 0 0-.748.782l.063 1.244a2.745 2.745 0 0 1-2.599 2.876h-.14zm-3.421-4.08l.138.003a2.728 2.728 0 0 1 1.898.899l.84.937a.747.747 0 0 0 .552.24h.034a.743.743 0 0 0 .7-.777l-.062-1.247A2.727 2.727 0 0 1 16 25.792a2.73 2.73 0 0 1 1.976-.701l1.244.062h.038a.737.737 0 0 0 .742-.777.741.741 0 0 0-.244-.512l-.926-.837a2.728 2.728 0 0 1-.899-2.175 2.721 2.721 0 0 1 .9-1.895l.925-.836a.735.735 0 0 0 .002-1.101.744.744 0 0 0-.492-.19l-1.29.063a2.49 2.49 0 0 1-.301 0 2.72 2.72 0 0 1-1.885-.908 2.712 2.712 0 0 1-.691-1.974l.063-1.239a.743.743 0 0 0-.739-.779.745.745 0 0 0-.55.244l-.835.932a2.72 2.72 0 0 1-2.178.903 2.733 2.733 0 0 1-1.894-.899l-.84-.937a.725.725 0 0 0-.546-.241l-.038.001a.747.747 0 0 0-.703.777l.063 1.246a2.73 2.73 0 0 1-2.883 2.876l-1.27-.063a.74.74 0 0 0-.747.779.743.743 0 0 0 .242.513l.926.835a2.747 2.747 0 0 1 .001 4.069l-.928.837a.739.739 0 0 0 .504 1.29l1.277-.064a2.36 2.36 0 0 1 .276 0 2.727 2.727 0 0 1 1.895.9 2.72 2.72 0 0 1 .705 1.976l-.061 1.248a.739.739 0 0 0 1.29.534l.833-.93a2.75 2.75 0 0 1 2.036-.906zM11 24.501c-1.93 0-3.5-1.569-3.5-3.5s1.57-3.5 3.5-3.5 3.5 1.57 3.5 3.5-1.57 3.5-3.5 3.5zm0-5c-.827 0-1.5.674-1.5 1.5s.673 1.5 1.5 1.5 1.5-.673 1.5-1.5-.672-1.5-1.5-1.5zM23.35 7.167a1.5 1.5 0 0 0 3 0 1.5 1.5 0 0 0-3 0m2.883 7.15a2.013 2.013 0 0 1-1.562-.748l-1.152-1.433-1.715.665a1.996 1.996 0 0 1-2.588-2.589l.667-1.715-1.434-1.153a1.981 1.981 0 0 1-.734-1.341 1.996 1.996 0 0 1 1.681-2.191l1.817-.281.282-1.818A2.013 2.013 0 0 1 23.772.041a1.99 1.99 0 0 1 1.257.726l1.152 1.432 1.714-.667a2.003 2.003 0 0 1 1.53.032 2.005 2.005 0 0 1 1.059 2.557l-.667 1.715 1.432 1.152c.416.333.678.81.736 1.341s-.094 1.054-.429 1.471a1.996 1.996 0 0 1-1.253.724l-1.818.281-.281 1.819a1.987 1.987 0 0 1-.795 1.308 1.977 1.977 0 0 1-1.176.385zm-2.713-4.182a1.99 1.99 0 0 1 1.557.748l1.152 1.433.282-1.819a1.993 1.993 0 0 1 1.673-1.67L30 8.547l-1.433-1.152a1.99 1.99 0 0 1-.611-2.284l.667-1.715-1.714.667a1.99 1.99 0 0 1-2.284-.61L23.472 2.02l-.28 1.816a1.997 1.997 0 0 1-1.672 1.67l-1.819.282 1.434 1.152c.682.548.928 1.465.61 2.283l-.666 1.714 1.714-.666c.235-.091.479-.136.727-.136z" fill="#111111"/></g></svg>