<svg xmlns="http://www.w3.org/2000/svg" width="32" height="32" viewBox="0 0 32 32"><title>cog</title><g fill="#111" class="nc-icon-wrapper"><path fill="#111" d="M10.875 31.984a3.602 3.602 0 0 1-2.43-.939 3.603 3.603 0 0 1-1.177-2.837l.096-1.872a1.613 1.613 0 0 0-1.608-1.695c-.028 0-.055 0-.083.003l-1.868.095a3.597 3.597 0 0 1-2.604-.923 3.59 3.59 0 0 1-1.189-2.495 3.597 3.597 0 0 1 1.183-2.865l1.389-1.253a1.61 1.61 0 0 0 0-2.395l-1.39-1.261a3.583 3.583 0 0 1-1.18-2.499 3.61 3.61 0 0 1 3.78-3.783l1.869.095a1.612 1.612 0 0 0 1.694-1.692l-.089-1.875a3.616 3.616 0 0 1 3.61-3.782c1.014 0 1.986.43 2.669 1.181L14.8 2.577a1.6 1.6 0 0 0 1.202.535 1.583 1.583 0 0 0 1.189-.53l1.267-1.39A3.585 3.585 0 0 1 21.135.005a3.61 3.61 0 0 1 3.609 3.796l-.095 1.867a1.613 1.613 0 0 0 1.528 1.69l.082.002.076-.001 1.866-.095.184-.004c.896 0 1.755.332 2.42.936a3.594 3.594 0 0 1 1.183 2.499 3.6 3.6 0 0 1-1.185 2.857l-1.39 1.253a1.6 1.6 0 0 0-.528 1.115 1.6 1.6 0 0 0 .528 1.277l1.39 1.255a3.59 3.59 0 0 1 1.186 2.497 3.583 3.583 0 0 1-.926 2.604 3.627 3.627 0 0 1-2.687 1.19l-.175-.004-1.869-.095-.088-.003c-.403 0-.773.144-1.075.415a1.592 1.592 0 0 0-.529 1.28l.095 1.867a3.597 3.597 0 0 1-.944 2.604 3.587 3.587 0 0 1-2.682 1.176c-1 0-1.965-.428-2.648-1.174l-1.258-1.392a1.617 1.617 0 0 0-2.394 0l-1.261 1.39a3.627 3.627 0 0 1-2.673 1.177zm-5.119-9.341a3.616 3.616 0 0 1 3.605 3.797l-.096 1.867a1.607 1.607 0 0 0 1.608 1.68l.079-.002a1.6 1.6 0 0 0 1.116-.525l1.259-1.387a3.607 3.607 0 0 1 2.677-1.189 3.62 3.62 0 0 1 2.683 1.19l1.254 1.387c.302.33.736.519 1.195.519l.065-.001a1.613 1.613 0 0 0 1.536-1.683l-.094-1.86a3.584 3.584 0 0 1 1.186-2.865 3.596 3.596 0 0 1 2.606-.926l1.865.095.092.003a1.6 1.6 0 0 0 1.185-.532c.29-.32.436-.734.415-1.163a1.599 1.599 0 0 0-.53-1.115l-1.389-1.253a3.617 3.617 0 0 1 0-5.363l1.39-1.253c.36-.325.552-.79.528-1.275a1.6 1.6 0 0 0-.528-1.116 1.604 1.604 0 0 0-1.079-.417l-.083.003-1.865.094a3.933 3.933 0 0 1-.36-.001 3.613 3.613 0 0 1-3.424-3.787l.095-1.868a1.6 1.6 0 0 0-.53-1.277 1.568 1.568 0 0 0-1.069-.416l-.09.003a1.596 1.596 0 0 0-1.117.529l-1.264 1.387a3.604 3.604 0 0 1-2.864 1.185A3.588 3.588 0 0 1 13.32 3.92l-1.252-1.384a1.617 1.617 0 0 0-1.192-.525l-.076.001a1.613 1.613 0 0 0-1.534 1.687l.09 1.866A3.61 3.61 0 0 1 5.56 9.357l-1.865-.093a1.613 1.613 0 0 0-1.683 1.685 1.6 1.6 0 0 0 .527 1.115l1.388 1.26a3.617 3.617 0 0 1-.003 5.361L2.536 19.94c-.36.325-.552.792-.527 1.277a1.605 1.605 0 0 0 1.607 1.527c.028 0 .057 0 .085-.003l1.868-.095.187-.002zM16 23c-3.86 0-7-3.14-7-7s3.14-7 7-7 7 3.14 7 7-3.14 7-7 7zm0-12c-2.757 0-5 2.243-5 5s2.243 5 5 5 5-2.243 5-5-2.243-5-5-5z"/></g></svg>