<svg xmlns="http://www.w3.org/2000/svg" width="32" height="32" viewBox="0 0 32 32"><title>common file empty</title><g fill="#111" class="nc-icon-wrapper"><path fill="#111" d="M3.25.117c-.858.26-1.517.811-1.954 1.633-.224.42-.234 1.013-.234 14.25s.01 13.83.234 14.25a3.425 3.425 0 0 0 1.391 1.418l.5.27h25.626l.5-.27a3.425 3.425 0 0 0 1.392-1.418c.222-.418.233-.966.233-12.313V6.063l-.27-.5c-.148-.274-1.329-1.545-2.625-2.822C26.053.777 25.592.385 25.072.209 24.515.02 23.454 0 14.008.01 8.263.017 3.421.064 3.249.117M26.516 4.03c1.173 1.116 2.212 2.182 2.309 2.368.146.284.175 2.161.175 11.463 0 7.393-.044 11.237-.13 11.464-.267.703.421.667-12.87.667-13.291 0-12.603.036-12.87-.667-.194-.51-.18-26.374.015-26.74.318-.597-.052-.577 10.89-.581L24.383 2l2.133 2.03"/></g></svg>