<svg xmlns="http://www.w3.org/2000/svg" width="32" height="32" viewBox="0 0 32 32"><title>common file add</title><g fill="#111" class="nc-icon-wrapper"><path fill="#111" d="M2.001.163C1.368.367.305 1.45.138 2.063c-.205.75-.191 23.165.014 23.86.203.687 1.238 1.722 1.925 1.925.361.107 1.825.152 4.912.152h4.398l.306-.33c.399-.43.399-.965 0-1.363L11.386 26H2.613l-.306-.33L2 25.337V2.614l.307-.307L2.614 2h14.94l2.223 2.223L22 6.445v2.447c0 2.424.003 2.45.306 2.777.415.448.976.444 1.396-.009l.315-.34-.04-2.691c-.035-2.354-.07-2.746-.276-3.129-.332-.616-4.396-4.703-5.076-5.105l-.563-.333-7.812-.02C4.745.028 2.309.063 2.001.162m19.062 14.042c-.482.102-1.408.442-2.059.756-1.008.487-1.353.741-2.323 1.712-.964.964-1.23 1.324-1.72 2.328-.756 1.547-1.024 2.861-.918 4.498.097 1.48.31 2.283.953 3.583.86 1.74 2.756 3.509 4.566 4.262.883.367 2.398.657 3.438.657s2.555-.29 3.438-.657c1.81-.753 3.706-2.523 4.566-4.262.643-1.3.856-2.103.953-3.583.105-1.613-.166-2.939-.917-4.494-.488-1.008-.741-1.353-1.716-2.328-.976-.975-1.319-1.228-2.328-1.715-1.914-.923-3.923-1.18-5.933-.756m3.74 2.043c4.205 1.075 6.42 5.97 4.459 9.854-1.783 3.53-6.019 4.888-9.542 3.057-1.664-.866-3.095-2.709-3.528-4.547-.539-2.287.138-4.734 1.784-6.447 1.789-1.861 4.294-2.565 6.828-1.917m-2.497 2.059c-.296.295-.307.369-.307 2V22h-1.693c-1.631 0-1.705.011-2 .307-.399.398-.399.932 0 1.362.302.327.329.331 2 .331H22v1.67c0 1.598.013 1.683.306 2 .412.443.976.443 1.387 0 .294-.317.307-.402.307-2V24h1.694c1.67 0 1.697-.004 2-.33.398-.43.398-.965 0-1.363-.296-.296-.37-.307-2-.307H24v-1.693c0-1.631-.011-1.705-.307-2A1.007 1.007 0 0 0 23 18c-.244 0-.5.113-.693.307"/></g></svg>