<svg xmlns="http://www.w3.org/2000/svg" viewBox="0 0 32 32" width="32" height="32"><title>common file text</title><g class="nc-icon-wrapper" fill="#111111"><path d="M4 32a3.003 3.003 0 0 1-3-3V3a3.003 3.003 0 0 1 3-3h20.06c.79 0 1.532.303 2.096.852l3.939 3.844A3.02 3.02 0 0 1 31 6.844V29a3.003 3.003 0 0 1-3 3H4zM4 2a1 1 0 0 0-1 1v26a1 1 0 0 0 1 1h24a1 1 0 0 0 1-1V6.844a1.005 1.005 0 0 0-.303-.716L24.76 2.284a.995.995 0 0 0-.7-.284H4zm4.06 10a1 1 0 0 1 0-2h16a1 1 0 0 1 0 2h-16zm0 6a1 1 0 0 1 0-2h16a1 1 0 0 1 0 2h-16zm0 6a1 1 0 0 1 0-2h8a1 1 0 0 1 0 2h-8z" fill="#111111"/></g></svg>