<svg xmlns="http://www.w3.org/2000/svg" width="32" height="32" viewBox="0 0 32 32"><title>common file text edit</title><g fill="#111" class="nc-icon-wrapper"><path fill="#111" d="M15.001 32a.99.99 0 0 1-.706-.293.993.993 0 0 1-.274-.903l1-5a.997.997 0 0 1 .274-.512l10.173-10.173A3.792 3.792 0 0 1 28.169 14c1.018 0 1.974.395 2.694 1.11 1.453 1.491 1.465 3.853.048 5.393a.596.596 0 0 1-.028.029L20.709 30.705a.992.992 0 0 1-.512.274l-4.998 1A.912.912 0 0 1 15 32zm1.275-2.275l3.232-.646 9.95-9.951c.666-.73.673-1.901 0-2.593l-.029-.03A1.787 1.787 0 0 0 28.17 16l-.001-.5v.5c-.485 0-.943.19-1.285.533l-9.96 9.96-.647 3.232zM5.001 10a1 1 0 0 1 0-2h14a1 1 0 0 1 0 2h-14zm0 6a1 1 0 0 1 0-2h14a1 1 0 0 1 0 2h-14zm0 6a1 1 0 0 1 0-2h7a1 1 0 0 1 0 2h-7zm-2 6a3.003 3.003 0 0 1-3-3V3c0-1.655 1.347-3 3-3h14.172a2.98 2.98 0 0 1 2.12.877l3.83 3.83A2.98 2.98 0 0 1 24 6.827V11a1 1 0 0 1-2 0V6.828c0-.263-.106-.52-.292-.707L17.88 2.292A.997.997 0 0 0 17.173 2H3.001a1 1 0 0 0-1 1v22a1 1 0 0 0 1 1h7a1 1 0 0 1 0 2h-7z"/></g></svg>