<svg xmlns="http://www.w3.org/2000/svg" width="32" height="32" viewBox="0 0 32 32"><title>common file search</title><g fill="#111" class="nc-icon-wrapper"><path fill="#111" d="M3 28a3.003 3.003 0 0 1-3-3V3a3.003 3.003 0 0 1 3-3h14.172c.801 0 1.553.312 2.12.877l3.83 3.83A2.98 2.98 0 0 1 24 6.828V10a1 1 0 0 1-2 0V6.828c0-.263-.107-.52-.292-.707l-3.83-3.829A.997.997 0 0 0 17.173 2H3a1 1 0 0 0-1 1v22a1 1 0 0 0 1 1h7a1 1 0 0 1 0 2H3zm28 4a.99.99 0 0 1-.708-.295l-4.372-4.389a7.99 7.99 0 0 1-4.901 1.683c-4.411 0-8-3.59-8-8s3.589-8 8-8 8 3.589 8 8a7.987 7.987 0 0 1-1.686 4.902l4.375 4.391A1.001 1.001 0 0 1 31 32zm-9.981-17c-3.308 0-6 2.692-6 6s2.692 6 6 6 6-2.692 6-6-2.692-6-6-6z"/></g></svg>