<svg xmlns="http://www.w3.org/2000/svg" width="32" height="32" viewBox="0 0 32 32"><title>computer chip search</title><g fill="#111" class="nc-icon-wrapper"><path fill="#111" d="M11.5 19a1 1 0 0 1-1-1v-1h-3v1a1 1 0 0 1-2 0v-1h-1A2.503 2.503 0 0 1 2 14.5V13H1a1 1 0 0 1 0-2h1V8H1a1 1 0 0 1 0-2h1v-.5C2 4.121 3.121 3 4.5 3H5V1a1 1 0 0 1 2 0v2h4V1a1 1 0 0 1 2 0v2h.5C14.879 3 16 4.121 16 5.5V6h1a1 1 0 0 1 0 2h-1v3h1a1 1 0 0 1 0 2h-1v1.5a2.503 2.503 0 0 1-2.5 2.5h-1v1a1 1 0 0 1-1 1zm-7-14a.5.5 0 0 0-.5.5v9a.5.5 0 0 0 .5.5h9a.5.5 0 0 0 .5-.5v-9a.5.5 0 0 0-.5-.5h-9zM8 13a1 1 0 0 1 0-2h3a1 1 0 0 1 0 2H8zm23 19a.999.999 0 0 1-.659-.248l-7.394-6.47a13.215 13.215 0 0 1-2.463 1.497 12.907 12.907 0 0 1-9.941.43 12.993 12.993 0 0 1-6.959-5.982 1.003 1.003 0 0 1 .877-1.48c.367 0 .703.2.879.521a10.995 10.995 0 0 0 5.888 5.063 10.984 10.984 0 0 0 3.773.67 10.901 10.901 0 0 0 4.638-1.034 10.93 10.93 0 0 0 5.69-6.206 10.924 10.924 0 0 0-.364-8.412 10.93 10.93 0 0 0-6.205-5.69.996.996 0 0 1-.597-1.283 1 1 0 0 1 1.281-.596 12.92 12.92 0 0 1 7.333 6.724 12.91 12.91 0 0 1 .431 9.94 12.89 12.89 0 0 1-2.767 4.487l7.218 6.314a.997.997 0 0 1 .094 1.411A1 1 0 0 1 31 32z"/></g></svg>