<svg xmlns="http://www.w3.org/2000/svg" viewBox="0 0 32 32" width="32" height="32"><title>computer chip</title><g class="nc-icon-wrapper" fill="#111111"><path d="M23 31a1 1 0 0 1-1-1v-2h-5v2a1 1 0 0 1-2 0v-2h-5v2a1 1 0 0 1-2 0v-2H7a3.003 3.003 0 0 1-3-3v-1H2a1 1 0 0 1 0-2h2v-5H2a1 1 0 0 1 0-2h2v-5H2a1 1 0 0 1 0-2h2V7a3.003 3.003 0 0 1 3-3h1V2a1 1 0 0 1 2 0v2h5V2a1 1 0 0 1 2 0v2h5V2a1 1 0 0 1 2 0v2h1a3.003 3.003 0 0 1 3 3v1h2a1 1 0 0 1 0 2h-2v5h2a1 1 0 0 1 0 2h-2v5h2a1 1 0 0 1 0 2h-2v1a3.003 3.003 0 0 1-3 3h-1v2a1 1 0 0 1-1 1zM7 6a1 1 0 0 0-1 1v18a1 1 0 0 0 1 1h18a1 1 0 0 0 1-1V7a1 1 0 0 0-1-1H7zm4 18a3.003 3.003 0 0 1-3-3V11a3.003 3.003 0 0 1 3-3h10a3.003 3.003 0 0 1 3 3v10a3.003 3.003 0 0 1-3 3H11zm0-14a1 1 0 0 0-1 1v10a1 1 0 0 0 1 1h10a1 1 0 0 0 1-1V11a1 1 0 0 0-1-1H11zm5 10a1 1 0 0 1 0-2h3a1 1 0 0 1 0 2h-3z" fill="#111111"/></g></svg>