<svg xmlns="http://www.w3.org/2000/svg" viewBox="0 0 32 32" width="32" height="32"><title>controls play</title><g class="nc-icon-wrapper" fill="#111111"><path d="M3.778 1.692c-.717.363-1.145.84-1.458 1.624-.18.452-.196 1.768-.166 12.885l.034 12.381.378.612c.234.38.61.756.99.99.54.334.723.379 1.56.379h.947l11.187-5.978c12.099-6.464 12.115-6.474 12.474-7.674.328-1.094.051-2.237-.726-3-.341-.335-3.76-2.226-11.705-6.471C6.153 1.487 6.063 1.442 5.253 1.4c-.687-.035-.92.01-1.475.292m12.548 7.53c5.989 3.212 11.011 5.925 11.16 6.028.162.111.302.377.346.652.062.385.024.51-.223.729-.163.145-5.218 2.902-11.234 6.126-7.77 4.166-11.053 5.864-11.335 5.865-.282.002-.472-.092-.656-.326-.258-.328-.259-.379-.259-12.318V3.988l.307-.306c.181-.182.45-.306.656-.304.219.001 4.416 2.184 11.238 5.843" fill="#111111"/></g></svg>