<svg xmlns="http://www.w3.org/2000/svg" width="32" height="32" viewBox="0 0 32 32"><title>copy paste</title><g fill="#111" class="nc-icon-wrapper"><path fill="#111" d="M3 31.997a3.003 3.003 0 0 1-3-3v-22a3.003 3.003 0 0 1 3-3h3.945L6.491 2.63a1.979 1.979 0 0 1 .106-1.524A1.977 1.977 0 0 1 7.751.101c.206-.069.408-.105.596-.105l.065.001h11.2c.535 0 1.035.207 1.412.582a1.987 1.987 0 0 1 .485 2.054l-.456 1.364H25a3.003 3.003 0 0 1 3 3v4a1 1 0 0 1-2 0v-4a1 1 0 0 0-1-1h-4.613l-.211.632a2 2 0 0 1-1.897 1.368H9.72a2 2 0 0 1-1.897-1.366l-.212-.634H3a1 1 0 0 0-1 1v22a1 1 0 0 0 1 1h8a1 1 0 0 1 0 2H3zm5.385-30l1.335 4h8.559l1.333-4H8.385zm8.615 30a3.003 3.003 0 0 1-3-3v-12a3.003 3.003 0 0 1 3-3h12a3.003 3.003 0 0 1 3 3v12a3.003 3.003 0 0 1-3 3H17zm0-16a1 1 0 0 0-1 1v12a1 1 0 0 0 1 1h12a1 1 0 0 0 1-1v-12a1 1 0 0 0-1-1H17zm2 4a1 1 0 0 1 0-2h8a1 1 0 0 1 0 2h-8zm0 4a1 1 0 0 1 0-2h8a1 1 0 0 1 0 2h-8zm0 4a1 1 0 0 1 0-2h3a1 1 0 0 1 0 2h-3z"/></g></svg>