<svg xmlns="http://www.w3.org/2000/svg" viewBox="0 0 32 32" width="32" height="32"><title>database</title><g class="nc-icon-wrapper" fill="#111111"><path d="M8 32.001a1 1 0 0 1 0-2h7v-4.014C6.415 25.77 0 22.804 0 19V7c0-3.99 6.879-7 16-7s16 3.01 16 7v12c0 3.803-6.415 6.77-15 6.986V30h7a1 1 0 0 1 0 2H8zm-6-13c0 2.044 4.985 5 14 5s14-2.956 14-5v-2.516c-2.737 2.163-8.03 3.516-14 3.516S4.739 18.647 2 16.485v2.516zm0-6c0 2.044 4.985 5 14 5s14-2.956 14-5v-2.516c-2.737 2.162-8.03 3.516-14 3.516S4.739 12.647 2 10.485v2.516zm14-11c-9.015 0-14 2.956-14 5s4.985 5 14 5 14-2.956 14-5-4.985-5-14-5zM27 30.5a1.5 1.5 0 0 0 3 0 1.5 1.5 0 0 0-3 0M3.5 32c-.827 0-1.5-.673-1.5-1.5a1.495 1.495 0 0 1 1.599-1.495A1.493 1.493 0 0 1 5 30.501 1.504 1.504 0 0 1 3.5 32z" fill="#111111"/></g></svg>