<svg xmlns="http://www.w3.org/2000/svg" width="32" height="32" viewBox="0 0 32 32"><title>database settings</title><g fill="#111" class="nc-icon-wrapper"><path fill="#111" d="M11.967 29.783a.976.976 0 0 1-.108-.006C4.653 28.973 0 26.315 0 23.003v-16c0-3.991 6.879-7 16-7s16 3.009 16 7v6a1 1 0 0 1-2 0v-2.507c-.648.513-1.443.983-2.375 1.403a1.003 1.003 0 0 1-1.345-1.268.993.993 0 0 1 .525-.558C28.835 9.161 30 8.041 30 7.003c0-2.044-4.985-5-14-5s-14 2.956-14 5 4.985 5 14 5a1 1 0 0 1 0 2c-5.97 0-11.261-1.355-14-3.516v4.516c0 1.77 3.524 4.048 10.053 4.784a1 1 0 1 1-.228 1.986C7.54 21.291 4.051 20.116 2 18.492v4.51c0 1.777 3.532 4.057 10.077 4.786a.996.996 0 0 1 .884 1.104.999.999 0 0 1-.993.89zM23 25.003c-1.655 0-3-1.346-3-3s1.345-3 3-3 3 1.345 3 3-1.345 3-3 3zm0-4a1 1 0 1 0 0 2 1 1 0 0 0 0-2zM23.003 32c-.27 0-.539-.04-.8-.119a2.764 2.764 0 0 1-1.86-1.86l-.588-1.932a.328.328 0 0 0-.383-.225l-1.964.455a2.768 2.768 0 0 1-2.107-.362 2.783 2.783 0 0 1-.552-4.25l1.374-1.482a.335.335 0 0 0 0-.454l-1.375-1.482a2.76 2.76 0 0 1-.744-1.996 2.765 2.765 0 0 1 .884-1.94 2.772 2.772 0 0 1 2.515-.678l1.966.456a.328.328 0 0 0 .383-.222l.59-1.938a2.776 2.776 0 0 1 3.455-1.851 2.767 2.767 0 0 1 1.856 1.863l.588 1.932a.327.327 0 0 0 .383.225l1.963-.455a2.77 2.77 0 0 1 2.106.36 2.78 2.78 0 0 1 .551 4.255l-1.373 1.479a.339.339 0 0 0 0 .453l1.374 1.483c.507.544.771 1.253.743 1.997a2.768 2.768 0 0 1-.887 1.939 2.773 2.773 0 0 1-1.896.745c-.205 0-.412-.023-.613-.068l-1.97-.456a.328.328 0 0 0-.382.221l-.59 1.936a2.743 2.743 0 0 1-1.34 1.64 2.756 2.756 0 0 1-1.307.331zm-3.56-6.143a2.34 2.34 0 0 1 2.226 1.654l.588 1.933a.775.775 0 0 0 1.482.004l.59-1.937a2.34 2.34 0 0 1 2.746-1.591l1.965.456a.784.784 0 0 0 .952-.739.783.783 0 0 0-.21-.564l-1.374-1.482a2.343 2.343 0 0 1 0-3.178l1.375-1.478a.784.784 0 0 0-.746-1.303l-1.957.453c-.172.04-.348.06-.523.06a2.34 2.34 0 0 1-2.225-1.653l-.588-1.933a.77.77 0 0 0-1.108-.467.761.761 0 0 0-.375.457l-.59 1.939a2.339 2.339 0 0 1-2.747 1.592l-1.964-.455a.784.784 0 0 0-.743 1.303l1.376 1.483a2.343 2.343 0 0 1 0 3.177l-1.374 1.481a.784.784 0 0 0 .748 1.302l1.956-.454a2.28 2.28 0 0 1 .52-.06z"/></g></svg>