<svg xmlns="http://www.w3.org/2000/svg" width="32" height="32" viewBox="0 0 32 32"><title>delete</title><g fill="#111" class="nc-icon-wrapper"><path fill="#111" d="M16 32a15.896 15.896 0 0 1-11.24-4.624.457.457 0 0 1-.132-.132A15.899 15.899 0 0 1 0 16C0 7.177 7.177 0 16 0a15.893 15.893 0 0 1 11.24 4.624.53.53 0 0 1 .132.132A15.893 15.893 0 0 1 32 16c0 8.823-7.177 16-16 16zm-9.16-5.425A13.93 13.93 0 0 0 16 30c7.72 0 14-6.28 14-14a13.93 13.93 0 0 0-3.425-9.16L6.84 26.575zM16 2C8.28 2 2 8.28 2 16c0 3.379 1.213 6.61 3.425 9.16L25.16 5.425A13.937 13.937 0 0 0 16 2z"/></g></svg>