<svg xmlns="http://www.w3.org/2000/svg" viewBox="0 0 32 32" width="32" height="32"><title>delete 2</title><g class="nc-icon-wrapper" fill="#111111"><path d="M27.317 4.687a15.992 15.992 0 1 0 0 22.626 16.019 16.019 0 0 0 0-22.626zM22.28 20.372a1.333 1.333 0 0 1-1.879 1.887l-4.147-4.147a.336.336 0 0 0-.472 0l-4.145 4.147a1.359 1.359 0 0 1-1.887 0 1.333 1.333 0 0 1 0-1.887l4.147-4.145a.332.332 0 0 0 0-.471L9.75 11.609a1.333 1.333 0 0 1 1.88-1.886l4.146 4.146a.333.333 0 0 0 .472 0l4.146-4.146a1.334 1.334 0 0 1 1.886 1.886l-4.147 4.147a.333.333 0 0 0 0 .47z" fill="#111111"/></g></svg>