<svg xmlns="http://www.w3.org/2000/svg" width="32" height="32" viewBox="0 0 32 32"><title>delete 1</title><g fill="#111" class="nc-icon-wrapper"><path fill="#111" d="M15.997 32c-8.822 0-16-7.177-16-16s7.178-16 16-16 16 7.177 16 16-7.177 16-16 16zm0-30c-7.72 0-14 6.28-14 14s6.28 14 14 14 14-6.28 14-14-6.28-14-14-14zm6 21a.99.99 0 0 1-.706-.293l-5.294-5.294-5.292 5.294A.99.99 0 0 1 10 23a.99.99 0 0 1-.707-.293.992.992 0 0 1 0-1.414L14.582 16 9.29 10.707A.99.99 0 0 1 8.996 10a.99.99 0 0 1 .293-.707c.188-.189.44-.293.707-.293s.519.104.707.293l5.293 5.294 5.292-5.294a.992.992 0 0 1 1.413 0c.19.188.294.44.294.707s-.104.519-.294.707L17.411 16l5.293 5.293a.992.992 0 0 1 0 1.414.999.999 0 0 1-.707.293z"/></g></svg>