<svg xmlns="http://www.w3.org/2000/svg" viewBox="0 0 32 32" width="32" height="32"><title>download bottom</title><g class="nc-icon-wrapper" fill="#111111"><path d="M15.307 4.307L15 4.614v13.94l-2.289-2.277C10.69 14.266 10.375 14 10.018 14 9.476 14 9 14.476 9 15.018c0 .363.341.748 3.282 3.694C15.322 21.758 15.596 22 16 22c.404 0 .678-.242 3.718-3.288 2.94-2.946 3.282-3.33 3.282-3.693 0-.543-.476-1.019-1.018-1.019-.357 0-.671.266-2.693 2.277L17 18.554V4.614l-.307-.307A1.007 1.007 0 0 0 16 4c-.243 0-.5.113-.693.307M.29 20.322c-.321.322-.322.325-.268 2.098.05 1.673.076 1.824.445 2.614.7 1.496 2.026 2.54 3.591 2.83 1.023.189 22.859.189 23.882 0 1.015-.188 1.87-.651 2.616-1.417 1.127-1.16 1.443-2.138 1.443-4.47 0-1.28-.018-1.382-.307-1.67-.406-.406-.98-.406-1.386 0-.29.289-.307.387-.307 1.704 0 .769-.068 1.629-.152 1.912-.203.687-1.238 1.722-1.925 1.925-.741.219-23.105.219-23.846 0-.687-.203-1.722-1.238-1.925-1.925C2.068 23.64 2 22.78 2 22.011c0-1.317-.018-1.415-.307-1.704-.412-.412-.98-.406-1.402.015" fill="#111111"/></g></svg>