<svg xmlns="http://www.w3.org/2000/svg" viewBox="0 0 32 32" width="32" height="32"><title>email action unread</title><g class="nc-icon-wrapper" fill="#111111"><path d="M2.707 5.556c-.596.214-1.026.607-1.375 1.256-.269.499-.27.527-.27 9.438 0 4.916.044 9.094.097 9.284.151.54.92 1.303 1.568 1.553.551.212 1.333.226 13.273.226 14.26 0 13.4.056 14.293-.933.721-.798.727-.891.684-10.442l-.04-8.626-.312-.556a3.412 3.412 0 0 0-.855-.938l-.541-.38-13.021-.028c-10.807-.022-13.102.003-13.501.146M27.375 7.43c0 .13-9.253 7.158-9.86 7.49-.866.473-2.021.511-2.89.096-.464-.221-9.27-6.879-9.87-7.462-.159-.154 1.359-.178 11.218-.178 6.271 0 11.402.024 11.402.054M8.062 12.644c2.544 1.957 4.806 3.683 5.027 3.837 1.176.818 3.263 1.057 4.704.538.883-.319 1.108-.48 6.707-4.806l4.438-3.428.032 7.989c.02 5.202-.012 8.071-.094 8.225-.08.15-.32.263-.658.312-.292.042-6.005.06-12.697.039-11.877-.037-12.17-.043-12.344-.28C3.03 24.866 3 23.53 3 16.77c0-7.663.01-8.05.219-7.87.12.103 2.3 1.788 4.844 3.744" fill="#111111"/></g></svg>