<svg xmlns="http://www.w3.org/2000/svg" width="32" height="32" viewBox="0 0 32 32"><title>expand 6</title><g fill="#111" class="nc-icon-wrapper"><path fill="#111" d="M21.54.126c-.592.238-.71 1.028-.233 1.543l.306.331h6.947l-9.28 9.283C10.997 19.57 10 20.608 10 20.953c0 .541.494 1.047 1.023 1.047.377 0 1.171-.76 9.694-9.28L30 3.44v6.899l.306.33c.412.444.976.444 1.387 0l.307-.33V.613l-.307-.307L31.386 0 26.6.008c-2.632.004-4.91.057-5.06.118M2.001 6.164C1.369 6.367.305 7.45.138 8.064c-.204.748-.191 21.166.014 21.86.203.687 1.238 1.722 1.925 1.925.74.219 21.106.219 21.846 0 .687-.203 1.722-1.238 1.925-1.925.11-.375.152-2.254.152-6.912v-6.397l-.307-.307c-.406-.406-.98-.406-1.386 0l-.307.307v12.724l-.306.331-.307.331H2.613l-.306-.33L2 29.337V8.614l.307-.307L2.614 8h12.773l.306-.33c.399-.43.399-.965 0-1.363L15.386 6l-6.474.013C4.54 6.02 2.296 6.07 2 6.164"/></g></svg>