<svg xmlns="http://www.w3.org/2000/svg" viewBox="0 0 32 32" width="32" height="32"><title>file rar</title><g class="nc-icon-wrapper" fill="#111111"><path d="M2 .163C1.32.378.325 1.445.148 2.15c-.216.854-.211 27.044.004 27.773.203.687 1.238 1.722 1.925 1.925.537.159 4.975.22 5.355.074.239-.091.568-.684.568-1.023 0-.13-.138-.386-.306-.568L7.386 30H2.613l-.306-.33L2 29.337V2.614l.307-.307L2.614 2H16v3.704c0 2.543.048 3.866.152 4.219.203.687 1.238 1.722 1.925 1.925.353.104 1.676.152 4.219.152H26v2.67c0 2.66.001 2.67.306 3 .543.584 1.437.336 1.636-.455.04-.16.055-1.863.034-3.784-.034-3.127-.063-3.54-.272-3.931-.129-.24-2.126-2.338-4.438-4.66C20.152 1.71 18.902.537 18.444.308L17.826 0l-7.694.013C4.904.02 2.297.07 2 .163M21.813 6.25L25.56 10h-6.948l-.306-.33L18 9.337V5.92c0-1.88.014-3.419.032-3.419.018 0 1.719 1.688 3.78 3.75M10.307 20.307l-.307.307v10.772l.307.307c.333.333.875.399 1.204.147.408-.313.489-.696.489-2.299v-1.6l1.144 1.897c1.262 2.093 1.522 2.33 2.236 2.035.424-.176.622-.464.616-.896-.003-.16-.532-1.16-1.175-2.223L13.65 26.82l.614-.35c1.727-.987 2.238-3.33 1.078-4.946-.827-1.15-1.707-1.524-3.59-1.524-1.042 0-1.164.026-1.445.307M20 20.164c-.632.202-1.696 1.286-1.863 1.898-.087.317-.137 2.111-.137 4.888v4.388l.306.331c.172.186.442.331.615.331.895 0 1.079-.415 1.079-2.431V28h2v1.67c0 1.598.013 1.682.306 2 .48.517 1.194.433 1.511-.179.15-.29.183-1.124.183-4.65 0-4.996-.021-5.125-.998-6.003-.88-.79-1.908-1.022-3.001-.674m6.306.143l-.307.307v10.772l.307.307c.333.333.875.399 1.204.147.408-.313.489-.696.489-2.299v-1.6l1.144 1.897c1.262 2.093 1.522 2.33 2.236 2.035.424-.176.622-.464.616-.896-.003-.16-.531-1.16-1.175-2.223L29.65 26.82l.614-.35c1.727-.987 2.238-3.33 1.078-4.946-.827-1.15-1.707-1.524-3.59-1.524-1.042 0-1.164.026-1.445.307m-12.76 2.182c.332.333.39.483.39 1.011 0 .83-.5 1.37-1.36 1.467l-.577.065v-3.065l.578.066c.428.048.679.166.969.456m8.146-.158c.294.317.307.401.307 2V26h-2v-1.693c0-1.631.011-1.705.307-2 .418-.418.986-.408 1.387.024m7.853.158c.332.333.39.483.39 1.011 0 .83-.5 1.37-1.36 1.467l-.577.065v-3.065l.578.066c.428.048.679.166.969.456" fill="#111111"/></g></svg>