<svg xmlns="http://www.w3.org/2000/svg" width="32" height="32" viewBox="0 0 32 32"><title>file exe</title><g fill="#111" class="nc-icon-wrapper"><path fill="#111" d="M1.91.205C1.263.435.31 1.454.128 2.104c-.182.654-.175 27.163.007 27.819.076.273.384.752.704 1.094.82.875 1.28.984 4.152.979 2.426-.004 2.57-.033 2.863-.582.215-.404.18-.603-.179-1.03L7.353 30h-2.37c-2.349 0-2.372-.003-2.676-.307L2 29.386V2.66l.33-.33.33-.33H16v3.719c.001 2.272.054 3.907.136 4.204.075.27.383.75.696 1.085.894.955 1.094.992 5.44.992H26v2.693c0 2.693 0 2.693.307 3 .543.543 1.446.276 1.636-.484.04-.157.054-1.864.033-3.795l-.038-3.51-.464-.67C26.882 8.376 19.081.607 18.5.296c-.413-.22-.883-.235-8.25-.257C3.556.02 2.362.043 1.91.205M21.811 6.25l3.75 3.75h-6.947l-.307-.307L18 9.386V5.943c0-1.894.014-3.443.032-3.443.018 0 1.719 1.688 3.78 3.75m-9.895 13.954c-.659.234-1.6 1.224-1.78 1.873-.181.65-.181 7.197 0 7.846.075.273.383.752.703 1.094.737.787 1.372.984 3.152.979 1.372-.004 1.591-.073 1.863-.582.215-.404.18-.603-.179-1.03L15.353 30h-1.37c-1.287 0-1.388-.018-1.676-.307-.252-.252-.307-.43-.307-1V28h1.664c1.499 0 1.69-.025 1.936-.253.356-.332.46-.777.265-1.142-.292-.548-.471-.597-2.209-.601L12 26v-1.67c0-1.639.006-1.677.33-2 .314-.314.392-.33 1.656-.334 1.378-.004 1.597-.072 1.869-.581.215-.404.18-.604-.179-1.03L15.353 20l-1.458.01c-.943.006-1.641.075-1.978.194m6.39.127c-.169.182-.307.463-.307.624 0 .162.428 1.363.95 2.67L19.9 26l-.95 2.375c-.522 1.307-.95 2.519-.95 2.693 0 .445.523.932 1 .932.554 0 .86-.4 1.425-1.863.268-.694.521-1.262.563-1.262.041 0 .299.577.572 1.281C22.122 31.603 22.432 32 23 32c.448 0 1-.51 1-.923 0-.144-.432-1.345-.96-2.67L22.078 26l.973-2.44c1.031-2.584 1.07-2.82.548-3.306-.31-.29-.575-.317-1.032-.109-.328.15-.65.736-1.207 2.199-.163.43-.33.781-.372.781-.04 0-.233-.408-.425-.906-.59-1.524-.812-1.928-1.138-2.076-.486-.222-.786-.171-1.12.188m9.611-.127c-.659.234-1.6 1.224-1.78 1.873-.181.65-.181 7.197 0 7.846.075.273.383.752.703 1.094.737.787 1.372.984 3.151.979 1.373-.004 1.593-.073 1.864-.581.215-.404.18-.604-.179-1.03L31.353 30h-1.37c-1.287 0-1.388-.018-1.676-.307-.252-.252-.307-.43-.307-1V28h1.664c1.499 0 1.69-.025 1.936-.253.356-.332.46-.777.265-1.142-.292-.548-.471-.597-2.209-.601L28 26v-1.67c0-1.639.006-1.677.33-2 .314-.314.392-.33 1.656-.334 1.378-.004 1.597-.072 1.869-.581.215-.404.18-.604-.179-1.03L31.353 20l-1.458.01c-.943.006-1.641.075-1.978.194"/></g></svg>