<svg xmlns="http://www.w3.org/2000/svg" viewBox="0 0 32 32" width="32" height="32"><title>file zip</title><g class="nc-icon-wrapper" fill="#111111"><path d="M2.022.159c-.23.073-.688.377-1.02.676C-.07 1.798 0 .747 0 16c0 15.248-.069 14.203.999 15.162.33.298.824.608 1.097.69.342.102 1.857.148 4.893.148h4.398l.306-.33c.39-.422.39-.918 0-1.34l-.306-.33H2.613l-.306-.33L2 29.337V2.614l.307-.307L2.614 2H16v3.704c0 2.543.048 3.866.152 4.219.203.687 1.238 1.722 1.925 1.925.353.104 1.676.152 4.219.152H26v2.67c0 2.66.001 2.67.306 3 .412.443.976.443 1.387 0l.307-.332V13.88c0-2.879-.035-3.563-.206-4.076-.182-.545-.694-1.106-4.466-4.9C20.154 1.711 18.909.54 18.447.31L17.826 0l-7.694.013C5.069.02 2.295.07 2.022.159m19.79 6.091L25.561 10h-6.948l-.306-.33L18 9.337V5.92c0-1.88.014-3.419.032-3.419.018 0 1.719 1.687 3.78 3.75m-7.496 14.048c-.408.407-.412.937-.01 1.371.298.321.35.331 1.75.331.794 0 1.444.016 1.444.035 0 .019-.678 1.72-1.508 3.781-1.35 3.357-1.502 3.81-1.455 4.35.056.639.321 1.092.886 1.514.303.227.562.263 2.144.3l1.798.043.318-.342c.409-.442.413-.971.01-1.374-.29-.29-.383-.307-1.763-.307-1.116 0-1.442-.037-1.394-.156 3.258-8.122 3.232-8.038 2.683-8.845-.584-.858-.795-.932-2.787-.977-1.783-.04-1.803-.037-2.116.276m7.99.009l-.306.307v10.724l.306.33c.412.444.976.444 1.387 0l.307-.33V20.662l-.306-.331c-.4-.432-.97-.442-1.387-.024m4.014-.014l-.321.32V31.34l.306.33c.412.444.976.444 1.387 0 .294-.316.307-.402.307-1.989v-1.658l.531-.085a4.148 4.148 0 0 0 3.08-2.312c.269-.566.326-.864.323-1.687-.003-1.2-.294-1.903-1.131-2.74-.851-.851-1.521-1.119-2.95-1.177-1.165-.047-1.223-.037-1.532.272m2.87 2.139c1.049.8 1.064 2.325.03 3.113-.236.18-.608.364-.825.407l-.396.08v-4.065l.396.079c.217.044.575.216.795.384" fill="#111111"/></g></svg>