<svg xmlns="http://www.w3.org/2000/svg" width="32" height="32" viewBox="0 0 32 32"><title>file html</title><g fill="#111" class="nc-icon-wrapper"><path fill="#111" d="M2.001.163C1.368.367.305 1.45.138 2.063.046 2.397 0 5.005 0 9.95v7.388l.306.331c.412.444.976.444 1.387 0L2 17.34V10.1c0-7.432.009-7.57.49-7.939.15-.115 1.819-.153 6.854-.156L16 2v3.704c0 2.543.048 3.866.152 4.219.203.687 1.238 1.722 1.925 1.925.353.104 1.676.152 4.219.152H26v2.67c0 2.66.001 2.67.306 3 .415.446.976.443 1.394-.008l.313-.338-.038-3.693c-.034-3.324-.06-3.737-.271-4.131-.325-.608-8.388-8.693-9.079-9.103l-.563-.335-7.812-.02C4.745.028 2.309.063 2.001.162M21.813 6.25L25.56 10h-6.948l-.306-.33L18 9.337V5.92c0-1.88.014-3.419.032-3.419.018 0 1.719 1.687 3.78 3.75M.49 20.16c-.471.362-.49.578-.486 5.925.003 5.864-.019 5.722.898 5.87.39.064.505.024.778-.27.311-.336.321-.397.321-2.016V28h2l.003 1.656c.003 1.897.11 2.172.898 2.3.39.063.505.023.779-.272l.32-.346v-5.24c0-5.358-.018-5.576-.49-5.938-.254-.195-.766-.195-1.02 0-.44.338-.49.67-.49 3.27V26H2v-2.57c0-2.6-.05-2.932-.49-3.27-.254-.195-.766-.195-1.02 0m8 0c-.544.417-.62 1.039-.184 1.51.261.28.411.33 1 .33H10l.003 4.656c.003 5.226-.01 5.153.898 5.3.39.063.505.023.779-.272l.32-.346V22h.694c.589 0 .739-.05 1-.33.337-.365.382-.669.16-1.085-.292-.548-.435-.577-2.854-.577-1.626 0-2.371.045-2.51.152m7.84.146l-.33.307v10.725l.306.331c.411.443.976.444 1.386.002l.304-.328.033-3.293.034-3.292.625 1.024c1.016 1.665 1.608 1.665 2.624 0l.625-1.024.034 3.292.033 3.293.304.328c.41.442.975.441 1.386-.002l.306-.33v-5.24c0-5.36-.018-5.577-.49-5.939-.329-.253-.872-.187-1.172.141-.152.166-.726 1.064-1.276 1.997S20.035 23.994 20 23.994c-.034 0-.512-.763-1.063-1.696-.55-.933-1.123-1.831-1.275-1.997-.36-.395-.902-.392-1.331.006m10.158-.147c-.464.356-.489.614-.489 4.974 0 2.915.047 4.43.147 4.765.2.667 1.03 1.579 1.7 1.866.435.187.857.235 2.044.235 1.457 0 1.504-.009 1.803-.33.337-.365.382-.669.16-1.084-.271-.511-.489-.578-1.891-.582-1.297-.004-1.362-.017-1.657-.335L28 29.34V25.1c0-4.324-.026-4.583-.49-4.939-.254-.195-.766-.195-1.02 0"/></g></svg>