<svg xmlns="http://www.w3.org/2000/svg" viewBox="0 0 32 32" width="32" height="32"><title>file csv</title><g class="nc-icon-wrapper" fill="#111111"><path d="M2.001.163C1.368.367.305 1.45.138 2.063c-.202.74-.192 27.165.01 27.841.082.273.396.771.698 1.107.791.88 1.254.989 4.183.989h2.358l.307-.33c.337-.365.382-.669.16-1.085-.292-.548-.434-.577-2.891-.581L2.613 30l-.306-.33L2 29.338v-13.24c0-9.827.038-13.31.145-13.513.314-.589.176-.578 7.199-.582L16 2v3.704c0 2.543.048 3.866.152 4.219.203.687 1.238 1.722 1.925 1.925.353.104 1.676.152 4.219.152H26v2.67c0 2.66.001 2.67.306 3 .415.446.976.443 1.394-.008l.313-.338-.038-3.693c-.034-3.324-.06-3.737-.271-4.131-.325-.608-8.388-8.693-9.079-9.103l-.563-.334-7.812-.02c-5.505-.015-7.941.02-8.249.12M21.813 6.25L25.56 10h-6.948l-.306-.33L18 9.338v-3.42c0-1.88.014-3.419.032-3.419.018 0 1.719 1.688 3.78 3.75M13.9 20.133c-1.393.275-2.756 1.398-3.435 2.833l-.402.846v4.376l.4.842c.772 1.631 2.352 2.767 4.072 2.928.783.073.836.06 1.144-.272.352-.38.4-.68.177-1.1-.211-.396-.493-.577-.903-.582-1.12-.012-2.49-1.03-2.8-2.081-.189-.639-.198-3.186-.014-3.86.28-1.028 1.71-2.063 2.851-2.063.449 0 1.011-.502 1.011-.901 0-.3-.229-.739-.49-.939-.224-.172-.82-.182-1.61-.027m6.35-.016c-1.005.305-1.867 1.148-2.127 2.079-.2.714-.096 1.746.242 2.41.366.717.897 1.29 2.065 2.227 1.452 1.165 1.807 1.846 1.387 2.658-.242.469-.382.509-1.773.509-1.18 0-1.59.107-1.884.49-.252.328-.186.87.147 1.203.29.29.385.307 1.734.307 1.716 0 2.307-.175 3.05-.904 1.237-1.213 1.192-3.178-.107-4.658-.215-.244-.867-.822-1.45-1.284-1.374-1.089-1.753-1.787-1.395-2.572.21-.46.627-.582 1.998-.582 1.16 0 1.271-.022 1.556-.307.5-.5.373-1.2-.279-1.548-.303-.161-2.658-.182-3.165-.028m6.297.03c-.537.26-.577.532-.513 3.496.068 3.101.212 3.938.996 5.795 1.158 2.74 2.075 3.255 3.061 1.715.596-.93 1.238-2.46 1.56-3.715.207-.81.267-1.531.317-3.795.066-3.047.03-3.26-.6-3.521-.413-.171-.783-.077-1.121.286-.226.243-.246.454-.25 2.584-.003 1.424-.073 2.702-.18 3.308-.185 1.035-.677 2.575-.822 2.575-.156 0-.722-1.921-.859-2.915-.074-.538-.137-1.944-.139-3.125-.004-2.243-.038-2.4-.581-2.69-.325-.172-.511-.172-.87.001" fill="#111111"/></g></svg>