<svg xmlns="http://www.w3.org/2000/svg" width="32" height="32" viewBox="0 0 32 32"><title>file xml</title><g fill="#111" class="nc-icon-wrapper"><path fill="#111" d="M2.001.163C1.368.367.305 1.45.138 2.063c-.202.74-.192 27.165.01 27.841.082.273.396.771.698 1.107.712.792 1.346.989 3.183.989 1.308 0 1.37-.012 1.665-.33.337-.365.382-.669.16-1.085-.271-.51-.489-.577-1.891-.581-1.297-.004-1.362-.017-1.656-.335L2 29.34V16.1c0-9.827.038-13.31.145-13.513.314-.589.176-.578 7.199-.582L16 2v3.704c0 2.543.048 3.866.152 4.219.203.687 1.238 1.722 1.925 1.925.353.104 1.676.152 4.219.152H26v2.67c0 2.66.001 2.67.306 3 .415.446.976.443 1.394-.008l.313-.338-.038-3.693c-.034-3.324-.06-3.737-.271-4.131-.325-.608-8.388-8.693-9.079-9.103l-.563-.334-7.812-.02c-5.505-.015-7.941.02-8.249.12M21.813 6.25L25.56 10h-6.948l-.306-.33L18 9.338v-3.42c0-1.88.014-3.419.032-3.419.018 0 1.719 1.688 3.78 3.75M8.33 20.33c-.18.18-.329.447-.329.592 0 .145.432 1.346.96 2.67L9.922 26l-.96 2.408C8.432 29.732 8 30.944 8 31.1c0 .416.537.899 1 .899.554 0 .86-.4 1.425-1.863.268-.694.527-1.262.575-1.262.048 0 .307.568.575 1.262C12.14 31.6 12.446 32 13 32c.463 0 1-.483 1-.9 0-.156-.432-1.368-.96-2.693L12.078 26l.96-2.408c.529-1.324.961-2.525.961-2.67 0-.323-.576-.922-.886-.922-.7 0-.943.322-1.678 2.219-.193.498-.389.906-.436.906-.047 0-.243-.408-.437-.906-.59-1.524-.811-1.928-1.137-2.076-.478-.218-.736-.174-1.097.187m8.002-.023l-.331.306V31.34l.306.33c.411.443.976.444 1.386.002l.304-.328.033-3.293.034-3.292.625 1.024c1.016 1.665 1.608 1.665 2.624 0l.625-1.024.034 3.292.033 3.293.304.328c.41.442.975.441 1.386-.002l.306-.33V26.1c0-5.36-.018-5.577-.49-5.939-.329-.253-.872-.187-1.172.141-.152.166-.726 1.064-1.276 1.997S20.035 23.994 20 23.994c-.034 0-.512-.763-1.063-1.696-.55-.933-1.123-1.831-1.275-1.997-.36-.395-.902-.392-1.331.006m10.158-.147c-.464.356-.489.614-.489 4.974 0 2.94.046 4.43.149 4.77.081.273.395.771.697 1.107.712.792 1.346.989 3.183.989 1.308 0 1.37-.012 1.665-.33.4-.434.392-.924-.023-1.34-.316-.316-.387-.33-1.694-.33-1.314 0-1.375-.012-1.67-.33L28 29.338v-4.24c0-4.324-.026-4.583-.49-4.939-.254-.195-.766-.195-1.02 0"/></g></svg>