<svg xmlns="http://www.w3.org/2000/svg" viewBox="0 0 32 32" width="32" height="32"><title>filter 1</title><g class="nc-icon-wrapper" fill="#111111"><path d="M1.592.76C.913.922.522 1.218.229 1.792c-.224.439-.246.633-.17 1.512.215 2.455 1.342 5.484 2.811 7.551 1.974 2.776 4.896 4.942 8.056 5.972l1.074.35v6.425c0 6.267.006 6.438.258 6.881.143.25.406.563.586.696.463.343 1.482.399 1.997.11.647-.363 4.354-3.484 4.742-3.993l.355-.464.036-4.843.037-4.843.9-.273c3.874-1.173 7.418-4.238 9.394-8.123.91-1.788 1.57-4.285 1.57-5.933 0-.909-.293-1.457-1-1.873C30.44.69 30.319.687 16.25.667 8.222.657 1.858.697 1.592.76m28.283 2.37c0 .21-.09.814-.199 1.344-.836 4.055-3.543 7.675-7.141 9.55-.986.514-2.094.923-3.624 1.34-.94.256-.91.07-.914 5.758l-.004 5.065-1.996 1.659L14 29.504v-6.546c0-4.24-.046-6.678-.131-6.921-.158-.454-.344-.55-1.869-.97-4.98-1.369-8.913-5.774-9.81-10.99A24.33 24.33 0 0 1 2 2.86c0-.061 6.13-.109 13.938-.109h13.937v.38" fill="#111111"/></g></svg>