<svg xmlns="http://www.w3.org/2000/svg" width="32" height="32" viewBox="0 0 32 32"><title>floppy disk</title><g fill="#111" class="nc-icon-wrapper"><path fill="#111" d="M3 32a3.003 3.003 0 0 1-3-3V9.657a4.96 4.96 0 0 1 1.465-3.534L6.12 1.465A4.97 4.97 0 0 1 9.657 0H29a3.003 3.003 0 0 1 3 3v26a3.003 3.003 0 0 1-3 3H3zm26-2a1 1 0 0 0 1-1V3a1 1 0 0 0-1-1h-3v7a3.003 3.003 0 0 1-3 3H13a3.003 3.003 0 0 1-3-3V2h-.343a2.98 2.98 0 0 0-2.122.879L2.88 7.536A2.976 2.976 0 0 0 2 9.657V29a1 1 0 0 0 1 1h3V19a3.003 3.003 0 0 1 3-3h14a3.003 3.003 0 0 1 3 3v11h3zm-5 0V19a1 1 0 0 0-1-1H9a1 1 0 0 0-1 1v11h16zM12 9a1 1 0 0 0 1 1h10a1 1 0 0 0 1-1V2H12v7zm9-1a1 1 0 0 1-1-1V5a1 1 0 0 1 2 0v2a1 1 0 0 1-1 1zM11 22a1 1 0 0 1 0-2h6a1 1 0 0 1 0 2h-6zm0 4a1 1 0 0 1 0-2h10a1 1 0 0 1 0 2H11z"/></g></svg>