<svg xmlns="http://www.w3.org/2000/svg" width="32" height="32" viewBox="0 0 32 32"><title>folder share</title><g fill="#111" class="nc-icon-wrapper"><path fill="#111" d="M3.263 26a.967.967 0 0 1-.308-.05A3.287 3.287 0 0 1 0 22.748V3a3.003 3.003 0 0 1 3-3h6a3.003 3.003 0 0 1 3 3v1h13a3.003 3.003 0 0 1 3 3v3h1a1 1 0 0 1 0 2H10.505a1.007 1.007 0 0 0-.962.723L6.408 23.595a3.116 3.116 0 0 1-.144.405H11a1 1 0 0 1 0 2H3.263zM3 2a1 1 0 0 0-1 1v19.733a1.267 1.267 0 0 0 2.485.314l3.136-10.878A3.016 3.016 0 0 1 10.504 10H26V7a1 1 0 0 0-1-1H11a1 1 0 0 1-1-1V3a1 1 0 0 0-1-1H3zm25 30a4.005 4.005 0 0 1-3.965-4.51l-2.815-1.126A4.013 4.013 0 0 1 18 28c-2.205 0-4-1.795-4-4s1.795-4 4-4c1.059 0 2.059.415 2.805 1.15l3.36-2.015A4.005 4.005 0 0 1 28 14c2.205 0 4 1.795 4 4s-1.795 4-4 4a3.984 3.984 0 0 1-2.805-1.15l-3.36 2.015a3.913 3.913 0 0 1 .13 1.644l2.815 1.127A4.013 4.013 0 0 1 28 24c2.205 0 4 1.795 4 4s-1.795 4-4 4zm0-6a1.995 1.995 0 0 0-2 2c0 1.103.897 2 2 2s2-.897 2-2-.897-2-2-2zm-10-4c-1.103 0-2 .897-2 2s.897 2 2 2a1.995 1.995 0 0 0 1.71-3.024.42.42 0 0 1-.027-.053A1.981 1.981 0 0 0 18 22zm8.317-2.925c.358.572.991.925 1.683.925 1.103 0 2-.897 2-2s-.897-2-2-2-2 .897-2 2a1.98 1.98 0 0 0 .295 1.032l.022.043z"/></g></svg>