<svg xmlns="http://www.w3.org/2000/svg" width="32" height="32" viewBox="0 0 32 32"><title>folder search</title><g fill="#111" class="nc-icon-wrapper"><path fill="#111" d="M2.001.165C1.369.365.305 1.45.138 2.062c-.2.732-.173 21.103.028 21.648a3.684 3.684 0 0 0 1.592 1.852l.68.375 4.469.038 4.469.037.312-.337c.373-.403.402-.911.073-1.317-.233-.29-.292-.297-2.846-.358l-2.607-.063 1.657-5.75c1.27-4.404 1.72-5.8 1.923-5.968.247-.204.907-.219 9.882-.219h9.616l.32.32c.26.26.309.406.26.78-.09.696.212 1.25.735 1.348 1.037.195 1.568-.896 1.161-2.386-.18-.657-1.237-1.699-1.939-1.908-.283-.085-.831-.154-1.219-.154H28V8.272c0-2.153-.15-2.672-.998-3.434-.331-.298-.825-.608-1.098-.69-.356-.106-2.382-.148-7.2-.148H12v-.719c-.001-.395-.063-.944-.138-1.219-.18-.657-1.237-1.699-1.939-1.908-.672-.201-7.287-.192-7.922.01m7.692 2.143c.288.288.307.39.307 1.67 0 1.272.02 1.383.306 1.692l.307.331h14.773l.307.307c.296.295.307.369.307 2V10h-7.981c-8.41 0-8.452.003-9.234.583-.868.644-.96.879-2.67 6.8-.902 3.124-1.73 5.833-1.84 6.02-.384.654-1.37.724-1.923.136l-.29-.31-.033-10.305-.033-10.306.309-.309L2.614 2h6.772l.307.307M19.72 13.12a8.337 8.337 0 0 0-5.368 3.476c-1.247 1.809-1.663 4.5-1.029 6.657.793 2.696 3.232 5.009 5.864 5.559 2.243.469 4.74.01 6.293-1.155l.418-.314 2.34 2.328c2.07 2.06 2.386 2.328 2.744 2.328.52 0 1.018-.51 1.018-1.042 0-.327-.329-.711-2.32-2.713l-2.322-2.333.387-.573c1.553-2.301 1.668-5.488.293-8.126-.583-1.12-2.042-2.61-3.104-3.17-1.54-.812-3.711-1.196-5.214-.922m2.546 2.059c1.109.235 1.937.674 2.817 1.491C26.373 17.87 27 19.286 27 21c0 1.658-.588 3.074-1.749 4.213-.87.852-1.734 1.352-2.76 1.594-2.034.48-3.972.002-5.44-1.34-1.277-1.166-1.87-2.357-2.005-4.03-.141-1.728.48-3.368 1.751-4.622.904-.891 1.785-1.392 2.86-1.626 1.019-.22 1.6-.223 2.61-.009"/></g></svg>