<svg xmlns="http://www.w3.org/2000/svg" width="32" height="32" viewBox="0 0 32 32"><title>folder empty</title><g fill="#111" class="nc-icon-wrapper"><path fill="#111" d="M2.001 2.165C1.369 2.365.305 3.45.138 4.062c-.2.733-.174 23.103.028 23.648a3.684 3.684 0 0 0 1.592 1.852l.68.375h24.52l.61-.378c1.14-.704 1.14-.704 2.867-7.783.86-3.526 1.565-6.592 1.564-6.812-.001-.82-.258-1.386-.917-2.03-.725-.706-1.306-.934-2.378-.934H28v-1.728c0-2.153-.15-2.672-.998-3.434-.331-.298-.825-.608-1.098-.69-.356-.106-2.382-.148-7.2-.148H12v-.719c-.001-.395-.063-.944-.138-1.218-.18-.658-1.237-1.7-1.939-1.91-.672-.2-7.287-.19-7.922.012m7.692 2.142c.288.288.307.39.307 1.67 0 1.272.02 1.383.306 1.692l.307.331h14.773l.307.307c.296.295.307.369.307 2V12h-7.954c-5.735 0-8.091.041-8.445.147-.599.18-1.5.95-1.762 1.506-.106.225-.903 3.33-1.771 6.9-.869 3.569-1.672 6.647-1.786 6.84-.392.663-1.373.738-1.93.146l-.29-.31-.033-11.305-.033-11.306.309-.31L2.614 4h6.772l.307.307m20 10c.169.169.307.419.307.556 0 .136-.675 3.013-1.5 6.392-.825 3.38-1.5 6.165-1.5 6.19 0 .025-.123.16-.274.3-.27.252-.381.255-10.382.255-5.56 0-10.08-.047-10.044-.105.036-.058.796-3.11 1.69-6.781 1.34-5.513 1.671-6.715 1.893-6.895.252-.204.914-.219 9.887-.219h9.616l.307.307"/></g></svg>