<svg xmlns="http://www.w3.org/2000/svg" width="32" height="32" viewBox="0 0 32 32"><title>global warming globe fire</title><g fill="#111" class="nc-icon-wrapper"><path fill="#111" d="M24.219 32.007a7.195 7.195 0 0 1-7.188-7.182c-.162-2.448 1.154-4.828 3.353-6.029a1.012 1.012 0 0 1 .927-.017 1 1 0 0 1 .542.75c.08.548.476.992.99 1.15a6.101 6.101 0 0 0-.099-4.963 1.483 1.483 0 0 1-.01-1.285 1.507 1.507 0 0 1 1.978-.736 11.043 11.043 0 0 1 6.687 11.177 7.228 7.228 0 0 1-7.175 7.135h-.005zm-3.8-10.78a4.515 4.515 0 0 0-1.39 3.533c.003 2.907 2.327 5.245 5.183 5.247a5.232 5.232 0 0 0 5.188-5.2c0-.032.003-.058.004-.083a9.047 9.047 0 0 0-4.392-8.64 8.073 8.073 0 0 1-.697 6.135 1.001 1.001 0 0 1-.798.512 3.408 3.408 0 0 1-3.098-1.504zM13.667 26a12.912 12.912 0 0 1-9.192-3.81 12.915 12.915 0 0 1-3.806-9.193 12.912 12.912 0 0 1 3.81-9.192A12.919 12.919 0 0 1 13.655 0h.013a12.968 12.968 0 0 1 12.817 10.819 1 1 0 0 1-1.97.334A11.267 11.267 0 0 0 24.253 10h-4.737a29.288 29.288 0 0 1-.005 6h.157a1 1 0 0 1 0 2h-9.536c.779 3.904 2.37 6.001 3.535 6.001a1 1 0 0 1 0 2zm-9.8-8a11.005 11.005 0 0 0 2.022 2.777 10.96 10.96 0 0 0 4.072 2.583c-.824-1.37-1.466-3.213-1.86-5.36H3.867zm13.632-2a27.48 27.48 0 0 0 .008-6h-7.68c-.106.97-.16 1.976-.16 3 0 1.025.053 2.032.16 3h7.672zm-9.68 0a29.633 29.633 0 0 1 0-6H3.084a11.043 11.043 0 0 0 0 6h4.735zm15.653-8a10.973 10.973 0 0 0-6.101-5.363c.825 1.371 1.468 3.215 1.861 5.363h4.24zm-6.27 0c-.777-3.89-2.362-5.99-3.525-6h-.01c-1.164.001-2.756 2.1-3.535 6h7.07zm-9.1 0c.394-2.147 1.037-3.99 1.86-5.36a10.995 10.995 0 0 0-4.07 2.581A10.999 10.999 0 0 0 3.867 8h4.236z"/></g></svg>