<svg xmlns="http://www.w3.org/2000/svg" width="32" height="32" viewBox="0 0 32 32"><title>graph statistics coffee</title><g fill="#111" class="nc-icon-wrapper"><path fill="#111" d="M7 21.972a1 1 0 0 1 0-2h1.381l1-2H3a3.003 3.003 0 0 1-3-3v-12a3.003 3.003 0 0 1 3-3h21a3.003 3.003 0 0 1 3 3v6a1 1 0 0 1-2 0v-6a1 1 0 0 0-1-1H3a1 1 0 0 0-1 1v12c0 .55.448 1 1 1h12a1 1 0 0 1 0 2h-3.381l-1 2H11a1 1 0 0 1 0 2H7zm-2-8a1 1 0 0 1 0-2h1v-2a1 1 0 0 1 2 0v2h2v-4a1 1 0 0 1 2 0v4h2v-7a1 1 0 0 1 2 0v8a1 1 0 0 1-1 1H5zm14.056 4a1.003 1.003 0 0 1-.707-1.708 1.39 1.39 0 0 0 .088-.095c-.044-.069-.124-.173-.196-.269-.346-.459-1.265-1.676.087-3.028a.992.992 0 0 1 1.413 0c.19.188.294.44.294.707s-.104.518-.294.706a1.23 1.23 0 0 0-.11.123c.044.072.132.188.205.285.343.454 1.253 1.658-.075 2.986a.985.985 0 0 1-.705.293zm4.233-.037a.995.995 0 0 1-1-1 .99.99 0 0 1 .294-.708c.626-.626.526-.758-.119-1.611-.633-.84-1.815-2.401.083-4.297.189-.19.44-.292.706-.292s.519.104.707.293a.992.992 0 0 1 0 1.413c-.665.666-.533.84.099 1.678.626.83 1.794 2.376-.066 4.232a.987.987 0 0 1-.704.292zM21 31.972c-4.121 0-7-2.468-7-6v-5a1 1 0 0 1 1-1h12a1 1 0 0 1 1 1c2.205 0 4 1.795 4 4s-1.795 4-4 4h-.912c-.875 1.425-2.624 3-6.088 3zm-5-6c0 2.763 2.512 4 5 4 1.89 0 3.287-.576 4.15-1.712.697-.916.85-1.963.85-2.288v-4H16v4zm12 1c1.103 0 2-.897 2-2s-.897-2-2-2v3c0 .308-.039.65-.113 1H28z"/></g></svg>