<svg xmlns="http://www.w3.org/2000/svg" viewBox="0 0 32 32" width="32" height="32"><title>hammer wench</title><g class="nc-icon-wrapper" fill="#111111"><path d="M11.076 14.89a.997.997 0 0 1-.707-.293l-.924-.92a6.98 6.98 0 0 1-2.381.418 7.053 7.053 0 0 1-2.348-.404 7.02 7.02 0 0 1-4.021-3.607 7.03 7.03 0 0 1-.01-6.081 1.001 1.001 0 0 1 1.608-.279l1.9 1.895c.2.205.451.313.727.316l.052.001a.965.965 0 0 0 .672-.29 1.013 1.013 0 0 0 .307-.718 1 1 0 0 0-.287-.723l-1.92-1.913a1.001 1.001 0 0 1 .275-1.61A6.997 6.997 0 0 1 9.41.396a7.01 7.01 0 0 1 4.017 3.609 7.067 7.067 0 0 1 .284 5.407l.82.817a1.003 1.003 0 0 1 .003 1.415.996.996 0 0 1-1.414.002l-1.294-1.29a1.003 1.003 0 0 1-.198-1.138 5.035 5.035 0 0 0-.005-4.352A5.02 5.02 0 0 0 8.747 2.28a5.053 5.053 0 0 0-2.42-.236l.765.762a3 3 0 0 1 .861 2.147 3 3 0 0 1-.909 2.124 3.004 3.004 0 0 1-2.11.86H4.9a3.01 3.01 0 0 1-2.125-.91l-.722-.72A5.04 5.04 0 0 0 2.5 9.22a5.023 5.023 0 0 0 2.881 2.584 5.004 5.004 0 0 0 3.866-.21.992.992 0 0 1 1.137.194l1.397 1.392a.995.995 0 0 1 .003 1.415.992.992 0 0 1-.708.294zm13.865 17.015a7.05 7.05 0 0 1-2.353-.405 7.01 7.01 0 0 1-4.016-3.61 7.06 7.06 0 0 1-.284-5.405l-1.424-1.418a1.001 1.001 0 0 1 1.413-1.416l1.896 1.89a1.005 1.005 0 0 1 .198 1.138 5.033 5.033 0 0 0 .005 4.349 5.02 5.02 0 0 0 2.877 2.587 5.053 5.053 0 0 0 2.419.236l-.728-.726a3.041 3.041 0 0 1-.004-4.234 2.996 2.996 0 0 1 2.153-.903c.798 0 1.548.307 2.115.864l.735.732a5.032 5.032 0 0 0-.447-2.908 5.09 5.09 0 0 0-4.57-2.872c-.757 0-1.489.167-2.177.496a1.003 1.003 0 0 1-1.136-.193l-1.897-1.892a1.001 1.001 0 0 1 1.412-1.416l1.423 1.418a6.979 6.979 0 0 1 2.373-.413 7.098 7.098 0 0 1 6.375 4.01 7.021 7.021 0 0 1 .009 6.074.996.996 0 0 1-.905.572.992.992 0 0 1-.703-.292l-1.9-1.893a1.005 1.005 0 0 0-.708-.287 1.007 1.007 0 0 0-.728.305 1.023 1.023 0 0 0-.001 1.426l1.889 1.884a1.001 1.001 0 0 1-.276 1.61 6.976 6.976 0 0 1-3.035.692zm-20.897.092a3.983 3.983 0 0 1-2.839-6.788l6.275-6.262a1.987 1.987 0 0 1 1.412-.583c.533 0 1.035.207 1.412.583l.584.581 8.387-8.11-3.514-3.502a2.99 2.99 0 0 1-.01-4.221L18.583.87a2.98 2.98 0 0 1 2.12-.875c.8 0 1.552.31 2.116.872l8.294 8.267a2.96 2.96 0 0 1 .879 2.108 2.963 2.963 0 0 1-.87 2.113l-.04.04-2.791 2.787c-.566.564-1.318.874-2.119.874s-1.553-.31-2.117-.873l-3.364-3.353-8.387 8.11.824.822c.377.377.585.877.585 1.41a1.987 1.987 0 0 1-.629 1.455l-6.217 6.207a3.973 3.973 0 0 1-2.823 1.162zm-1.41-5.386a1.987 1.987 0 0 0 1.41 3.386 1.987 1.987 0 0 0 1.412-.581l6.26-6.247-1.552-1.538-1.272-1.268-6.259 6.248zm18.07-24.615a1 1 0 0 0-.707.29l-2.822 2.815a.992.992 0 0 0-.002 1.399l8.295 8.267c.188.188.439.29.707.29s.518-.102.706-.29l2.822-2.818a.979.979 0 0 0 .001-1.397l-8.295-8.267a.995.995 0 0 0-.705-.289z" fill="#111111"/></g></svg>