<svg xmlns="http://www.w3.org/2000/svg" width="32" height="32" viewBox="0 0 32 32"><title>heavy equipment hook</title><g fill="#111" class="nc-icon-wrapper"><path fill="#111" d="M1 32.001a1 1 0 0 1 0-2h4v-20H1a1 1 0 0 1 0-2h2.61L11.788.516a2.001 2.001 0 0 1 2.332-.25L27.272 8H31a1 1 0 0 1 0 2h-3v3.416c0 .398.236.758.6.918a3.997 3.997 0 0 1 1.228 6.492A3.973 3.973 0 0 1 27.001 22a3.977 3.977 0 0 1-2.829-1.17A3.973 3.973 0 0 1 23 18a1 1 0 0 1 2 0c0 .535.208 1.036.587 1.414.377.377.878.585 1.413.585a1.987 1.987 0 0 0 1.415-.587 2 2 0 0 0-.615-3.245 3 3 0 0 1-1.8-2.75v-3.417H13v20h4a1 1 0 0 1 0 2H1zm10-2v-6l-4 5.334V30h4zM7 26l4-5.333v-1.334L7 14v12zm4-10v-6H7v.667L11 16zm12.328-7.999l-10.2-6-6.555 6h16.755z"/></g></svg>