<svg xmlns="http://www.w3.org/2000/svg" width="32" height="32" viewBox="0 0 32 32"><title>help wheel</title><g fill="#111" class="nc-icon-wrapper"><path fill="#111" d="M16 30c-2.57 0-5.085-.707-7.273-2.041l-.028-.018a14.155 14.155 0 0 1-4.643-4.644l-.015-.024a13.968 13.968 0 0 1 0-14.546l.022-.034C6.637 4.503 11.1 2 16 2c4.903 0 9.365 2.504 11.94 6.697A13.965 13.965 0 0 1 30 16c0 2.57-.707 5.085-2.041 7.273l-.014.022a14.144 14.144 0 0 1-4.672 4.665A13.976 13.976 0 0 1 16 30zm-5.17-3.173A11.993 11.993 0 0 0 16 28a11.993 11.993 0 0 0 5.17-1.173l-4.837-4.836a5.723 5.723 0 0 1-.665-.002l-4.837 4.838zm-4.606-3.879a12.045 12.045 0 0 0 2.828 2.83l4.365-4.365a6.03 6.03 0 0 1-2.829-2.829l-4.364 4.364zm16.724 2.828a12 12 0 0 0 2.83-2.83l-4.366-4.363a6.037 6.037 0 0 1-2.828 2.828l4.364 4.365zm3.879-4.607A11.993 11.993 0 0 0 28 16a11.993 11.993 0 0 0-1.173-5.17l-4.836 4.837a5.723 5.723 0 0 1-.002.668l4.838 4.834zM5.173 10.831A11.993 11.993 0 0 0 4 16a12 12 0 0 0 1.173 5.17l4.838-4.837a5.747 5.747 0 0 1 0-.666L5.173 10.83zM16 12c-2.205 0-4 1.795-4 4s1.795 4 4 4 4-1.795 4-4-1.795-4-4-4zm-5.412 1.417a6.03 6.03 0 0 1 2.828-2.828L9.052 6.224a11.99 11.99 0 0 0-2.828 2.828l4.364 4.365zm7.996-2.829a6.037 6.037 0 0 1 2.828 2.828l4.364-4.364a12.013 12.013 0 0 0-2.828-2.828l-4.364 4.364zm-2.917-.577a5.747 5.747 0 0 1 .666 0l4.838-4.836a11.987 11.987 0 0 0-10.342-.002l4.838 4.838z"/></g></svg>