<svg xmlns="http://www.w3.org/2000/svg" id="Layer_1" width="32" height="32" x="0" y="0" enable-background="new 0 0 24 24" version="1.1" viewBox="0 0 24 24" xml:space="preserve"><title>hierarchy 6</title><g fill="#111" class="nc-icon-wrapper"><path d="M17.25 23.998a2.252 2.252 0 0 1-2.25-2.25v-4.5a2.252 2.252 0 0 1 2.25-2.25h1.5v-.75a.75.75 0 0 0-.75-.75H6a.75.75 0 0 0-.75.75v.75h1.5A2.252 2.252 0 0 1 9 17.248v4.5a2.252 2.252 0 0 1-2.25 2.25h-4.5A2.252 2.252 0 0 1 0 21.748v-4.5a2.252 2.252 0 0 1 2.25-2.25h1.5v-.75A2.252 2.252 0 0 1 6 11.998h5.25v-3h-1.5a2.252 2.252 0 0 1-2.25-2.25v-4.5a2.252 2.252 0 0 1 2.25-2.25h4.5a2.252 2.252 0 0 1 2.25 2.25v4.5a2.252 2.252 0 0 1-2.25 2.25h-1.5v3H18a2.252 2.252 0 0 1 2.25 2.25v.75h1.5a2.252 2.252 0 0 1 2.25 2.25v4.5a2.252 2.252 0 0 1-2.25 2.25h-4.5zm0-7.5a.75.75 0 0 0-.75.75v4.5c0 .414.336.75.75.75h4.5a.75.75 0 0 0 .75-.75v-4.5a.75.75 0 0 0-.75-.75h-4.5zm-15 0a.75.75 0 0 0-.75.75v4.5c0 .414.336.75.75.75h4.5a.75.75 0 0 0 .75-.75v-4.5a.75.75 0 0 0-.75-.75h-4.5zm7.5-15a.75.75 0 0 0-.75.75v4.5c0 .414.336.75.75.75h4.5a.75.75 0 0 0 .75-.75v-4.5a.75.75 0 0 0-.75-.75h-4.5z"/></g></svg>