<svg xmlns="http://www.w3.org/2000/svg" viewBox="0 0 32 32" width="32" height="32"><title>hourglass</title><g class="nc-icon-wrapper" fill="#111111"><path d="M7.001.165c-.632.2-1.696 1.285-1.863 1.897-.236.863-.17 4.951.099 6.25.437 2.11 1.352 3.873 2.797 5.394.737.776 2.214 1.92 2.862 2.218.1.045.115.101.04.14-.501.248-1.809 1.192-2.393 1.726-1.436 1.312-2.596 3.215-3.177 5.21-.23.791-.283 1.352-.334 3.601-.074 3.25-.011 3.558.91 4.482.408.408.823.694 1.132.78.678.188 17.174.188 17.852 0 .705-.196 1.729-1.258 1.939-2.012.27-.966.119-5.509-.224-6.782-.534-1.978-1.715-3.937-3.184-5.28-.584-.533-1.892-1.477-2.392-1.726-.076-.037-.06-.094.039-.14.648-.296 2.125-1.44 2.862-2.216 1.445-1.522 2.36-3.286 2.797-5.394.27-1.3.334-5.388.1-6.25-.18-.658-1.238-1.7-1.94-1.91-.695-.207-17.268-.197-17.922.012m17.692 2.142c.303.302.307.338.307 2.505 0 2.315-.177 3.63-.628 4.657L24.14 10H7.881l-.177-.344c-.502-.975-.612-1.69-.672-4.367l-.06-2.648.321-.32.32-.321h16.773l.307.307m-2.098 9.946c-.228.366-1.545 1.403-2.345 1.845-1.282.709-1.745.803-4.063.825-2.351.022-2.922-.071-4.156-.68-.838-.412-2.579-1.736-2.7-2.055-.065-.166.714-.188 6.674-.188 6.742 0 6.747 0 6.59.253m-3.553 5.109c2.653.936 4.881 3.332 5.659 6.085.152.539.224 1.42.264 3.24l.055 2.5-.718-1.041c-.87-1.262-2.442-2.845-3.571-3.596-3.101-2.063-6.36-2.063-9.462 0-1.129.75-2.7 2.333-3.572 3.596l-.719 1.042.052-2.563c.048-2.394.074-2.628.394-3.562.409-1.195.784-1.871 1.593-2.875 1.066-1.322 2.581-2.383 4.083-2.86.737-.233 1.105-.263 3.026-.245 1.853.018 2.298.06 2.916.279m-1.274 7.94c1.694.52 3.54 2.028 4.875 3.98l.491.718H8.866l.491-.719c.73-1.068 1.797-2.19 2.676-2.816 1.176-.838 1.572-1.012 3.155-1.392.413-.099 1.96.038 2.58.229" fill="#111111"/></g></svg>