<svg xmlns="http://www.w3.org/2000/svg" width="32" height="32" viewBox="0 0 32 32"><title>house chimney 2</title><g fill="#111" class="nc-icon-wrapper"><path fill="#111" d="M19.005 30.565a1 1 0 0 1-1-1v-8a1 1 0 0 0-1-1h-2a1 1 0 0 0-1 1v8a1 1 0 0 1-1 1h-8a1 1 0 0 1-1-1v-11a1 1 0 0 1 2 0v10h6v-7a3.003 3.003 0 0 1 3-3h2a3.003 3.003 0 0 1 3 3v7h6v-10a1 1 0 0 1 2 0v11a1 1 0 0 1-1 1h-8zm-18-13A1.003 1.003 0 0 1 .3 15.857L13.885 2.272a2.98 2.98 0 0 1 2.122-.877c.801 0 1.554.312 2.121.877l2.941 2.941a1.001 1.001 0 0 1 .936-.649h5a1 1 0 0 1 1 1v6.585l3.707 3.707a1.003 1.003 0 0 1-.707 1.708.99.99 0 0 1-.706-.293L16.713 3.688a.997.997 0 0 0-1.414 0L1.712 17.273a.995.995 0 0 1-.707.292zm25-7.413V6.565h-3v.586l3 3.001z"/></g></svg>