<svg xmlns="http://www.w3.org/2000/svg" width="32" height="32" viewBox="0 0 32 32"><title>house 1</title><g fill="#111" class="nc-icon-wrapper"><path fill="#111" d="M19.004 30.593a1 1 0 0 1-1-1v-8a1 1 0 0 0-1-1h-2a1 1 0 0 0-1 1v8a1 1 0 0 1-1 1h-8a1 1 0 0 1-1-1v-11a1 1 0 0 1 2 0v10h6v-7a3.003 3.003 0 0 1 3-3h2a3.003 3.003 0 0 1 3 3v7h6v-10a1 1 0 0 1 2 0v11a1 1 0 0 1-1 1h-8zm-18-13a1.003 1.003 0 0 1-.707-1.708L13.883 2.301a2.973 2.973 0 0 1 2.121-.877c.801 0 1.555.312 2.121.877l13.587 13.587a1.003 1.003 0 0 1-.707 1.708.99.99 0 0 1-.706-.293L16.712 3.715a.997.997 0 0 0-1.415 0L1.711 17.3a.99.99 0 0 1-.707.293z"/></g></svg>