<svg xmlns="http://www.w3.org/2000/svg" viewBox="0 0 32 32" width="32" height="32"><title>human resources workflow</title><g class="nc-icon-wrapper" fill="#111111"><path d="M15.999 17c-2.206 0-4-1.795-4-4s1.794-4 4-4 4 1.795 4 4-1.795 4-4 4zm0-6c-1.103 0-2 .897-2 2s.897 2 2 2 2-.897 2-2-.898-2-2-2zm5 11a1 1 0 0 1-.966-.743A4.377 4.377 0 0 0 16 18.001a4.377 4.377 0 0 0-4.033 3.258 1.005 1.005 0 0 1-1.223.708c-.261-.07-.477-.235-.61-.467s-.17-.5-.1-.759A6.365 6.365 0 0 1 15.958 16h.084a6.363 6.363 0 0 1 5.921 4.741.993.993 0 0 1-.708 1.224.99.99 0 0 1-.257.035zm-5-15c-1.93 0-3.5-1.57-3.5-3.5s1.57-3.5 3.5-3.5 3.5 1.57 3.5 3.5-1.57 3.5-3.5 3.5zm0-5c-.827 0-1.5.673-1.5 1.5s.673 1.5 1.5 1.5 1.5-.673 1.5-1.5-.674-1.5-1.5-1.5zm12.5 17.5a3.503 3.503 0 0 1-3.5-3.5c0-1.93 1.569-3.5 3.5-3.5s3.5 1.57 3.5 3.5a3.503 3.503 0 0 1-3.5 3.5zm0-5c-.827 0-1.5.673-1.5 1.5s.673 1.5 1.5 1.5 1.5-.673 1.5-1.5-.674-1.5-1.5-1.5zM15.999 32c-1.93 0-3.5-1.57-3.5-3.5s1.57-3.5 3.5-3.5 3.5 1.57 3.5 3.5-1.57 3.5-3.5 3.5zm0-5c-.827 0-1.5.673-1.5 1.5s.673 1.5 1.5 1.5 1.5-.673 1.5-1.5-.674-1.5-1.5-1.5zm-12.5-7.5a3.504 3.504 0 0 1-3.5-3.5c0-1.93 1.57-3.5 3.5-3.5s3.5 1.57 3.5 3.5a3.504 3.504 0 0 1-3.5 3.5zm0-5c-.827 0-1.5.673-1.5 1.5s.673 1.5 1.5 1.5 1.5-.673 1.5-1.5-.674-1.5-1.5-1.5zM26.4 11a1 1 0 0 1-.865-.499A11.08 11.08 0 0 0 21.5 6.465a1 1 0 0 1 1.001-1.73A13.087 13.087 0 0 1 27.267 9.5 1.001 1.001 0 0 1 26.4 11zM22 27.4a1 1 0 0 1-.501-1.865 11.067 11.067 0 0 0 4.034-4.035 1.005 1.005 0 0 1 1.367-.365c.477.276.64.889.365 1.365a13.087 13.087 0 0 1-4.765 4.765.993.993 0 0 1-.5.135zm-12 0a.997.997 0 0 1-.5-.135A13.087 13.087 0 0 1 4.735 22.5a1.003 1.003 0 0 1 1.732-1.001 11.056 11.056 0 0 0 4.034 4.034.999.999 0 0 1 .366 1.367 1.005 1.005 0 0 1-.867.5zM5.6 11a1 1 0 0 1-.865-1.501A13.077 13.077 0 0 1 9.5 4.733a1.005 1.005 0 0 1 1.367.366 1.003 1.003 0 0 1-.367 1.366A11.077 11.077 0 0 0 6.465 10.5a1 1 0 0 1-.865.5z" fill="#111111"/></g></svg>