<svg xmlns="http://www.w3.org/2000/svg" viewBox="0 0 32 32" width="32" height="32"><title>hyperlink 3</title><g class="nc-icon-wrapper" fill="#111111"><path d="M7.004 28.663a6.95 6.95 0 0 1-4.95-2.047 6.95 6.95 0 0 1-2.046-4.95c0-1.871.727-3.629 2.047-4.949l6.364-6.365A6.953 6.953 0 0 1 13.373 8.3a6.95 6.95 0 0 1 4.944 2.041 6.967 6.967 0 0 1 .718 9.072 1.003 1.003 0 0 1-1.398.22.992.992 0 0 1-.398-.652.993.993 0 0 1 .178-.744 4.976 4.976 0 0 0-.512-6.48 4.968 4.968 0 0 0-3.532-1.458 4.972 4.972 0 0 0-3.54 1.465l-6.365 6.365a5.005 5.005 0 0 0 0 7.071c.943.943 2.199 1.461 3.536 1.461s2.593-.518 3.536-1.461l1.243-1.243a.992.992 0 0 1 1.413 0 .992.992 0 0 1 0 1.414l-1.243 1.242a6.94 6.94 0 0 1-4.949 2.05zm11.633-4.631a6.95 6.95 0 0 1-4.945-2.047 6.964 6.964 0 0 1-.715-9.07 1.003 1.003 0 0 1 1.396-.222.995.995 0 0 1 .4.654.993.993 0 0 1-.178.744 4.975 4.975 0 0 0 .51 6.478 4.967 4.967 0 0 0 3.534 1.462 4.97 4.97 0 0 0 3.538-1.467l6.364-6.364c.944-.944 1.464-2.2 1.464-3.536s-.52-2.59-1.464-3.536c-.942-.943-2.198-1.461-3.536-1.461s-2.593.518-3.536 1.461l-1 1a.992.992 0 0 1-1.413 0c-.19-.188-.293-.44-.293-.707s.104-.518.293-.706l1-1c1.32-1.32 3.079-2.048 4.95-2.048s3.629.726 4.949 2.048a6.95 6.95 0 0 1 2.05 4.949 6.95 6.95 0 0 1-2.05 4.95l-6.364 6.363a6.95 6.95 0 0 1-4.948 2.054h-.006z" fill="#111111"/></g></svg>