<svg xmlns="http://www.w3.org/2000/svg" viewBox="0 0 32 32" width="32" height="32"><title>image file png</title><g class="nc-icon-wrapper" fill="#111111"><path d="M2.001.163C1.368.367.305 1.45.138 2.063c-.205.751-.192 27.163.014 27.86.203.687 1.238 1.722 1.925 1.925.325.096 1.395.152 2.912.152h2.398l.307-.33c.398-.43.398-.965 0-1.363C7.388 30.003 7.366 30 5 30H2.613l-.306-.33L2 29.337V2.614l.307-.307L2.614 2H16v3.704c0 2.543.048 3.866.152 4.219.203.687 1.238 1.722 1.925 1.925.353.104 1.676.152 4.219.152H26v2.67c0 2.66.001 2.67.306 3 .415.446.976.443 1.394-.008l.313-.338-.038-3.693c-.034-3.324-.06-3.737-.271-4.131-.325-.608-8.388-8.693-9.079-9.103l-.563-.335-7.812-.02C4.745.028 2.309.063 2.001.162M21.813 6.25L25.56 10h-6.948l-.306-.33L18 9.337V5.92c0-1.88.014-3.419.032-3.419.018 0 1.719 1.687 3.78 3.75m-11.49 14.042l-.321.32v10.726l.306.331c.412.444.976.444 1.388 0 .293-.316.306-.402.306-1.983v-1.652l.574-.079c1.316-.18 2.432-1.03 3.033-2.311.273-.583.33-.88.327-1.706-.005-1.187-.31-1.916-1.15-2.759-.831-.832-1.51-1.1-2.932-1.158-1.164-.048-1.222-.037-1.531.272m7.986.014l-.307.307v10.724l.306.33c.41.443.976.444 1.385.003.298-.322.305-.375.338-2.837l.034-2.509 1 2.535c.55 1.394 1.123 2.67 1.275 2.837.367.403.95.401 1.355-.005l.307-.307V20.614l-.307-.307a.977.977 0 0 0-1.335-.068c-.29.233-.297.292-.358 2.837l-.063 2.598-1.057-2.66c-.653-1.643-1.154-2.73-1.31-2.838a.988.988 0 0 0-1.263.13m9.942-.19c-.954.291-1.757 1.02-2.056 1.869-.282.797-.282 7.208-.001 8.033C26.56 31.101 27.835 32 29 32s2.44-.9 2.808-1.982c.24-.702.262-3.229.032-3.529-.26-.338-.673-.489-1.34-.489-.96 0-1.488.358-1.496 1.014-.004.347.53.986.825.986.217 0 .235 1.022.026 1.414-.417.782-1.293.782-1.71 0-.196-.369-.202-6.402-.006-6.832.209-.459.626-.582 1.975-.582 1.159 0 1.245-.018 1.556-.33.516-.515.406-1.172-.256-1.525-.303-.161-2.658-.183-3.165-.028M13.191 22.43c1.049.8 1.064 2.326.03 3.114-.236.18-.607.363-.825.407l-.396.08v-4.063l.396.079c.217.043.575.216.795.383" fill="#111111"/></g></svg>