<svg xmlns="http://www.w3.org/2000/svg" viewBox="0 0 32 32" width="32" height="32"><title>image file gif</title><g class="nc-icon-wrapper" fill="#111111"><path d="M2.001.163C1.368.367.305 1.45.138 2.063c-.205.751-.192 27.163.014 27.86.203.687 1.238 1.722 1.925 1.925.361.107 1.825.152 4.912.152h4.398l.306-.33c.399-.43.399-.965 0-1.363L11.386 30H2.613l-.306-.33L2 29.337V2.614l.307-.307L2.614 2H16v3.704c0 2.543.048 3.866.152 4.219.203.687 1.238 1.722 1.925 1.925.353.104 1.676.152 4.219.152H26v2.67c0 2.66.001 2.67.306 3 .415.446.976.443 1.394-.008l.313-.338-.038-3.693c-.034-3.324-.06-3.737-.271-4.131-.325-.608-8.388-8.693-9.079-9.103l-.563-.335-7.812-.02C4.745.028 2.309.063 2.001.162M21.813 6.25L25.56 10h-6.948l-.306-.33L18 9.337V5.92c0-1.88.014-3.419.032-3.419.018 0 1.719 1.687 3.78 3.75M16.25 20.117c-.954.29-1.757 1.019-2.056 1.868-.281.797-.282 7.208-.001 8.033C14.56 31.101 15.835 32 17 32s2.44-.9 2.808-1.982c.24-.702.262-3.229.032-3.529-.26-.338-.673-.489-1.34-.489-.96 0-1.488.358-1.496 1.014-.004.347.53.986.825.986.217 0 .235 1.022.026 1.414-.417.782-1.293.782-1.71 0-.196-.369-.202-6.402-.006-6.832.209-.459.626-.582 1.975-.582 1.159 0 1.245-.018 1.556-.33.516-.515.406-1.172-.256-1.525-.303-.161-2.658-.183-3.165-.028m6.058.19l-.307.307v10.724l.306.331c.412.444.976.444 1.387 0l.307-.33V20.613l-.307-.307A1.007 1.007 0 0 0 23 20c-.244 0-.5.113-.693.307M28 20.164c-.632.202-1.696 1.286-1.863 1.898-.087.317-.137 2.111-.137 4.888v4.388l.306.331c.205.22.436.331.694.331.258 0 .49-.11.694-.33.293-.318.306-.402.306-2V28h1.17c1.098 0 1.191-.02 1.5-.33.516-.515.406-1.172-.256-1.525-.15-.08-.754-.145-1.343-.145H28v-1.693c0-1.631.011-1.705.307-2 .289-.289.388-.307 1.693-.307 1.34 0 1.398-.011 1.694-.33.398-.43.398-.965 0-1.363-.294-.293-.375-.306-1.782-.294-.811.007-1.671.075-1.911.151" fill="#111111"/></g></svg>