<svg xmlns="http://www.w3.org/2000/svg" viewBox="0 0 32 32" width="32" height="32"><title>image file bmp</title><g class="nc-icon-wrapper" fill="#111111"><path d="M2.501.163C1.868.367.805 1.45.638 2.063c-.205.751-.192 27.163.014 27.86.203.687 1.238 1.722 1.925 1.925.283.084.918.152 1.412.152.81 0 .928-.032 1.205-.33.398-.43.398-.965 0-1.363C4.924 30.039 4.773 30 4 30c-.799 0-.917-.033-1.193-.33l-.307-.332V2.614l.307-.307L3.114 2H16.5v3.704c0 2.543.048 3.866.152 4.219.203.687 1.238 1.722 1.925 1.925.353.104 1.676.152 4.219.152H26.5v2.67c0 2.66.001 2.67.306 3 .415.446.976.443 1.394-.008l.313-.338-.038-3.693c-.034-3.324-.06-3.737-.271-4.131-.325-.608-8.388-8.693-9.079-9.103l-.563-.335-7.812-.02C5.245.028 2.809.063 2.501.162M22.313 6.25L26.06 10h-6.948l-.306-.33-.307-.332V5.92c0-1.88.014-3.419.032-3.419.018 0 1.719 1.687 3.78 3.75M7.807 20.307l-.307.307v10.772l.307.307c.289.29.387.307 1.704.307 1.796 0 2.266-.143 3.056-.933.75-.751.935-1.277.928-2.644-.006-1.029-.198-1.776-.559-2.175-.2-.221-.199-.254.032-.585.39-.56.532-1.134.531-2.15 0-1.383-.165-1.846-.917-2.578-.81-.79-1.29-.935-3.07-.935-1.318 0-1.416.018-1.705.307m8.024 0l-.331.306v10.725l.306.331c.411.443.976.444 1.386.002l.304-.328.033-3.32.034-3.32.614 1.017c.415.687.73 1.065.969 1.164.602.249.982-.015 1.677-1.164l.614-1.017.034 3.32.033 3.32.304.328c.41.442.975.441 1.386-.002l.306-.33V20.613l-.307-.307c-.405-.405-.988-.408-1.355-.006-.152.165-.726 1.064-1.276 1.997s-1.028 1.696-1.062 1.696c-.034 0-.512-.763-1.063-1.696-.55-.933-1.123-1.832-1.275-1.997-.36-.395-.902-.393-1.331.005m9.99-.013l-.321.32V31.34l.306.33c.412.444.976.444 1.387 0 .294-.316.307-.402.307-1.983v-1.652l.574-.079c1.316-.18 2.432-1.03 3.032-2.311.274-.583.33-.88.328-1.706-.005-1.187-.31-1.916-1.15-2.759-.831-.832-1.51-1.1-2.932-1.158-1.164-.047-1.222-.037-1.531.272m-14.628 2.014c.267.266.307.42.307 1.17 0 .741-.043.908-.306 1.192-.261.281-.411.331-1 .331H9.5v-3h.693c.57 0 .748.055 1 .307m17.498.125c1.049.8 1.064 2.325.03 3.113-.236.18-.608.364-.825.407l-.396.08v-4.065l.396.079c.217.044.575.216.795.384m-17.498 4.875c.267.266.307.42.307 1.17 0 .741-.043.908-.306 1.192-.261.281-.411.331-1 .331H9.5v-3h.693c.57 0 .748.055 1 .307" fill="#111111"/></g></svg>