<svg xmlns="http://www.w3.org/2000/svg" viewBox="0 0 32 32" width="32" height="32"><title>image file landscape</title><g class="nc-icon-wrapper" fill="#111111"><path d="M3.25.117c-.858.26-1.517.811-1.954 1.633-.224.42-.234 1.013-.234 14.25s.01 13.83.234 14.25a3.425 3.425 0 0 0 1.391 1.418l.5.27h25.626l.5-.27a3.425 3.425 0 0 0 1.392-1.418c.222-.418.233-.966.233-12.313V6.063l-.27-.5c-.148-.274-1.329-1.545-2.625-2.822C26.053.777 25.592.385 25.072.209 24.515.02 23.454 0 14.008.01 8.263.017 3.421.064 3.249.117M26.516 4.03c1.173 1.116 2.212 2.182 2.309 2.368.146.284.175 2.161.175 11.463 0 7.393-.044 11.237-.13 11.464-.267.703.421.667-12.87.667-13.291 0-12.603.036-12.87-.667-.194-.51-.18-26.374.015-26.74.318-.597-.052-.577 10.89-.581L24.383 2l2.133 2.03M10.092 6.128c-1.159.292-2.239 1.204-2.736 2.31-.212.47-.28.857-.28 1.562.002 1.22.345 2.02 1.221 2.85 1.647 1.557 4.002 1.518 5.57-.093 1.89-1.94 1.314-5.18-1.132-6.36-.66-.318-1.933-.448-2.643-.269m2.011 2.21c1.209.895 1.2 2.435-.018 3.338-.514.38-1.627.365-2.18-.03-1.623-1.157-.71-3.77 1.26-3.606.336.028.752.16.938.298m5.463 6.823c-.378.213-.861.8-2.011 2.44-.832 1.186-1.576 2.22-1.651 2.295-.1.1-.352-.031-.927-.486-1.06-.837-1.262-.93-2.05-.937-1.118-.01-1.44.293-3.306 3.101C6.728 22.916 6 24.098 6 24.202c0 .255.246.701.49.888.245.189.698.202 1.02.03.134-.072.869-1.07 1.633-2.22 1.793-2.693 1.692-2.58 2.084-2.323.172.113.785.591 1.364 1.064 1.059.866 1.41 1 1.912.733.13-.07 1.086-1.336 2.126-2.813 1.247-1.773 1.965-2.686 2.11-2.686.152 0 1.065 1.266 2.894 4.012 1.47 2.207 2.785 4.091 2.922 4.188.683.478 1.74-.215 1.497-.982-.123-.388-5.46-8.35-5.817-8.678-.666-.612-1.841-.724-2.67-.254" fill="#111111"/></g></svg>