<svg xmlns="http://www.w3.org/2000/svg" viewBox="0 0 32 32" width="32" height="32"><title>keyboard arrow return</title><g class="nc-icon-wrapper" fill="#111111"><path d="M7 29.996a.99.99 0 0 1-.707-.293l-6-6a1 1 0 0 1-.217-.327l-.012-.032a.977.977 0 0 1 0-.696l.016-.041a.987.987 0 0 1 .213-.318l6-6a.992.992 0 0 1 1.414 0c.189.188.293.44.293.707s-.104.519-.293.707l-4.294 4.293H21c4.963 0 9-4.037 9-9s-4.037-9-9-9h-8a1 1 0 0 1 0-2h8c6.065 0 11 4.935 11 11s-4.935 11-11 11H3.415l4.293 4.293a.995.995 0 0 1-.001 1.414.99.99 0 0 1-.707.293z" fill="#111111"/></g></svg>