<svg xmlns="http://www.w3.org/2000/svg" width="32" height="32" viewBox="0 0 32 32"><title>layers grid settings</title><g fill="#111" class="nc-icon-wrapper"><path fill="#111" d="M3.9.133C2.505.408 1.142 1.531.463 2.966l-.402.846v18.376l.4.842c.712 1.503 2.034 2.545 3.597 2.834.412.076 2.19.136 4.032.136h3.296l.306-.33c.399-.43.399-.965 0-1.363-.252-.252-.43-.307-1-.307H10v-6h.694c.589 0 .739-.05 1-.33.398-.43.398-.965 0-1.363-.253-.252-.432-.307-1-.307H10v-6h6v1.67c0 1.598.013 1.682.306 2 .412.443.976.443 1.387 0 .294-.318.307-.402.307-2V10h7.386l.32-.319.318-.319-.043-2.775-.044-2.775-.4-.846C24.832 1.48 23.5.409 22 .126 21.193-.029 4.68-.022 3.899.132M8 5v3H2V6.281c.001-.945.063-1.944.138-2.219C2.305 3.45 3.369 2.366 4 2.164c.24-.076 1.238-.144 2.218-.151L8 2v3m8 0v3h-6V2h6v3m5.923-2.846c.702.21 1.76 1.25 1.94 1.908.074.275.136 1.274.136 2.22L24 8h-6V2h1.704c.986 0 1.921.065 2.219.154M8 13v3H2v-6h6v3m14.22-.883c-.535.173-1.193.619-1.454.986-.13.184-.422.916-.647 1.627-.226.712-.479 1.32-.563 1.352-.084.033-.642-.057-1.24-.199-.597-.142-1.308-.258-1.58-.258-1.414 0-2.73 1.326-2.73 2.75 0 .806.342 1.453 1.355 2.564.489.537.889 1.01.888 1.05 0 .04-.452.58-1.003 1.197-1.1 1.234-1.32 1.73-1.204 2.713.12 1.017.7 1.808 1.646 2.241.65.299 1.297.293 2.629-.023.597-.142 1.155-.232 1.239-.2.084.033.33.613.545 1.29.492 1.547.833 2.05 1.669 2.467.86.429 1.6.429 2.459 0 .871-.434 1.17-.868 1.654-2.405.225-.71.477-1.319.561-1.351.084-.033.642.057 1.24.199 1.334.317 1.976.322 2.641.02 1.387-.63 2.04-2.26 1.436-3.588-.128-.282-.633-.952-1.122-1.488-.489-.537-.889-1.01-.889-1.053 0-.043.422-.541.937-1.108 1.134-1.247 1.356-1.71 1.275-2.661-.095-1.117-.654-1.922-1.65-2.38-.65-.298-1.222-.292-2.582.027-.613.144-1.189.234-1.28.199-.09-.035-.317-.56-.505-1.168-.454-1.471-.828-2.088-1.505-2.485-.603-.353-1.643-.5-2.22-.315m1.256 2.108c.123.124.404.791.623 1.482.455 1.435.735 1.854 1.454 2.181.66.3 1.182.295 2.518-.022 1.192-.283 1.598-.25 1.811.147.221.414.06.731-.941 1.847-1.015 1.13-1.267 1.693-1.129 2.514.09.535.307.86 1.407 2.116.834.952.927 1.239.531 1.635-.311.311-.479.311-1.813 0-1.352-.315-1.727-.313-2.397.01-.749.363-.983.714-1.44 2.158C23.685 29.596 23.425 30 23 30c-.426 0-.686-.404-1.1-1.707-.457-1.444-.691-1.795-1.44-2.157-.676-.327-1.085-.327-2.482 0-1.215.286-1.646.251-1.86-.15-.221-.413-.06-.73.941-1.846 1.019-1.135 1.267-1.693 1.127-2.526-.093-.548-.3-.858-1.405-2.11-.834-.945-.927-1.233-.531-1.629.31-.31.48-.311 1.773 0 1.319.315 1.767.313 2.437-.01.749-.363.983-.714 1.44-2.158.22-.69.5-1.357.625-1.481.287-.288.663-.288.95 0M8 21v3H6.296c-2.121 0-2.548-.118-3.363-.933C2.118 22.252 2 21.825 2 19.704V18h6v3m14.25-1.89c-2.29.749-2.992 3.367-1.34 4.988.576.564 1.359.902 2.09.902 1.576 0 3-1.427 3-3.007 0-1.069-.667-2.122-1.672-2.64-.539-.277-1.597-.401-2.079-.244m1.174 2.032c.368.168.633.735.516 1.104-.046.145-.202.374-.347.51-.718.667-1.852-.2-1.47-1.124.226-.545.748-.742 1.301-.49"/></g></svg>