<svg xmlns="http://www.w3.org/2000/svg" viewBox="0 0 32 32" width="32" height="32"><title>layout dashboard</title><g class="nc-icon-wrapper" fill="#111111"><path d="M2.3 19.008a2.292 2.292 0 0 1-1.63-.677A2.29 2.29 0 0 1 0 16.7V2.315A2.283 2.283 0 0 1 .672.687 2.29 2.29 0 0 1 2.3.008l10.404.017A2.31 2.31 0 0 1 15 2.333V16.7a2.307 2.307 0 0 1-2.297 2.308H2.3zm.001-17a.29.29 0 0 0-.212.09.299.299 0 0 0-.089.214v14.39a.303.303 0 0 0 .301.306H12.7a.303.303 0 0 0 .3-.305V2.332a.307.307 0 0 0-.303-.307L2.301 2.008zm16.994 9a2.287 2.287 0 0 1-2.3-2.273V2.308A2.297 2.297 0 0 1 19.284.025L29.689.008a2.302 2.302 0 0 1 2.306 2.275v6.442a2.3 2.3 0 0 1-2.292 2.283H19.295zm-.007-8.983a.293.293 0 0 0-.293.288v6.412a.28.28 0 0 0 .086.199.307.307 0 0 0 .212.084h10.402a.295.295 0 0 0 .3-.29V2.292a.293.293 0 0 0-.294-.283l-10.413.017zM2.296 31.991A2.297 2.297 0 0 1 0 29.71v-6.418a2.299 2.299 0 0 1 2.292-2.285H12.7a2.3 2.3 0 0 1 2.3 2.28v6.433a2.288 2.288 0 0 1-2.293 2.287L2.296 31.99zm-.021-8.983c-.148 0-.274.133-.275.29v6.407a.292.292 0 0 0 .292.286l10.41.017a.257.257 0 0 0 .21-.085.284.284 0 0 0 .088-.207v-6.423a.292.292 0 0 0-.293-.285H2.275zm17.02 9a2.293 2.293 0 0 1-1.63-.679 2.29 2.29 0 0 1-.67-1.63V15.316a2.288 2.288 0 0 1 .67-1.628 2.285 2.285 0 0 1 1.627-.68h10.403a2.29 2.29 0 0 1 1.63.68c.435.436.672 1.016.67 1.632v14.364a2.31 2.31 0 0 1-2.294 2.308l-10.402.017-.004-.001zm.001-17a.304.304 0 0 0-.301.305V29.7a.305.305 0 0 0 .302.308l10.396-.017a.307.307 0 0 0 .302-.307V15.316a.305.305 0 0 0-.303-.308H19.296z" fill="#111111"/></g></svg>