<svg xmlns="http://www.w3.org/2000/svg" width="32" height="32" viewBox="0 0 32 32"><title>login 3</title><g fill="#111" class="nc-icon-wrapper"><path fill="#111" d="M19 30.01a1 1 0 0 1 0-2h6a1 1 0 0 0 1-1v-2a1 1 0 0 1 2 0v2a3.003 3.003 0 0 1-3 3h-6zm8-20a1 1 0 0 1-1-1v-2a1 1 0 0 0-1-1h-6a1 1 0 0 1 0-2h6a3.003 3.003 0 0 1 3 3v2a1 1 0 0 1-1 1zM13.999 32.007c-.095 0-.191-.007-.286-.021L1.717 30.273A2.007 2.007 0 0 1 0 28.293V4.971c0-.938.664-1.76 1.581-1.956L13.551.06A2.013 2.013 0 0 1 16 2.01v28c0 .534-.208 1.037-.587 1.414a1.987 1.987 0 0 1-1.414.584zM2.03 4.963L2 28.295l12.003 1.713-.003-28L2.03 4.963zM24 22.008a.99.99 0 0 1-.707-.293l-4-4a.553.553 0 0 1-.05-.059.947.947 0 0 1-.167-.267 1.05 1.05 0 0 1-.07-.437 1.001 1.001 0 0 1 .091-.365.924.924 0 0 1 .196-.286l4-4a.992.992 0 0 1 1.414 0c.189.188.293.44.293.707s-.104.519-.293.707l-2.294 2.293H31a1 1 0 0 1 0 2h-8.586l2.294 2.293a.992.992 0 0 1 0 1.414.999.999 0 0 1-.707.293zm-13.5-4.499c-.827 0-1.5-.673-1.5-1.5 0-.764.567-1.4 1.323-1.489a.987.987 0 0 1 .177-.016 1.5 1.5 0 0 1 1.5 1.503c0 .828-.673 1.502-1.5 1.502z"/></g></svg>