<svg xmlns="http://www.w3.org/2000/svg" viewBox="0 0 32 32" width="32" height="32"><title>logout 1</title><g class="nc-icon-wrapper" fill="#111111"><path d="M1.968 1.177c-.75.27-1.346.805-1.668 1.496l-.297.64L0 15.973c0 13.81-.039 13.022.708 14.002.179.235.613.56.965.725l.64.298h17.375l.64-.298a2.897 2.897 0 0 0 1.494-1.668c.124-.348.169-1.37.172-3.944L22 21.614l-.307-.307c-.406-.406-.98-.406-1.386 0l-.307.307v6.772l-.307.307-.307.307H2.614l-.307-.307L2 28.386V3.614l.307-.307L2.614 3h16.772l.307.307.307.307v6.724l.306.331c.414.447.976.444 1.393-.005l.311-.337-.036-3.642-.037-3.643-.378-.611a3.237 3.237 0 0 0-.99-.99l-.612-.379-8.76-.027c-7.1-.022-8.848.005-9.228.142m23.52 8.983c-.27.208-.489.642-.489.97 0 .183.587.868 1.772 2.071L28.544 15l-9.428.004c-9.966.004-9.653-.014-9.97.582-.222.415-.177.72.16 1.083l.307.331h18.938l-1.703 1.719c-1.075 1.085-1.736 1.852-1.793 2.08-.172.686.508 1.339 1.209 1.161.164-.041 1.522-1.304 3.017-2.805C31.768 16.658 32 16.388 32 15.995c0-.395-.233-.663-2.79-3.213-2.381-2.376-2.843-2.781-3.156-2.778-.201.002-.456.072-.565.156" fill="#111111"/></g></svg>