<svg xmlns="http://www.w3.org/2000/svg" width="32" height="32" viewBox="0 0 32 32"><title>messages bubble information</title><g fill="#111" class="nc-icon-wrapper"><path fill="#111" d="M1.007 32a1 1 0 0 1-.904-1.43l3.881-8.15a14.993 14.993 0 0 1-1.979-7.461C2.017 6.71 8.737 0 16.985 0h.047c2.803 0 5.543.783 7.923 2.263a14.9 14.9 0 0 1 6.686 9.333 14.901 14.901 0 0 1-1.872 11.327 14.901 14.901 0 0 1-9.332 6.686 14.932 14.932 0 0 1-10.852-1.588l-8.149 3.883a1.024 1.024 0 0 1-.43.096zM16.985 2C9.84 2 4.016 7.815 4.005 14.961a12.965 12.965 0 0 0 1.96 6.878.993.993 0 0 1 .054.958L3.12 28.885l6.088-2.9a.992.992 0 0 1 .959.055 12.941 12.941 0 0 0 9.816 1.621 12.92 12.92 0 0 0 8.088-5.794 12.92 12.92 0 0 0 1.621-9.818 12.916 12.916 0 0 0-5.795-8.088A12.985 12.985 0 0 0 17.032 2h-.047zm2.022 20a3.003 3.003 0 0 1-3-3v-5h-1a1 1 0 0 1-.002-2h1c1.103 0 2 .897 2 2v5a1 1 0 0 0 1 1h1a1 1 0 0 1 0 2h-.998zm-2.5-12c-.827 0-1.5-.673-1.5-1.5 0-.761.568-1.396 1.325-1.485a.956.956 0 0 1 .23-.012l.043.004a1.501 1.501 0 0 1 1.386 1.318 1.061 1.061 0 0 1 0 .347A1.493 1.493 0 0 1 16.507 10z"/></g></svg>