<svg xmlns="http://www.w3.org/2000/svg" width="32" height="32" viewBox="0 0 32 32"><title>messages bubble</title><g fill="#111" class="nc-icon-wrapper"><path fill="#111" d="M.997 32a1 1 0 0 1-.904-1.43l3.882-8.15a14.993 14.993 0 0 1-1.979-7.461C2.009 6.71 8.729 0 16.977 0h.046c2.801 0 5.54.783 7.92 2.261a14.896 14.896 0 0 1 6.681 9.334 14.9 14.9 0 0 1-1.863 11.325 14.901 14.901 0 0 1-9.33 6.688 14.944 14.944 0 0 1-10.852-1.585l-8.15 3.881A1.036 1.036 0 0 1 .997 32zm15.98-30C9.831 2 4.008 7.815 3.997 14.961a12.965 12.965 0 0 0 1.96 6.878.993.993 0 0 1 .054.958l-2.899 6.09 6.088-2.9a.996.996 0 0 1 .957.054 12.947 12.947 0 0 0 9.816 1.619 12.92 12.92 0 0 0 8.088-5.796c3.786-6.088 1.912-14.12-4.176-17.904A12.987 12.987 0 0 0 17.021 2h-.044z"/></g></svg>