<svg xmlns="http://www.w3.org/2000/svg" width="32" height="32" viewBox="0 0 32 32"><title>messages bubble check</title><g fill="#111" class="nc-icon-wrapper"><path fill="#111" d="M.944 32.003a1 1 0 0 1-.904-1.43l3.881-8.15a14.938 14.938 0 0 1-1.641-4.278A14.907 14.907 0 0 1 4.33 6.85 14.899 14.899 0 0 1 13.769.312a15.02 15.02 0 0 1 3.176-.341c7.01 0 13.175 4.974 14.657 11.828a1 1 0 1 1-1.954.422c-1.286-5.94-6.628-10.25-12.703-10.25-.92 0-1.845.1-2.752.296a12.91 12.91 0 0 0-8.18 5.665 12.915 12.915 0 0 0-1.777 9.79 12.95 12.95 0 0 0 1.668 4.118.993.993 0 0 1 .053.959l-2.899 6.089 6.09-2.9a.996.996 0 0 1 .958.055 13.267 13.267 0 0 0 2.195 1.094.996.996 0 0 1 .572 1.294 1.007 1.007 0 0 1-1.293.572 15.096 15.096 0 0 1-2.055-.979l-8.15 3.883a1.013 1.013 0 0 1-.43.096zm22-.004c-4.963 0-9-4.038-9-9s4.037-9 9-9a1 1 0 0 1 0 2.001c-3.86 0-7 3.14-7 7s3.14 7 7 7 7-3.14 7-7a1 1 0 0 1 2 0 9.01 9.01 0 0 1-9 8.999zm0-6.415a1.985 1.985 0 0 1-1.412-.583l-2.295-2.294a1.003 1.003 0 0 1 .707-1.708.99.99 0 0 1 .707.293l2.293 2.293 7.292-7.293a.992.992 0 0 1 1.413 0 1.003 1.003 0 0 1 0 1.415L24.356 25a1.987 1.987 0 0 1-1.412.584z"/></g></svg>