<svg xmlns="http://www.w3.org/2000/svg" width="32" height="32" viewBox="0 0 32 32"><title>messages bubble add</title><g fill="#111" class="nc-icon-wrapper"><path fill="#111" d="M1 32a1 1 0 0 1-.903-1.43l3.882-8.151a15.088 15.088 0 0 1-1.944-6.408C1.46 7.76 7.707.58 15.959.007c.349-.024.702-.036 1.05-.036 7.842 0 14.41 6.132 14.954 13.96a1 1 0 0 1-.928 1.066l-.07.003a1.003 1.003 0 0 1-.997-.93c-.472-6.785-6.164-12.1-12.959-12.1a12.91 12.91 0 0 0-9.812 4.473 12.904 12.904 0 0 0-3.168 9.429 13.05 13.05 0 0 0 1.931 5.967.993.993 0 0 1 .053.958l-2.9 6.088 6.088-2.9a.996.996 0 0 1 .958.054 13.132 13.132 0 0 0 2.201 1.096.997.997 0 0 1-.359 1.932.98.98 0 0 1-.36-.068 15.16 15.16 0 0 1-2.06-.979l-8.15 3.883A1.015 1.015 0 0 1 1 32zm22.001-.001c-4.962 0-9-4.038-9-9s4.038-9 9-9 9 4.037 9 9-4.037 9-9 9zm0-16c-3.86 0-7 3.14-7 7s3.14 7 7 7 7-3.14 7-7-3.141-7-7-7zm0 12a1 1 0 0 1-1-1v-3h-3a1 1 0 0 1 0-2h3v-3a1 1 0 0 1 2 0v3h3a1 1 0 0 1 0 2h-3v3c0 .55-.449 1-1 1z"/></g></svg>