<svg xmlns="http://www.w3.org/2000/svg" viewBox="0 0 32 32" width="32" height="32"><title>messages bubble square sync</title><g class="nc-icon-wrapper" fill="#111111"><path d="M2.001.165C1.369.365.305 1.45.138 2.062c-.204.749-.191 21.167.014 21.861.203.687 1.238 1.722 1.925 1.925.283.084.831.152 1.219.152H4v5.387l.33.306c.603.558.772.476 4.115-2.015 1.715-1.277 3.216-2.472 3.336-2.656.31-.475.273-.737-.161-1.171-.308-.308-.45-.366-.75-.306-.202.04-1.381.835-2.62 1.767L6 29.005V26.81c0-2.164-.004-2.2-.307-2.502C5.404 24.018 5.305 24 4 24c-1.34 0-1.397-.011-1.693-.33L2 23.337V2.614l.307-.307L2.614 2h26.772l.307.307.307.307v8.724l.306.331c.412.444.976.444 1.387 0l.307-.33V6.95c-.001-2.777-.051-4.571-.138-4.888-.18-.657-1.237-1.699-1.939-1.908-.7-.21-27.263-.2-27.922.01M21.187 14.12c-2.163.465-4.377 1.977-5.502 3.759-.526.833-.964 1.99-.88 2.324.161.642.88.975 1.448.67.13-.07.463-.59.74-1.156 1.068-2.186 3.057-3.547 5.382-3.682 1.284-.075 2.296.156 3.537.807.946.495 2.091 1.64 2.553 2.549l.278.547L27.11 20c-1.528.059-1.648.082-1.872.358-.326.403-.3.914.069 1.311l.306.331h5.774l.306-.33.307-.332v-5.677l-.306-.33c-.4-.432-.97-.442-1.387-.024-.284.283-.307.399-.307 1.514v1.206l-.552-.749c-1-1.36-2.692-2.505-4.39-2.973-.854-.235-3.13-.344-3.87-.185m-6.881 10.187l-.307.307v5.725l.306.33c.205.22.436.331.694.331.258 0 .49-.11.694-.33.28-.303.306-.432.306-1.515v-1.183l.552.75c.986 1.34 2.59 2.43 4.393 2.986.566.175 1.128.227 2.367.221 1.459-.007 1.722-.043 2.563-.356 2.457-.912 4.31-2.693 5.185-4.986.215-.562.216-.63.026-1.028-.23-.481-.68-.662-1.197-.48-.241.084-.474.402-.889 1.213-.865 1.692-1.964 2.683-3.688 3.325-1.501.56-3.52.428-5.058-.331-.834-.412-2.328-1.875-2.72-2.664l-.277-.56L18.886 26c1.556-.06 1.64-.077 1.869-.375.327-.427.305-.899-.061-1.294L20.387 24h-5.773l-.307.307" fill="#111111"/></g></svg>