<svg xmlns="http://www.w3.org/2000/svg" viewBox="0 0 32 32" width="32" height="32"><title>messages bubble square warning</title><g class="nc-icon-wrapper" fill="#111111"><path d="M7 32a.996.996 0 0 1-1-1v-5H3a3.003 3.003 0 0 1-3-3V3a3.003 3.003 0 0 1 3-3h26a3.003 3.003 0 0 1 3 3v20a3.003 3.003 0 0 1-3 3H15.333L7.6 31.8a1.004 1.004 0 0 1-.6.2zM3 2a1 1 0 0 0-1 1v20a1 1 0 0 0 1 1h4a1 1 0 0 1 1 1v4l6.4-4.8a1.004 1.004 0 0 1 .6-.2h14a1 1 0 0 0 1-1V3a1 1 0 0 0-1-1H3zm12.5 17.5a1.5 1.5 0 0 0 3 0 1.5 1.5 0 0 0-3 0M17 16a1 1 0 0 1-1-1V7a1 1 0 0 1 2 0v8a1 1 0 0 1-1 1z" fill="#111111"/></g></svg>