<svg xmlns="http://www.w3.org/2000/svg" viewBox="0 0 32 32" width="32" height="32"><title>module</title><g class="nc-icon-wrapper" fill="#111111"><path d="M16.003 32.001a4.947 4.947 0 0 1-1.807-.342L2.063 26.9A3.353 3.353 0 0 1 0 23.73V8.247a3.285 3.285 0 0 1 .617-1.99 1.017 1.017 0 0 1 .132-.174c.346-.424.787-.76 1.279-.972L14.191.342a4.884 4.884 0 0 1 3.616.002L29.937 5.1a3.37 3.37 0 0 1 1.296.967 1.027 1.027 0 0 1 .163.213c.412.59.62 1.277.604 1.99v15.482a3.324 3.324 0 0 1-2.028 3.135l-12.163 4.77a4.91 4.91 0 0 1-1.806.344zM17 29.825a1.88 1.88 0 0 0 .079-.029l12.134-4.759a1.328 1.328 0 0 0 .788-1.261V8.248a1.479 1.479 0 0 0-.008-.19l-12.992 5.094v16.673zM2.007 8.06A1.136 1.136 0 0 0 2 8.224v15.528c-.013.573.31 1.079.82 1.296L15 29.824V13.152L2.007 8.059zM16 11.396l12.259-4.807-11.184-4.385a2.907 2.907 0 0 0-2.15-.001L3.74 6.589 16 11.396z" fill="#111111"/></g></svg>