<svg xmlns="http://www.w3.org/2000/svg" width="32" height="32" viewBox="0 0 32 32"><title>module three 2</title><g fill="#111" class="nc-icon-wrapper"><path fill="#111" d="M9 32.001a.948.948 0 0 1-.152-.012 3.013 3.013 0 0 1-.903-.185l-6-2.25A3.016 3.016 0 0 1 0 26.755v-7.502c0-.55.157-1.096.457-1.577a.976.976 0 0 1 .08-.131 2.97 2.97 0 0 1 1.41-1.101l6-2.25a2.988 2.988 0 0 1 2.106 0l6 2.25c.575.216 1.064.6 1.416 1.11a.805.805 0 0 1 .073.123c.299.481.456 1.025.456 1.576v7.5a3.013 3.013 0 0 1-1.946 2.803l-6 2.249c-.286.107-.587.17-.9.185a1.077 1.077 0 0 1-.151.012zm-7-5.249a1.004 1.004 0 0 0 .648.93L8 29.689v-7.995l-6-2.249v7.308zm8 2.936l5.352-2.007a1.005 1.005 0 0 0 .648-.933v-7.305l-6 2.25v7.995zm-1-9.755l5.333-2-4.982-1.868a.996.996 0 0 0-.704 0l-4.98 1.868 5.333 2zm12 3.51a1 1 0 0 1-.316-1.948l8.632-2.878a.999.999 0 0 0 .684-.949V6.388L20 9.721V14a1 1 0 0 1-2 0V9.721L8 6.388V11a1 1 0 0 1-2 .001V6.335a2.975 2.975 0 0 1 .665-1.876 2.993 2.993 0 0 1 1.387-.971l10-3.333a2.99 2.99 0 0 1 1.899.001l9.998 3.333a2.987 2.987 0 0 1 1.384.968A2.979 2.979 0 0 1 32 6.335v11.333a2.997 2.997 0 0 1-2.052 2.847l-8.632 2.877a1.012 1.012 0 0 1-.316.05zM19 7.947l8.997-2.999-8.681-2.896a1.003 1.003 0 0 0-.63 0L10 4.947l9 3z"/></g></svg>