<svg xmlns="http://www.w3.org/2000/svg" viewBox="0 0 32 32" width="32" height="32"><title>module three 1</title><g class="nc-icon-wrapper" fill="#111111"><path d="M24 32a.967.967 0 0 1-.235-.03l-.061-.017a1.05 1.05 0 0 1-.204-.085l-6.997-3.999A1.008 1.008 0 0 1 16 27v-7c0-.077.01-.155.03-.239l.018-.06a1.077 1.077 0 0 1 .103-.226.997.997 0 0 1 .306-.314l.034-.022 7.013-4.008a1.01 1.01 0 0 1 .992.001l7 4 .045.03a.9.9 0 0 1 .147.114l.02.019a1.067 1.067 0 0 1 .264.469A1.127 1.127 0 0 1 32 20v7a1.003 1.003 0 0 1-.504.868l-7 4a1.09 1.09 0 0 1-.2.084l-.061.019A.967.967 0 0 1 24 32zm1-2.723l5-2.857v-4.696l-5 2.857v4.696zm-2 0v-4.696l-5-2.857v4.696l5 2.857zm1-6.429L28.984 20 24 17.152 19.016 20 24 22.848zM16 17a.959.959 0 0 1-.439-.104.323.323 0 0 1-.048-.023l-7.009-4.005A1.003 1.003 0 0 1 8 12V5a.947.947 0 0 1 .05-.305 1.003 1.003 0 0 1 .407-.532l.043-.03L15.504.131a1.01 1.01 0 0 1 .992.001l7 4 .045.03a.954.954 0 0 1 .147.113l.02.018c.053.054.099.114.143.183l.029.052a.939.939 0 0 1 .072.173l.017.062A1 1 0 0 1 24 5v7a1 1 0 0 1-.504.868l-7 4a1.067 1.067 0 0 1-.203.085l-.058.018A.959.959 0 0 1 16 17zm1-2.723l5-2.857V6.723L17 9.58v4.697zm-2 0V9.58l-5-2.857v4.696l5 2.858zm1-6.429L20.984 5 16 2.152 11.016 5 16 7.848zM8 32a.967.967 0 0 1-.235-.03l-.06-.017a.807.807 0 0 1-.14-.056 1.085 1.085 0 0 1-.068-.033L.505 27.868A1 1 0 0 1 0 27v-7a.953.953 0 0 1 .048-.297.979.979 0 0 1 .1-.222 1.016 1.016 0 0 1 .145-.188l.02-.018a.941.941 0 0 1 .144-.112l.034-.023 7.013-4.008a.997.997 0 0 1 .992 0l5 2.857a.992.992 0 0 1 .468.606.996.996 0 0 1-.965 1.264 1.005 1.005 0 0 1-.495-.131L8 17.152 3.016 20 8 22.848l3.504-2.003a1 1 0 0 1 .992 1.738L9 24.58v4.696l3.504-2.003a1.003 1.003 0 0 1 1.46 1.132.997.997 0 0 1-.468.606l-5 2.857a1.09 1.09 0 0 1-.2.085l-.061.019A1.033 1.033 0 0 1 8 32zm-1-2.723v-4.696l-5-2.858v4.696l5 2.858z" fill="#111111"/></g></svg>