<svg xmlns="http://www.w3.org/2000/svg" width="32" height="32" viewBox="0 0 32 32"><title>monetization approve</title><g fill="#111" class="nc-icon-wrapper"><path fill="#111" d="M18.64 2.232a.997.997 0 0 1-.177-.016 14.66 14.66 0 0 0-.926-.133.996.996 0 0 1-.882-1.106.996.996 0 0 1 1.106-.881c.374.041.73.093 1.055.152a1 1 0 0 1-.176 1.984zm6.327 2.824a.992.992 0 0 1-.574-.181l-.82-.575a.995.995 0 0 1-.244-1.392 1 1 0 0 1 1.392-.244l.82.575a.995.995 0 0 1 .244 1.392 1 1 0 0 1-.818.425zm4.478 5.285a.995.995 0 0 1-.894-.553 14.941 14.941 0 0 0-.444-.825 1.003 1.003 0 0 1 .862-1.504 1 1 0 0 1 .864.496c.17.292.335.598.506.938a1 1 0 0 1-.894 1.448zM11.932 31.43a1.048 1.048 0 0 1-.241-.029 8.436 8.436 0 0 1-1.082-.348.997.997 0 0 1-.556-1.3.996.996 0 0 1 1.3-.556c.267.107.542.196.819.264a.995.995 0 0 1 .616.455.997.997 0 0 1-.856 1.514zm-6.02-3.418a.995.995 0 0 1-.7-.286l-.713-.698a1.003 1.003 0 0 1 .7-1.715c.264 0 .512.101.7.285l.713.699a.996.996 0 0 1-.7 1.715zm-3.943-5.696a1.005 1.005 0 0 1-.934-.646 15.601 15.601 0 0 1-.346-1.012 1.003 1.003 0 0 1 .956-1.29c.444 0 .828.285.958.709.089.295.192.593.302.884a.996.996 0 0 1-.58 1.29 1.019 1.019 0 0 1-.356.065zM23 32c-4.963 0-9-4.037-9-9s4.037-9 9-9 9 4.037 9 9-4.037 9-9 9zm0-16c-3.86 0-7 3.14-7 7s3.14 7 7 7 7-3.14 7-7-3.14-7-7-7zm-1.112 11.239a1.977 1.977 0 0 1-1.412-.587l-2-2a.992.992 0 0 1 0-1.413.999.999 0 0 1 1.413 0l2 2 3.875-5.166a1.005 1.005 0 0 1 1.399-.201c.442.332.532.96.201 1.401l-3.873 5.166a1.99 1.99 0 0 1-1.603.8zM8.963 15a1 1 0 0 1-1-1h-1a1 1 0 0 1 0-2H9.67a.785.785 0 0 0 .734-.496.792.792 0 0 0-.44-1.027L7.215 9.38a2.78 2.78 0 0 1-1.751-2.587c0-.745.29-1.445.816-1.973a2.765 2.765 0 0 1 1.683-.804V4a1 1 0 0 1 2 0h1a1 1 0 0 1 0 2H8.252a.783.783 0 0 0-.557.232.787.787 0 0 0 .264 1.29l2.749 1.1a2.795 2.795 0 0 1 1.555 3.626 2.773 2.773 0 0 1-2.3 1.739V14a1 1 0 0 1-1 1zm0 3c-4.963 0-9-4.037-9-9s4.037-9 9-9 9 4.037 9 9-4.038 9-9 9zm0-16c-3.86 0-7 3.14-7 7s3.14 7 7 7 7-3.14 7-7-3.14-7-7-7z"/></g></svg>