<svg xmlns="http://www.w3.org/2000/svg" width="32" height="32" viewBox="0 0 32 32"><title>monitor heart beat search</title><g fill="#111" class="nc-icon-wrapper"><path fill="#111" d="M30.999 30.995a.99.99 0 0 1-.707-.294l-5.13-5.13a13.996 13.996 0 0 1-9.174 3.424c-1.456 0-2.901-.228-4.296-.68a13.92 13.92 0 0 1-8.115-6.86 1 1 0 1 1 1.775-.923 11.933 11.933 0 0 0 6.956 5.879c1.196.386 2.435.582 3.681.582a11.975 11.975 0 0 0 11.428-8.312 11.921 11.921 0 0 0-.74-9.153 11.92 11.92 0 0 0-6.989-5.957 12.052 12.052 0 0 0-3.704-.588 11.873 11.873 0 0 0-5.452 1.322 11.933 11.933 0 0 0-5.955 6.998.996.996 0 0 1-1.841.148.992.992 0 0 1-.061-.763 13.907 13.907 0 0 1 6.946-8.16A13.84 13.84 0 0 1 15.983.985c1.46 0 2.913.231 4.32.686 7.346 2.373 11.392 10.281 9.018 17.628a13.83 13.83 0 0 1-2.742 4.862l5.128 5.128a1.003 1.003 0 0 1 0 1.415 1.001 1.001 0 0 1-.708.29zM17.079 20.34a1.497 1.497 0 0 1-1.394-.94L12.9 12.433l-1.866 3.732a1.496 1.496 0 0 1-1.342.83H.999a1 1 0 0 1 0-2H9.38l2.227-4.452a1.496 1.496 0 0 1 2.014-.67c.327.164.582.44.719.78l2.816 7.042 2.57-4.499a1.487 1.487 0 0 1 1.305-.756 1.493 1.493 0 0 1 1.248.672l1.552 2.33a.997.997 0 0 1-.832 1.553 1 1 0 0 1-.834-.446l-1.105-1.658-2.684 4.696a1.512 1.512 0 0 1-1.297.754z"/></g></svg>