<svg xmlns="http://www.w3.org/2000/svg" width="32" height="32" viewBox="0 0 32 32"><title>monitor</title><g fill="#111" class="nc-icon-wrapper"><path fill="#111" d="M8 32a1 1 0 0 1 0-2h2.153l.667-4H5a5.005 5.005 0 0 1-5-5V5a5.005 5.005 0 0 1 5-5h22a5.005 5.005 0 0 1 5 5v16a5.005 5.005 0 0 1-5 5h-5.82l.667 4H24a1 1 0 0 1 0 2H8zm11.82-2l-.667-4h-6.306l-.667 4h7.64zM2.176 22A3.016 3.016 0 0 0 5 24h22c1.28 0 2.407-.828 2.824-2H2.176zM30 20V5a3.003 3.003 0 0 0-3-3H5a3.003 3.003 0 0 0-3 3v15h28z"/></g></svg>