<svg xmlns="http://www.w3.org/2000/svg" viewBox="0 0 32 32" width="32" height="32"><title>monitor network</title><g class="nc-icon-wrapper" fill="#111111"><path d="M4 32a1 1 0 0 1 0-2h2.5v-2H3a3.003 3.003 0 0 1-3-3v-5a3.003 3.003 0 0 1 3-3h9a3.003 3.003 0 0 1 3 3v5a3.003 3.003 0 0 1-3 3H8.5v2H11a1 1 0 0 1 0 2H4zM3 19a1 1 0 0 0-1 1v5a1 1 0 0 0 1 1h9a1 1 0 0 0 1-1v-5a1 1 0 0 0-1-1H3zm18 13a1 1 0 0 1 0-2h2.5v-2H20a3.003 3.003 0 0 1-3-3v-5a3.003 3.003 0 0 1 3-3h9a3.003 3.003 0 0 1 3 3v5a3.003 3.003 0 0 1-3 3h-3.5v2H28a1 1 0 0 1 0 2h-7zm-1-13a1 1 0 0 0-1 1v5a1 1 0 0 0 1 1h9a1 1 0 0 0 1-1v-5a1 1 0 0 0-1-1h-9zm-7.5-4a1 1 0 0 1 0-2H15v-2h-3.5a3.003 3.003 0 0 1-3-3V3a3.003 3.003 0 0 1 3-3h9a3.003 3.003 0 0 1 3 3v5a3.003 3.003 0 0 1-3 3H17v2h2.5a1 1 0 0 1 0 2h-7zm-1-13a1 1 0 0 0-1 1v5a1 1 0 0 0 1 1h9a1 1 0 0 0 1-1V3a1 1 0 0 0-1-1h-9z" fill="#111111"/></g></svg>