<svg xmlns="http://www.w3.org/2000/svg" width="32" height="32" viewBox="0 0 32 32"><title>monitor refresh</title><g fill="#111" class="nc-icon-wrapper"><path fill="#111" d="M3.9.133C2.505.408 1.142 1.531.463 2.966l-.402.846v14.376l.4.842c.712 1.503 2.034 2.545 3.597 2.834.405.075 2.077.136 3.714.136 2.675 0 2.977.02 2.977.205 0 .207-.45 2.996-.566 3.514-.06.266-.124.281-1.195.281-.622 0-1.253.066-1.404.145-.66.353-.771 1.01-.255 1.526.326.326.346.329 2.193.329 1.767 0 1.878-.015 2.145-.282.242-.242.357-.735.81-3.469.29-1.752.526-3.287.524-3.41 0-.124-.14-.363-.309-.532L12.386 20H8.49c-2.695 0-4.056-.047-4.412-.152-.56-.165-1.827-1.312-1.827-1.652 0-.175.599-.196 5.569-.196h5.568l.306-.33c.399-.43.399-.965 0-1.363L13.386 16H2v-5.719c.001-3.738.049-5.892.138-6.219.18-.657 1.237-1.699 1.939-1.908.743-.222 23.103-.222 23.846 0 .702.21 1.76 1.25 1.94 1.908.082.304.136 1.833.136 3.888L30 11.338l.306.331c.416.448.976.444 1.397-.01l.316-.34-.04-3.754-.041-3.753-.402-.846C30.832 1.48 29.5.409 28.001.126 27.189-.03 4.684-.022 3.899.132M20.875 14.26c-1.161.295-2.746 1.068-3.528 1.72-1.319 1.1-2.382 2.667-2.937 4.332-.288.863-.334 1.215-.34 2.563-.005 1.117.055 1.794.212 2.375.284 1.053 1.082 2.662 1.674 3.375 1.088 1.311 2.724 2.425 4.354 2.964.869.287 1.22.332 2.628.34 1.847.01 2.8-.214 4.375-1.03 1.037-.537 2.937-2.308 2.937-2.738 0-.767-.542-1.272-1.19-1.109-.184.046-.695.444-1.135.884-1.707 1.707-4.332 2.45-6.595 1.866-2.535-.654-4.48-2.634-5.14-5.234-.663-2.608.484-5.651 2.73-7.244 1.515-1.075 3.753-1.566 5.492-1.204.922.191 2.48.976 3.235 1.628.541.468 1.603 1.886 1.603 2.141 0 .061-.818.111-1.818.111-1.764 0-1.827.01-2.125.307-.399.398-.399.932 0 1.362l.306.331h5.774l.306-.33.307-.331v-6.725l-.307-.307c-.406-.406-.98-.406-1.386 0-.288.288-.307.39-.307 1.652v1.346l-.719-.703a9.406 9.406 0 0 0-4.63-2.468c-.997-.202-2.712-.145-3.776.126"/></g></svg>