<svg xmlns="http://www.w3.org/2000/svg" viewBox="0 0 32 32" width="32" height="32"><title>mood warning</title><g class="nc-icon-wrapper" fill="#111111"><path d="M15.996 19a1 1 0 0 1-1-1v-8a1 1 0 0 1 2 0v8a1 1 0 0 1-1 1zm0 5c-.827 0-1.5-.673-1.5-1.5s.673-1.5 1.5-1.5 1.5.673 1.5 1.5-.672 1.5-1.5 1.5zM16 32.001a5.997 5.997 0 0 1-5.308-3.194 6.025 6.025 0 0 1-4.53-.41 5.98 5.98 0 0 1-2.971-7.093 6.001 6.001 0 0 1-2.915-3.492 5.98 5.98 0 0 1 2.916-7.117 5.988 5.988 0 0 1 .408-4.53A5.963 5.963 0 0 1 7.115 3.21a5.993 5.993 0 0 1 1.816-.284c.6 0 1.19.09 1.761.268a6.003 6.003 0 0 1 10.61.002 6.02 6.02 0 0 1 4.53.409 5.968 5.968 0 0 1 2.956 3.513 5.924 5.924 0 0 1 .016 3.578A5.993 5.993 0 0 1 31.996 16a5.99 5.99 0 0 1-3.195 5.305 6 6 0 0 1-5.742 7.766c-.6 0-1.19-.09-1.758-.264A6 6 0 0 1 16 32zm-4.772-5.492a.995.995 0 0 1 .953.698 3.99 3.99 0 0 0 5.023 2.608 4.003 4.003 0 0 0 2.607-2.607.997.997 0 0 1 1.412-.587c.574.299 1.192.45 1.836.45a3.992 3.992 0 0 0 3.557-2.156 4.005 4.005 0 0 0 0-3.686.996.996 0 0 1 .585-1.413 3.99 3.99 0 0 0 2.794-3.815 3.987 3.987 0 0 0-2.794-3.814.997.997 0 0 1-.585-1.414 3.979 3.979 0 0 0 .264-3.049 4.005 4.005 0 0 0-5.656-2.343 1.01 1.01 0 0 1-.844.036 1 1 0 0 1-.57-.621 3.99 3.99 0 0 0-5.023-2.607 4.003 4.003 0 0 0-2.607 2.607.996.996 0 0 1-.952.695 1.01 1.01 0 0 1-.461-.112 3.947 3.947 0 0 0-1.838-.452c-.409 0-.817.064-1.212.188a3.973 3.973 0 0 0-2.342 1.97 4.005 4.005 0 0 0 0 3.686 1 1 0 0 1-.586 1.414c-1.017.323-1.849 1.023-2.342 1.972s-.587 2.034-.266 3.05a4.003 4.003 0 0 0 2.607 2.606 1 1 0 0 1 .585 1.415 4.004 4.004 0 0 0 3.551 5.843c.64 0 1.277-.155 1.843-.45a1.028 1.028 0 0 1 .461-.112z" fill="#111111"/></g></svg>