<svg xmlns="http://www.w3.org/2000/svg" viewBox="0 0 32 32" width="32" height="32"><title>move expand vertical</title><g class="nc-icon-wrapper" fill="#111111"><path d="M16 31.583A1.987 1.987 0 0 1 14.588 31L4.293 20.705A1.003 1.003 0 0 1 5 18.997a.99.99 0 0 1 .707.294L16 29.584l10.292-10.293a.992.992 0 0 1 1.413 0 1.003 1.003 0 0 1 0 1.414L17.412 31a1.98 1.98 0 0 1-1.412.584zM5 12.999a.99.99 0 0 1-.707-.294C4.104 12.517 4 12.267 4 12s.104-.519.293-.707L14.587.999A1.983 1.983 0 0 1 16 .413c.535 0 1.036.208 1.412.584l10.295 10.295c.189.188.293.44.293.707s-.104.518-.293.706a.999.999 0 0 1-1.414 0L16 2.412 5.707 12.705A.99.99 0 0 1 5 13z" fill="#111111"/></g></svg>