<svg xmlns="http://www.w3.org/2000/svg" width="32" height="32" viewBox="0 0 32 32"><title>move shrink vertical</title><g fill="#111" class="nc-icon-wrapper"><path fill="#111" d="M15.999 12.584a1.983 1.983 0 0 1-1.414-.587L4.292 1.704A.995.995 0 0 1 4.293.291c.188-.19.44-.294.707-.294s.519.104.707.294L16 10.584 26.292.291a.992.992 0 0 1 1.413 0 .991.991 0 0 1 .001 1.413L17.414 11.997c-.377.379-.88.587-1.414.587zM5 31.997a1.003 1.003 0 0 1-.707-1.708l10.294-10.292A1.983 1.983 0 0 1 16 19.412a1.98 1.98 0 0 1 1.412.584l10.295 10.293A1.003 1.003 0 0 1 27 31.997a.99.99 0 0 1-.707-.293L16 21.412 5.707 31.704a.99.99 0 0 1-.707.293z"/></g></svg>