<svg xmlns="http://www.w3.org/2000/svg" viewBox="0 0 32 32" width="32" height="32"><title>move to bottom</title><g class="nc-icon-wrapper" fill="#111111"><path d="M.563.144C0 .451 0 .462 0 5.006v4.332l.306.331.307.331h8.774l.306-.33.307-.332V5.055C10 2.698 9.965.679 9.922.568 9.721.043 9.34 0 4.975.004 2.205.006.729.054.563.144M8 5v3H2V2h6v3m6.318.295c-.41.41-.415.94-.011 1.374l.306.331h3.636c4.275 0 4.956.097 6.747.961 1.01.487 1.352.74 2.328 1.715.974.975 1.228 1.32 1.716 2.328.751 1.555 1.022 2.881.917 4.494-.097 1.48-.31 2.283-.953 3.583-.86 1.74-2.756 3.509-4.567 4.262-1.168.486-2.406.657-4.766.657h-2.215l1.772-1.799C20.753 21.653 21 21.348 21 21.008c0-.533-.481-1.008-1.023-1.008-.366 0-.699.29-3.193 2.784C14.231 25.338 14 25.604 14 26c0 .396.231.662 2.784 3.216C19.28 31.71 19.611 32 19.978 32c.524 0 1.022-.507 1.022-1.04 0-.319-.275-.656-1.76-2.153l-1.76-1.776 2.666-.062c2.41-.056 2.771-.093 3.756-.389.6-.18 1.46-.501 1.91-.714.998-.472 2.56-1.617 3.284-2.407 1.185-1.295 2.189-3.213 2.627-5.02.315-1.296.282-3.812-.067-5.145-.99-3.787-3.84-6.687-7.738-7.875-1.084-.33-1.184-.338-5.194-.39l-4.087-.052-.319.318M.307 12.307c-.267.266-.307.42-.307 1.17 0 .741.043.908.306 1.192.205.22.436.331.694.331.402 0 1-.497 1-.83 0-.123.194-.17.693-.17.59 0 .74-.05 1-.33.399-.43.399-.965 0-1.363C3.404 12.018 3.305 12 2 12c-1.305 0-1.404.018-1.693.307m6 0c-.399.398-.399.932 0 1.362.26.281.41.331 1 .331.5 0 .693.047.693.17 0 .092.138.317.306.5.412.443.976.443 1.388 0 .263-.285.306-.452.306-1.194 0-.749-.04-.903-.307-1.17C9.404 12.019 9.305 12 8 12c-1.305 0-1.404.018-1.693.307m-6 5c-.267.266-.307.42-.307 1.17 0 .741.043.908.306 1.192C.603 19.99.661 20 2 20c1.34 0 1.397-.011 1.693-.33.399-.43.399-.965 0-1.363-.252-.252-.43-.307-1-.307-.542 0-.693-.042-.693-.193C2 17.47 1.417 17 1 17c-.244 0-.5.113-.693.307m8 0c-.169.169-.307.394-.307.5 0 .15-.151.193-.693.193-.57 0-.748.055-1 .307-.399.398-.399.932 0 1.362.295.32.354.331 1.693.331 1.34 0 1.398-.011 1.694-.33.263-.285.306-.452.306-1.194 0-.749-.04-.903-.307-1.17A1.007 1.007 0 0 0 9 17c-.243 0-.5.113-.693.307m-8 5c-.288.288-.307.39-.307 1.67 0 1.272.02 1.383.306 1.692.205.22.436.331.694.331.619 0 1-.507 1-1.33V24h.693c.59 0 .74-.05 1-.33.399-.43.399-.965 0-1.363C3.404 22.018 3.305 22 2 22c-1.305 0-1.404.018-1.693.307m6 0c-.399.398-.399.932 0 1.362.26.281.41.331 1 .331H8v.67c0 .823.381 1.33 1 1.33.258 0 .49-.11.694-.33.286-.31.306-.421.306-1.694 0-1.28-.019-1.381-.307-1.67C9.404 22.019 9.305 22 8 22c-1.305 0-1.404.018-1.693.307m-6 6c-.288.288-.307.39-.307 1.67 0 1.272.02 1.383.306 1.692C.603 31.99.661 32 2 32c1.34 0 1.397-.011 1.693-.33.399-.43.399-.965 0-1.363-.252-.252-.43-.307-1-.307H2v-.693C2 28.473 1.638 28 1 28c-.244 0-.5.113-.693.307m8 0c-.252.252-.307.43-.307 1V30h-.693c-.57 0-.748.055-1 .307-.399.398-.399.932 0 1.362.295.32.354.331 1.693.331 1.34 0 1.398-.011 1.694-.33.286-.31.306-.421.306-1.694 0-1.28-.019-1.381-.307-1.67A1.007 1.007 0 0 0 9 28c-.243 0-.5.113-.693.307" fill="#111111"/></g></svg>