<svg xmlns="http://www.w3.org/2000/svg" viewBox="0 0 32 32" width="32" height="32"><title>move back</title><g class="nc-icon-wrapper" fill="#111111"><path d="M31 27.997a1 1 0 0 1-1-1v-12a1 1 0 0 0-1-1H3.415l5.293 5.294a.992.992 0 0 1 0 1.413.996.996 0 0 1-1.415 0l-7-7a.987.987 0 0 1-.217-.327l-.013-.034a1 1 0 0 1 .001-.694l.01-.028a1 1 0 0 1 .22-.332l7-6.998c.187-.19.44-.294.706-.294s.519.104.707.294c.189.188.293.44.293.706s-.104.519-.293.707l-5.294 5.293H29a3.003 3.003 0 0 1 3 3v12a1 1 0 0 1-1 1z" fill="#111111"/></g></svg>