<svg xmlns="http://www.w3.org/2000/svg" viewBox="0 0 32 32" width="32" height="32"><title>multiple actions add</title><g class="nc-icon-wrapper" fill="#111111"><path d="M23 32c-4.963 0-9-4.037-9-9s4.037-9 9-9 9 4.037 9 9-4.037 9-9 9zm0-16c-3.86 0-7 3.14-7 7s3.14 7 7 7 7-3.14 7-7-3.14-7-7-7zm0 12a1 1 0 0 1-1-1v-3h-3a1 1 0 0 1 0-2h3v-3a1 1 0 0 1 2 0v3h3a1 1 0 0 1 0 2h-3v3a1 1 0 0 1-1 1zM1 20a1.001 1.001 0 0 1-.992-1.125A9.02 9.02 0 0 1 8.945 11h.062l.037.5V11a9.05 9.05 0 0 1 5.992 2.268 1 1 0 0 1-.661 1.75.999.999 0 0 1-.662-.251A7.067 7.067 0 0 0 9.04 13h-.1a7.015 7.015 0 0 0-6.948 6.125A1.001 1.001 0 0 1 1 20zm8-9c-3.033 0-5.5-2.467-5.5-5.5S5.967 0 9 0s5.5 2.467 5.5 5.5S12.032 11 9 11zm0-9C7.07 2 5.5 3.57 5.5 5.5S7.07 9 9 9s3.5-1.57 3.5-3.5S10.93 2 9 2zm13 7c-2.481 0-4.5-2.019-4.5-4.5S19.519 0 22 0s4.5 2.019 4.5 4.5S24.481 9 22 9zm0-7c-1.379 0-2.5 1.121-2.5 2.5S20.621 7 22 7s2.5-1.121 2.5-2.5S23.379 2 22 2zm5.2 11a1.001 1.001 0 0 1-.865-.5 4.964 4.964 0 0 0-3.038-2.33 4.992 4.992 0 0 0-3.793.502 5.044 5.044 0 0 0-1.264 1.039 1.003 1.003 0 1 1-1.507-1.318 7.01 7.01 0 0 1 5.26-2.396c.611 0 1.223.082 1.82.24a6.952 6.952 0 0 1 4.251 3.26A1.001 1.001 0 0 1 27.2 13z" fill="#111111"/></g></svg>