<svg xmlns="http://www.w3.org/2000/svg" width="32" height="32" viewBox="0 0 32 32"><title>multiple neutral 1</title><g fill="#111" class="nc-icon-wrapper"><path fill="#111" d="M8.282 4.251C6.27 4.778 4.67 6.252 3.87 8.312c-.245.63-.291.981-.291 2.188 0 1.207.046 1.558.29 2.188.803 2.068 2.545 3.63 4.585 4.108.68.16.706.179.358.256-3.013.668-4.225 1.27-5.864 2.916A10.058 10.058 0 0 0 .175 25.23c-.27 1.404-.235 2.044.13 2.44.684.736 1.692.197 1.696-.907.004-.965.343-2.273.862-3.326.914-1.854 2.67-3.392 4.615-4.04.823-.273 1.18-.318 2.521-.318 1.342 0 1.698.045 2.52.319 1.945.647 3.702 2.185 4.617 4.04.518 1.052.857 2.36.86 3.325.005 1.104 1.013 1.643 1.697.906.365-.395.4-1.035.13-2.44-.393-2.044-1.343-3.836-2.798-5.276-1.684-1.667-2.822-2.232-5.838-2.902-.348-.077-.321-.095.358-.255 2.04-.478 3.782-2.04 4.584-4.109.245-.63.291-.98.291-2.187 0-1.207-.046-1.558-.29-2.188-1.259-3.244-4.522-4.933-7.849-4.061m12.126-.058c-1.973.531-2.899 1.578-2.101 2.375.39.39.793.388 1.55-.008 1.822-.953 3.985-.611 5.346.844a6.2 6.2 0 0 1 .9 1.319c.282.602.334.881.33 1.777-.002.893-.058 1.182-.35 1.812-1.09 2.36-3.815 3.35-6.067 2.206-.931-.473-1.303-.492-1.71-.086-.628.628-.237 1.388 1.004 1.951.42.19.971.385 1.225.433.611.114.495.256-.294.36-1.18.157-1.596.988-.862 1.722.302.302.449.364.719.302.187-.043.874-.113 1.528-.155.981-.065 1.373-.032 2.244.189 2.247.568 4.296 2.195 5.231 4.154.534 1.118.899 2.498.899 3.4 0 1.09 1.017 1.608 1.708.868.306-.327.318-.391.245-1.343-.339-4.466-3.678-8.273-7.953-9.07a13.56 13.56 0 0 1-1.125-.25c-.297-.093-.292-.099.088-.108.607-.015 1.987-.559 2.748-1.083 1.732-1.193 2.782-3.216 2.787-5.37.007-2.912-2.221-5.64-5.108-6.252-1.037-.22-2.135-.215-2.982.013m-8.56 2.244c.938.427 1.798 1.288 2.236 2.237.302.653.353.918.349 1.826-.004.89-.062 1.186-.353 1.826-.436.956-1.286 1.804-2.268 2.261-.636.297-.91.35-1.812.35s-1.176-.053-1.813-.35c-.976-.455-1.83-1.305-2.27-2.26-.3-.648-.353-.926-.354-1.827 0-.903.052-1.175.35-1.813.59-1.264 1.74-2.227 3.055-2.56.774-.195 2.083-.054 2.88.31"/></g></svg>