<svg xmlns="http://www.w3.org/2000/svg" viewBox="0 0 32 32" width="32" height="32"><title>navigation menu</title><g class="nc-icon-wrapper" fill="#111111"><path d="M2.49 7.16c-.544.417-.62 1.039-.183 1.51l.306.33h26.774l.306-.33c.436-.471.361-1.093-.182-1.51-.289-.221-26.733-.221-27.022 0m0 8c-.543.417-.618 1.039-.182 1.51l.306.33h26.774l.306-.33c.436-.471.361-1.093-.182-1.51-.289-.221-26.733-.221-27.022 0m0 8c-.543.417-.618 1.039-.182 1.51l.306.33h26.774l.306-.33c.436-.471.361-1.093-.182-1.51-.289-.221-26.733-.221-27.022 0" fill="#111111"/></g></svg>