<svg xmlns="http://www.w3.org/2000/svg" width="32" height="32" viewBox="0 0 32 32"><title>navigation up circle</title><g fill="#111" class="nc-icon-wrapper"><path fill="#111" d="M16.001 22.996a1 1 0 0 1-1-1v-9.585l-3.293 3.293a.992.992 0 0 1-1.413 0c-.19-.188-.294-.44-.294-.707s.104-.518.294-.706l4.998-4.999a.987.987 0 0 1 .327-.217l.033-.012a.983.983 0 0 1 .695.001l.027.01c.129.053.238.126.333.22l4.999 5c.189.187.293.44.293.706s-.104.519-.293.707a.999.999 0 0 1-1.414 0L17 12.413V22a.997.997 0 0 1-.999.997zm0 8c-8.27 0-15-6.73-15-15s6.73-15 15-15 15 6.73 15 15-6.729 15-15 15zm0-28c-7.168 0-13 5.832-13 13s5.832 13 13 13 13-5.832 13-13-5.832-13-13-13z"/></g></svg>