<svg xmlns="http://www.w3.org/2000/svg" viewBox="0 0 32 32" width="32" height="32"><title>navigation down circle</title><g class="nc-icon-wrapper" fill="#111111"><path d="M16.001 22.996a1.007 1.007 0 0 1-.346-.063l-.03-.01a.976.976 0 0 1-.332-.22l-4.998-4.999A1.003 1.003 0 0 1 11 15.996a.99.99 0 0 1 .707.293l3.293 3.294V9.996a1 1 0 0 1 2 0v9.585l3.294-3.293a.992.992 0 0 1 1.413 0 1.003 1.003 0 0 1 0 1.415l-5 5a1.017 1.017 0 0 1-.328.218l-.035.014a.996.996 0 0 1-.344.061zm0 8c-8.27 0-15-6.73-15-15s6.73-15 15-15 15 6.73 15 15-6.729 15-15 15zm0-28c-7.168 0-13 5.832-13 13s5.832 13 13 13 13-5.832 13-13-5.832-13-13-13z" fill="#111111"/></g></svg>