<svg xmlns="http://www.w3.org/2000/svg" width="32" height="32" viewBox="0 0 32 32"><title>navigation right circle</title><g fill="#111" class="nc-icon-wrapper"><path fill="#111" d="M13.625.192C6.649 1.295 1.327 6.637.185 13.684c-.797 4.907 1.02 10.198 4.734 13.783 6.244 6.028 15.918 6.028 22.162 0 4.915-4.745 6.286-12.066 3.41-18.202C27.505 2.889 20.477-.891 13.626.192m4.196 1.942c4.752.661 8.756 3.585 10.8 7.886 2.148 4.52 1.741 9.634-1.105 13.912-.748 1.123-2.47 2.842-3.616 3.608-6.975 4.66-16.434 2.319-20.244-5.011-1.833-3.527-2.136-7.397-.867-11.091.967-2.817 3.007-5.462 5.461-7.083 2.807-1.854 6.33-2.672 9.57-2.221m2.487 6.173c-.591.591-.454.933.962 2.388L22.54 12h-5.497c-5.852 0-6.504.05-7.667.596-.914.428-2.354 1.869-2.777 2.779-.79 1.7-.788 3.548.006 5.25.43.924 1.86 2.353 2.791 2.79.812.38 2.265.666 2.76.542.754-.19 1.08-1.015.624-1.577-.162-.2-.475-.318-1.164-.437-1.602-.279-2.613-1.002-3.226-2.31-.452-.963-.459-2.405-.016-3.319.372-.765 1.181-1.57 1.97-1.96.594-.291.601-.292 6.404-.328l5.81-.036-1.278 1.3C20.239 16.346 20 16.658 20 16.958c0 .733.805 1.216 1.455.874.197-.103 1.3-1.138 2.451-2.3 1.885-1.9 2.094-2.154 2.094-2.537 0-.385-.217-.642-2.285-2.71C21.685 8.255 21.385 8 21.022 8a.998.998 0 0 0-.715.307"/></g></svg>