<svg xmlns="http://www.w3.org/2000/svg" width="32" height="32" viewBox="0 0 32 32"><title>navigation right circle 1</title><g fill="#111" class="nc-icon-wrapper"><path fill="#111" d="M17.001 21.996a1.003 1.003 0 0 1-.706-1.708l3.293-3.293h-9.587a1 1 0 0 1 0-2h9.586L16.293 11.7c-.189-.188-.293-.44-.293-.706s.104-.519.293-.707c.188-.19.44-.293.707-.293s.519.104.707.293l5 5a.987.987 0 0 1 .217.327l.013.034a.973.973 0 0 1 0 .69l-.008.021a1.019 1.019 0 0 1-.224.343L17.707 21.7a.981.981 0 0 1-.706.295zm-1 9c-8.27 0-15-6.73-15-15s6.73-15 15-15 15 6.73 15 15-6.729 15-15 15zm0-28c-7.168 0-13 5.832-13 13s5.832 13 13 13 13-5.832 13-13-5.832-13-13-13z"/></g></svg>