<svg xmlns="http://www.w3.org/2000/svg" viewBox="0 0 32 32" width="32" height="32"><title>navigation left circle 1</title><g class="nc-icon-wrapper" fill="#111111"><path d="M15.001 21.996a.99.99 0 0 1-.706-.293l-5-5a.987.987 0 0 1-.218-.327l-.013-.035a.983.983 0 0 1 .012-.722.987.987 0 0 1 .221-.332l4.999-4.999a.992.992 0 0 1 1.413 0c.19.188.294.44.294.707s-.104.518-.294.706l-3.293 3.294h9.585a1 1 0 0 1 0 2h-9.585l3.293 3.293a1.003 1.003 0 0 1-.708 1.708zm1 9c-8.27 0-15-6.73-15-15s6.73-15 15-15 15 6.73 15 15-6.729 15-15 15zm0-28c-7.168 0-13 5.832-13 13s5.832 13 13 13 13-5.832 13-13-5.832-13-13-13z" fill="#111111"/></g></svg>