<svg xmlns="http://www.w3.org/2000/svg" viewBox="0 0 32 32" width="32" height="32"><title>navigation menu horizontal</title><g class="nc-icon-wrapper" fill="#111111"><path d="M4.5 20.53c-2.481 0-4.5-2.018-4.5-4.5s2.019-4.5 4.5-4.5S9 13.55 9 16.03s-2.019 4.5-4.5 4.5zm0-7a2.503 2.503 0 0 0-2.5 2.5c0 1.38 1.121 2.5 2.5 2.5S7 17.41 7 16.03a2.503 2.503 0 0 0-2.5-2.5zm23 7c-2.481 0-4.5-2.018-4.5-4.5s2.019-4.5 4.5-4.5 4.5 2.02 4.5 4.5-2.019 4.5-4.5 4.5zm0-7a2.503 2.503 0 0 0-2.5 2.5c0 1.38 1.121 2.5 2.5 2.5s2.5-1.12 2.5-2.5a2.503 2.503 0 0 0-2.5-2.5zm-11.5 7c-2.481 0-4.5-2.018-4.5-4.5s2.019-4.5 4.5-4.5 4.5 2.02 4.5 4.5-2.019 4.5-4.5 4.5zm0-7a2.503 2.503 0 0 0-2.5 2.5c0 1.38 1.121 2.5 2.5 2.5s2.5-1.12 2.5-2.5a2.503 2.503 0 0 0-2.5-2.5z" fill="#111111"/></g></svg>