<svg xmlns="http://www.w3.org/2000/svg" viewBox="0 0 32 32" width="32" height="32"><title>network arrow</title><g class="nc-icon-wrapper" fill="#111111"><path d="M15.99 32a15.904 15.904 0 0 1-11.313-4.683A15.9 15.9 0 0 1-.017 16C-.023 7.172 7.156-.013 15.984-.017c8.43 0 15.444 6.577 15.981 14.977l.002.041a15.227 15.227 0 0 1-.128 3.266 1.004 1.004 0 0 1-1.134.846.997.997 0 0 1-.846-1.132c.093-.652.141-1.318.141-1.98h-6.97l-.031.002-.046-.002h-.956a1 1 0 0 1-.049-1.998l-.001-.034A34.47 34.47 0 0 0 21.145 8H10.856a35.525 35.525 0 0 0-.803 6H15a1 1 0 1 1-.001 2h-5c0 2.052.157 4.07.469 6h3.53a1 1 0 0 1 0 2h-3.143c.526 2.31 1.265 4.261 2.154 5.68a14.165 14.165 0 0 0 4.971.184 1.005 1.005 0 0 1 1.127.853 1 1 0 0 1-.854 1.128c-.741.103-1.497.155-2.246.155h-.016zM4.496 24a14.202 14.202 0 0 0 1.596 1.903 13.886 13.886 0 0 0 4.2 2.89C9.676 27.401 9.175 25.796 8.793 24H4.495zm3.938-2A40.52 40.52 0 0 1 8 16H1.983a13.861 13.861 0 0 0 1.35 6h5.1zm21.427-8a13.973 13.973 0 0 0-2.372-6h-4.285a37.493 37.493 0 0 1 .742 5.867l.007.133h5.908zM8.048 14c.099-2.117.35-4.13.745-6H4.496a13.981 13.981 0 0 0-2.37 6h5.922zm17.75-8a14.087 14.087 0 0 0-4.089-2.793c.374.848.707 1.782.998 2.793h3.09zm-5.191 0c-.456-1.452-1.012-2.716-1.624-3.693a14.02 14.02 0 0 0-2.99-.326l-.008-.5v.5c-.989 0-1.985.11-2.965.322-.624.989-1.17 2.23-1.628 3.697h9.215zM9.29 6c.29-1.01.628-1.95 1.005-2.803A14.068 14.068 0 0 0 6.186 6h3.105zm18.296 25.997a1.88 1.88 0 0 1-1.335-.549l-3.075-3.076-.76.76a1.888 1.888 0 0 1-1.334.553 1.904 1.904 0 0 1-1.814-1.35l-2.876-9.586a1.893 1.893 0 0 1 .919-2.214 1.89 1.89 0 0 1 1.44-.143l9.587 2.876a1.893 1.893 0 0 1 .794 3.147l-.76.76 3.074 3.074A1.848 1.848 0 0 1 32 27.587c0 .504-.196.98-.555 1.336l-2.521 2.521a1.876 1.876 0 0 1-1.337.553zm-4.41-6.04a.99.99 0 0 1 .707.294l3.703 3.704 2.366-2.368-3.704-3.704c-.186-.187-.293-.444-.293-.707s.107-.521.293-.707l1.338-1.337-9.223-2.767 2.768 9.223 1.337-1.337a1.012 1.012 0 0 1 .708-.294z" fill="#111111"/></g></svg>