<svg xmlns="http://www.w3.org/2000/svg" viewBox="0 0 32 32" width="32" height="32"><title>network signal</title><g class="nc-icon-wrapper" fill="#111111"><path d="M10.021 31.983a10.032 10.032 0 0 1-9.46-6.763 9.955 9.955 0 0 1 0-6.475 10.1 10.1 0 0 1 7.212-6.505 10.053 10.053 0 0 1 2.248-.259 9.961 9.961 0 0 1 2.243.258 10.093 10.093 0 0 1 7.201 6.466 9.945 9.945 0 0 1-.036 6.66 10.027 10.027 0 0 1-9.408 6.618zm-.524-2.018a7.699 7.699 0 0 0 1.051 0 28.11 28.11 0 0 0 1.025-3.982H8.467c.244 1.338.589 2.674 1.03 3.982zM3.1 25.983a8.103 8.103 0 0 0 4.149 3.501 30.276 30.276 0 0 1-.813-3.501H3.099zm10.504 0a29.965 29.965 0 0 1-.806 3.5 8.103 8.103 0 0 0 4.148-3.5h-3.342zm4.165-2a8.008 8.008 0 0 0 0-4h-3.765a29.912 29.912 0 0 1-.132 4h3.897zm-5.907 0a27.913 27.913 0 0 0 .14-4H8.036a28.18 28.18 0 0 0 .141 4h3.684zm-5.696 0a30.053 30.053 0 0 1-.13-4h-3.76a8.008 8.008 0 0 0 0 4h3.89zm10.779-6a8.053 8.053 0 0 0-3.583-3.267c.227 1.072.398 2.167.507 3.267h3.076zm-5.085 0a28.164 28.164 0 0 0-.703-3.918 7.98 7.98 0 0 0-2.27 0 28.528 28.528 0 0 0-.705 3.918h3.678zm-5.691 0c.11-1.091.281-2.184.512-3.267a8.047 8.047 0 0 0-3.583 3.267h3.071zm17.83-1.228a1.005 1.005 0 0 1-1-.979 6.93 6.93 0 0 0-6.793-6.793.993.993 0 0 1-.701-.308.997.997 0 0 1 .707-1.692l.053.001a8.923 8.923 0 0 1 8.733 8.75 1 1 0 0 1-.977 1.02h-.021zm7-2.371a1 1 0 0 1-.998-.953A11.933 11.933 0 0 0 18.517 2a1 1 0 0 1 .039-2l.05.001C25.9.307 31.66 6.04 32 13.337a.99.99 0 0 1-.26.72.993.993 0 0 1-.694.326l-.046.001z" fill="#111111"/></g></svg>