<svg xmlns="http://www.w3.org/2000/svg" viewBox="0 0 32 32" width="32" height="32"><title>network browser</title><g class="nc-icon-wrapper" fill="#111111"><path d="M22 32a10.032 10.032 0 0 1-9.46-6.763 9.948 9.948 0 0 1 .001-6.474 10.093 10.093 0 0 1 7.368-6.54 9.964 9.964 0 0 1 4.324.032 10.096 10.096 0 0 1 7.226 6.506 9.933 9.933 0 0 1 0 6.478A10.03 10.03 0 0 1 22 32zm-.523-2.017a7.688 7.688 0 0 0 1.051 0A28.018 28.018 0 0 0 23.553 26h-3.106a28.186 28.186 0 0 0 1.03 3.983zM15.077 26a8.1 8.1 0 0 0 4.151 3.501A30.219 30.219 0 0 1 18.413 26h-3.336zm10.504 0a29.965 29.965 0 0 1-.805 3.5 8.095 8.095 0 0 0 4.147-3.5H25.58zm4.166-2a8.008 8.008 0 0 0 0-4H25.98a29.907 29.907 0 0 1-.132 4h3.898zm-5.906 0a27.533 27.533 0 0 0 .139-4h-3.964a27.99 27.99 0 0 0 .141 4h3.684zm-5.696 0a30.039 30.039 0 0 1-.13-4h-3.76a8.008 8.008 0 0 0 0 4h3.89zm10.779-6a8.044 8.044 0 0 0-3.583-3.265c.228 1.072.398 2.166.507 3.265h3.076zm-5.087 0a28.2 28.2 0 0 0-.702-3.917 7.98 7.98 0 0 0-2.27 0A28.605 28.605 0 0 0 20.16 18h3.678zm-5.689 0c.11-1.09.283-2.185.513-3.267A8.043 8.043 0 0 0 15.077 18h3.071zM3.153 27A3.168 3.168 0 0 1 0 23.85V3.142A3.159 3.159 0 0 1 3.14 0h23.707A3.168 3.168 0 0 1 30 3.152V10a1 1 0 0 1-2 0V8H2v15.847A1.16 1.16 0 0 0 3.156 25H9a1 1 0 0 1 0 2H3.153zM28 6V3.155A1.161 1.161 0 0 0 26.844 2H16v4h12zM14 6V2h-4v4h4zM8 6V2H3.144A1.15 1.15 0 0 0 2 3.145V6h6z" fill="#111111"/></g></svg>