<svg xmlns="http://www.w3.org/2000/svg" viewBox="0 0 32 32" width="32" height="32"><title>network share</title><g class="nc-icon-wrapper" fill="#111111"><path d="M28 32a4.005 4.005 0 0 1-3.965-4.51l-2.815-1.126A4.013 4.013 0 0 1 18 28c-2.205 0-4-1.795-4-4s1.795-4 4-4c1.059 0 2.059.415 2.805 1.15l3.36-2.015A4.005 4.005 0 0 1 28 14c2.205 0 4 1.795 4 4s-1.795 4-4 4a3.984 3.984 0 0 1-2.805-1.15l-3.36 2.015a3.913 3.913 0 0 1 .13 1.644l2.815 1.127A4.013 4.013 0 0 1 28 24c2.205 0 4 1.795 4 4s-1.795 4-4 4zm0-6c-1.103 0-2 .897-2 2s.897 2 2 2 2-.897 2-2-.897-2-2-2zm-10-4c-1.103 0-2 .897-2 2s.897 2 2 2a1.995 1.995 0 0 0 1.71-3.024.42.42 0 0 1-.027-.053A1.981 1.981 0 0 0 18 22zm8.317-2.925A1.98 1.98 0 0 0 28 20c1.103 0 2-.897 2-2s-.897-2-2-2-2 .897-2 2c0 .341.09.679.259.979l.032.046.026.05zM16 32a15.915 15.915 0 0 1-3.923-.492c-4.31-1.083-8.022-3.975-10.158-7.93a.972.972 0 0 1-.13-.251 16.004 16.004 0 0 1-1.784-7.334c0-.288.011-.597.031-.944a.981.981 0 0 1 .017-.244 15.923 15.923 0 0 1 3.064-8.277.95.95 0 0 1 .187-.245 16.087 16.087 0 0 1 8.752-5.79 1.093 1.093 0 0 1 .184-.042 15.943 15.943 0 0 1 7.539.004 1.061 1.061 0 0 1 .178.045 16.092 16.092 0 0 1 8.858 5.92l.006.01a15.898 15.898 0 0 1 2.268 4.237.993.993 0 0 1-.04.764.992.992 0 0 1-.902.569 1.003 1.003 0 0 1-.943-.667A13.92 13.92 0 0 0 27.489 8h-4.293c.46 2.165.733 4.555.792 6.953V15a1 1 0 0 1-1 1H10c0 2.053.157 4.07.47 6H11a1 1 0 0 1 0 2h-.144c.525 2.305 1.261 4.253 2.15 5.672C13.994 29.889 15 30 16 30a1 1 0 0 1 0 2zM4.521 24a14.095 14.095 0 0 0 5.76 4.772C9.672 27.385 9.173 25.787 8.795 24H4.52zm3.912-2A40.523 40.523 0 0 1 8 16H2.004c0 2.097.456 4.115 1.356 6h5.073zm13.518-8a35.413 35.413 0 0 0-.8-6H10.856a35.41 35.41 0 0 0-.801 6H21.95zM8.049 14c.099-2.117.35-4.13.746-6h-4.27a13.963 13.963 0 0 0-2.377 6h5.901zm17.744-8a14.07 14.07 0 0 0-4.081-2.776c.367.84.696 1.77.985 2.776h3.096zm-5.177 0c-.453-1.448-.997-2.68-1.621-3.675A13.91 13.91 0 0 0 16.009 2l-.004-.5V2c-1 0-2.009.11-3 .328-.617.987-1.158 2.219-1.612 3.672h9.223zM9.292 6c.288-1 .619-1.927.99-2.772A14.045 14.045 0 0 0 6.223 6h3.07z" fill="#111111"/></g></svg>