<svg xmlns="http://www.w3.org/2000/svg" viewBox="0 0 32 32" width="32" height="32"><title>notes add</title><g class="nc-icon-wrapper" fill="#111111"><path d="M6.307.307c-.252.252-.307.43-.307 1V2H4.317c-1.376 0-1.804.046-2.35.25-.711.266-1.293.788-1.672 1.5-.222.417-.232.946-.232 11.313 0 12.144-.07 11.182.886 12.11.813.79 1.077.827 6.017.827h4.42l.308-.33c.398-.43.398-.965 0-1.363L11.385 26H2.614l-.307-.307L2 25.386V4.731l.365-.366L2.731 4H6v1.67c0 1.598.013 1.682.306 2 .412.443.976.443 1.388 0 .293-.318.306-.402.306-2V4h4v1.67c0 1.598.013 1.682.306 2 .205.22.436.33.694.33.258 0 .49-.11.694-.33.293-.318.306-.402.306-2V4h4v1.67c0 1.598.013 1.682.306 2 .412.443.976.443 1.387 0 .294-.318.307-.402.307-2V4h3.269l.366.365.365.366v6.607l.306.331c.415.447.976.444 1.394-.007l.314-.338-.038-3.568c-.042-3.932-.048-3.963-.89-4.85C24.431 2.215 23.623 2 21.683 2H20v-.693C20 .473 19.638 0 19 0s-1 .473-1 1.307V2h-4v-.693C14 .473 13.638 0 13 0s-1 .473-1 1.307V2H8v-.693C8 .473 7.638 0 7 0c-.244 0-.5.113-.693.307m14.755 13.897c-.48.102-1.407.442-2.058.756-1.008.487-1.353.741-2.323 1.712-.964.964-1.23 1.324-1.72 2.328-.756 1.547-1.024 2.861-.918 4.498.097 1.48.31 2.283.953 3.583.86 1.74 2.756 3.509 4.566 4.262.883.367 2.398.657 3.438.657s2.555-.29 3.438-.657c1.81-.753 3.706-2.523 4.566-4.262.643-1.3.856-2.103.953-3.583.105-1.613-.166-2.939-.917-4.494-.488-1.008-.741-1.353-1.716-2.328-.976-.975-1.319-1.228-2.328-1.715-1.914-.923-3.923-1.18-5.933-.756m3.74 2.043c4.205 1.075 6.42 5.97 4.459 9.854-1.783 3.53-6.019 4.888-9.542 3.057-1.664-.866-3.095-2.709-3.528-4.547-.539-2.287.138-4.734 1.784-6.447 1.789-1.861 4.294-2.565 6.828-1.917m-2.497 2.059c-.296.295-.307.369-.307 2V22h-1.693c-1.631 0-1.705.011-2 .307-.399.398-.399.932 0 1.362.302.327.329.331 2 .331H22v1.67c0 1.598.013 1.683.306 2 .412.443.976.443 1.387 0 .294-.317.307-.402.307-2V24h1.694c1.67 0 1.697-.004 2-.33.398-.43.398-.965 0-1.363-.296-.296-.37-.307-2-.307H24v-1.693c0-1.631-.011-1.705-.307-2A1.007 1.007 0 0 0 23 18c-.244 0-.5.113-.693.307" fill="#111111"/></g></svg>