<svg xmlns="http://www.w3.org/2000/svg" width="32" height="32" viewBox="0 0 32 32"><title>notes quill</title><g fill="#111" class="nc-icon-wrapper"><path fill="#111" d="M6.307.307c-.252.252-.307.43-.307 1V2l-1.781.003c-1.521.002-1.864.04-2.344.257A3.15 3.15 0 0 0 .332 3.688l-.27.5v10.875c0 12.144-.07 11.182.887 12.11.813.79 1.077.827 6.017.827h4.42l.308-.33c.398-.43.398-.965 0-1.363L11.385 26H2.614l-.307-.307L2 25.386V4.731l.365-.366L2.731 4H6v1.67c0 1.598.013 1.682.306 2 .412.443.976.443 1.388 0 .293-.318.306-.402.306-2V4h4v1.67c0 1.598.013 1.682.306 2 .205.22.436.33.694.33.258 0 .49-.11.694-.33.293-.318.306-.402.306-2V4h4v1.67c0 1.598.013 1.682.306 2 .412.443.976.443 1.387 0 .294-.318.307-.402.307-2V4h3.269l.366.365.365.366v6.607l.306.331c.415.447.976.444 1.394-.007l.314-.338-.038-3.568c-.037-3.379-.053-3.595-.308-4.069a3.15 3.15 0 0 0-1.543-1.427c-.48-.217-.823-.255-2.344-.257L20 2v-.693C20 .473 19.638 0 19 0s-1 .473-1 1.307V2h-4v-.693C14 .473 13.638 0 13 0s-1 .473-1 1.307V2H8v-.693C8 .473 7.638 0 7 0c-.244 0-.5.113-.693.307m21.88 13.425c-.343.044-.717.137-.83.206-.112.068-.555.687-.983 1.374-1.078 1.732-1.046 1.707-1.377 1.048-.43-.857-.831-1.323-1.197-1.393-.718-.137-3.13 1.463-4.627 3.072-2.664 2.86-4.034 6.855-3.19 9.298l.224.649-1.113 1.1c-1.223 1.211-1.527 1.665-1.415 2.111.108.433.564.803.988.803.302 0 .615-.24 1.695-1.303l1.326-1.303.375.203c.562.305 2.653.36 3.687.095 1.6-.407 2.877-.971 4.144-1.83.993-.674 2.73-2.349 3.462-3.339 1.675-2.264 2.654-5.313 2.636-8.21-.014-2.33-.16-2.522-1.992-2.607-.653-.03-1.469-.019-1.813.026M30 16.344c-.002 2.661-.957 5.374-2.631 7.478-1.862 2.34-4.974 4.053-7.36 4.053h-.81l2.088-2.102c1.873-1.884 2.089-2.146 2.089-2.523 0-.58-.413-1-.982-1-.4 0-.623.183-2.54 2.089l-2.103 2.089v-.75c0-1.964 1.193-4.505 2.98-6.349.8-.824 2.187-1.954 2.4-1.954.056 0 .395.53.754 1.18.483.875.745 1.218 1.014 1.33.713.295.957.05 2.602-2.608.516-.833 1.022-1.539 1.125-1.569.103-.03.455-.06.781-.069l.594-.014v.719"/></g></svg>