<svg xmlns="http://www.w3.org/2000/svg" width="32" height="32" viewBox="0 0 32 32"><title>office file ppt 1</title><g fill="#111" class="nc-icon-wrapper"><path fill="#111" d="M2.022.159c-.23.073-.688.377-1.02.676C-.07 1.798 0 .747 0 16c0 15.248-.069 14.203.999 15.162.33.298.824.608 1.097.69.308.092 1.402.148 2.893.148h2.398l.307-.33c.168-.183.306-.484.306-.67 0-.186-.138-.487-.306-.67L7.386 30H2.613l-.306-.33L2 29.337V2.614l.307-.307L2.614 2H16v3.704c0 2.543.048 3.866.152 4.219.203.687 1.238 1.722 1.925 1.925.353.104 1.676.152 4.219.152H26v2.67c0 2.66.001 2.67.306 3 .415.446.976.443 1.394-.008l.313-.338-.038-3.693c-.034-3.323-.06-3.737-.271-4.131-.129-.24-2.126-2.338-4.438-4.66C20.152 1.71 18.902.535 18.444.307L17.826 0l-7.694.013C5.069.02 2.295.07 2.022.159m19.79 6.091L25.561 10h-6.948l-.306-.33L18 9.337V5.92c0-1.88.014-3.419.032-3.419.018 0 1.719 1.687 3.78 3.75m-11.49 14.042l-.321.32v10.726l.306.331c.412.444.976.444 1.388 0 .293-.316.306-.402.306-1.989v-1.658l.531-.085a4.148 4.148 0 0 0 3.08-2.312c.269-.566.326-.864.323-1.688-.003-1.2-.293-1.902-1.131-2.74-.851-.85-1.521-1.118-2.95-1.176-1.165-.048-1.223-.037-1.532.272m8 0l-.321.32V31.34l.306.33c.412.444.976.444 1.387 0 .294-.316.307-.402.307-1.989v-1.658l.531-.085a4.148 4.148 0 0 0 3.08-2.312c.269-.566.326-.864.323-1.687-.003-1.2-.294-1.903-1.131-2.74-.851-.851-1.521-1.119-2.95-1.177-1.165-.047-1.223-.037-1.532.272m7.986.014c-.399.398-.399.932 0 1.362.26.281.41.331 1 .331H28v9.338l.306.33c.205.22.436.331.694.331.258 0 .49-.11.694-.33l.306-.331V22h.694c.589 0 .739-.05 1-.33.168-.183.306-.484.306-.67 0-.186-.138-.487-.306-.67l-.307-.33H29c-2.367 0-2.389.003-2.693.307M13.19 22.432c1.049.8 1.064 2.325.03 3.113-.236.18-.607.364-.825.407l-.396.08v-4.064l.396.079c.217.044.575.216.795.384m8 0c1.049.8 1.064 2.325.03 3.113-.236.18-.608.364-.825.407l-.396.08v-4.063l.396.079c.217.044.575.216.795.384"/></g></svg>