<svg xmlns="http://www.w3.org/2000/svg" viewBox="0 0 32 32" width="32" height="32"><title>office file xls 1</title><g class="nc-icon-wrapper" fill="#111111"><path d="M2.022.159c-.23.073-.688.377-1.02.676C-.07 1.798 0 .747 0 16c0 15.248-.069 14.203.999 15.162.33.298.824.608 1.097.69.308.092 1.402.148 2.893.148h2.398l.307-.33c.168-.183.306-.484.306-.67 0-.186-.138-.487-.306-.67L7.386 30H2.613l-.306-.33L2 29.337V2.614l.307-.307L2.614 2H16v3.704c0 2.543.048 3.866.152 4.219.203.687 1.238 1.722 1.925 1.925.353.104 1.676.152 4.219.152H26v2.67c0 2.66.001 2.67.306 3 .415.446.976.443 1.394-.008l.313-.338-.038-3.693c-.034-3.323-.06-3.737-.271-4.131-.129-.24-2.126-2.338-4.438-4.66C20.152 1.71 18.902.535 18.444.307L17.826 0l-7.694.013C5.069.02 2.295.07 2.022.159m19.79 6.091L25.561 10h-6.948l-.306-.33L18 9.337V5.92c0-1.88.014-3.419.032-3.419.018 0 1.719 1.687 3.78 3.75m-11.48 14.055c-.182.17-.331.436-.331.593 0 .157.432 1.37.96 2.694L11.922 26l-.96 2.408C10.432 29.732 10 30.944 10 31.1c0 .157.145.43.322.607.268.268.398.31.778.248.58-.095.728-.3 1.325-1.83.268-.688.527-1.251.575-1.251.048 0 .307.563.575 1.25.597 1.532.745 1.736 1.326 1.83.39.064.505.024.779-.27.176-.19.32-.464.32-.608 0-.144-.432-1.345-.96-2.67L14.078 26l.96-2.408c.529-1.324.961-2.525.961-2.67 0-.323-.576-.922-.886-.922-.7 0-.943.322-1.678 2.219-.193.498-.389.906-.436.906-.047 0-.243-.408-.437-.906-.59-1.524-.811-1.928-1.137-2.076-.47-.214-.73-.175-1.095.164m7.976 0l-.307.307v4.397c0 3.087.045 4.55.152 4.912.203.687 1.238 1.722 1.925 1.925.283.084 1.143.152 1.912.152 1.351 0 1.408-.011 1.704-.33.169-.183.307-.484.307-.67 0-.186-.138-.487-.306-.67-.296-.319-.355-.33-1.694-.33-1.34 0-1.398-.011-1.694-.33L20 29.338v-8.677l-.306-.331c-.4-.432-.97-.442-1.387-.024m9.715-.148c-.23.073-.69.378-1.023.678-.756.68-1.062 1.48-.966 2.533.115 1.276.767 2.198 2.5 3.539 1.295 1 1.707 1.782 1.322 2.506-.268.502-.496.577-1.768.581-1.63.005-2.087.237-2.087 1.06 0 .157.148.433.33.615.316.316.385.329 1.704.329 1.771 0 2.244-.145 3.035-.933.745-.741 1.003-1.46.896-2.492-.128-1.238-.79-2.162-2.498-3.483-1.298-1.004-1.683-1.732-1.328-2.51.209-.459.626-.582 1.975-.582 1.159 0 1.245-.018 1.556-.33.516-.515.406-1.172-.256-1.525-.34-.181-2.814-.171-3.392.014" fill="#111111"/></g></svg>