<svg xmlns="http://www.w3.org/2000/svg" viewBox="0 0 32 32" width="32" height="32"><title>office file txt 1</title><g class="nc-icon-wrapper" fill="#111111"><path d="M2 .163C1.387.357.34 1.44.152 2.077c-.22.743-.22 27.103 0 27.846.203.687 1.238 1.722 1.925 1.925.537.159 4.975.22 5.355.074.239-.091.568-.684.568-1.023 0-.13-.138-.386-.306-.568L7.386 30H5c-2.367 0-2.389-.002-2.693-.307L2 29.386V2.614l.307-.307L2.614 2H16v3.704c0 2.543.048 3.866.152 4.219.203.687 1.238 1.722 1.925 1.925.353.104 1.676.152 4.219.152H26v2.693c0 2.693 0 2.693.307 3 .556.556 1.44.297 1.635-.478.04-.16.055-1.864.034-3.788l-.038-3.496-.4-.622c-.221-.342-2.246-2.46-4.501-4.707-3.01-3-4.25-4.154-4.662-4.341-.547-.249-.767-.255-8.25-.246C4.895.022 2.298.07 2 .163M21.813 6.25L25.56 10h-6.947l-.307-.307L18 9.386V5.943c0-1.894.014-3.443.032-3.443.018 0 1.719 1.688 3.78 3.75M10.307 20.307c-.194.193-.307.45-.307.693 0 .638.473 1 1.307 1H12v9.386l.307.307c.333.333.875.399 1.204.147.466-.358.489-.603.489-5.27V22l.656-.004c.692-.004.96-.134 1.199-.581.225-.424.174-.727-.184-1.085l-.33-.33h-2.364c-2.343 0-2.366.003-2.67.307m8 0c-.169.169-.307.435-.307.592 0 .157.432 1.37.96 2.694L19.922 26l-.96 2.408C18.432 29.732 18 30.944 18 31.1c0 .157.145.43.322.607.268.268.398.31.778.248.58-.094.728-.3 1.325-1.83.268-.688.526-1.251.574-1.251.048 0 .33.62.627 1.376.296.757.61 1.435.695 1.506.086.072.355.162.597.202.371.06.492.016.762-.275.176-.19.32-.463.32-.607 0-.144-.432-1.345-.96-2.67L22.078 26l.96-2.407c.529-1.325.961-2.526.961-2.671 0-.323-.576-.922-.886-.922-.7 0-.943.322-1.678 2.219-.192.498-.389.906-.436.906-.047 0-.244-.408-.436-.906-.59-1.524-.812-1.928-1.138-2.076-.477-.218-.782-.173-1.12.164m8 0c-.193.193-.306.45-.306.693 0 .638.473 1 1.307 1H28v9.386l.307.307c.333.333.875.399 1.204.147.466-.358.489-.603.489-5.27V22l.656-.004c.692-.004.96-.134 1.199-.581.225-.424.174-.727-.184-1.085l-.33-.33h-2.364c-2.343 0-2.366.003-2.67.307" fill="#111111"/></g></svg>