<svg xmlns="http://www.w3.org/2000/svg" width="32" height="32" viewBox="0 0 32 32"><title>office file doc 1</title><g fill="#111" class="nc-icon-wrapper"><path fill="#111" d="M2 .163C1.387.357.34 1.44.152 2.077c-.22.743-.22 27.103 0 27.846.203.687 1.238 1.722 1.925 1.925.537.159 4.975.22 5.355.074.239-.091.568-.684.568-1.023 0-.13-.138-.386-.306-.568L7.386 30H5c-2.367 0-2.389-.002-2.693-.307L2 29.386V2.614l.307-.307L2.614 2H16v3.704c0 2.543.048 3.866.152 4.219.203.687 1.238 1.722 1.925 1.925.353.104 1.676.152 4.219.152H26v2.693c0 2.693 0 2.693.307 3 .556.556 1.44.297 1.635-.478.04-.16.055-1.864.034-3.788l-.038-3.496-.4-.622c-.221-.342-2.246-2.46-4.501-4.707-3.01-3-4.25-4.154-4.662-4.341-.547-.249-.767-.255-8.25-.246C4.895.022 2.298.07 2 .163M21.813 6.25L25.56 10h-6.947l-.307-.307L18 9.386V5.943c0-1.894.014-3.443.032-3.443.018 0 1.719 1.688 3.78 3.75M10.307 20.307l-.307.307v10.772l.307.307c.343.343.571.367 1.634.17a4.949 4.949 0 0 0 3.918-3.838c.182-.853.182-3.197 0-4.05a4.987 4.987 0 0 0-3.834-3.836c-1.011-.212-1.374-.176-1.718.168M20 20.165c-.632.2-1.696 1.285-1.863 1.898-.083.304-.137 1.848-.137 3.946-.001 3.951.052 4.248.91 5.089.837.821 1.887 1.083 3.012.75.687-.203 1.722-1.238 1.925-1.925.205-.695.211-7.135.007-7.816-.452-1.51-2.296-2.439-3.854-1.942m9.898-.032c-1.393.275-2.756 1.398-3.435 2.833l-.401.846v4.376l.399.842c.468.99 1.364 1.94 2.254 2.39.702.356 2.128.646 2.596.529.322-.08.688-.64.688-1.05 0-.398-.563-.899-1.01-.899-1.146 0-2.522-1.008-2.838-2.077-.189-.639-.198-3.186-.014-3.86.27-.992 1.71-2.063 2.772-2.063.489 0 .707-.123.907-.509.258-.5.228-.78-.123-1.16-.332-.358-.748-.404-1.795-.198m-8.481 2.006c.167.076.367.276.443.443.196.43.19 6.463-.006 6.832-.353.662-1.01.772-1.526.256L20 29.34v-6.68l.33-.33c.358-.36.619-.405 1.088-.191m-8.443.675c.855.768 1.025 1.308 1.024 3.24-.001 1.32-.038 1.587-.296 2.14-.289.621-1.213 1.556-1.538 1.556-.133 0-.165-.727-.165-3.75 0-3.12.03-3.75.174-3.75.096 0 .456.254.801.564"/></g></svg>