<svg xmlns="http://www.w3.org/2000/svg" width="32" height="32" viewBox="0 0 32 32"><title>office file pdf 1</title><g fill="#111" class="nc-icon-wrapper"><path fill="#111" d="M2 .163C1.387.357.34 1.44.152 2.077c-.22.743-.22 27.103 0 27.846.203.687 1.238 1.722 1.925 1.925.537.159 4.975.22 5.355.074.24-.092.568-.684.568-1.024 0-.131-.148-.387-.33-.569L7.34 30H4.978c-2.343 0-2.366-.003-2.67-.307L2 29.386V2.614l.307-.307L2.614 2H16v3.719c.001 2.294.054 3.91.138 4.218.18.658 1.237 1.7 1.939 1.91.357.106 1.651.153 4.219.153H26v2.693c0 2.693 0 2.693.307 3 .556.556 1.44.297 1.635-.478.04-.16.055-1.864.034-3.788l-.038-3.496-.4-.622c-.221-.342-2.246-2.46-4.501-4.708-3.01-2.999-4.25-4.153-4.662-4.34-.547-.249-.767-.255-8.25-.246C4.895.022 2.298.07 2 .163M21.813 6.25L25.56 10h-6.947l-.307-.307L18 9.386V5.943c0-1.894.014-3.443.032-3.443.018 0 1.719 1.687 3.78 3.75m-11.49 14.043l-.321.32v10.773l.307.307c.333.333.875.399 1.204.147.405-.312.489-.697.489-2.258v-1.56l.531-.085a4.148 4.148 0 0 0 3.08-2.312c.269-.566.326-.864.323-1.688-.003-1.2-.293-1.902-1.131-2.74-.851-.85-1.521-1.118-2.95-1.176-1.165-.048-1.223-.037-1.532.272m7.986.014l-.307.307v10.772l.307.307c.343.343.571.367 1.634.17 1.947-.36 3.504-1.885 3.919-3.838.18-.853.18-3.197 0-4.05a4.987 4.987 0 0 0-3.835-3.836c-1.011-.212-1.374-.176-1.718.168M28 20.164c-.632.202-1.696 1.286-1.863 1.898-.087.317-.137 2.118-.137 4.912v4.412l.307.307c.169.169.445.307.615.307.894 0 1.078-.415 1.078-2.431V28h1.17c1.098 0 1.191-.02 1.5-.33.516-.515.406-1.172-.256-1.525-.15-.08-.754-.145-1.343-.145H28v-1.693c0-1.631.011-1.705.307-2 .287-.287.393-.307 1.615-.307 1.519 0 1.65-.035 1.895-.509.258-.5.228-.78-.123-1.16-.3-.324-.34-.33-1.782-.318-.81.007-1.671.075-1.911.152m-14.81 2.267c1.049.8 1.064 2.325.03 3.113-.236.18-.607.364-.825.407l-.396.08v-4.064l.396.079c.217.044.575.216.795.384m7.784.382c.855.768 1.025 1.308 1.024 3.24-.001 1.32-.038 1.587-.296 2.14-.289.621-1.213 1.556-1.538 1.556-.133 0-.165-.727-.165-3.75 0-3.12.03-3.75.174-3.75.096 0 .456.254.801.564"/></g></svg>