<svg xmlns="http://www.w3.org/2000/svg" width="32" height="32" viewBox="0 0 32 32"><title>optimization timer</title><g fill="#111" class="nc-icon-wrapper"><path fill="#111" d="M23 32a9.01 9.01 0 0 1-9-9 9.008 9.008 0 0 1 8-8.944V13h-2a1 1 0 0 1 0-2h6a1 1 0 0 1 0 2h-2v1.056c4.523.501 8 4.341 8 8.944a9.01 9.01 0 0 1-9 9zm0-16c-3.86 0-7 3.14-7 7s3.14 7 7 7 7-3.14 7-7-3.14-7-7-7zm0 9a1 1 0 0 1-1-1v-5a1 1 0 0 1 2 0v4h1.715a1 1 0 0 1 0 2H23zM2.508 23A2.513 2.513 0 0 1 0 20.517V2.483A2.505 2.505 0 0 1 2.495 0h21.997A2.512 2.512 0 0 1 27 2.481V8a1 1 0 0 1-2 0V7H2v13.508a.504.504 0 0 0 .505.492H11a1 1 0 0 1 0 2H2.508zM25 5V2.49a.503.503 0 0 0-.504-.49h-22A.497.497 0 0 0 2 2.49V5h23z"/></g></svg>