<svg xmlns="http://www.w3.org/2000/svg" width="32" height="32" viewBox="0 0 32 32"><title>password lock 2</title><g fill="#111" class="nc-icon-wrapper"><path fill="#111" d="M21 25a3.003 3.003 0 0 1-3-3v-6c0-1.28.82-2.41 2-2.828V12c0-2.757 2.243-5 5-5s5 2.243 5 5v1.172A3.01 3.01 0 0 1 32 16v6a3.003 3.003 0 0 1-3 3h-8zm0-10a1 1 0 0 0-1 1v6a1 1 0 0 0 1 1h8a1 1 0 0 0 1-1v-6a1 1 0 0 0-1-1h-8zm7-2v-1c0-1.655-1.345-3-3-3s-3 1.345-3 3v1h6zm-3 7.5c-.827 0-1.5-.673-1.5-1.5a1.503 1.503 0 0 1 2.564-1.059A1.501 1.501 0 0 1 25 20.5zm-19.5 0c-.827 0-1.5-.673-1.5-1.5a1.503 1.503 0 0 1 2.564-1.059A1.501 1.501 0 0 1 5.5 20.5zm5 0c-.827 0-1.5-.673-1.5-1.5a1.503 1.503 0 0 1 2.564-1.059A1.501 1.501 0 0 1 10.5 20.5zM3 25a3.003 3.003 0 0 1-3-3v-8a3.003 3.003 0 0 1 3-3h12a1 1 0 0 1 0 2H3a1 1 0 0 0-1 1v8a1 1 0 0 0 1 1h12a1 1 0 0 1 0 2H3z"/></g></svg>