<svg xmlns="http://www.w3.org/2000/svg" viewBox="0 0 32 32" width="32" height="32"><title>pencil</title><g class="nc-icon-wrapper" fill="#111111"><path d="M.997 32a1.007 1.007 0 0 1-.708-.293 1.005 1.005 0 0 1-.261-.955l2.36-9.207a1.12 1.12 0 0 1 .06-.161.973.973 0 0 1 .201-.297L22.017 1.719A5.807 5.807 0 0 1 26.148 0c1.57 0 3.036.605 4.141 1.705l.039.039a5.823 5.823 0 0 1 1.668 4.161 5.808 5.808 0 0 1-1.76 4.116L10.911 29.347a.98.98 0 0 1-.308.205 1.045 1.045 0 0 1-.148.056l-9.211 2.363A1.03 1.03 0 0 1 .997 32zm1.388-2.388l5.88-1.508-4.374-4.367-1.506 5.875zm7.824-2.393l17.36-17.36-5.432-5.432L4.773 21.792l5.436 5.427zM28.981 8.443a3.857 3.857 0 0 0-.078-5.296l-.027-.027A3.83 3.83 0 0 0 26.16 2v-.5l-.001.5a3.83 3.83 0 0 0-2.606 1.016l5.428 5.427z" fill="#111111"/></g></svg>