<svg xmlns="http://www.w3.org/2000/svg" width="32" height="32" viewBox="0 0 32 32"><title>phone actions call</title><g fill="#111" class="nc-icon-wrapper"><path fill="#111" d="M19.713 32.028a7.013 7.013 0 0 1-3.768-1.105l-.05-.035A54.859 54.859 0 0 1 1.056 16.023c-1.764-2.77-1.368-6.347.97-8.686l.84-.838a2.977 2.977 0 0 1 2.12-.876 2.98 2.98 0 0 1 2.122.877l3.536 3.535c.567.566.879 1.32.877 2.122 0 .803-.312 1.556-.878 2.122a1 1 0 0 0 0 1.413l5.656 5.657c.188.188.438.292.706.292s.519-.104.707-.292c.567-.566 1.32-.877 2.123-.877s1.556.312 2.121.877l3.527 3.526c.577.577.889 1.33.889 2.132s-.313 1.554-.88 2.121l-.837.839a6.943 6.943 0 0 1-4.942 2.061zM4.988 7.621a.992.992 0 0 0-.707.292l-.841.84a4.97 4.97 0 0 0-.681 6.223 52.888 52.888 0 0 0 14.27 14.265l.031.022a4.94 4.94 0 0 0 2.645.766 4.98 4.98 0 0 0 3.538-1.477l.838-.839a.993.993 0 0 0 .294-.708.993.993 0 0 0-.287-.701l-3.544-3.541c-.19-.19-.44-.292-.708-.292s-.519.104-.707.292a2.98 2.98 0 0 1-2.122.877 2.979 2.979 0 0 1-2.12-.877L9.23 17.105a3.004 3.004 0 0 1 0-4.242 1 1 0 0 0 .001-1.415L5.695 7.915a.99.99 0 0 0-.707-.294zm12.988 7.395a.99.99 0 0 1-.707-.293c-.189-.188-.293-.44-.293-.707s.104-.519.293-.707L28.563 2.016h-5.586a1 1 0 0 1 0-2h8a.98.98 0 0 1 .391.08 1 1 0 0 1 .533.539l.014.034a.973.973 0 0 1 .062.347v8a1 1 0 0 1-2 0V3.431L18.684 14.724a1 1 0 0 1-.708.292z"/></g></svg>