<svg xmlns="http://www.w3.org/2000/svg" width="32" height="32" viewBox="0 0 32 32"><title>pie line graph</title><g fill="#111" class="nc-icon-wrapper"><path fill="#111" d="M10.995 27a1.003 1.003 0 0 1-.707-1.708l5.293-5.293a1.992 1.992 0 0 1 1.414-.587c.534 0 1.037.208 1.414.585l2.587 2.587 5.292-5.292a.992.992 0 0 1 1.413 0 1.003 1.003 0 0 1 0 1.415l-5.292 5.292a1.99 1.99 0 0 1-1.414.585 1.987 1.987 0 0 1-1.415-.585l-2.585-2.586-5.294 5.294a.99.99 0 0 1-.706.293zm-8 5a3.003 3.003 0 0 1-3-3V3a3.003 3.003 0 0 1 3-3h26a3.003 3.003 0 0 1 3 3v26a3.003 3.003 0 0 1-3 3h-26zm0-30a1 1 0 0 0-1 1v26a1 1 0 0 0 1 1h26a1 1 0 0 0 1-1V3a1 1 0 0 0-1-1h-26zm8 16c-3.86 0-7-3.14-7-7s3.14-7 7-7 7 3.14 7 7a6.953 6.953 0 0 1-2.01 4.903.356.356 0 0 1-.041.046.37.37 0 0 1-.048.042A6.943 6.943 0 0 1 10.995 18zm-1-11.896c-2.283.47-4 2.523-4 4.896a5.005 5.005 0 0 0 5 5c.98 0 1.94-.292 2.754-.83l-3.461-3.463A.992.992 0 0 1 9.995 11V6.104zm5.169 7.65a5.003 5.003 0 0 0 .83-2.754c0-2.375-1.717-4.427-4-4.896v4.483l3.17 3.168zM21.994 8a1 1 0 0 1 0-2h4a1 1 0 0 1 0 2h-4zm0 4a1 1 0 0 1 0-2h4a1 1 0 0 1 0 2h-4z"/></g></svg>