<svg xmlns="http://www.w3.org/2000/svg" width="32" height="32" viewBox="0 0 32 32"><title>pie line graph desktop</title><g fill="#111" class="nc-icon-wrapper"><path fill="#111" d="M8.997 32.004a1 1 0 0 1 0-2h2.154l.666-4h-6.82a5.005 5.005 0 0 1-5-5v-16a5.005 5.005 0 0 1 5-5h22a5.005 5.005 0 0 1 5 5v16a5.005 5.005 0 0 1-5 5h-6.82l.667 4h2.153a1 1 0 0 1 0 2h-14zm9.82-2l-.666-4h-4.306l-.666 4h5.638zm-16.644-8a3.016 3.016 0 0 0 2.824 2h22c1.28 0 2.407-.828 2.824-2H2.173zm27.824-2v-15a3.003 3.003 0 0 0-3-3h-22a3.003 3.003 0 0 0-3 3v7.587l3.587-3.586a1.987 1.987 0 0 1 1.415-.585c.534 0 1.036.208 1.413.584l2.585 2.587 5.292-5.294a.992.992 0 0 1 1.414 0c.189.188.293.44.293.707s-.104.519-.293.707l-5.292 5.293c-.379.377-.88.587-1.415.587a1.984 1.984 0 0 1-1.415-.587L6.995 10.42l-5 4.999v4.585h28.002zm-11-3a1 1 0 0 1-1-1v-3a1 1 0 0 1 2 0v3a1 1 0 0 1-1 1zm8 0a1 1 0 0 1-1-1v-3a1 1 0 0 1 2 0v3a1 1 0 0 1-1 1zm-4 0a1 1 0 0 1-1-1v-6a1 1 0 0 1 2 0v6a1 1 0 0 1-1 1z"/></g></svg>