<svg xmlns="http://www.w3.org/2000/svg" viewBox="0 0 32 32" width="32" height="32"><title>plane take off</title><g class="nc-icon-wrapper" fill="#111111"><path d="M17.116 28.303a2.437 2.437 0 0 1-1.727-.74 2.435 2.435 0 0 1-.693-1.74V20l-3.381 1.681a3.924 3.924 0 0 1-4.296-.536l-5.324-4.53a2.47 2.47 0 0 1 .5-4.082l2.844-1.253a1.001 1.001 0 0 1 1.005.116l2.115 1.596 3.966-2.004-2.158-1.64a2.479 2.479 0 0 1-.712-.859 2.45 2.45 0 0 1-.135-1.882 2.453 2.453 0 0 1 1.235-1.428l2.47-1.22a2.467 2.467 0 0 1 2.199.002l5.496 2.784 3.923-1.982a4.619 4.619 0 0 1 2.073-.49c1.785 0 3.387.991 4.179 2.586a4.627 4.627 0 0 1 .245 3.557 4.623 4.623 0 0 1-2.343 2.688l-4.169 2.068-2.384 9.995a2.464 2.464 0 0 1-1.301 1.636l-2.508 1.244a2.473 2.473 0 0 1-1.091.256h-.028zm-1.42-10.916a.995.995 0 0 1 1 1v7.449a.459.459 0 0 0 .128.33.445.445 0 0 0 .52.09l2.508-1.244a.464.464 0 0 0 .245-.31l2.494-10.45a.997.997 0 0 1 .528-.664l4.588-2.276a2.637 2.637 0 0 0 1.336-1.535 2.64 2.64 0 0 0-.139-2.03 2.648 2.648 0 0 0-2.387-1.475c-.41 0-.806.093-1.177.277l-4.303 2.175a.92.92 0 0 1-.13.065L8.505 15.057a1.004 1.004 0 0 1-1.053-.094l-2.144-1.616-2.263.996c-.192.097-.278.38-.165.605a.467.467 0 0 0 .113.145l5.324 4.531a1.925 1.925 0 0 0 2.107.267l4.825-2.4a1.021 1.021 0 0 1 .447-.104zM13.924 5.703a.487.487 0 0 0-.21.048l-2.469 1.218a.456.456 0 0 0-.228.268.459.459 0 0 0 .16.519l2.932 2.228 4.195-2.12-4.179-2.116a.456.456 0 0 0-.201-.045z" fill="#111111"/></g></svg>