<svg xmlns="http://www.w3.org/2000/svg" width="32" height="32" viewBox="0 0 32 32"><title>presentation statistics</title><g fill="#111" class="nc-icon-wrapper"><path fill="#111" d="M7 10c-2.757 0-5-2.243-5-5s2.243-5 5-5 5 2.244 5 5-2.243 5-5 5zm0-8C5.345 2 4 3.347 4 5s1.345 3 3 3 3-1.345 3-3-1.345-3-3-3zM4 32a.996.996 0 0 1-.995-.9l-.91-9.1H1a1 1 0 0 1-1-1v-4c0-3.86 3.14-7 7-7s7 3.14 7 7v2a1 1 0 0 1-2 0v-2c0-2.756-2.243-5-5-5s-5 2.244-5 5v3h1c.516 0 .944.387.995.9l.91 9.1h4.191l.81-8.1a.993.993 0 0 1 1.103-.895.979.979 0 0 1 .664.362c.17.206.248.466.222.733l-.9 9A.996.996 0 0 1 10 32H4zm13-14a1 1 0 0 1 0-2h12a1 1 0 0 0 1-1V3a1 1 0 0 0-1-1H15a1 1 0 0 1 0-2h14c1.655 0 3 1.347 3 3v12a3.003 3.003 0 0 1-3 3H17zm.668 11c-2.481 0-4.5-2.019-4.5-4.5s2.019-4.5 4.5-4.5 4.5 2.019 4.5 4.5-2.019 4.5-4.5 4.5zm0-7c-1.379 0-2.5 1.121-2.5 2.5s1.121 2.5 2.5 2.5 2.5-1.121 2.5-2.5-1.121-2.5-2.5-2.5zm9 7c-2.481 0-4.5-2.019-4.5-4.5s2.019-4.5 4.5-4.5 4.5 2.019 4.5 4.5-2.019 4.5-4.5 4.5zm0-7c-1.379 0-2.5 1.121-2.5 2.5s1.121 2.5 2.5 2.5 2.5-1.121 2.5-2.5-1.121-2.5-2.5-2.5zM31 32.001a.997.997 0 0 1-.761-.352 4.695 4.695 0 0 0-7.144 0 1 1 0 0 1-.928.338 1.004 1.004 0 0 1-.928-.339 4.695 4.695 0 0 0-7.144-.001 1 1 0 1 1-1.522-1.296 6.676 6.676 0 0 1 9.591-.608 6.676 6.676 0 0 1 5.039-1.722 6.645 6.645 0 0 1 4.56 2.332.995.995 0 0 1-.763 1.648zM17 14a1 1 0 0 1 0-2h3V8a1 1 0 0 1 2 0v4h2V5a1 1 0 0 1 2 0v7h1a1 1 0 0 1 0 2H17z"/></g></svg>