<svg xmlns="http://www.w3.org/2000/svg" viewBox="0 0 32 32" width="32" height="32"><title>question circle</title><g class="nc-icon-wrapper" fill="#111111"><path d="M16 20a1 1 0 0 1-1-1v-1.341a3.001 3.001 0 0 1 2-2.83 3.005 3.005 0 0 0 2-2.828 2.98 2.98 0 0 0-.879-2.121A2.976 2.976 0 0 0 16 9.001a2.98 2.98 0 0 0-2.121.879A2.975 2.975 0 0 0 13 12a1 1 0 0 1-2 0c0-1.336.521-2.59 1.465-3.535A4.967 4.967 0 0 1 16 7.001a5.007 5.007 0 0 1 5 5 5.008 5.008 0 0 1-3.333 4.714 1.003 1.003 0 0 0-.667.942V19a1 1 0 0 1-1 1zm-1.5 3.5a1.5 1.5 0 0 0 3 0 1.5 1.5 0 0 0-3 0M16 32C7.177 32 0 24.823 0 16S7.177 0 16 0s16 7.177 16 16-7.177 16-16 16zm0-30C8.28 2 2 8.28 2 16s6.28 14 14 14 14-6.28 14-14S23.72 2 16 2z" fill="#111111"/></g></svg>