<svg xmlns="http://www.w3.org/2000/svg" viewBox="0 0 32 32" width="32" height="32"><title>rating star add</title><g class="nc-icon-wrapper" fill="#111111"><path d="M23 31.999c-4.963 0-9-4.038-9-9s4.037-9 9-9 9 4.038 9 9-4.037 9-9 9zm0-16a7.008 7.008 0 0 0-7 7c0 3.86 3.14 7 7 7s7-3.14 7-7a7.008 7.008 0 0 0-7-7zm0 12a1 1 0 0 1-1-1v-3h-3a1 1 0 0 1 0-2h3v-3a1 1 0 0 1 2 0v3h3a1 1 0 0 1 0 2h-3v3a1 1 0 0 1-1 1zm-16.18 4a2.07 2.07 0 0 1-1.803-1.038 2.075 2.075 0 0 1-.212-1.581l2.456-8.963L.61 13.825a2.075 2.075 0 0 1 1.288-3.538l8.024-.795 4.214-8.343A2.09 2.09 0 0 1 16.64.107c.532.172.966.54 1.22 1.037l4.21 8.348 8.04.796c.478.04.937.255 1.285.605.39.394.604.915.601 1.47a2.064 2.064 0 0 1-.613 1.464l-.372.368a.993.993 0 0 1-1.413-.008.992.992 0 0 1-.29-.708.991.991 0 0 1 .298-.706l.37-.366a.07.07 0 0 0 .022-.052.07.07 0 0 0-.022-.051.076.076 0 0 0-.046-.021l-8.602-.852a.996.996 0 0 1-.794-.546L16.08 2.052a.092.092 0 0 0-.05-.04l-.033-.001c-.02 0-.029.002-.038.008a.09.09 0 0 0-.04.04l-4.46 8.825a.993.993 0 0 1-.794.544l-8.586.85c-.042.003-.056.015-.067.027a.072.072 0 0 0-.017.054.076.076 0 0 0 .021.046l7.067 7.004a1 1 0 0 1 .26.975l-2.608 9.517a.076.076 0 0 0 .01.056.079.079 0 0 0 .051.039l.023.001a.067.067 0 0 0 .037-.008l4.988-2.47a.996.996 0 0 1 1.39 1.216.987.987 0 0 1-.503.576l-4.983 2.468a2.05 2.05 0 0 1-.928.22z" fill="#111111"/></g></svg>