<svg xmlns="http://www.w3.org/2000/svg" width="32" height="32" viewBox="0 0 32 32"><title>real estate action house key</title><g fill="#111" class="nc-icon-wrapper"><path fill="#111" d="M6.997 27.041a3.003 3.003 0 0 1-3-3v-10a1 1 0 0 1 2 0v10a1 1 0 0 0 1 1h4a1 1 0 0 1 0 2h-4zM1 13.041a1 1 0 0 1-.647-1.764L12.06 1.371a3.007 3.007 0 0 1 1.937-.712c.707 0 1.395.253 1.939.712l9.705 8.212a.995.995 0 0 1 .118 1.409 1.001 1.001 0 0 1-1.41.117l-9.705-8.212a.999.999 0 0 0-1.292-.001L1.644 12.803a.996.996 0 0 1-.645.238zm23.998-6a1 1 0 0 1-1-1v-3h-3a1 1 0 0 1 0-2h4a1 1 0 0 1 1 1v4a1 1 0 0 1-1 1zm-4.5 19.087c-.4 0-.777-.156-1.06-.439a1.49 1.49 0 0 1-.44-1.061c0-.401.156-.777.439-1.061a1.495 1.495 0 0 1 2.1-.022l.033.034a1.499 1.499 0 0 1-1.072 2.549zm-.093 4.921a6.365 6.365 0 0 1-2.332-.442c-1.593-.624-2.848-1.832-3.535-3.404s-.721-3.314-.097-4.907a6.463 6.463 0 0 1 5.979-4.075 6.38 6.38 0 0 1 1.694.23l4.476-4.48c.599-.599 1.395-.928 2.242-.928s1.641.329 2.24.928a3.172 3.172 0 0 1 0 4.481l-4.478 4.477a6.425 6.425 0 0 1-.21 4.044 6.463 6.463 0 0 1-5.979 4.076zm.012-10.826a4.45 4.45 0 0 0-4.116 2.804 4.419 4.419 0 0 0 4.103 6.022 4.45 4.45 0 0 0 4.116-2.804c.4-1.021.405-2.146.017-3.172l-.013-.029a.995.995 0 0 1 .214-1.09l4.916-4.915A1.169 1.169 0 1 0 28 15.387l-4.912 4.916a.996.996 0 0 1-1.072.224 4.324 4.324 0 0 0-1.6-.304z"/></g></svg>