<svg xmlns="http://www.w3.org/2000/svg" width="32" height="32" viewBox="0 0 32 32"><title>recycling hand trash</title><g fill="#111" class="nc-icon-wrapper"><path fill="#111" d="M20.535 14.753a1 1 0 0 1-.838-.452c-.082-.126-2-3.124.13-5.254a15.587 15.587 0 0 1 1.804-1.36l-.799-.534a.992.992 0 0 0-.885-.112 26.12 26.12 0 0 1-7.328 1.708c-.03.004-.058.004-.086.004-3.954 0-4-2.97-4-3 0-.39.231-.748.587-.91l9.239-4.2A6.941 6.941 0 0 1 22.628.15l8.103 1.621a.992.992 0 0 1 .636.425c.148.223.201.49.148.751a1.001 1.001 0 0 1-1.179.784l-8.1-1.621a4.947 4.947 0 0 0-3.05.35l-8.38 3.812c.32.307.9.475 1.687.48a24.213 24.213 0 0 0 6.752-1.584 3.015 3.015 0 0 1 2.702.323l2.142 1.43a1.005 1.005 0 0 1 .444.895 1.005 1.005 0 0 1-.552.834 13.421 13.421 0 0 0-2.761 1.834c-.55.574-.419 1.388-.195 1.998l9.139-3.656a.993.993 0 0 1 1.299.557.996.996 0 0 1-.558 1.3l-10 4a1.027 1.027 0 0 1-.37.07zM4.533 32.016a1.004 1.004 0 0 1-.997-.93l-.933-13.07h-1.07a1 1 0 0 1 0-2h18a1 1 0 0 1 0 2h-1.069l-.933 13.07a1.003 1.003 0 0 1-.998.93h-12zm11.068-2l.858-12H4.607l.857 12h10.137zm-7.068-2a1 1 0 0 1-1-1v-6a1 1 0 0 1 2 0v6a1 1 0 0 1-1 1zm4 0a1 1 0 0 1-1-1v-6a1 1 0 0 1 2 0v6a1 1 0 0 1-1 1z"/></g></svg>