<svg xmlns="http://www.w3.org/2000/svg" viewBox="0 0 32 32" width="32" height="32"><title>recycling trash bin 2</title><g class="nc-icon-wrapper" fill="#111111"><path d="M7.516 32.019a2.995 2.995 0 0 1-2.956-2.487l-4.516-26A3.004 3.004 0 0 1 3 .019h26a2.995 2.995 0 0 1 2.956 3.514l-4.516 26a2.995 2.995 0 0 1-2.955 2.487H7.516zM3 2.019a1 1 0 0 0-.985 1.17l4.516 26c.082.48.497.828.985.828h16.97a.997.997 0 0 0 .985-.828l4.516-26a1.001 1.001 0 0 0-.984-1.172H3zm13.701 23.005a8.44 8.44 0 0 1-2.736-.459 8.395 8.395 0 0 1-4.464-3.581v2.033a1 1 0 0 1-2 0v-5a1 1 0 0 1 1-1h5a1 1 0 0 1 0 2h-2.756a6.433 6.433 0 0 0 5.955 4.004c.981 0 1.93-.222 2.824-.66a6.385 6.385 0 0 0 3.253-3.692 1 1 0 1 1 1.891.648 8.373 8.373 0 0 1-4.265 4.84 8.308 8.308 0 0 1-3.702.867zM19.5 15.019a1 1 0 0 1 0-2h2.756A6.433 6.433 0 0 0 16.3 9.013c-.98 0-1.93.223-2.824.66a6.39 6.39 0 0 0-3.253 3.692 1 1 0 0 1-1.892-.646 8.373 8.373 0 0 1 4.265-4.84 8.35 8.35 0 0 1 3.703-.864c.926 0 1.846.154 2.736.457a8.39 8.39 0 0 1 4.464 3.581V9.02a1 1 0 0 1 2 0v5a1 1 0 0 1-1 1H19.5z" fill="#111111"/></g></svg>