<svg xmlns="http://www.w3.org/2000/svg" width="32" height="32" viewBox="0 0 32 32"><title>remove circle</title><g fill="#111" class="nc-icon-wrapper"><path fill="#111" d="M20.243 21.241a.99.99 0 0 1-.707-.293L16 17.413l-3.536 3.535a.992.992 0 0 1-.707.293 1 1 0 0 1-.708-1.706L14.585 16l-3.534-3.536a.99.99 0 0 1-.294-.707.99.99 0 0 1 .294-.706c.188-.19.44-.294.706-.294s.519.104.707.294L16 14.585l3.536-3.534a.992.992 0 0 1 1.413 0 .992.992 0 0 1 0 1.413L17.415 16l3.536 3.535a1 1 0 1 1-.708 1.706zM16 32C7.177 32 0 24.823 0 16S7.177 0 16 0s16 7.177 16 16-7.177 16-16 16zm0-30C8.28 2 2 8.28 2 16s6.28 14 14 14 14-6.28 14-14S23.72 2 16 2z"/></g></svg>