<svg xmlns="http://www.w3.org/2000/svg" width="32" height="32" viewBox="0 0 32 32"><title>road sign u turn right</title><g fill="#111" class="nc-icon-wrapper"><path fill="#111" d="M13.563.194C6.54 1.381 1.245 6.744.181 13.75c-.756 4.974 1.027 10.135 4.737 13.717 6.244 6.028 15.918 6.028 22.162 0 4.912-4.743 6.277-11.984 3.422-18.162-1.532-3.317-4.322-6.13-7.68-7.74-2.81-1.349-6.317-1.868-9.26-1.37m4.258 1.939c4.752.661 8.756 3.585 10.8 7.886 1.213 2.553 1.649 5.526 1.193 8.141-.536 3.073-1.822 5.585-3.945 7.708-4.777 4.777-12.076 5.489-17.681 1.724-3.975-2.669-6.372-7.383-6.15-12.093.175-3.692 1.536-6.815 4.087-9.376 3.063-3.075 7.467-4.578 11.696-3.99M14.625 9.17c-1.1.24-1.875.688-2.822 1.634-.948.946-1.424 1.783-1.664 2.92-.085.408-.139 2.195-.139 4.639v3.976l.306.33c.409.44.976.444 1.38.008l.299-.322.039-4.209c.038-4.177.04-4.213.345-4.831.378-.769 1.188-1.573 1.975-1.96.481-.237.795-.292 1.656-.292 1.265 0 1.942.274 2.803 1.134.863.864 1.105 1.492 1.172 3.043l.057 1.323-.818-.782c-.646-.618-.9-.781-1.209-.781-.526 0-1.005.483-1.005 1.013 0 .347.235.636 1.783 2.193C20.395 19.83 20.607 20 21 20s.605-.171 2.217-1.794C24.765 16.65 25 16.36 25 16.013c0-.53-.48-1.013-1.005-1.013-.31 0-.56.161-1.193.77l-.802.77v-1.076c0-2.114-.467-3.319-1.806-4.658-1.557-1.557-3.417-2.103-5.569-1.636"/></g></svg>