<svg xmlns="http://www.w3.org/2000/svg" width="32" height="32" viewBox="0 0 32 32"><title>road sign u turn left</title><g fill="#111" class="nc-icon-wrapper"><path fill="#111" d="M13.563.194C6.54 1.381 1.245 6.744.181 13.75c-.756 4.974 1.027 10.135 4.737 13.717 6.244 6.028 15.918 6.028 22.162 0 4.912-4.743 6.277-11.984 3.422-18.162-1.532-3.317-4.322-6.13-7.68-7.74-2.81-1.349-6.317-1.868-9.26-1.37m4.258 1.939c4.752.661 8.756 3.585 10.8 7.886 1.213 2.553 1.649 5.526 1.193 8.141-.536 3.073-1.822 5.585-3.945 7.708-4.777 4.777-12.076 5.489-17.681 1.724-3.975-2.669-6.372-7.383-6.15-12.093.175-3.692 1.536-6.815 4.087-9.376 3.063-3.075 7.467-4.578 11.696-3.99M14.625 9.17c-1.1.24-1.875.688-2.822 1.634C10.46 12.144 10 13.335 10 15.464v1.076l-.802-.77c-.633-.609-.883-.77-1.193-.77C7.48 15 7 15.483 7 16.013c0 .347.235.636 1.783 2.193C10.395 19.83 10.607 20 11 20s.605-.171 2.217-1.794C14.765 16.65 15 16.36 15 16.013c0-.53-.48-1.013-1.005-1.013-.31 0-.563.163-1.21.781l-.817.781.057-1.322c.067-1.555.332-2.238 1.188-3.07.864-.84 1.536-1.107 2.787-1.107.863 0 1.175.055 1.659.293.762.375 1.61 1.223 1.985 1.985.288.585.294.68.332 4.805l.039 4.209.299.322c.404.436.971.433 1.38-.008l.306-.33v-3.976c0-4.231-.06-4.82-.604-5.988-.429-.92-1.858-2.346-2.786-2.778a6.254 6.254 0 0 0-3.985-.427"/></g></svg>