<svg xmlns="http://www.w3.org/2000/svg" width="32" height="32" viewBox="0 0 32 32"><title>road sign warning</title><g fill="#111" class="nc-icon-wrapper"><path fill="#111" d="M3.001 30.999a3.003 3.003 0 0 1-2.625-4.45L13.372 2.556a3.001 3.001 0 0 1 5.256-.007l13.004 24.007a3.003 3.003 0 0 1-2.63 4.443h-26zM16 2.999a.999.999 0 0 0-.873.517L2.13 27.509a.996.996 0 0 0-.088.767A.995.995 0 0 0 3 29h26a1 1 0 0 0 .875-1.483L16.873 3.511A.987.987 0 0 0 16 2.999zm.001 23a1.061 1.061 0 0 1-.173-.015 1.501 1.501 0 0 1-1.31-1.31.956.956 0 0 1 0-.35 1.5 1.5 0 0 1 1.31-1.31.936.936 0 0 1 .348 0 1.5 1.5 0 0 1 1.31 1.311 1.077 1.077 0 0 1 0 .35 1.501 1.501 0 0 1-1.485 1.324zm0-5a1 1 0 0 1-1-1v-9a1 1 0 0 1 2 0v9a1 1 0 0 1-1 1z"/></g></svg>