<?xml version="1.0" encoding="utf-8"?>
<!-- Generator: Adobe Illustrator 22.1.0, SVG Export Plug-In . SVG Version: 6.00 Build 0)  -->
<svg version="1.1" id="Layer_1" xmlns="http://www.w3.org/2000/svg" xmlns:xlink="http://www.w3.org/1999/xlink" x="0px" y="0px"
	 viewBox="0 0 24 24" style="enable-background:new 0 0 24 24;" xml:space="preserve" width="32" height="32">
<title>robot</title>
<g>
	<path d="M23.25,24c-0.414,0-0.75-0.336-0.75-0.75v-1.5c0-0.414-0.336-0.75-0.75-0.75S21,21.336,21,21.75v1.5
		c0,0.414-0.336,0.75-0.75,0.75s-0.75-0.336-0.75-0.75v-1.5c0-0.96,0.615-1.808,1.5-2.121V15.75c0-0.414-0.336-0.75-0.75-0.75v1.426
		c0,1.335-0.719,2.58-1.875,3.249c-1.93,1.113-4.135,1.701-6.375,1.701s-4.445-0.588-6.375-1.701
		c-1.158-0.668-1.876-1.914-1.875-3.25V15C3.336,15,3,15.336,3,15.75v3.879c0.885,0.313,1.5,1.161,1.5,2.121v1.5
		C4.5,23.664,4.164,24,3.75,24S3,23.664,3,23.25v-1.5C3,21.336,2.664,21,2.25,21S1.5,21.336,1.5,21.75v1.5
		C1.5,23.664,1.164,24,0.75,24S0,23.664,0,23.25v-1.5c0-0.96,0.615-1.808,1.5-2.121V15.75c0-1.241,1.009-2.25,2.25-2.25v-2.25
		c0-4.293,3.266-7.835,7.5-8.216V0.75C11.25,0.336,11.586,0,12,0s0.75,0.336,0.75,0.75v2.284c4.234,0.381,7.5,3.923,7.5,8.216v2.25
		c1.241,0,2.25,1.009,2.25,2.25v3.879c0.885,0.314,1.5,1.162,1.5,2.121v1.5C24,23.664,23.664,24,23.25,24z M5.25,16.426
		c0,0.802,0.431,1.549,1.125,1.95c1.702,0.981,3.647,1.5,5.625,1.5c1.978,0,3.923-0.519,5.625-1.5
		c0.693-0.401,1.125-1.149,1.125-1.951V15H5.25V16.426z M18.75,13.5v-2.25c0-3.722-3.028-6.75-6.75-6.75s-6.75,3.028-6.75,6.75v2.25
		H18.75z"/>
	<path d="M9,11.25c-0.414,0-0.75-0.336-0.75-0.75V9c0-0.414,0.336-0.75,0.75-0.75S9.75,8.586,9.75,9v1.5
		C9.75,10.914,9.414,11.25,9,11.25z"/>
	<path d="M15,11.25c-0.414,0-0.75-0.336-0.75-0.75V9c0-0.414,0.336-0.75,0.75-0.75S15.75,8.586,15.75,9v1.5
		C15.75,10.914,15.414,11.25,15,11.25z"/>
</g>
</svg>
