<svg xmlns="http://www.w3.org/2000/svg" width="32" height="32" viewBox="0 0 32 32"><title>search circle</title><g fill="#111" class="nc-icon-wrapper"><path fill="#111" d="M16 32C7.177 32 0 24.823 0 16S7.177 0 16 0s16 7.177 16 16-7.177 16-16 16zm0-30C8.28 2 2 8.28 2 16s6.28 14 14 14 14-6.28 14-14S23.72 2 16 2zm7 22a.99.99 0 0 1-.707-.293l-3.39-3.392a6.827 6.827 0 0 1-4.07 1.352C11.065 21.667 8 18.6 8 14.833S11.065 8 14.833 8s6.834 3.065 6.834 6.833a6.83 6.83 0 0 1-1.351 4.068l3.39 3.392c.19.19.294.44.294.707a.995.995 0 0 1-1 1zm-8.167-14C12.168 10 10 12.168 10 14.833s2.168 4.834 4.833 4.834 4.834-2.168 4.834-4.834S17.499 10 14.833 10z"/></g></svg>