<svg xmlns="http://www.w3.org/2000/svg" viewBox="0 0 32 32" width="32" height="32"><title>send email</title><g class="nc-icon-wrapper" fill="#111111"><path d="M27.341.171c-.756.282-25.35 15.689-25.93 16.244-.595.568-.911 1.334-.91 2.201 0 .896.21 1.439.814 2.11.948 1.054 1.055 1.077 5.404 1.124l3.781.041.003 3.274c.002 3.02.022 3.316.257 3.835.649 1.435 2.07 2.183 3.558 1.874.5-.104 1.093-.433 2.512-1.395 1.022-.693 1.923-1.285 2.003-1.316.08-.031.659.623 1.286 1.454 1.496 1.98 2.3 2.49 3.695 2.347 1.158-.12 2.201-.87 2.626-1.887.278-.666 5.06-26.2 5.057-26.998-.005-1.1-.695-2.231-1.665-2.726-.648-.33-1.856-.419-2.49-.182m.051 2.423c-.137.189-3.137 4.14-6.666 8.781l-6.417 8.437-5.186.036c-2.853.02-5.363.005-5.579-.034-.59-.105-1.045-.625-1.045-1.192 0-.265.095-.582.219-.728.17-.202 24.723-15.636 24.883-15.642.022-.001-.072.153-.209.342m-.267 13.612c-1.312 7.002-2.442 12.875-2.511 13.051-.133.34-.702.743-1.047.743-.587 0-1.059-.53-4.084-4.589-1.723-2.311-3.192-4.297-3.264-4.413-.109-.174 1.021-1.728 6.54-8.989 3.67-4.828 6.69-8.723 6.712-8.656.022.067-1.033 5.851-2.346 12.853M16.02 24.173l1.7 2.298-1.808 1.223c-1.874 1.267-2.216 1.395-2.836 1.063-.529-.283-.576-.596-.576-3.825v-3.057h1.82l1.7 2.298" fill="#111111"/></g></svg>