<svg xmlns="http://www.w3.org/2000/svg" width="32" height="32" viewBox="0 0 32 32"><title>server search</title><g fill="#111" class="nc-icon-wrapper"><path fill="#111" d="M5.5 7a1.5 1.5 0 0 0 3 0 1.5 1.5 0 0 0-3 0m0 12a1.5 1.5 0 0 0 3 0 1.5 1.5 0 0 0-3 0M7 26a7.008 7.008 0 0 1-7-7 6.982 6.982 0 0 1 3.397-6A6.981 6.981 0 0 1 0 7a7.008 7.008 0 0 1 7-7h16a7.01 7.01 0 0 1 7.004 6.996 7.016 7.016 0 0 1-2.261 5.156 1 1 0 0 1-1.355-1.472 5.01 5.01 0 0 0 1.615-3.683 4.968 4.968 0 0 0-1.467-3.534A4.963 4.963 0 0 0 23.004 2H7C4.244 2 2 4.243 2 7s2.244 5 5 5h6a1 1 0 0 1 0 2H7a5.005 5.005 0 0 0-5 5 5.007 5.007 0 0 0 5 5h2.999a1 1 0 0 1 0 2H7zm7-18a1 1 0 0 1 0-2h9a1 1 0 0 1 0 2h-9zm17 24a.99.99 0 0 1-.707-.293l-4.39-4.391A7.987 7.987 0 0 1 21 29c-4.41 0-8-3.59-8-8s3.59-8 8-8 8 3.59 8 8a7.99 7.99 0 0 1-1.684 4.903l4.39 4.39a1.003 1.003 0 0 1 0 1.415A.992.992 0 0 1 31 32zM21 15c-3.308 0-6 2.692-6 6s2.692 6 6 6 6-2.692 6-6-2.69-6-6-6z"/></g></svg>