<svg xmlns="http://www.w3.org/2000/svg" viewBox="0 0 32 32" width="32" height="32"><title>shield lock</title><g class="nc-icon-wrapper" fill="#111111"><path d="M16 32.001a4.987 4.987 0 0 1-1.795-.333l-1.388-.533C6.347 28.645 2 22.316 2 15.384V5.232a2.985 2.985 0 0 1 1.741-2.725A29.74 29.74 0 0 1 15.717 0l.292.001.248-.001c4.154 0 8.187.841 11.986 2.5A2.995 2.995 0 0 1 30 5.239v10.145c0 6.932-4.347 13.261-10.817 15.75l-1.388.534a4.987 4.987 0 0 1-1.795.333zM15.733 2A27.787 27.787 0 0 0 4.557 4.332.976.976 0 0 0 4 5.225v10.159c0 6.11 3.832 11.69 9.535 13.884l1.388.533a2.987 2.987 0 0 0 2.154.002l1.388-.534C24.168 27.073 28 21.495 28 15.384V5.232a.99.99 0 0 0-.573-.907A27.743 27.743 0 0 0 16.259 2l-.25.001L15.733 2zM12 24a3.003 3.003 0 0 1-3-3v-6c0-1.28.82-2.41 2-2.828v-1.17a5.005 5.005 0 0 1 5-5 5.005 5.005 0 0 1 5 5v1.171a3.013 3.013 0 0 1 2 2.828v6a3.003 3.003 0 0 1-3 3h-8zm0-9.999a1 1 0 0 0-1 1v6a1 1 0 0 0 1 1h8a1 1 0 0 0 1-1v-6a1 1 0 0 0-1-1h-8zm7-2v-1a3.003 3.003 0 0 0-3-3 3.003 3.003 0 0 0-3 3v1h6zm-4.5 6.038a1.5 1.5 0 0 0 3 0 1.5 1.5 0 0 0-3 0" fill="#111111"/></g></svg>