<svg xmlns="http://www.w3.org/2000/svg" width="32" height="32" viewBox="0 0 32 32"><title>shopping cart check</title><g fill="#111" class="nc-icon-wrapper"><path fill="#111" d="M12.357 14.01a2.33 2.33 0 0 1-1.661-.691l-2.712-2.712c-.19-.188-.293-.44-.293-.707s.104-.519.293-.707c.188-.189.44-.293.707-.293s.518.104.706.293l2.712 2.712a.755.755 0 0 0 .038.031.344.344 0 0 0 .261.068.341.341 0 0 0 .236-.137l5.247-7a1.004 1.004 0 0 1 1.398-.2 1 1 0 0 1 .202 1.4l-5.247 7a2.337 2.337 0 0 1-1.887.942zM8.5 31.456c-1.93 0-3.5-1.569-3.5-3.5s1.57-3.5 3.5-3.5 3.5 1.57 3.5 3.5-1.57 3.5-3.5 3.5zm0-5c-.827 0-1.5.674-1.5 1.5s.673 1.5 1.5 1.5 1.5-.673 1.5-1.5-.672-1.5-1.5-1.5zm10 5c-1.931 0-3.5-1.569-3.5-3.5s1.569-3.5 3.5-3.5 3.5 1.57 3.5 3.5-1.57 3.5-3.5 3.5zm0-5c-.827 0-1.5.674-1.5 1.5s.673 1.5 1.5 1.5 1.5-.673 1.5-1.5-.672-1.5-1.5-1.5zm-12.46-4a3.005 3.005 0 0 1-2.9-2.225L.04 9.74A.997.997 0 0 1 1 8.457c.44 0 .833.295.959.718L5.064 19.69a1.013 1.013 0 0 0 .973.766h14.426a1.004 1.004 0 0 0 .972-.741L25.752 3.51A4.004 4.004 0 0 1 29.616.54h1.385a1 1 0 0 1 0 2h-1.384a2 2 0 0 0-1.932 1.484L23.368 20.23a3.004 3.004 0 0 1-2.899 2.226H6.04z"/></g></svg>