<svg xmlns="http://www.w3.org/2000/svg" viewBox="0 0 32 32" width="32" height="32"><title>single neutral actions</title><g class="nc-icon-wrapper" fill="#111111"><path d="M14.313.18c-1.186.277-1.777.527-2.697 1.138C9.399 2.793 8.005 5.371 8.005 8c0 4.363 3.633 7.996 7.996 7.996S23.996 12.363 23.996 8c0-3.424-2.329-6.604-5.586-7.63-1.093-.343-3.056-.435-4.098-.19m2.869 1.954c1.171.217 2.04.699 3.013 1.672 2.441 2.441 2.441 5.94 0 8.392C18.966 13.43 17.641 14 16 14c-1.64 0-2.966-.57-4.194-1.802-1.539-1.546-2.103-3.398-1.667-5.473.24-1.138.716-1.975 1.664-2.921 1.527-1.525 3.256-2.062 5.378-1.67M14.062 17.14a14.091 14.091 0 0 0-7.937 3.985c-2.455 2.465-3.858 5.58-4.083 9.063-.07 1.084-.06 1.138.25 1.47.419.447.986.461 1.383.033.24-.26.3-.499.366-1.469a12.041 12.041 0 0 1 3.603-7.797c1.351-1.308 3.115-2.363 4.856-2.906.781-.243 2.637-.518 3.5-.518s2.719.275 3.5.518c4.753 1.481 8.102 5.73 8.457 10.727.067.944.13 1.186.368 1.445.674.726 1.675.159 1.675-.95 0-2.39-.978-5.422-2.468-7.651-.82-1.226-2.511-2.896-3.782-3.735-2.817-1.859-6.43-2.685-9.688-2.215" fill="#111111"/></g></svg>