<svg xmlns="http://www.w3.org/2000/svg" viewBox="0 0 32 32" width="32" height="32"><title>single neutral shield</title><g class="nc-icon-wrapper" fill="#111111"><path d="M16 32a.987.987 0 0 1-.165-.013A18.95 18.95 0 0 1 0 13.249V3a3.003 3.003 0 0 1 3-3h26a3.003 3.003 0 0 1 3 3v10.25a18.95 18.95 0 0 1-15.833 18.737A1.015 1.015 0 0 1 16 32zM3 2a1 1 0 0 0-1 1v10.25a16.967 16.967 0 0 0 14 16.735A16.965 16.965 0 0 0 30 13.25V3a1 1 0 0 0-1-1H3zm13 15c-3.033 0-5.5-2.467-5.5-5.5S12.967 6 16 6c3.032 0 5.5 2.467 5.5 5.5S19.032 17 16 17zm0-9c-1.93 0-3.5 1.57-3.5 3.5S14.07 15 16 15s3.5-1.57 3.5-3.5S17.93 8 16 8zM8.817 23.333a1.003 1.003 0 0 1-.893-1.45 9.107 9.107 0 0 1 4.008-4.008 8.925 8.925 0 0 1 4.055-.966 9.007 9.007 0 0 1 8.089 4.974 1 1 0 0 1-1.787.898 7.013 7.013 0 0 0-6.301-3.873 6.957 6.957 0 0 0-3.156.752 7.093 7.093 0 0 0-3.121 3.121.993.993 0 0 1-.894.552z" fill="#111111"/></g></svg>