<svg xmlns="http://www.w3.org/2000/svg" viewBox="0 0 32 32" width="32" height="32"><title>single neutral circle</title><g class="nc-icon-wrapper" fill="#111111"><path d="M16 21c-4.41 0-8-3.59-8-8s3.59-8 8-8 8 3.59 8 8-3.59 8-8 8zm0-14c-3.308 0-6 2.692-6 6s2.692 6 6 6 6-2.692 6-6-2.692-6-6-6zm0 25a15.83 15.83 0 0 1-9.776-3.347.676.676 0 0 1-.168-.132C2.206 25.46 0 20.9 0 16 0 7.177 7.177 0 16 0s16 7.177 16 16c0 4.899-2.207 9.459-6.057 12.521l-.02.022a.746.746 0 0 1-.15.112A15.824 15.824 0 0 1 16 32zm-7.621-4.265A13.877 13.877 0 0 0 16 30a13.88 13.88 0 0 0 7.623-2.265A11.955 11.955 0 0 0 16 25.008a11.953 11.953 0 0 0-7.622 2.727zM16 2C8.28 2 2 8.28 2 16c0 4.03 1.725 7.833 4.75 10.499a13.932 13.932 0 0 1 9.25-3.49c3.43 0 6.697 1.236 9.25 3.488A13.964 13.964 0 0 0 30 16c0-7.72-6.28-14-14-14z" fill="#111111"/></g></svg>