<svg xmlns="http://www.w3.org/2000/svg" viewBox="0 0 32 32" width="32" height="32"><title>single neutral actions process</title><g class="nc-icon-wrapper" fill="#111111"><path d="M7 10c-2.757 0-5-2.243-5-5s2.243-5 5-5 5 2.243 5 5-2.243 5-5 5zm0-8C5.345 2 4 3.345 4 5s1.345 3 3 3 3-1.345 3-3-1.345-3-3-3zM4 32a.996.996 0 0 1-.995-.9l-.91-9.1H1a1 1 0 0 1-1-1v-4c0-3.86 3.14-7 7-7s7 3.14 7 7v4a1 1 0 0 1-1 1h-1.095l-.909 9.1A.997.997 0 0 1 10 32H4zm5.095-2l.909-9.1A.997.997 0 0 1 11 20h1v-3c0-2.757-2.243-5-5-5s-5 2.243-5 5v3h1c.516 0 .944.387.995.9l.91 9.1h4.19zM21 28a3.003 3.003 0 0 1-3-3v-9h-1a1 1 0 0 1 0-2h1V5a3.003 3.003 0 0 1 3-3h1a1 1 0 0 1 0 2h-1a1 1 0 0 0-1 1v9h2a1 1 0 0 1 0 2h-2v9a1 1 0 0 0 1 1h1a1 1 0 0 1 0 2h-1zm6-22a.99.99 0 0 1-.707-.293l-2-2C24.104 3.519 24 3.267 24 3s.104-.519.293-.707a.999.999 0 0 1 1.414 0L27 3.587 30.293.293C30.481.104 30.733 0 31 0s.519.104.707.293c.189.188.293.44.293.707s-.104.519-.293.707l-4 4A.99.99 0 0 1 27 6zm0 12a.99.99 0 0 1-.707-.293l-2-2c-.189-.188-.293-.44-.293-.707s.104-.519.293-.707a.999.999 0 0 1 1.414 0L27 15.587l3.293-3.294c.188-.189.44-.293.707-.293s.519.104.707.293c.189.188.293.44.293.707s-.104.519-.293.707l-4 4A.99.99 0 0 1 27 18zm4 14a.99.99 0 0 1-.707-.293L28 29.415l-2.293 2.293a.995.995 0 0 1-1.414-.001 1.003 1.003 0 0 1 0-1.415l2.294-2.293-2.294-2.294A1.003 1.003 0 0 1 25 23.997a.99.99 0 0 1 .707.294L28 26.584l2.293-2.293a.992.992 0 0 1 1.414 0 1.003 1.003 0 0 1 0 1.414L29.415 28l2.293 2.293A1 1 0 1 1 31 32z" fill="#111111"/></g></svg>