<?xml version="1.0" encoding="utf-8"?>
<!-- Generator: Adobe Illustrator 22.1.0, SVG Export Plug-In . SVG Version: 6.00 Build 0)  -->
<svg version="1.1" id="Regular" xmlns="http://www.w3.org/2000/svg" xmlns:xlink="http://www.w3.org/1999/xlink" x="0px" y="0px"
	 viewBox="0 0 24 24" style="enable-background:new 0 0 24 24;" xml:space="preserve" width="32" height="32">
<title>soccer-player</title>
<g>
	<path d="M13.313,6.75c-1.861,0-3.375-1.514-3.375-3.375S11.452,0,13.313,0c1.861,0,3.375,1.514,3.375,3.375
		S15.174,6.75,13.313,6.75z M13.313,1.5c-1.034,0-1.875,0.841-1.875,1.875s0.841,1.875,1.875,1.875c1.034,0,1.875-0.841,1.875-1.875
		S14.347,1.5,13.313,1.5z"/>
	<path d="M4.313,24c-1.861,0-3.375-1.514-3.375-3.375s1.514-3.375,3.375-3.375s3.375,1.514,3.375,3.375S6.174,24,4.313,24z
		 M4.313,18.75c-1.034,0-1.875,0.841-1.875,1.875S3.279,22.5,4.313,22.5s1.875-0.841,1.875-1.875S5.347,18.75,4.313,18.75z"/>
	<path d="M12.81,23.921c-0.116,0-0.235-0.01-0.352-0.029c-1.222-0.194-2.06-1.347-1.868-2.572l1.022-6.47
		c0.058-0.367,0.369-0.633,0.739-0.633c0.039,0,0.079,0.003,0.119,0.01c0.197,0.031,0.371,0.137,0.489,0.3
		c0.118,0.162,0.166,0.361,0.134,0.559l-1.022,6.47c-0.064,0.408,0.216,0.792,0.624,0.857c0.04,0.007,0.079,0.01,0.113,0.01
		c0.375-0.001,0.686-0.267,0.744-0.633l1.8-11.405c0.058-0.367,0.369-0.633,0.741-0.633h0.615c1.439,0,2.719-0.793,3.353-2.071
		l1.422-2.844c0.09-0.179,0.104-0.383,0.041-0.573c-0.063-0.19-0.197-0.344-0.376-0.434c-0.106-0.053-0.218-0.08-0.334-0.08
		c-0.08,0-0.161,0.013-0.239,0.039c-0.19,0.063-0.344,0.197-0.434,0.376l-1.42,2.842c-0.375,0.755-1.163,1.244-2.008,1.244H9.918
		c-1.436,0-2.72,0.793-3.354,2.071l-1.422,2.844c-0.09,0.179-0.104,0.383-0.041,0.573c0.063,0.19,0.197,0.344,0.376,0.434
		c0.106,0.053,0.219,0.08,0.335,0.08c0.08,0,0.16-0.013,0.238-0.039c0.19-0.063,0.344-0.197,0.434-0.376l1.421-2.842
		C8.28,10.239,9.068,9.75,9.912,9.75h0.146c0.22,0,0.428,0.096,0.57,0.263c0.143,0.167,0.205,0.387,0.17,0.604l-1.176,7.45
		c-0.057,0.361-0.375,0.633-0.74,0.633c-0.039,0-0.079-0.003-0.119-0.01c-0.197-0.031-0.37-0.137-0.488-0.299
		c-0.118-0.162-0.166-0.36-0.134-0.558l0.913-5.784l-1.228,2.457c-0.269,0.538-0.731,0.938-1.301,1.128
		c-0.232,0.077-0.472,0.117-0.714,0.117c-0.35,0-0.688-0.08-1.005-0.239c-0.538-0.269-0.939-0.731-1.129-1.302
		c-0.19-0.57-0.147-1.18,0.122-1.718l1.421-2.842C6.11,7.862,7.904,6.75,9.903,6.75h6.806c0.284,0,0.546-0.162,0.67-0.412
		L18.8,3.494c0.269-0.538,0.731-0.939,1.301-1.129c0.231-0.077,0.471-0.117,0.713-0.117c0.35,0,0.688,0.08,1.005,0.239
		c0.538,0.269,0.938,0.731,1.128,1.301c0.19,0.57,0.147,1.18-0.122,1.718l-1.421,2.842c-0.887,1.786-2.676,2.897-4.67,2.902
		l-1.7,10.772c-0.173,1.099-1.106,1.897-2.219,1.899H12.81z"/>
</g>
</svg>
