<svg xmlns="http://www.w3.org/2000/svg" viewBox="0 0 32 32" width="32" height="32"><title>startup launch</title><g class="nc-icon-wrapper" fill="#111111"><path d="M3.004 32a2.98 2.98 0 0 1-2.121-.879A2.98 2.98 0 0 1 .004 29c0-.464.11-.928.317-1.343l2.448-4.894a5.024 5.024 0 0 1 1.81-1.999A2.983 2.983 0 0 1 4.003 19V9a3.003 3.003 0 0 1 3-3h2A1 1 0 1 1 9 8H7a1 1 0 0 0-1 1v10a1 1 0 0 0 1 1h3a1 1 0 0 1 0 2H7.24a2.983 2.983 0 0 0-2.683 1.657L2.11 28.552a1 1 0 0 0 .895 1.447H29a1.005 1.005 0 0 0 .949-.684.995.995 0 0 0-.055-.764l-2.448-4.895a2.984 2.984 0 0 0-2.682-1.657H22A1 1 0 0 1 22 20h3a1 1 0 0 0 1-1V9a1 1 0 0 0-1-1h-2a1 1 0 0 1 0-2h2a3.003 3.003 0 0 1 3 3v10a2.99 2.99 0 0 1-.576 1.764 5.015 5.015 0 0 1 1.81 1.999l2.448 4.894a2.98 2.98 0 0 1 .162 2.291A3.004 3.004 0 0 1 29 32H3.004zm6.347-15.75a1.813 1.813 0 0 1-1.318-.56 1.587 1.587 0 0 1-.369-1.522 7.861 7.861 0 0 1 4.337-4.613v-4.28c0-2.878 3.322-5.028 3.463-5.118a.999.999 0 0 1 1.075 0C16.68.248 20 2.397 20 5.276v4.28a7.83 7.83 0 0 1 4.316 4.552c.175.59.042 1.17-.345 1.581a1.812 1.812 0 0 1-1.307.563c-.002-.003-13.314-.003-13.314-.003zM12 11.798a5.873 5.873 0 0 0-2.21 2.452h2.212v-2.452zm10.218 2.45a5.85 5.85 0 0 0-2.216-2.45v2.45h2.216zm-4.218 0V5.275c0-1.254-1.292-2.466-2-3.035-.708.57-2 1.78-2 3.035v8.974h4zm-4 8.751a1 1 0 0 1-1-1v-3a1 1 0 0 1 2 0v3a1 1 0 0 1-1 1zm4 3a1 1 0 0 1-1-1v-6a1 1 0 0 1 2 0v6a1 1 0 0 1-1 1z" fill="#111111"/></g></svg>