<svg xmlns="http://www.w3.org/2000/svg" width="32" height="32" viewBox="0 0 32 32"><title>statistics daytum</title><g fill="#111" class="nc-icon-wrapper"><path fill="#111" d="M29.333 31.333a1 1 0 0 0 1-1v-24a1 1 0 0 0-2 0v24a1 1 0 0 0 1 1zm-6.333-13v12a1 1 0 0 0 2 0v-12a1 1 0 0 0-2 0zM17.667 13v17.333a1 1 0 0 0 2 0V13a1 1 0 0 0-2 0zm-5.334 9.333v8a1 1 0 0 0 2 0v-8a1 1 0 0 0-2 0zM1.667 25v5.333a1 1 0 0 0 2 0V25a1 1 0 0 0-2 0zM7 17.667v12.666a1 1 0 0 0 2 0V17.667a1 1 0 0 0-2 0zm20.667-16a1 1 0 0 0-1-1h-22a1 1 0 0 0 0 2h22a1 1 0 0 0 1-1z"/></g></svg>