<svg xmlns="http://www.w3.org/2000/svg" width="32" height="32" viewBox="0 0 32 32"><title>style two pin warning</title><g fill="#111" class="nc-icon-wrapper"><path fill="#111" d="M16.001 18.01c-.149 0-.298-.023-.442-.067a1.048 1.048 0 0 1-.162-.066 1.501 1.501 0 0 1-.852-1.721.783.783 0 0 1 .024-.099 1.384 1.384 0 0 1 .06-.145 1.495 1.495 0 0 1 1.643-.87c.025.003.05.007.076.014a.744.744 0 0 1 .093.023.556.556 0 0 1 .091.036 1.507 1.507 0 0 1 .928 1.718.921.921 0 0 1-.024.112l-.007.022a1.487 1.487 0 0 1-1.428 1.042zm-.001-4a1 1 0 0 1-1-1v-4a1 1 0 0 1 2 0v4a1 1 0 0 1-1 1zm-.001 17.863c-.348 0-.691-.09-.991-.262a28.01 28.01 0 0 1-6.856-5.612C4.733 22.104 3 17.733 3 13.009c0-7.168 5.832-13 13-13s13 5.832 13 13c0 4.726-1.733 9.096-5.153 12.992a28.01 28.01 0 0 1-6.856 5.611 2.013 2.013 0 0 1-.992.261zM16 2.01c-6.065 0-11 4.935-11 11 0 2.482.793 11.031 11 16.866 10.207-5.83 11-14.383 11-16.866 0-6.065-4.935-11-11-11z"/></g></svg>