<svg xmlns="http://www.w3.org/2000/svg" width="32" height="32" viewBox="0 0 32 32"><title>style two pin user</title><g fill="#111" class="nc-icon-wrapper"><path fill="#111" d="M16 14.004c-2.205 0-4-1.795-4-4s1.795-4 4-4 4 1.795 4 4-1.795 4-4 4zm0-6c-1.103 0-2 .897-2 2s.897 2 2 2 2-.897 2-2-.897-2-2-2zm-6 14a1 1 0 0 1-1-1 7.008 7.008 0 0 1 7-7 7.008 7.008 0 0 1 7 7 1 1 0 0 1-1 1H10zm10.899-2c-.47-2.283-2.523-4-4.899-4s-4.43 1.717-4.899 4H20.9zm-4.9 11.864c-.348 0-.691-.09-.991-.263a28.01 28.01 0 0 1-6.856-5.612C4.733 22.097 3 17.727 3 13.003c0-7.168 5.832-13 13-13s13 5.832 13 13c0 4.725-1.733 9.096-5.153 12.992a28.01 28.01 0 0 1-6.856 5.61 2 2 0 0 1-.992.263zM16 2.004c-6.065 0-11 4.935-11 11 0 2.481.793 11.03 11 16.865 10.207-5.829 11-14.382 11-16.865 0-6.065-4.935-11-11-11z"/></g></svg>