<svg xmlns="http://www.w3.org/2000/svg" width="32" height="32" viewBox="0 0 32 32"><title>synchronize arrows</title><g fill="#111" class="nc-icon-wrapper"><path fill="#111" d="M15.999 20.33c-2.206 0-4-1.795-4-4s1.794-4 4-4 4 1.794 4 4-1.794 4-4 4zm0-6c-1.103 0-2 .897-2 2s.897 2 2 2 2-.898 2-2-.896-2-2-2zm-11 6.002a1 1 0 0 1-.747-.337l-3.961-3.96c-.19-.188-.294-.44-.294-.707s.104-.519.294-.707c.188-.189.44-.293.706-.293s.519.104.707.293l2.293 2.294v-.586a11.965 11.965 0 0 1 4.36-9.246 11.84 11.84 0 0 1 7.622-2.747c.384 0 .774.019 1.16.055a11.923 11.923 0 0 1 8.113 4.305.996.996 0 0 1-.135 1.408.999.999 0 0 1-1.408-.135 9.935 9.935 0 0 0-6.76-3.588 10.333 10.333 0 0 0-.972-.046 9.861 9.861 0 0 0-6.345 2.289 9.965 9.965 0 0 0-3.633 7.705v.586l2.293-2.294a.992.992 0 0 1 1.413 0c.19.188.294.44.294.707s-.104.519-.294.707l-3.981 3.981a.977.977 0 0 1-.725.316zm11.009 7.995a11.925 11.925 0 0 1-8.736-3.764A.996.996 0 0 1 8 22.877c.275 0 .54.115.728.314a9.933 9.933 0 0 0 7.268 3.136 9.97 9.97 0 0 0 6.867-2.727 10.044 10.044 0 0 0 3.126-6.848l-2.284 2.284a.992.992 0 0 1-1.413 0 1.003 1.003 0 0 1 0-1.415l4-4a1 1 0 0 1 .327-.217l.032-.012a.983.983 0 0 1 .738.016 1 1 0 0 1 .318.213l4 4A1.003 1.003 0 0 1 31 19.33a.99.99 0 0 1-.707-.293l-2.3-2.3a12.053 12.053 0 0 1-3.757 8.319 11.95 11.95 0 0 1-8.228 3.272z"/></g></svg>