<svg xmlns="http://www.w3.org/2000/svg" width="32" height="32" viewBox="0 0 32 32"><title>synchronize arrow clock</title><g fill="#111" class="nc-icon-wrapper"><path fill="#111" d="M15.575 2.576c-4.78.863-8.718 4.054-10.52 8.523-.492 1.22-.93 2.88-.93 3.52 0 .141-.039.256-.087.256-.047 0-.658-.563-1.357-1.25-1.073-1.057-1.331-1.25-1.669-1.25-.5 0-1.012.481-1.012.952 0 .27.438.784 2.156 2.537 1.186 1.209 2.311 2.279 2.5 2.377.299.156.39.156.688 0 .189-.098 1.314-1.168 2.5-2.377C9.562 14.11 10 13.596 10 13.327c0-.47-.512-.952-1.012-.952-.335 0-.595.193-1.644 1.219l-1.246 1.218.087-.562c.137-.882.786-2.735 1.262-3.602a12.228 12.228 0 0 1 7.587-5.93c1.48-.39 4.452-.39 5.932 0 5.058 1.336 8.668 5.717 8.994 10.916.357 5.69-3.576 11.01-9.095 12.306-.716.168-1.746.34-2.29.383-.808.063-1.04.13-1.28.371-.344.343-.377.758-.095 1.161.324.463.686.527 2.142.38 3.206-.322 6.024-1.646 8.43-3.96 2.171-2.088 3.54-4.727 4.035-7.778 1.076-6.634-2.9-13.239-9.245-15.359-2.234-.746-4.817-.954-6.987-.562m.732 5.106L16 7.989v9.622l.302.35.301.352h7.794l.301-.351c.386-.448.384-.892-.005-1.28l-.307-.307H18V7.989l-.307-.307A1.007 1.007 0 0 0 17 7.375c-.244 0-.5.113-.693.307"/></g></svg>