<svg xmlns="http://www.w3.org/2000/svg" width="32" height="32" viewBox="0 0 32 32"><title>task list approve</title><g fill="#111" class="nc-icon-wrapper"><path fill="#111" d="M15 20.015a1 1 0 0 1 0-2h7a1 1 0 0 1 0 2h-7zm0 6a1 1 0 0 1 0-2h7a1 1 0 0 1 0 2h-7zm-5.5-7a1.5 1.5 0 0 0 3 0 1.5 1.5 0 0 0-3 0m5.5-5a1 1 0 0 1 0-2h7a1 1 0 0 1 0 2h-7zm-5.5-1a1.5 1.5 0 0 0 3 0 1.5 1.5 0 0 0-3 0m0 12a1.5 1.5 0 0 0 3 0 1.5 1.5 0 0 0-3 0m-3.5 7a3.003 3.003 0 0 1-3-3v-21a3.003 3.003 0 0 1 3-3h4.084c.481-2.838 2.996-5 5.916-5 2.92 0 5.435 2.161 5.916 5H26a3.003 3.003 0 0 1 3 3v21a3.003 3.003 0 0 1-3 3H6zm0-25a1 1 0 0 0-1 1v21a1 1 0 0 0 1 1h20a1 1 0 0 0 1-1v-21a1 1 0 0 0-1-1h-5a1 1 0 0 1-1-1c0-2.206-1.795-4-4-4s-4 1.794-4 4a1 1 0 0 1-1 1H6zm8.5-1.5a1.5 1.5 0 0 0 3 0 1.5 1.5 0 0 0-3 0"/></g></svg>