<svg xmlns="http://www.w3.org/2000/svg" viewBox="0 0 32 32" width="32" height="32"><title>time clock circle</title><g class="nc-icon-wrapper" fill="#111111"><path d="M16 31C7.73 31 1 24.27 1 16S7.73 1 16 1s15 6.73 15 15-6.73 15-15 15zm0-28C8.832 3 3 8.832 3 16s5.832 13 13 13 13-5.832 13-13S23.168 3 16 3zm6.25 20.25a.99.99 0 0 1-.707-.293l-6.25-6.25a.987.987 0 0 1-.217-.327l-.012-.033a.983.983 0 0 1-.063-.347v-5a1 1 0 0 1 2 0v4.585l5.956 5.958a.992.992 0 0 1 0 1.413 1.003 1.003 0 0 1-.708.295z" fill="#111111"/></g></svg>