<svg xmlns="http://www.w3.org/2000/svg" width="32" height="32" viewBox="0 0 32 32"><title>tools wench</title><g fill="#111" class="nc-icon-wrapper"><path fill="#111" d="M4.463 31.844a4.283 4.283 0 0 1-3.048-1.261 4.316 4.316 0 0 1 0-6.096l13.36-13.355a8.72 8.72 0 0 1 .742-6.481A8.616 8.616 0 0 1 20.684.488a8.741 8.741 0 0 1 2.453-.355c1.436 0 2.87.368 4.144 1.066a1.001 1.001 0 0 1 .228 1.584l-4.128 4.129v1.703h1.704l4.155-4.152a.985.985 0 0 1 .827-.26 1.005 1.005 0 0 1 .734.51 8.67 8.67 0 0 1 .547 7.098 8.7 8.7 0 0 1-8.163 5.728 8.576 8.576 0 0 1-2.317-.319L7.511 30.583a4.282 4.282 0 0 1-3.048 1.261zm18.673-29.71c-.635 0-1.27.091-1.888.273a6.62 6.62 0 0 0-3.975 3.202 6.672 6.672 0 0 0-.42 5.46 1.007 1.007 0 0 1-.233 1.047L2.828 25.901a2.315 2.315 0 0 0 0 3.268 2.293 2.293 0 0 0 1.633.676 2.29 2.29 0 0 0 1.634-.676L19.88 15.377a.992.992 0 0 1 1.046-.233 6.613 6.613 0 0 0 2.257.396 6.692 6.692 0 0 0 6.28-4.407 6.644 6.644 0 0 0 .113-4.182l-3.373 3.373a1.007 1.007 0 0 1-.707.293H22.38a1 1 0 0 1-1-1V6.5a.99.99 0 0 1 .293-.707l3.374-3.375a6.508 6.508 0 0 0-1.911-.284z"/></g></svg>