<svg xmlns="http://www.w3.org/2000/svg" viewBox="0 0 32 32" width="32" height="32"><title>touch finger_1</title><g class="nc-icon-wrapper" fill="#111111"><path d="M14.17.146c-.146.071-.33.267-.406.435-.188.414-.183 3.477.006 3.834.348.651 1.049.778 1.548.278.299-.298.307-.357.307-2.193S15.617.605 15.318.307c-.323-.323-.703-.376-1.147-.16M7.955 2.328c-.607.607-.414 1.059 1.072 2.506.578.563 1.196 1.06 1.375 1.105.595.15 1.212-.355 1.219-.996.003-.303-.225-.597-1.284-1.656-1.449-1.45-1.765-1.576-2.382-.959m12.108-.095c-.587.365-2.288 2.185-2.378 2.544-.15.594.355 1.211.996 1.218.303.003.597-.225 1.656-1.284 1.105-1.104 1.288-1.345 1.288-1.693 0-.278-.104-.502-.33-.713-.396-.366-.728-.386-1.233-.072M6.165 7.149c-.337.162-.59.744-.48 1.096.047.145.203.374.348.51.238.22.448.245 2.121.245 1.805 0 1.866-.009 2.164-.307.418-.418.408-.986-.024-1.386-.32-.297-.39-.307-2.094-.298-.97.004-1.885.067-2.035.14m7.482.01c-.23.073-.688.377-1.02.676-1.01.908-1.002.843-1.002 7.431v5.721l-.73-.503c-.965-.667-1.887-.78-2.873-.357-1.485.64-2.217 2.214-1.75 3.77.139.466 5.365 7.601 5.82 7.947.158.12 1.67.156 6.563.156h6.356l.307-.307c.169-.169.308-.408.309-.531 0-.124.164-1.996.363-4.162.4-4.345.382-4.887-.198-6.071-.427-.872-1.445-1.898-2.25-2.267-.356-.163-1.832-.558-3.282-.88l-2.635-.583V13.38c-.001-2.366-.053-4.009-.138-4.319-.18-.657-1.237-1.699-1.939-1.908a3.358 3.358 0 0 0-1.901.005m5.518-.01c-.337.162-.59.744-.48 1.096.047.145.203.374.348.51.238.22.448.245 2.121.245 1.805 0 1.866-.009 2.164-.307.418-.418.408-.986-.024-1.387-.32-.296-.39-.306-2.093-.298-.97.005-1.886.068-2.036.14m-3.847 2.159l.307.307v4.366c0 3.974.02 4.391.219 4.634.175.214.824.403 3.281.957 1.684.38 3.315.818 3.624.973.309.155.74.516.957.802.66.864.69 1.302.35 4.966a182.086 182.086 0 0 0-.305 3.47c0 .204-.338.218-5.312.218h-5.312l-2.5-3.333c-2.504-3.335-2.66-3.608-2.424-4.224.09-.237.683-.568 1.016-.568.127 0 .796.415 1.486.922 1.866 1.371 2.02 1.425 2.59.896l.33-.306V9.662l.306-.331c.4-.432.97-.442 1.387-.024" fill="#111111"/></g></svg>