<svg xmlns="http://www.w3.org/2000/svg" width="32" height="32" viewBox="0 0 32 32"><title>touchpad finger</title><g fill="#111" class="nc-icon-wrapper"><path fill="#111" d="M3.904.13c-.81.163-1.987.847-2.555 1.486C1.069 1.93.665 2.553.45 3l-.389.813v14.375l.4.842c.722 1.526 2.041 2.55 3.658 2.844.915.166 1.273.106 1.627-.274.553-.594.076-1.6-.758-1.6-1.145 0-2.521-1.008-2.837-2.077-.203-.687-.216-13.122-.014-13.86.18-.658 1.237-1.7 1.939-1.91.743-.221 23.103-.221 23.846 0 .702.21 1.76 1.252 1.94 1.91.09.33.136 2.704.136 7.025L30 17.613l-.5.95c-.583 1.106-.609 1.34-.193 1.755.655.655 1.463.252 2.126-1.06.562-1.115.588-1.534.545-8.695l-.04-6.75-.39-.813c-.569-1.19-1.267-1.909-2.393-2.466L28.2.063 16.319.043C9.784.033 4.197.072 3.904.131m12.013 7.073c-.659.234-1.6 1.224-1.78 1.873-.088.314-.136 2.502-.136 6.204L14 21l-.594-.42c-1.111-.785-2.039-.903-3.126-.396-.762.355-1.22.8-1.544 1.504-.283.613-.306 1.74-.048 2.357.2.478 5.286 7.366 5.713 7.736.232.202.733.219 6.585.219 6.871 0 6.765.01 6.939-.682.043-.172.24-2.1.438-4.284.398-4.38.38-4.929-.196-6.105-.427-.872-1.445-1.898-2.25-2.267-.356-.163-1.832-.558-3.282-.88L20 17.2v-3.82c-.001-2.366-.053-4.009-.138-4.319-.18-.657-1.237-1.699-1.939-1.908a3.205 3.205 0 0 0-2.006.05m1.776 2.103l.307.307v4.366c0 3.974.02 4.391.219 4.634.175.213.83.405 3.281.963 1.684.383 3.231.767 3.438.853.875.367 1.5 1.187 1.69 2.219.047.254-.044 1.857-.204 3.562-.159 1.706-.291 3.256-.294 3.445l-.005.344H15.502l-2.5-3.333C10.955 23.939 10.5 23.26 10.5 22.93c0-.535.337-.923.875-1.007.394-.061.555.02 1.625.827.653.492 1.348.979 1.545 1.082.425.223.854.14 1.201-.233.249-.267.254-.414.254-7.13V9.615l.307-.307C16.5 9.113 16.757 9 17 9c.244 0 .5.113.693.307"/></g></svg>