<svg xmlns="http://www.w3.org/2000/svg" width="32" height="32" viewBox="0 0 32 32"><title>undo</title><g fill="#111" class="nc-icon-wrapper"><path fill="#111" d="M.54.126a.926.926 0 0 0-.407.359C.045.65 0 2.523 0 6.036v5.303l.306.33.307.331h10.774l.306-.33c.399-.43.399-.965 0-1.363L11.386 10H3.357l.478-.886c2.182-4.047 6.654-6.816 11.422-7.072 6.315-.34 12.019 3.566 14.05 9.62 1.947 5.796-.36 12.483-5.494 15.931-2.207 1.482-5.072 2.405-7.475 2.406-.602 0-.776.053-1.031.308-.399.398-.399.932 0 1.362.269.29.402.331 1.093.33 1.78 0 4.415-.627 6.295-1.495 2.26-1.044 4.67-2.993 6.13-4.957 5.829-7.84 3.298-19.053-5.34-23.658-4.54-2.421-10.05-2.496-14.61-.2-2.323 1.17-4.811 3.37-6.219 5.497L2 8.178V4.474C2 2.437 1.965.68 1.922.568 1.84.35 1.24-.005.975.008.885.012.69.065.539.126"/></g></svg>