<svg xmlns="http://www.w3.org/2000/svg" width="32" height="32" viewBox="0 0 32 32"><title>upload bottom</title><g fill="#111" class="nc-icon-wrapper"><path fill="#111" d="M12.284 7.284C9.409 10.159 9 10.616 9 10.954 9 11.49 9.495 12 10.018 12c.357 0 .67-.265 2.693-2.277L15 7.446V21.34l.306.33c.412.444.976.444 1.388 0l.306-.33V7.445l2.289 2.277C21.31 11.735 21.625 12 21.982 12c.523 0 1.018-.509 1.018-1.047 0-.337-.409-.794-3.284-3.67C16.687 4.256 16.4 4 16 4s-.687.255-3.716 3.284M.29 20.322c-.321.322-.322.325-.268 2.098.05 1.673.076 1.824.445 2.614.7 1.496 2.026 2.54 3.591 2.83 1.023.189 22.859.189 23.882 0 1.015-.188 1.87-.651 2.616-1.418C31.684 25.288 32 24.31 32 21.977c0-1.28-.018-1.382-.307-1.67-.406-.406-.98-.406-1.386 0-.29.289-.307.387-.307 1.704 0 .769-.068 1.629-.152 1.912-.203.687-1.238 1.722-1.925 1.925-.741.219-23.105.219-23.846 0-.687-.203-1.722-1.238-1.925-1.925C2.068 23.64 2 22.78 2 22.011c0-1.317-.018-1.415-.307-1.704-.412-.412-.98-.406-1.402.015"/></g></svg>