<svg xmlns="http://www.w3.org/2000/svg" width="32" height="32" viewBox="0 0 32 32"><title>user logout</title><g fill="#111" class="nc-icon-wrapper"><path fill="#111" d="M27.996 12.005a1 1 0 0 1-.8-1.6l1.8-2.4h-8.001a1 1 0 0 1 0-2h8l-1.8-2.4a1 1 0 0 1 1.6-1.2l3 4a.987.987 0 0 1 .184.77 1.021 1.021 0 0 1-.183.429l-3 4a1.001 1.001 0 0 1-.8.401zM6.996 32a3.003 3.003 0 0 1-3-3v-5h-1a3.003 3.003 0 0 1-3-3v-3c0-4.095 2.77-7.576 6.535-8.653a5.015 5.015 0 0 1-2.535-4.342c0-2.757 2.243-5 5-5s5 2.243 5 5a5.015 5.015 0 0 1-2.535 4.342c3.764 1.078 6.535 4.56 6.535 8.653v3a3.003 3.003 0 0 1-3 3h-1v5a3.003 3.003 0 0 1-3 3h-4zm2-21a7.008 7.008 0 0 0-7 7v3a1 1 0 0 0 1 1h2a1 1 0 0 1 1 1v6a1 1 0 0 0 1 1h4a1 1 0 0 0 1-1v-6a1 1 0 0 1 1-1h2a1 1 0 0 0 1-1v-3a7.008 7.008 0 0 0-7-7zm0-8.995c-1.655 0-3 1.346-3 3s1.345 3 3 3 3-1.345 3-3-1.345-3-3-3z"/></g></svg>