<svg xmlns="http://www.w3.org/2000/svg" width="32" height="32" viewBox="0 0 32 32"><title>view 1</title><g fill="#111" class="nc-icon-wrapper"><path fill="#111" d="M15.79 25.999c-5.778 0-11.515-4.054-14.96-7.846a3.212 3.212 0 0 1-.002-4.309C4.273 10.051 10.018 6 15.807 6l.201.001.204-.001c5.77 0 11.512 4.05 14.959 7.841a3.212 3.212 0 0 1 .002 4.311C27.725 21.947 21.977 26 16.18 26l-.199-.001h-.192zm.014-18c-5.135 0-10.337 3.712-13.493 7.186a1.213 1.213 0 0 0 .002 1.627c3.155 3.473 8.356 7.187 13.494 7.187l.174-.002.182.002c5.156 0 10.368-3.714 13.526-7.19a1.213 1.213 0 0 0-.002-1.626C26.529 11.71 21.324 8 16.189 8l-.208.001L15.804 8zm.193 13.998a5.961 5.961 0 0 1-4.242-1.758 5.953 5.953 0 0 1-1.756-4.243 6.007 6.007 0 0 1 6-5.999c1.602 0 3.109.624 4.242 1.756A5.957 5.957 0 0 1 22 15.995a5.961 5.961 0 0 1-1.759 4.246 5.961 5.961 0 0 1-4.241 1.756h-.002zm.003-10c-2.205 0-4 1.794-4 3.999 0 1.068.416 2.073 1.17 2.828A3.973 3.973 0 0 0 16 19.996c1.069 0 2.073-.416 2.828-1.17s1.172-1.76 1.172-2.829a3.97 3.97 0 0 0-1.172-2.83A3.976 3.976 0 0 0 16 11.997z"/></g></svg>