<svg xmlns="http://www.w3.org/2000/svg" viewBox="0 0 32 32" width="32" height="32"><title>view off</title><g class="nc-icon-wrapper" fill="#111111"><path d="M3.71 29a1.008 1.008 0 0 1-.72-.307.993.993 0 0 1-.28-.713.993.993 0 0 1 .309-.701l25-24a.993.993 0 0 1 1.413.029.997.997 0 0 1-.028 1.415l-25 24a1.004 1.004 0 0 1-.693.277zm12.274-2l-.147.001a14.14 14.14 0 0 1-4.182-.644 1.001 1.001 0 0 1 .297-1.954.973.973 0 0 1 .296.045c1.184.368 2.4.555 3.612.555l.332.001c5.137 0 10.341-3.715 13.5-7.19a1.213 1.213 0 0 0-.003-1.627 26.381 26.381 0 0 0-3.945-3.538.992.992 0 0 1-.399-.653 1.003 1.003 0 0 1 1.578-.963 28.467 28.467 0 0 1 4.249 3.811 3.212 3.212 0 0 1 .004 4.31c-3.448 3.795-9.193 7.849-14.983 7.849L15.984 27zM5.037 22.681a1.001 1.001 0 0 1-.613-.21 28.83 28.83 0 0 1-3.59-3.315 3.213 3.213 0 0 1-.005-4.312c3.448-3.793 9.195-7.845 14.982-7.845l.316.001c1.128 0 2.249.136 3.333.407a1 1 0 1 1-.484 1.941 11.743 11.743 0 0 0-2.839-.347h-.305c-5.15 0-10.361 3.714-13.52 7.188a1.213 1.213 0 0 0 .003 1.627 26.861 26.861 0 0 0 3.337 3.08.995.995 0 0 1 .176 1.403 1.003 1.003 0 0 1-.79.382zM11 18a1 1 0 0 1-1-1c0-1.6.624-3.105 1.757-4.24A5.953 5.953 0 0 1 15.996 11a.5.5 0 0 1 .5.499l.003 1A.498.498 0 0 1 16 13a3.973 3.973 0 0 0-2.828 1.173A3.972 3.972 0 0 0 12 17a.997.997 0 0 1-1 1zm5.001 5a.499.499 0 0 1-.5-.5l-.001-1c0-.132.052-.26.147-.353A.496.496 0 0 1 16 21a3.973 3.973 0 0 0 2.83-1.172 3.98 3.98 0 0 0 1.17-2.83 1 1 0 0 1 2 0 5.96 5.96 0 0 1-1.756 4.243A5.961 5.961 0 0 1 16.001 23z" fill="#111111"/></g></svg>