<?xml version="1.0" encoding="utf-8"?>
<!-- Generator: Adobe Illustrator 22.1.0, SVG Export Plug-In . SVG Version: 6.00 Build 0)  -->
<svg version="1.1" id="Regular" xmlns="http://www.w3.org/2000/svg" xmlns:xlink="http://www.w3.org/1999/xlink" x="0px" y="0px"
	 viewBox="0 0 24 24" style="enable-background:new 0 0 24 24;" xml:space="preserve" width="32" height="32">
<title>yoga-meditate</title>
<g>
	<path d="M12.006,7.501c-2.068,0-3.75-1.682-3.75-3.75s1.682-3.75,3.75-3.75s3.75,1.682,3.75,3.75S14.074,7.501,12.006,7.501z
		 M12.006,1.501c-1.241,0-2.25,1.009-2.25,2.25s1.009,2.25,2.25,2.25s2.25-1.009,2.25-2.25S13.247,1.501,12.006,1.501z"/>
	<path d="M13.494,24.001c-0.334,0-0.657-0.073-0.963-0.218l-6.1-2.891c-0.544-0.258-0.954-0.712-1.156-1.279
		c-0.202-0.567-0.171-1.178,0.087-1.722c0.258-0.543,0.712-0.954,1.279-1.156c0.245-0.087,0.5-0.132,0.757-0.132
		c0.293,0,0.578,0.056,0.85,0.168V14.68C7.674,14.893,7.073,15,6.454,15l-0.057,0c-0.13,0.01-0.26,0.015-0.39,0.015
		c-1.604,0-3.097-0.719-4.097-1.973c-0.014-0.017-0.026-0.034-0.037-0.052c-0.334-0.5-0.453-1.1-0.335-1.689
		c0.118-0.589,0.458-1.098,0.957-1.432c0.373-0.249,0.805-0.38,1.25-0.38c0.678,0,1.307,0.299,1.736,0.821
		c0.202,0.132,0.434,0.202,0.675,0.202c0.046,0,0.091-0.002,0.137-0.008c0.028-0.003,0.055-0.004,0.082-0.004
		c0.302,0,0.565-0.204,1.043-0.596C8.276,9.202,9.437,8.25,11.884,8.25l0.241,0c2.46,0,3.626,0.956,4.477,1.654
		c0.478,0.392,0.741,0.596,1.043,0.596c0.027,0,0.055,0.001,0.081,0.004c0.045,0.005,0.091,0.007,0.136,0.007
		c0.244,0,0.478-0.07,0.681-0.204c0.355-0.424,0.849-0.701,1.399-0.781c0.109-0.016,0.22-0.024,0.329-0.024
		c0.486,0,0.949,0.154,1.341,0.446c0.951,0.709,1.188,2.042,0.54,3.034c-0.012,0.019-0.026,0.037-0.04,0.056
		c-1.001,1.256-2.494,1.976-4.098,1.976c0,0,0,0,0,0c-0.131,0-0.262-0.005-0.394-0.015l-0.044,0c-0.621,0-1.242-0.111-1.823-0.324
		v1.865c0.139-0.026,0.277-0.039,0.417-0.039c0.976,0,1.835,0.621,2.139,1.545c0.188,0.57,0.141,1.18-0.13,1.717
		c-0.271,0.537-0.735,0.936-1.305,1.123c-0.075,0.025-0.155,0.038-0.235,0.038c-0.324,0-0.61-0.208-0.712-0.516
		c-0.062-0.19-0.047-0.393,0.043-0.572c0.09-0.179,0.245-0.312,0.435-0.374c0.191-0.063,0.345-0.196,0.436-0.374
		c0.09-0.179,0.105-0.382,0.043-0.573c-0.102-0.308-0.388-0.516-0.714-0.516c-0.079,0-0.157,0.012-0.233,0.037l-0.676,0.248
		c-0.083,0.031-0.17,0.046-0.258,0.046c-0.154,0-0.303-0.047-0.429-0.135c-0.2-0.14-0.32-0.37-0.32-0.615v-4.132
		c0-0.28,0.154-0.534,0.401-0.664c0.106-0.056,0.227-0.086,0.349-0.086c0.152,0,0.299,0.045,0.425,0.132
		c0.636,0.438,1.38,0.669,2.152,0.669l0.056,0l0.064,0.002c0.111,0.009,0.213,0.013,0.315,0.013c1.13,0,2.185-0.502,2.898-1.378
		c0.195-0.327,0.111-0.756-0.197-0.985c-0.13-0.097-0.284-0.148-0.447-0.148c-0.24,0-0.46,0.11-0.603,0.301
		c-0.043,0.057-0.092,0.107-0.148,0.149c-0.481,0.365-1.053,0.557-1.655,0.557c-0.086,0-0.173-0.004-0.26-0.012
		c-0.83-0.015-1.4-0.483-1.951-0.935c-0.757-0.621-1.603-1.316-3.49-1.316c-0.046,0-0.092,0-0.139,0.001l-0.11,0
		c-1.938,0-2.79,0.698-3.541,1.315C7.819,11.517,7.248,11.985,6.418,12c-0.088,0.008-0.175,0.012-0.262,0.012
		c-0.601,0-1.172-0.193-1.653-0.558c-0.059-0.045-0.11-0.097-0.153-0.156c-0.143-0.197-0.364-0.309-0.606-0.309
		c-0.148,0-0.292,0.044-0.417,0.127c-0.167,0.111-0.28,0.281-0.319,0.477c-0.037,0.187-0.003,0.378,0.097,0.54
		c0.714,0.878,1.768,1.381,2.897,1.381c0.102,0,0.205-0.004,0.308-0.013C6.332,13.5,6.351,13.5,6.371,13.5l0.048,0
		c0.778,0,1.522-0.23,2.15-0.667C8.695,12.746,8.843,12.7,8.997,12.7c0.121,0,0.241,0.03,0.348,0.085
		c0.248,0.13,0.402,0.385,0.402,0.665v4.508c0,0.259-0.131,0.496-0.35,0.635c-0.12,0.075-0.259,0.115-0.4,0.115
		c-0.111,0-0.223-0.025-0.323-0.073l-0.957-0.457c-0.101-0.048-0.208-0.073-0.319-0.073c-0.086,0-0.171,0.015-0.254,0.044
		c-0.189,0.067-0.341,0.205-0.427,0.386c-0.086,0.182-0.096,0.385-0.029,0.575c0.067,0.189,0.204,0.341,0.386,0.427l6.1,2.891
		c0.102,0.048,0.21,0.073,0.321,0.073c0.085,0,0.171-0.015,0.253-0.044c0.189-0.067,0.34-0.204,0.426-0.385s0.096-0.385,0.029-0.573
		c-0.067-0.189-0.204-0.34-0.385-0.426l-2.44-1.156c-0.181-0.086-0.318-0.237-0.385-0.426s-0.057-0.392,0.029-0.573
		c0.123-0.26,0.389-0.429,0.678-0.429c0.112,0,0.22,0.024,0.321,0.073l2.44,1.156c0.543,0.257,0.953,0.711,1.156,1.277
		c0.202,0.566,0.171,1.177-0.086,1.72c-0.257,0.543-0.711,0.953-1.277,1.156C14.006,23.957,13.751,24.001,13.494,24.001z"/>
</g>
</svg>
