<svg xmlns="http://www.w3.org/2000/svg" width="32" height="32" viewBox="0 0 32 32"><title>zip file</title><g fill="#111" class="nc-icon-wrapper"><path fill="#111" d="M4.001.163c-.633.204-1.697 1.288-1.863 1.9-.205.751-.192 27.163.014 27.86.203.687 1.238 1.722 1.925 1.925.741.219 23.105.219 23.846 0 .726-.214 1.732-1.242 1.933-1.973.118-.432.145-3.274.118-12.25C29.939 6.441 29.927 5.919 29.7 5.5c-.33-.616-4.395-4.703-5.075-5.105l-.563-.333-9.812-.02C7.278.029 4.311.064 4.001.164m5.817 2.243c-.19 1.14-.443 3.48-.443 4.1 0 1.971 1.871 3.642 3.875 3.46 1.955-.176 3.375-1.66 3.375-3.525 0-.568-.26-2.941-.444-4.035L16.114 2h7.44l2.223 2.223L28 6.445v22.893l-.306.331-.307.331H4.613l-.307-.33L4 29.337V2.614l.307-.307C4.613 2 4.617 2 7.25 2h2.636l-.067.406m4.346.063c.04.258.17 1.297.29 2.31.206 1.728.206 1.867.009 2.281-.585 1.226-2.343 1.226-2.928 0-.197-.414-.197-.553.008-2.282.12-1.012.252-2.051.291-2.31L11.907 2h2.186l.072.469m-2.136 9.959c-.423.388-.466.488-.466 1.072 0 .584.043.684.466 1.072.37.34.572.428.971.428.4 0 .6-.089.97-.428.424-.388.467-.488.467-1.072 0-.584-.043-.684-.466-1.072-.37-.34-.572-.428-.971-.428-.4 0-.6.089-.97.428m0 6c-.424.388-.467.488-.467 1.072 0 .584.043.684.466 1.072.37.34.572.428.971.428.4 0 .6-.089.97-.428.424-.388.467-.488.467-1.072 0-.584-.043-.684-.466-1.072-.37-.34-.572-.428-.971-.428-.4 0-.6.089-.97.428m0 6c-.424.388-.467.488-.467 1.072 0 .584.043.684.466 1.072.37.34.572.428.971.428.4 0 .6-.089.97-.428.424-.388.467-.488.467-1.072 0-.584-.043-.684-.466-1.072-.37-.34-.572-.428-.971-.428-.4 0-.6.089-.97.428"/></g></svg>