<svg width="16" height="16" viewBox="0 0 16 16" fill="none" xmlns="http://www.w3.org/2000/svg">
<g clip-path="url(#clip0_1333_18968)">
<path d="M9.33325 2.6665H13.3333V6.6665H9.33325V2.6665Z" stroke="#1B1B1B" stroke-linecap="round" stroke-linejoin="round"/>
<path d="M2.66675 9.3335H6.66675V13.3335H2.66675V9.3335Z" stroke="#1B1B1B" stroke-linecap="round" stroke-linejoin="round"/>
<path d="M9.33325 11.3335C9.33325 11.8639 9.54397 12.3726 9.91904 12.7477C10.2941 13.1228 10.8028 13.3335 11.3333 13.3335C11.8637 13.3335 12.3724 13.1228 12.7475 12.7477C13.1225 12.3726 13.3333 11.8639 13.3333 11.3335C13.3333 10.8031 13.1225 10.2944 12.7475 9.91928C12.3724 9.54421 11.8637 9.3335 11.3333 9.3335C10.8028 9.3335 10.2941 9.54421 9.91904 9.91928C9.54397 10.2944 9.33325 10.8031 9.33325 11.3335Z" stroke="#1B1B1B" stroke-linecap="round" stroke-linejoin="round"/>
<path d="M2.66675 4.6665C2.66675 4.92915 2.71848 5.18922 2.81899 5.43187C2.9195 5.67452 3.06682 5.895 3.25253 6.08072C3.43825 6.26643 3.65873 6.41375 3.90138 6.51426C4.14403 6.61477 4.4041 6.6665 4.66675 6.6665C4.92939 6.6665 5.18946 6.61477 5.43212 6.51426C5.67477 6.41375 5.89524 6.26643 6.08096 6.08072C6.26668 5.895 6.414 5.67452 6.51451 5.43187C6.61502 5.18922 6.66675 4.92915 6.66675 4.6665C6.66675 4.40386 6.61502 4.14379 6.51451 3.90114C6.414 3.65849 6.26668 3.43801 6.08096 3.25229C5.89524 3.06657 5.67477 2.91925 5.43212 2.81874C5.18946 2.71824 4.92939 2.6665 4.66675 2.6665C4.4041 2.6665 4.14403 2.71824 3.90138 2.81874C3.65873 2.91925 3.43825 3.06657 3.25253 3.25229C3.06682 3.43801 2.9195 3.65849 2.81899 3.90114C2.71848 4.14379 2.66675 4.40386 2.66675 4.6665Z" stroke="#1B1B1B" stroke-linecap="round" stroke-linejoin="round"/>
</g>
<defs>
<clipPath id="clip0_1333_18968">
<rect width="16" height="16" fill="white"/>
</clipPath>
</defs>
</svg>
