<svg xmlns="http://www.w3.org/2000/svg" width="21" height="21" fill="none" viewBox="0 0 21 21"><g clip-path="url(#clip0_1351_19291)"><path stroke="#1B1B1B" stroke-linecap="round" stroke-linejoin="round" stroke-width="1.313" d="M3.9375 6.15608C3.9375 7.38147 6.58648 8.37466 9.85371 8.37466C13.1209 8.37466 15.7699 7.38147 15.7699 6.15608C15.7699 4.93068 13.1209 3.9375 9.85371 3.9375C6.58648 3.9375 3.9375 4.93068 3.9375 6.15608Z"/><path stroke="#1B1B1B" stroke-linecap="round" stroke-linejoin="round" stroke-width="1.313" d="M3.9375 6.15625V10.5934C3.9375 11.8188 6.03175 12.812 9.29898 12.812"/><path stroke="#1B1B1B" stroke-linecap="round" stroke-linejoin="round" stroke-width="1.313" d="M3.9375 10.5933V15.0304C3.9375 16.2558 6.58648 17.249 9.85371 17.249"/><path stroke="#1B1B1B" stroke-linecap="round" stroke-linejoin="round" stroke-width="1.313" d="M12.059 13.4583C11.7681 13.4583 11.4892 13.5738 11.2836 13.7794C11.0779 13.9851 10.9624 14.264 10.9624 14.5548C10.9624 14.8456 11.0779 15.1246 11.2836 15.3302C11.4892 15.5358 11.7681 15.6514 12.059 15.6514C12.3498 15.6514 12.6287 15.5358 12.8343 15.3302C13.04 15.1246 13.1555 14.8456 13.1555 14.5548C13.1555 14.264 13.04 13.9851 12.8343 13.7794C12.6287 13.5738 12.3498 13.4583 12.059 13.4583Z"/><path stroke="#1B1B1B" stroke-linecap="round" stroke-linejoin="round" stroke-width="1.313" d="M16.5214 16.074C16.2305 16.074 15.9516 16.1895 15.746 16.3952C15.5403 16.6008 15.4248 16.8797 15.4248 17.1705C15.4248 17.4614 15.5403 17.7403 15.746 17.9459C15.9516 18.1516 16.2305 18.2671 16.5214 18.2671C16.8122 18.2671 17.0911 18.1516 17.2967 17.9459C17.5024 17.7403 17.6179 17.4614 17.6179 17.1705C17.6179 16.8797 17.5024 16.6008 17.2967 16.3952C17.0911 16.1895 16.8122 16.074 16.5214 16.074Z"/><path stroke="#1B1B1B" stroke-linecap="round" stroke-linejoin="round" stroke-width="1.313" d="M16.3656 10.5933C16.0748 10.5933 15.7959 10.7088 15.5902 10.9144C15.3846 11.1201 15.269 11.399 15.269 11.6898C15.269 11.9806 15.3846 12.2596 15.5902 12.4652C15.7959 12.6708 16.0748 12.7864 16.3656 12.7864C16.6564 12.7864 16.9353 12.6708 17.141 12.4652C17.3466 12.2596 17.4621 11.9806 17.4621 11.6898C17.4621 11.399 17.3466 11.1201 17.141 10.9144C16.9353 10.7088 16.6564 10.5933 16.3656 10.5933Z"/><path stroke="#1B1B1B" stroke-linecap="round" stroke-linejoin="round" stroke-width="1.313" d="M15.5528 16.6516L13.0286 15.0742"/><path stroke="#1B1B1B" stroke-linecap="round" stroke-linejoin="round" stroke-width="1.313" d="M12.9512 13.9102L15.4787 12.3306"/></g><defs><clipPath id="clip0_1351_19291"><rect width="21" height="21" fill="#fff"/></clipPath></defs></svg>