<svg width="66" height="66" viewBox="0 0 66 66" fill="none" xmlns="http://www.w3.org/2000/svg">
<g clip-path="url(#clip0_4696_9490)">
<path d="M8.625 27.5833C8.625 30.073 9.11537 32.5382 10.0681 34.8384C11.0209 37.1385 12.4173 39.2285 14.1778 40.9889C15.9382 42.7493 18.0282 44.1458 20.3283 45.0986C22.6284 46.0513 25.0937 46.5417 27.5833 46.5417C30.073 46.5417 32.5382 46.0513 34.8384 45.0986C37.1385 44.1458 39.2285 42.7493 40.9889 40.9889C42.7493 39.2285 44.1458 37.1385 45.0986 34.8384C46.0513 32.5382 46.5417 30.073 46.5417 27.5833C46.5417 25.0937 46.0513 22.6284 45.0986 20.3283C44.1458 18.0282 42.7493 15.9382 40.9889 14.1778C39.2285 12.4173 37.1385 11.0209 34.8384 10.0681C32.5382 9.11537 30.073 8.625 27.5833 8.625C25.0937 8.625 22.6284 9.11537 20.3283 10.0681C18.0282 11.0209 15.9382 12.4173 14.1778 14.1778C12.4173 15.9382 11.0209 18.0282 10.0681 20.3283C9.11537 22.6284 8.625 25.0937 8.625 27.5833Z" stroke="#96C4D4" stroke-width="5.79" stroke-linecap="round" stroke-linejoin="round"/>
<path d="M57.375 57.375L41.125 41.125" stroke="#96C4D4" stroke-width="5.79" stroke-linecap="round" stroke-linejoin="round"/>
</g>
<defs>
<clipPath id="clip0_4696_9490">
<rect width="65" height="65" fill="white" transform="translate(0.5 0.5)"/>
</clipPath>
</defs>
</svg>
