<svg width="21" height="22" viewBox="0 0 21 22" fill="none" xmlns="http://www.w3.org/2000/svg">
<g clip-path="url(#clip0_1229_13045)">
<path d="M2.625 9.25C2.625 10.0543 2.78343 10.8508 3.09124 11.5939C3.39905 12.3371 3.85021 13.0123 4.41897 13.581C4.98773 14.1498 5.66295 14.601 6.40606 14.9088C7.14918 15.2166 7.94565 15.375 8.75 15.375C9.55435 15.375 10.3508 15.2166 11.0939 14.9088C11.8371 14.601 12.5123 14.1498 13.081 13.581C13.6498 13.0123 14.101 12.3371 14.4088 11.5939C14.7166 10.8508 14.875 10.0543 14.875 9.25C14.875 8.44565 14.7166 7.64918 14.4088 6.90606C14.101 6.16295 13.6498 5.48773 13.081 4.91897C12.5123 4.35021 11.8371 3.89905 11.0939 3.59124C10.3508 3.28343 9.55435 3.125 8.75 3.125C7.94565 3.125 7.14918 3.28343 6.40606 3.59124C5.66295 3.89905 4.98773 4.35021 4.41897 4.91897C3.85021 5.48773 3.39905 6.16295 3.09124 6.90606C2.78343 7.64918 2.625 8.44565 2.625 9.25Z" stroke="#757575" stroke-width="0.875" stroke-linecap="round" stroke-linejoin="round"/>
<path d="M18.375 18.875L13.125 13.625" stroke="#757575" stroke-width="0.875" stroke-linecap="round" stroke-linejoin="round"/>
</g>
<defs>
<clipPath id="clip0_1229_13045">
<rect width="21" height="21" fill="white" transform="translate(0 0.5)"/>
</clipPath>
</defs>
</svg>
