<svg width="62" height="65" viewBox="0 0 62 65" fill="none" xmlns="http://www.w3.org/2000/svg">
<g clip-path="url(#clip0_1528_3706)">
<path d="M7.78638 27.0838C7.78638 29.5735 8.2534 32.0387 9.16077 34.3389C10.0682 36.639 11.3981 38.7289 13.0747 40.4894C14.7513 42.2498 16.7418 43.6463 18.9324 44.599C21.123 45.5518 23.4708 46.0422 25.8419 46.0422C28.213 46.0422 30.5609 45.5518 32.7515 44.599C34.9421 43.6463 36.9325 42.2498 38.6091 40.4894C40.2857 38.7289 41.6157 36.639 42.5231 34.3389C43.4305 32.0387 43.8975 29.5735 43.8975 27.0838C43.8975 24.5942 43.4305 22.1289 42.5231 19.8288C41.6157 17.5287 40.2857 15.4387 38.6091 13.6783C36.9325 11.9178 34.9421 10.5214 32.7515 9.56861C30.5609 8.61586 28.213 8.12549 25.8419 8.12549C23.4708 8.12549 21.123 8.61586 18.9324 9.56861C16.7418 10.5214 14.7513 11.9178 13.0747 13.6783C11.3981 15.4387 10.0682 17.5287 9.16077 19.8288C8.2534 22.1289 7.78638 24.5942 7.78638 27.0838Z" stroke="#96C4D4" stroke-width="5.78767" stroke-linecap="round" stroke-linejoin="round"/>
<path d="M54.2147 56.8749L38.7385 40.6249" stroke="#96C4D4" stroke-width="5.78767" stroke-linecap="round" stroke-linejoin="round"/>
</g>
<defs>
<clipPath id="clip0_1528_3706">
<rect width="61.9048" height="65" fill="white" transform="translate(0.0476074)"/>
</clipPath>
</defs>
</svg>
