<svg xmlns="http://www.w3.org/2000/svg" width="62" height="65" fill="none" viewBox="0 0 62 65"><g clip-path="url(#clip0_1528_3751)"><path stroke="#96C4D4" stroke-linecap="round" stroke-linejoin="round" stroke-width="5.788" d="M13.0453 13.709C11.3703 15.4713 10.0422 17.5628 9.13703 19.864C8.23182 22.1652 7.76715 24.6311 7.76954 27.1209C7.77438 32.1492 9.68139 36.9696 13.0711 40.5215C16.4607 44.0735 21.0554 46.0661 25.8443 46.061C30.6331 46.056 35.2239 44.0536 38.6068 40.4944M42.6925 33.9024C43.951 30.4804 44.2371 26.7487 43.5159 23.1594C42.7948 19.5702 41.0975 16.2778 38.6298 13.6812C36.1621 11.0847 33.03 9.29562 29.6132 8.53092C26.1965 7.76621 22.6418 8.05872 19.3802 9.37299"/><path stroke="#96C4D4" stroke-linecap="round" stroke-linejoin="round" stroke-width="5.788" d="M7.78662 8.12549L54.2152 56.8755"/></g><defs><clipPath id="clip0_1528_3751"><rect width="61.905" height="65" fill="#fff" transform="translate(0.0478516)"/></clipPath></defs></svg>