<svg width="21" height="21" viewBox="0 0 21 21" fill="none" xmlns="http://www.w3.org/2000/svg">
<g clip-path="url(#clip0_1351_19298)">
<path d="M9.62524 10.5H18.3752" stroke="#1B1B1B" stroke-width="1.3125" stroke-linecap="round" stroke-linejoin="round"/>
<path d="M15.75 7.875L18.375 10.5L15.75 13.125" stroke="#1B1B1B" stroke-width="1.3125" stroke-linecap="round" stroke-linejoin="round"/>
<path d="M6.125 10.5C6.125 10.9641 5.94063 11.4092 5.61244 11.7374C5.28425 12.0656 4.83913 12.25 4.375 12.25C3.91087 12.25 3.46575 12.0656 3.13756 11.7374C2.80937 11.4092 2.625 10.9641 2.625 10.5C2.625 10.0359 2.80937 9.59075 3.13756 9.26256C3.46575 8.93437 3.91087 8.75 4.375 8.75C4.83913 8.75 5.28425 8.93437 5.61244 9.26256C5.94063 9.59075 6.125 10.0359 6.125 10.5Z" stroke="#1B1B1B" stroke-width="1.3125" stroke-linecap="round" stroke-linejoin="round"/>
</g>
<defs>
<clipPath id="clip0_1351_19298">
<rect width="21" height="21" fill="white"/>
</clipPath>
</defs>
</svg>
