<svg width="21" height="21" viewBox="0 0 21 21" fill="none" xmlns="http://www.w3.org/2000/svg">
<g clip-path="url(#clip0_1351_19312)">
<path d="M4.37524 6.125C4.37524 7.05326 4.74399 7.9435 5.40037 8.59987C6.05675 9.25625 6.94699 9.625 7.87524 9.625C8.8035 9.625 9.69374 9.25625 10.3501 8.59987C11.0065 7.9435 11.3752 7.05326 11.3752 6.125C11.3752 5.19674 11.0065 4.3065 10.3501 3.65013C9.69374 2.99375 8.8035 2.625 7.87524 2.625C6.94699 2.625 6.05675 2.99375 5.40037 3.65013C4.74399 4.3065 4.37524 5.19674 4.37524 6.125Z" stroke="#1B1B1B" stroke-width="1.3125" stroke-linecap="round" stroke-linejoin="round"/>
<path d="M2.625 18.375V16.625C2.625 15.6967 2.99375 14.8065 3.65013 14.1501C4.3065 13.4937 5.19674 13.125 6.125 13.125H9.625C10.5533 13.125 11.4435 13.4937 12.0999 14.1501C12.7563 14.8065 13.125 15.6967 13.125 16.625V18.375" stroke="#1B1B1B" stroke-width="1.3125" stroke-linecap="round" stroke-linejoin="round"/>
<path d="M13.9998 2.73877C14.7526 2.93153 15.4199 3.36938 15.8964 3.98329C16.373 4.5972 16.6316 5.35225 16.6316 6.12939C16.6316 6.90654 16.373 7.66159 15.8964 8.2755C15.4199 8.88941 14.7526 9.32726 13.9998 9.52002" stroke="#1B1B1B" stroke-width="1.3125" stroke-linecap="round" stroke-linejoin="round"/>
<path d="M18.375 18.3751V16.6251C18.3706 15.8526 18.1107 15.1033 17.6359 14.4939C17.161 13.8846 16.498 13.4495 15.75 13.2563" stroke="#1B1B1B" stroke-width="1.3125" stroke-linecap="round" stroke-linejoin="round"/>
</g>
<defs>
<clipPath id="clip0_1351_19312">
<rect width="21" height="21" fill="white"/>
</clipPath>
</defs>
</svg>
