<svg xmlns="http://www.w3.org/2000/svg" width="62" height="65" fill="none" viewBox="0 0 62 65"><g clip-path="url(#clip0_4442_15980)"><path stroke="#96C4D4" stroke-linecap="round" stroke-linejoin="round" stroke-width="5.79" d="M33.5795 46.0417H10.3652C11.7708 45.2059 12.9699 44.0353 13.8659 42.6241C14.7619 41.2129 15.3299 39.6005 15.524 37.9167V29.7917C15.6776 26.355 16.719 23.027 18.5365 20.1644C20.3541 17.3017 22.8793 15.0124 25.8414 13.5417C25.8414 12.1051 26.3849 10.7273 27.3524 9.7115C28.3198 8.69568 29.632 8.125 31.0002 8.125C32.3683 8.125 33.6805 8.69568 34.6479 9.7115C35.6154 10.7273 36.1589 12.1051 36.1589 13.5417C39.121 15.0124 41.6462 17.3017 43.4638 20.1644C45.2813 23.027 46.3227 26.355 46.4763 29.7917V35.2083"/><path stroke="#96C4D4" stroke-linecap="round" stroke-linejoin="round" stroke-width="5.79" d="M23.2622 46.0417V48.7501C23.2618 50.0979 23.5808 51.4246 24.1904 52.6107C24.7999 53.7969 25.6809 54.8051 26.754 55.5447C27.8271 56.2843 29.0585 56.732 30.3374 56.8475C31.6163 56.963 32.9025 56.7425 34.0801 56.2061"/><path stroke="#96C4D4" stroke-linecap="round" stroke-linejoin="round" stroke-width="5.79" d="M56.7938 59.5834L43.897 46.0417"/><path stroke="#96C4D4" stroke-linecap="round" stroke-linejoin="round" stroke-width="5.79" d="M43.897 59.5834L56.7938 46.0417"/></g><defs><clipPath id="clip0_4442_15980"><rect width="61.905" height="65" fill="#fff" transform="translate(0.0478516)"/></clipPath></defs></svg>