<svg xmlns="http://www.w3.org/2000/svg" width="21" height="21" fill="none" viewBox="0 0 21 21"><g clip-path="url(#clip0_3038_14712)"><path stroke="#1B1B1B" stroke-linecap="round" stroke-linejoin="round" stroke-width="1.313" d="M4.375 6.125H5.25C5.71413 6.125 6.15925 5.94063 6.48744 5.61244C6.81563 5.28425 7 4.83913 7 4.375C7 4.14294 7.09219 3.92038 7.25628 3.75628C7.42038 3.59219 7.64294 3.5 7.875 3.5H13.125C13.3571 3.5 13.5796 3.59219 13.7437 3.75628C13.9078 3.92038 14 4.14294 14 4.375C14 4.83913 14.1844 5.28425 14.5126 5.61244C14.8408 5.94063 15.2859 6.125 15.75 6.125H16.625C17.0891 6.125 17.5342 6.30937 17.8624 6.63756C18.1906 6.96575 18.375 7.41087 18.375 7.875V15.75C18.375 16.2141 18.1906 16.6592 17.8624 16.9874C17.5342 17.3156 17.0891 17.5 16.625 17.5H4.375C3.91087 17.5 3.46575 17.3156 3.13756 16.9874C2.80937 16.6592 2.625 16.2141 2.625 15.75V7.875C2.625 7.41087 2.80937 6.96575 3.13756 6.63756C3.46575 6.30937 3.91087 6.125 4.375 6.125Z"/><path stroke="#1B1B1B" stroke-linecap="round" stroke-linejoin="round" stroke-width="1.313" d="M7.875 11.375C7.875 12.0712 8.15156 12.7389 8.64384 13.2312C9.13613 13.7234 9.80381 14 10.5 14C11.1962 14 11.8639 13.7234 12.3562 13.2312C12.8484 12.7389 13.125 12.0712 13.125 11.375C13.125 10.6788 12.8484 10.0111 12.3562 9.51884C11.8639 9.02656 11.1962 8.75 10.5 8.75C9.80381 8.75 9.13613 9.02656 8.64384 9.51884C8.15156 10.0111 7.875 10.6788 7.875 11.375Z"/></g><defs><clipPath id="clip0_3038_14712"><rect width="21" height="21" fill="#fff"/></clipPath></defs></svg>