<svg width="16" height="17" viewBox="0 0 16 17" fill="none" xmlns="http://www.w3.org/2000/svg">
<g clip-path="url(#clip0_4969_7161)">
<path d="M6.38658 4.19875C6.54658 4.12542 6.71458 4.06075 6.88792 4.00809C8.14125 3.62675 9.52525 3.87942 10.5173 4.67475C11.5093 5.46809 11.9586 6.67942 11.6973 7.85409H12.3573C13.6326 7.85409 14.6666 8.89409 14.6666 10.1781C14.6666 10.8161 14.4113 11.3941 13.9979 11.8141M11.9999 12.5028H4.43792C2.72325 12.5001 1.33325 11.1621 1.33325 9.51142C1.33325 7.86142 2.72325 6.52342 4.43792 6.52342C4.52459 6.13542 4.68458 5.77142 4.90458 5.44342" stroke="#858585" stroke-linecap="round" stroke-linejoin="round"/>
<path d="M2 2.5L14 14.5" stroke="#858585" stroke-linecap="round" stroke-linejoin="round"/>
</g>
<defs>
<clipPath id="clip0_4969_7161">
<rect width="16" height="16" fill="white" transform="translate(0 0.5)"/>
</clipPath>
</defs>
</svg>
