<svg xmlns="http://www.w3.org/2000/svg" width="21" height="22" fill="none" viewBox="0 0 21 22"><g clip-path="url(#clip0_3448_9507)"><path stroke="#1B1B1B" stroke-linecap="round" stroke-linejoin="round" stroke-width=".998" d="M13.125 7.5H13.1332"/><path stroke="#1B1B1B" stroke-linecap="round" stroke-linejoin="round" stroke-width=".998" d="M2.625 5.75C2.625 5.05381 2.90156 4.38613 3.39384 3.89384C3.88613 3.40156 4.55381 3.125 5.25 3.125H15.75C16.4462 3.125 17.1139 3.40156 17.6062 3.89384C18.0984 4.38613 18.375 5.05381 18.375 5.75V16.25C18.375 16.9462 18.0984 17.6139 17.6062 18.1062C17.1139 18.5984 16.4462 18.875 15.75 18.875H5.25C4.55381 18.875 3.88613 18.5984 3.39384 18.1062C2.90156 17.6139 2.625 16.9462 2.625 16.25V5.75Z"/><path stroke="#1B1B1B" stroke-linecap="round" stroke-linejoin="round" d="M2.625 14.5001L7 10.1251C7.812 9.34372 8.813 9.34372 9.625 10.1251L14 14.5001"/><path stroke="#1B1B1B" stroke-linecap="round" stroke-linejoin="round" d="M12.25 12.7501L13.125 11.8751C13.937 11.0937 14.938 11.0937 15.75 11.8751L18.375 14.5001"/></g><defs><clipPath id="clip0_3448_9507"><rect width="21" height="21" fill="#fff" transform="translate(0 0.5)"/></clipPath></defs></svg>