<svg xmlns="http://www.w3.org/2000/svg" width="21" height="22" fill="none" viewBox="0 0 21 22"><g clip-path="url(#clip0_3081_16219)"><path stroke="#1B1B1B" stroke-linecap="round" stroke-linejoin="round" stroke-width="1.313" d="M4.375 11.875C4.375 11.4109 4.55937 10.9658 4.88756 10.6376C5.21575 10.3094 5.66087 10.125 6.125 10.125H14.875C15.3391 10.125 15.7842 10.3094 16.1124 10.6376C16.4406 10.9658 16.625 11.4109 16.625 11.875V17.125C16.625 17.5891 16.4406 18.0342 16.1124 18.3624C15.7842 18.6906 15.3391 18.875 14.875 18.875H6.125C5.66087 18.875 5.21575 18.6906 4.88756 18.3624C4.55937 18.0342 4.375 17.5891 4.375 17.125V11.875Z"/><path fill="#1B1B1B" stroke="#1B1B1B" stroke-linecap="round" stroke-linejoin="round" stroke-width="1.313" d="M9.625 14.5C9.625 14.7321 9.71719 14.9546 9.88128 15.1187C10.0454 15.2828 10.2679 15.375 10.5 15.375C10.7321 15.375 10.9546 15.2828 11.1187 15.1187C11.2828 14.9546 11.375 14.7321 11.375 14.5C11.375 14.2679 11.2828 14.0454 11.1187 13.8813C10.9546 13.7172 10.7321 13.625 10.5 13.625C10.2679 13.625 10.0454 13.7172 9.88128 13.8813C9.71719 14.0454 9.625 14.2679 9.625 14.5Z"/><path stroke="#1B1B1B" stroke-linecap="round" stroke-linejoin="round" stroke-width="1.313" d="M7 10.125V6.625C7 5.69674 7.36875 4.8065 8.02513 4.15013C8.6815 3.49375 9.57174 3.125 10.5 3.125C11.4283 3.125 12.3185 3.49375 12.9749 4.15013C13.6313 4.8065 14 5.69674 14 6.625V10.125"/></g><defs><clipPath id="clip0_3081_16219"><rect width="21" height="21" fill="#fff" transform="translate(0 0.5)"/></clipPath></defs></svg>