<svg xmlns="http://www.w3.org/2000/svg" width="21" height="22" fill="none" viewBox="0 0 21 22"><g clip-path="url(#clip0_3081_16185)"><path stroke="#1B1B1B" stroke-linecap="round" stroke-linejoin="round" stroke-width="1.313" d="M7 6.625C7 7.55326 7.36875 8.4435 8.02513 9.09987C8.6815 9.75625 9.57174 10.125 10.5 10.125C11.4283 10.125 12.3185 9.75625 12.9749 9.09987C13.6313 8.4435 14 7.55326 14 6.625C14 5.69674 13.6313 4.8065 12.9749 4.15013C12.3185 3.49375 11.4283 3.125 10.5 3.125C9.57174 3.125 8.6815 3.49375 8.02513 4.15013C7.36875 4.8065 7 5.69674 7 6.625Z"/><path stroke="#1B1B1B" stroke-linecap="round" stroke-linejoin="round" stroke-width="1.313" d="M5.25 18.875V17.125C5.25 16.1967 5.61875 15.3065 6.27513 14.6501C6.9315 13.9937 7.82174 13.625 8.75 13.625H12.25C13.1783 13.625 14.0685 13.9937 14.7249 14.6501C15.3813 15.3065 15.75 16.1967 15.75 17.125V18.875"/></g><defs><clipPath id="clip0_3081_16185"><rect width="21" height="21" fill="#fff" transform="translate(0 0.5)"/></clipPath></defs></svg>