<svg width="62" height="65" viewBox="0 0 62 65" fill="none" xmlns="http://www.w3.org/2000/svg">
<g clip-path="url(#clip0_2692_4951)">
<path d="M36.1587 21.6667V16.25C36.1587 14.8134 35.6152 13.4357 34.6477 12.4198C33.6803 11.404 32.3681 10.8333 30.9999 10.8333H12.9444C11.5762 10.8333 10.2641 11.404 9.2966 12.4198C8.32915 13.4357 7.78564 14.8134 7.78564 16.25V48.75C7.78564 50.1866 8.32915 51.5643 9.2966 52.5802C10.2641 53.596 11.5762 54.1667 12.9444 54.1667H30.9999C32.3681 54.1667 33.6803 53.596 34.6477 52.5802C35.6152 51.5643 36.1587 50.1866 36.1587 48.75V43.3333" stroke="#96C4D4" stroke-width="5.79" stroke-linecap="round" stroke-linejoin="round"/>
<path d="M51.635 32.5H18.1033M18.1033 32.5L25.8414 24.375M18.1033 32.5L25.8414 40.625" stroke="#96C4D4" stroke-width="5.79" stroke-linecap="round" stroke-linejoin="round"/>
</g>
<defs>
<clipPath id="clip0_2692_4951">
<rect width="61.9048" height="65" fill="white" transform="translate(0.0476074)"/>
</clipPath>
</defs>
</svg>
