<svg xmlns="http://www.w3.org/2000/svg" width="106" height="16" fill="none" viewBox="0 0 106 16"><g clip-path="url(#clip0_320_2259)"><path fill="#2C2C2C" d="M26.0596 0.250977H25.0222C24.452 0.250977 24.0786 0.529134 23.902 1.08545C23.73 1.63494 22.8578 4.37043 22.7533 4.70319C22.5019 5.50524 21.7681 7.66053 21.7681 7.66053H21.618C21.618 7.66053 20.8858 5.50524 20.6328 4.70319C20.5282 4.37043 19.6561 1.63494 19.484 1.08545C19.3097 0.529134 18.9363 0.250977 18.3639 0.250977H17.3264L19.9985 8.00012L17.3264 15.7493H18.3639C18.9341 15.7493 19.3074 15.4711 19.484 14.9148C19.6561 14.3653 20.5282 11.6298 20.6328 11.297C20.8841 10.495 21.618 8.33971 21.618 8.33971H21.7681C21.7681 8.33971 22.5002 10.495 22.7533 11.297C22.8578 11.6298 23.73 14.3653 23.902 14.9148C24.0764 15.4711 24.4497 15.7493 25.0222 15.7493H26.0596L23.3875 8.00012L26.0596 0.250977Z"/><path fill="#2C2C2C" d="M45.9888 8C45.9888 12.4181 42.48 16 38.1497 16C33.8194 16 30.3105 12.4181 30.3105 8C30.3105 3.58191 33.821 0 38.1514 0C42.4817 0 45.9905 3.58191 45.9905 8H45.9888ZM44.0421 8.03242C44.0421 4.52218 41.3852 1.66553 38.1193 1.66553C34.8534 1.66553 32.1965 4.52048 32.1965 8.03242C32.1965 11.5444 34.8534 14.3993 38.1193 14.3993C41.3852 14.3993 44.0421 11.5427 44.0421 8.03242Z"/><path fill="#2C2C2C" d="M7.52875 0.250977H5.2126L0 15.7493H1.14205C1.72123 15.7493 2.09966 15.4711 2.27735 14.9148C2.54557 14.0803 5.5736 4.76463 5.5736 4.76463C5.86881 3.82265 6.25849 1.91651 6.25849 1.91651H6.48116C6.48116 1.91651 6.87084 3.82265 7.16606 4.76463C7.16606 4.76463 10.1941 14.0803 10.4623 14.9148C10.6411 15.4711 11.0196 15.7493 11.5976 15.7493H12.7397L7.52875 0.250977Z"/><path fill="#2C2C2C" d="M60.881 0.250977H59.9988C59.4286 0.250977 59.1435 0.539372 59.1435 1.11616V14.0854H58.7926C58.7926 14.0854 58.2966 12.1793 58.0014 11.2373L54.1299 0.250977H50.9602V15.7493H51.8425C52.4126 15.7493 52.6977 15.4609 52.6977 14.8841V1.9148H53.0486C53.0486 1.9148 53.5446 3.82094 53.8398 4.76292L57.7113 15.7476H60.881V0.250977Z"/><path fill="#2C2C2C" d="M69.1403 15.7493H68.5718V0.26123H69.1403V15.7493Z"/><path fill="#2C2C2C" d="M81.7787 14.2373L82.084 15.1725L82.3893 14.2373L87.5311 0.26123H88.1519L82.4315 15.7476H81.7382L76.0178 0.26123H76.6386L81.7804 14.2373H81.7787Z"/><path fill="#2C2C2C" d="M99.1439 9.34485L104.507 0.26123H105.2L99.4274 9.86533V15.7476H98.8589V9.86703L93.0879 0.26123H93.8453L99.1439 9.34485Z"/></g><defs><clipPath id="clip0_320_2259"><rect width="105.2" height="16" fill="#fff"/></clipPath></defs></svg>