<svg xmlns="http://www.w3.org/2000/svg" width="106" height="16" fill="none" viewBox="0 0 106 16"><g clip-path="url(#clip0_3656_5950)"><path fill="#fff" d="M26.5594 0.250854H25.5219C24.9517 0.250854 24.5784 0.529012 24.4018 1.08533C24.2297 1.63481 23.3576 4.37031 23.253 4.70307C23.0017 5.50512 22.2678 7.66041 22.2678 7.66041H22.1177C22.1177 7.66041 21.3856 5.50512 21.1325 4.70307C21.028 4.37031 20.1558 1.63481 19.9837 1.08533C19.8094 0.529012 19.4361 0.250854 18.8636 0.250854H17.8262L20.4983 8L17.8262 15.7491H18.8636C19.4338 15.7491 19.8072 15.471 19.9837 14.9147C20.1558 14.3652 21.028 11.6297 21.1325 11.2969C21.3839 10.4949 22.1177 8.33959 22.1177 8.33959H22.2678C22.2678 8.33959 23 10.4949 23.253 11.2969C23.3576 11.6297 24.2297 14.3652 24.4018 14.9147C24.5761 15.471 24.9495 15.7491 25.5219 15.7491H26.5594L23.8873 8L26.5594 0.250854Z"/><path fill="#fff" d="M46.4888 8C46.4888 12.4181 42.98 16 38.6497 16C34.3194 16 30.8105 12.4181 30.8105 8C30.8105 3.58191 34.321 0 38.6514 0C42.9817 0 46.4905 3.58191 46.4905 8H46.4888ZM44.5421 8.03242C44.5421 4.52218 41.8852 1.66553 38.6193 1.66553C35.3534 1.66553 32.6965 4.52048 32.6965 8.03242C32.6965 11.5444 35.3534 14.3993 38.6193 14.3993C41.8852 14.3993 44.5421 11.5427 44.5421 8.03242Z"/><path fill="#fff" d="M8.02875 0.250854H5.7126L0.5 15.7491H1.64205C2.22123 15.7491 2.59966 15.471 2.77735 14.9147C3.04557 14.0802 6.0736 4.76451 6.0736 4.76451C6.36881 3.82253 6.75849 1.91638 6.75849 1.91638H6.98116C6.98116 1.91638 7.37084 3.82253 7.66606 4.76451C7.66606 4.76451 10.6941 14.0802 10.9623 14.9147C11.1411 15.471 11.5196 15.7491 12.0976 15.7491H13.2397L8.02875 0.250854Z"/><path fill="#fff" d="M61.3808 0.250854H60.4985C59.9283 0.250854 59.6432 0.53925 59.6432 1.11604V14.0853H59.2924C59.2924 14.0853 58.7964 12.1792 58.5012 11.2372L54.6297 0.250854H51.46V15.7491H52.3422C52.9124 15.7491 53.1975 15.4607 53.1975 14.884V1.91468H53.5484C53.5484 1.91468 54.0443 3.82082 54.3395 4.7628L58.211 15.7474H61.3808V0.250854Z"/><path fill="#fff" d="M69.6408 15.7492H69.0723V0.261108H69.6408V15.7492Z"/><path fill="#fff" d="M82.2784 14.2372L82.5838 15.1724L82.8891 14.2372L88.0308 0.261108H88.6516L82.9313 15.7475H82.2379L76.5176 0.261108H77.1384L82.2801 14.2372H82.2784Z"/><path fill="#fff" d="M99.6439 9.34473L105.007 0.261108H105.7L99.9274 9.8652V15.7475H99.3589V9.86691L93.5879 0.261108H94.3453L99.6439 9.34473Z"/></g><defs><clipPath id="clip0_3656_5950"><rect width="105.2" height="16" fill="#fff" transform="translate(0.5)"/></clipPath></defs></svg>