<svg xmlns="http://www.w3.org/2000/svg" width="62" height="65" fill="none" viewBox="0 0 62 65"><g clip-path="url(#clip0_2537_546)"><path stroke="#96C4D4" stroke-linecap="round" stroke-linejoin="round" stroke-width="5.79" d="M7.78613 32.5C7.78613 35.701 8.38659 38.8706 9.55321 41.8279C10.7198 44.7852 12.4298 47.4723 14.5854 49.7357C16.7411 51.9992 19.3002 53.7946 22.1167 55.0196C24.9332 56.2445 27.9519 56.875 31.0004 56.875C34.049 56.875 37.0677 56.2445 39.8841 55.0196C42.7006 53.7946 45.2598 51.9992 47.4154 49.7357C49.571 47.4723 51.281 44.7852 52.4476 41.8279C53.6143 38.8706 54.2147 35.701 54.2147 32.5C54.2147 29.299 53.6143 26.1294 52.4476 23.1721C51.281 20.2148 49.571 17.5277 47.4154 15.2643C45.2598 13.0008 42.7006 11.2054 39.8841 9.98044C37.0677 8.75548 34.049 8.125 31.0004 8.125C27.9519 8.125 24.9332 8.75548 22.1167 9.98044C19.3002 11.2054 16.7411 13.0008 14.5854 15.2643C12.4298 17.5277 10.7198 20.2148 9.55321 23.1721C8.38659 26.1294 7.78613 29.299 7.78613 32.5Z"/><path stroke="#96C4D4" stroke-linecap="round" stroke-linejoin="round" stroke-width="5.79" d="M31 32.5L38.7381 37.9167"/><path stroke="#96C4D4" stroke-linecap="round" stroke-linejoin="round" stroke-width="5.79" d="M31 18.9585V32.5002"/></g><defs><clipPath id="clip0_2537_546"><rect width="61.905" height="65" fill="#fff" transform="translate(0.0478516)"/></clipPath></defs></svg>