<svg xmlns="http://www.w3.org/2000/svg" width="26" height="26" fill="none" viewBox="0 0 26 26"><g clip-path="url(#clip0_1279_15179)"><path stroke="#1B1B1B" stroke-linecap="round" stroke-linejoin="round" stroke-width="1.625" d="M10.833 5.41667C10.833 4.84203 11.0613 4.29093 11.4676 3.8846C11.8739 3.47827 12.425 3.25 12.9997 3.25C13.5743 3.25 14.1254 3.47827 14.5317 3.8846C14.9381 4.29093 15.1663 4.84203 15.1663 5.41667C16.4105 6.00495 17.471 6.92069 18.2344 8.06574C18.9978 9.2108 19.4352 10.542 19.4997 11.9167V15.1667C19.5812 15.8402 19.8197 16.4851 20.1961 17.0496C20.5724 17.6141 21.076 18.0824 21.6663 18.4167H4.33301C4.92336 18.0824 5.42697 17.6141 5.80329 17.0496C6.17962 16.4851 6.41815 15.8402 6.49967 15.1667V11.9167C6.5642 10.542 7.00158 9.2108 7.76495 8.06574C8.52832 6.92069 9.5889 6.00495 10.833 5.41667Z"/><path stroke="#1B1B1B" stroke-linecap="round" stroke-linejoin="round" stroke-width="1.625" d="M9.75 18.417V19.5003C9.75 20.3623 10.0924 21.1889 10.7019 21.7984C11.3114 22.4079 12.138 22.7503 13 22.7503C13.862 22.7503 14.6886 22.4079 15.2981 21.7984C15.9076 21.1889 16.25 20.3623 16.25 19.5003V18.417"/></g><defs><clipPath id="clip0_1279_15179"><rect width="26" height="26" fill="#fff"/></clipPath></defs></svg>