<svg xmlns="http://www.w3.org/2000/svg" width="26" height="26" fill="none" viewBox="0 0 26 26"><g clip-path="url(#clip0_1309_17723)"><path stroke="#1B1B1B" stroke-linecap="round" stroke-linejoin="round" stroke-width="1.625" d="M16.2494 7.5835L9.20777 14.6252C8.77679 15.0561 8.53467 15.6407 8.53467 16.2502C8.53467 16.8597 8.77679 17.4442 9.20777 17.8752C9.63874 18.3061 10.2233 18.5483 10.8328 18.5483C11.4423 18.5483 12.0268 18.3061 12.4578 17.8752L19.4994 10.8335C20.3614 9.97155 20.8456 8.80249 20.8456 7.5835C20.8456 6.36451 20.3614 5.19545 19.4994 4.3335C18.6375 3.47155 17.4684 2.9873 16.2494 2.9873C15.0304 2.9873 13.8614 3.47155 12.9994 4.3335L5.95777 11.3752C4.66484 12.6681 3.93848 14.4217 3.93848 16.2502C3.93848 18.0786 4.66484 19.8322 5.95777 21.1252C7.2507 22.4181 9.00429 23.1445 10.8328 23.1445C12.6612 23.1445 14.4148 22.4181 15.7078 21.1252L22.7494 14.0835"/></g><defs><clipPath id="clip0_1309_17723"><rect width="26" height="26" fill="#fff"/></clipPath></defs></svg>