<svg xmlns="http://www.w3.org/2000/svg" width="21" height="21" fill="none" viewBox="0 0 21 21"><g clip-path="url(#clip0_1618_372)"><path stroke="#EE4A52" stroke-linecap="round" stroke-linejoin="round" d="M9.42581 4.63495L4.1057 14.8873C3.99608 15.1066 3.9381 15.3552 3.9375 15.6083C3.93691 15.8615 3.99374 16.1104 4.10232 16.3304C4.21091 16.5503 4.36748 16.7336 4.55647 16.8621C4.74546 16.9905 4.96028 17.0596 5.17957 17.0625H15.8204C16.0397 17.0596 16.2545 16.9905 16.4435 16.8621C16.6325 16.7336 16.7891 16.5503 16.8977 16.3304C17.0063 16.1104 17.0631 15.8615 17.0625 15.6083C17.0619 15.3552 17.0039 15.1066 16.8943 14.8873L11.5736 4.63495C11.4615 4.42202 11.3039 4.24599 11.1158 4.12383C10.9277 4.00167 10.7155 3.9375 10.4997 3.9375C10.2839 3.9375 10.0717 4.00167 9.8836 4.12383C9.69551 4.24599 9.53784 4.42202 9.42581 4.63495Z"/><path stroke="#EE4A52" stroke-linecap="round" stroke-linejoin="round" d="M10.5 8.3125V11.2292"/><path stroke="#EE4A52" stroke-linecap="round" stroke-linejoin="round" d="M10.5 14.146H10.5098"/></g><defs><clipPath id="clip0_1618_372"><rect width="21" height="21" fill="#fff"/></clipPath></defs></svg>