<svg xmlns="http://www.w3.org/2000/svg" width="21" height="21" fill="none" viewBox="0 0 21 21"><path stroke="#BABABA" stroke-linecap="round" stroke-linejoin="round" stroke-width="1.5" d="M17.4529 18.2002C18.084 18.2002 18.5957 17.6492 18.5957 16.9694V3.43096C18.5957 2.75124 18.084 2.2002 17.4529 2.2002H3.73925C3.1081 2.2002 2.59645 2.75124 2.59645 3.43096V16.9694C2.59645 17.6492 3.1081 18.2002 3.73925 18.2002H17.4529Z"/><path stroke="#BABABA" stroke-linecap="round" stroke-linejoin="round" stroke-width="1.5" d="M18.595 5.89258H2.59572"/><path stroke="#BABABA" stroke-linecap="round" stroke-linejoin="round" stroke-width="1.5" d="M15.7387 13.2771C16.0542 13.2771 16.3101 13.0016 16.3101 12.6617V8.96939C16.3101 8.62952 16.0542 8.354 15.7387 8.354H12.3102C11.9947 8.354 11.7388 8.62952 11.7388 8.96939V12.6617C11.7388 13.0016 11.9947 13.2771 12.3102 13.2771H15.7387Z"/><path stroke="#BABABA" stroke-linecap="round" stroke-linejoin="round" stroke-width="1.5" d="M16.3096 15.7388H11.7384"/><path stroke="#BABABA" stroke-linecap="round" stroke-linejoin="round" stroke-width="1.5" d="M8.88197 15.7386C9.19754 15.7386 9.45337 15.4631 9.45337 15.1232V8.96939C9.45337 8.62952 9.19754 8.354 8.88197 8.354H5.45355C5.13798 8.354 4.88215 8.62952 4.88215 8.96939V15.1232C4.88215 15.4631 5.13798 15.7386 5.45355 15.7386H8.88197Z"/></svg>