<svg width="21" height="21" viewBox="0 0 21 21" fill="none" xmlns="http://www.w3.org/2000/svg">
<g clip-path="url(#clip0_2057_4646)">
<path d="M14.3334 18.375C13.8914 18.375 13.4675 18.1906 13.1549 17.8624C12.8423 17.5342 12.6667 17.0891 12.6667 16.625V14.875C12.6667 14.4109 12.8423 13.9658 13.1549 13.6376C13.4675 13.3094 13.8914 13.125 14.3334 13.125H16.0001C16.4421 13.125 16.866 13.3094 17.1786 13.6376C17.4912 13.9658 17.6667 14.4109 17.6667 14.875V16.625C17.6667 17.0891 17.4912 17.5342 17.1786 17.8624C16.866 18.1906 16.4421 18.375 16.0001 18.375H14.3334Z" stroke="#757575" stroke-width="1.63" stroke-linecap="round" stroke-linejoin="round"/>
<path d="M14.3334 7.875C13.8914 7.875 13.4675 7.69063 13.1549 7.36244C12.8423 7.03425 12.6667 6.58913 12.6667 6.125V4.375C12.6667 3.91087 12.8423 3.46575 13.1549 3.13756C13.4675 2.80937 13.8914 2.625 14.3334 2.625H16.0001C16.4421 2.625 16.866 2.80937 17.1786 3.13756C17.4912 3.46575 17.6667 3.91087 17.6667 4.375V6.125C17.6667 6.58913 17.4912 7.03425 17.1786 7.36244C16.866 7.69063 16.4421 7.875 16.0001 7.875H14.3334Z" stroke="#757575" stroke-width="1.63" stroke-linecap="round" stroke-linejoin="round"/>
<path d="M4.33341 13.125C3.89139 13.125 3.46746 12.9406 3.1549 12.6124C2.84234 12.2842 2.66675 11.8391 2.66675 11.375V9.625C2.66675 9.16087 2.84234 8.71575 3.1549 8.38756C3.46746 8.05937 3.89139 7.875 4.33341 7.875H6.00008C6.44211 7.875 6.86603 8.05937 7.17859 8.38756C7.49115 8.71575 7.66675 9.16087 7.66675 9.625V11.375C7.66675 11.8391 7.49115 12.2842 7.17859 12.6124C6.86603 12.9406 6.44211 13.125 6.00008 13.125H4.33341Z" stroke="#757575" stroke-width="1.63" stroke-linecap="round" stroke-linejoin="round"/>
<path d="M12.6667 15.75H11.8334C11.3914 15.75 10.9675 15.5656 10.6549 15.2374C10.3423 14.9092 10.1667 14.4641 10.1667 14V7C10.1667 6.53587 10.3423 6.09075 10.6549 5.76256C10.9675 5.43437 11.3914 5.25 11.8334 5.25H12.6667" stroke="#757575" stroke-width="1.63" stroke-linecap="round" stroke-linejoin="round"/>
<path d="M7.66675 10.5H10.1667" stroke="#757575" stroke-linecap="round" stroke-linejoin="round"/>
</g>
<defs>
<clipPath id="clip0_2057_4646">
<rect width="20" height="21" fill="white" transform="translate(0.166748)"/>
</clipPath>
</defs>
</svg>
