<svg width="24" height="24" viewBox="0 0 24 24" fill="none" xmlns="http://www.w3.org/2000/svg">
<g clip-path="url(#clip0_590_598)">
<path d="M17 21C16.4696 21 15.9609 20.7893 15.5858 20.4142C15.2107 20.0391 15 19.5304 15 19V17C15 16.4696 15.2107 15.9609 15.5858 15.5858C15.9609 15.2107 16.4696 15 17 15H19C19.5304 15 20.0391 15.2107 20.4142 15.5858C20.7893 15.9609 21 16.4696 21 17V19C21 19.5304 20.7893 20.0391 20.4142 20.4142C20.0391 20.7893 19.5304 21 19 21H17Z" stroke="#1B1B1B" stroke-width="1.5" stroke-linecap="round" stroke-linejoin="round"/>
<path d="M17 9C16.4696 9 15.9609 8.78929 15.5858 8.41421C15.2107 8.03914 15 7.53043 15 7V5C15 4.46957 15.2107 3.96086 15.5858 3.58579C15.9609 3.21071 16.4696 3 17 3H19C19.5304 3 20.0391 3.21071 20.4142 3.58579C20.7893 3.96086 21 4.46957 21 5V7C21 7.53043 20.7893 8.03914 20.4142 8.41421C20.0391 8.78929 19.5304 9 19 9H17Z" stroke="#1B1B1B" stroke-width="1.5" stroke-linecap="round" stroke-linejoin="round"/>
<path d="M5 15C4.46957 15 3.96086 14.7893 3.58579 14.4142C3.21071 14.0391 3 13.5304 3 13L3 11C3 10.4696 3.21071 9.96086 3.58579 9.58579C3.96086 9.21071 4.46957 9 5 9H7C7.53043 9 8.03914 9.21071 8.41421 9.58579C8.78929 9.96086 9 10.4696 9 11V13C9 13.5304 8.78929 14.0391 8.41421 14.4142C8.03914 14.7893 7.53043 15 7 15H5Z" stroke="#1B1B1B" stroke-width="1.5" stroke-linecap="round" stroke-linejoin="round"/>
<path d="M15 18H14C13.4696 18 12.9609 17.7893 12.5858 17.4142C12.2107 17.0391 12 16.5304 12 16V8C12 7.46957 12.2107 6.96086 12.5858 6.58579C12.9609 6.21071 13.4696 6 14 6H15" stroke="#1B1B1B" stroke-width="1.5" stroke-linecap="round" stroke-linejoin="round"/>
<path d="M9 12H12" stroke="#1B1B1B" stroke-width="1.5" stroke-linecap="round" stroke-linejoin="round"/>
</g>
<defs>
<clipPath id="clip0_590_598">
<rect width="24" height="24" fill="white"/>
</clipPath>
</defs>
</svg>
