<svg width="62" height="65" viewBox="0 0 62 65" fill="none" xmlns="http://www.w3.org/2000/svg">
<g clip-path="url(#clip0_1528_3695)">
<path d="M43.8975 56.8748C42.5293 56.8748 41.2172 56.3041 40.2497 55.2883C39.2823 54.2724 38.7388 52.8947 38.7388 51.4581V46.0414C38.7388 44.6048 39.2823 43.2271 40.2497 42.2113C41.2172 41.1954 42.5293 40.6248 43.8975 40.6248H49.0562C50.4244 40.6248 51.7366 41.1954 52.704 42.2113C53.6715 43.2271 54.215 44.6048 54.215 46.0414V51.4581C54.215 52.8947 53.6715 54.2724 52.704 55.2883C51.7366 56.3041 50.4244 56.8748 49.0562 56.8748H43.8975Z" stroke="#96C4D4" stroke-width="5.78767" stroke-linecap="round" stroke-linejoin="round"/>
<path d="M43.8975 24.3752C42.5293 24.3752 41.2172 23.8046 40.2497 22.7887C39.2823 21.7729 38.7388 20.3952 38.7388 18.9586V13.5419C38.7388 12.1053 39.2823 10.7276 40.2497 9.71175C41.2172 8.69593 42.5293 8.12524 43.8975 8.12524H49.0562C50.4244 8.12524 51.7366 8.69593 52.704 9.71175C53.6715 10.7276 54.215 12.1053 54.215 13.5419V18.9586C54.215 20.3952 53.6715 21.7729 52.704 22.7887C51.7366 23.8046 50.4244 24.3752 49.0562 24.3752H43.8975Z" stroke="#96C4D4" stroke-width="5.78767" stroke-linecap="round" stroke-linejoin="round"/>
<path d="M12.9454 40.625C11.5772 40.625 10.265 40.0543 9.29758 39.0385C8.33013 38.0227 7.78662 36.6449 7.78662 35.2083L7.78662 29.7917C7.78662 28.3551 8.33013 26.9773 9.29758 25.9615C10.265 24.9457 11.5772 24.375 12.9454 24.375H18.1041C19.4723 24.375 20.7844 24.9457 21.7519 25.9615C22.7193 26.9773 23.2628 28.3551 23.2628 29.7917V35.2083C23.2628 36.6449 22.7193 38.0227 21.7519 39.0385C20.7844 40.0543 19.4723 40.625 18.1041 40.625H12.9454Z" stroke="#96C4D4" stroke-width="5.78767" stroke-linecap="round" stroke-linejoin="round"/>
<path d="M38.7381 48.7505H36.1587C34.7906 48.7505 33.4784 48.1798 32.511 47.164C31.5435 46.1482 31 44.7704 31 43.3338V21.6672C31 20.2306 31.5435 18.8528 32.511 17.837C33.4784 16.8212 34.7906 16.2505 36.1587 16.2505H38.7381" stroke="#96C4D4" stroke-width="5.78767" stroke-linecap="round" stroke-linejoin="round"/>
<path d="M23.2612 32.4995H30.9993" stroke="#96C4D4" stroke-width="5.78767" stroke-linecap="round" stroke-linejoin="round"/>
</g>
<defs>
<clipPath id="clip0_1528_3695">
<rect width="61.9048" height="65" fill="white" transform="translate(0.0478516)"/>
</clipPath>
</defs>
</svg>
