<svg width="21" height="21" viewBox="0 0 21 21" fill="none" xmlns="http://www.w3.org/2000/svg">
<g clip-path="url(#clip0_2057_384)">
<path d="M2.83325 8.75C2.83325 9.55435 2.98414 10.3508 3.27729 11.0939C3.57044 11.8371 4.00012 12.5123 4.5418 13.081C5.08347 13.6498 5.72653 14.101 6.43427 14.4088C7.142 14.7166 7.90054 14.875 8.66659 14.875C9.43263 14.875 10.1912 14.7166 10.8989 14.4088C11.6066 14.101 12.2497 13.6498 12.7914 13.081C13.333 12.5123 13.7627 11.8371 14.0559 11.0939C14.349 10.3508 14.4999 9.55435 14.4999 8.75C14.4999 7.94565 14.349 7.14918 14.0559 6.40606C13.7627 5.66294 13.333 4.98773 12.7914 4.41897C12.2497 3.85021 11.6066 3.39905 10.8989 3.09124C10.1912 2.78343 9.43263 2.625 8.66659 2.625C7.90054 2.625 7.142 2.78343 6.43427 3.09124C5.72653 3.39905 5.08347 3.85021 4.5418 4.41897C4.00012 4.98773 3.57044 5.66294 3.27729 6.40606C2.98414 7.14918 2.83325 7.94565 2.83325 8.75Z" stroke="#757575" stroke-width="1.63" stroke-linecap="round" stroke-linejoin="round"/>
<path d="M17.8333 18.375L12.8333 13.125" stroke="#757575" stroke-width="1.63" stroke-linecap="round" stroke-linejoin="round"/>
</g>
<defs>
<clipPath id="clip0_2057_384">
<rect width="20" height="21" fill="white" transform="translate(0.333252)"/>
</clipPath>
</defs>
</svg>
