<svg xmlns="http://www.w3.org/2000/svg" width="21" height="21" fill="none" viewBox="0 0 21 21"><path stroke="#BABABA" stroke-linecap="round" stroke-linejoin="round" stroke-width="1.5" d="M9.40467 3.37086C9.78333 1.80997 12.0038 1.80997 12.3824 3.37086C12.4393 3.60535 12.5506 3.82311 12.7075 4.00642C12.8644 4.18972 13.0623 4.3334 13.2852 4.42575C13.5081 4.5181 13.7497 4.55651 13.9903 4.53786C14.2308 4.51921 14.4636 4.44402 14.6696 4.31842C16.0411 3.48286 17.6118 5.05264 16.7762 6.42508C16.6508 6.631 16.5757 6.86361 16.5571 7.10399C16.5385 7.34438 16.5769 7.58577 16.6691 7.80853C16.7614 8.0313 16.9049 8.22915 17.088 8.38602C17.2711 8.54289 17.4886 8.65433 17.7229 8.71131C19.2838 9.08997 19.2838 11.3104 17.7229 11.6891C17.4884 11.7459 17.2706 11.8573 17.0873 12.0142C16.904 12.171 16.7604 12.369 16.668 12.5919C16.5757 12.8148 16.5372 13.0563 16.5559 13.2969C16.5745 13.5374 16.6497 13.7702 16.7753 13.9762C17.6109 15.3478 16.0411 16.9184 14.6687 16.0829C14.4627 15.9574 14.2301 15.8824 13.9898 15.8638C13.7494 15.8452 13.508 15.8835 13.2852 15.9758C13.0625 16.068 12.8646 16.2115 12.7077 16.3946C12.5509 16.5777 12.4394 16.7953 12.3824 17.0295C12.0038 18.5904 9.78333 18.5904 9.40467 17.0295C9.34785 16.795 9.23647 16.5773 9.07959 16.394C8.92271 16.2107 8.72476 16.067 8.50186 15.9746C8.27896 15.8823 8.03741 15.8439 7.79686 15.8625C7.55631 15.8812 7.32356 15.9564 7.11755 16.082C5.746 16.9175 4.17533 15.3478 5.01089 13.9753C5.13631 13.7694 5.21138 13.5368 5.22998 13.2964C5.24859 13.056 5.21022 12.8146 5.11797 12.5919C5.02573 12.3691 4.88223 12.1712 4.69913 12.0144C4.51603 11.8575 4.2985 11.7461 4.06422 11.6891C2.50333 11.3104 2.50333 9.08997 4.06422 8.71131C4.29871 8.65449 4.51647 8.54311 4.69978 8.38623C4.88308 8.22935 5.02676 8.03141 5.11911 7.8085C5.21145 7.5856 5.24987 7.34405 5.23122 7.1035C5.21257 6.86295 5.13738 6.6302 5.01178 6.4242C4.17622 5.05264 5.746 3.48197 7.11844 4.31753C8.00733 4.85797 9.15933 4.37975 9.40467 3.37086Z"/><path stroke="#BABABA" stroke-linecap="round" stroke-linejoin="round" stroke-width="1.5" d="M10.8937 12.8668C12.3665 12.8668 13.5604 11.6729 13.5604 10.2001C13.5604 8.72735 12.3665 7.53345 10.8937 7.53345C9.42096 7.53345 8.22705 8.72735 8.22705 10.2001C8.22705 11.6729 9.42096 12.8668 10.8937 12.8668Z"/></svg>