<svg xmlns="http://www.w3.org/2000/svg" width="21" height="21" fill="none" viewBox="0 0 21 21"><path stroke="#0065FF" stroke-linecap="round" stroke-linejoin="round" stroke-width="1.5" d="M6.86377 10.4946H18.5001"/><path stroke="#0065FF" stroke-linecap="round" stroke-linejoin="round" stroke-width="1.5" d="M2.86364 11.2219C2.6628 11.2219 2.5 11.0591 2.5 10.8583C2.5 10.6574 2.6628 10.4946 2.86364 10.4946"/><path stroke="#0065FF" stroke-linecap="round" stroke-linejoin="round" stroke-width="1.5" d="M2.86353 11.2219C3.06436 11.2219 3.22716 11.0591 3.22716 10.8583C3.22716 10.6574 3.06436 10.4946 2.86353 10.4946"/><path stroke="#0065FF" stroke-linecap="round" stroke-linejoin="round" stroke-width="1.5" d="M2.86364 16.6037C2.6628 16.6037 2.5 16.4409 2.5 16.2401C2.5 16.0393 2.6628 15.8765 2.86364 15.8765"/><path stroke="#0065FF" stroke-linecap="round" stroke-linejoin="round" stroke-width="1.5" d="M2.86353 16.6037C3.06436 16.6037 3.22716 16.4409 3.22716 16.2401C3.22716 16.0393 3.06436 15.8765 2.86353 15.8765"/><path stroke="#0065FF" stroke-linecap="round" stroke-linejoin="round" stroke-width="1.5" d="M6.86353 16.24H18.4999"/><path stroke="#0065FF" stroke-linecap="round" stroke-linejoin="round" stroke-width="1.5" d="M6.86353 5.47656H18.4999"/><path stroke="#0065FF" stroke-linecap="round" stroke-linejoin="round" stroke-width="1.5" d="M2.86364 5.84006C2.6628 5.84006 2.5 5.67725 2.5 5.47643C2.5 5.27559 2.6628 5.11279 2.86364 5.11279"/><path stroke="#0065FF" stroke-linecap="round" stroke-linejoin="round" stroke-width="1.5" d="M2.86353 5.84006C3.06436 5.84006 3.22716 5.67725 3.22716 5.47643C3.22716 5.27559 3.06436 5.11279 2.86353 5.11279"/></svg>