<svg xmlns="http://www.w3.org/2000/svg" width="62" height="65" fill="none" viewBox="0 0 62 65"><g clip-path="url(#clip0_2966_9954)"><path stroke="#96C4D4" stroke-linecap="round" stroke-linejoin="round" stroke-width="5.79" d="M18.1032 27.0833H25.8413V18.9583L16.8135 9.4791C19.7015 8.03088 22.946 7.55836 26.1003 8.12662C29.2546 8.69487 32.1635 10.2759 34.4265 12.6521C36.6895 15.0283 38.1953 18.0827 38.7365 21.3947C39.2777 24.7067 38.8277 28.1134 37.4484 31.1458L52.9246 47.3958C53.9508 48.4732 54.5272 49.9345 54.5272 51.4583C54.5272 52.982 53.9508 54.4433 52.9246 55.5208C51.8985 56.5982 50.5068 57.2035 49.0556 57.2035C47.6044 57.2035 46.2127 56.5982 45.1865 55.5208L29.7103 39.2708C26.8224 40.719 23.5779 41.1915 20.4236 40.6232C17.2693 40.055 14.3604 38.4739 12.0973 36.0978C9.83432 33.7216 8.32854 30.6672 7.78735 27.3552C7.24615 24.0432 7.69617 20.6364 9.07542 17.6041L18.1032 27.0833Z"/></g><defs><clipPath id="clip0_2966_9954"><rect width="61.905" height="65" fill="#fff" transform="translate(0.0476074)"/></clipPath></defs></svg>