<svg xmlns="http://www.w3.org/2000/svg" width="16" height="16" fill="none" viewBox="0 0 16 16"><g clip-path="url(#clip0_1333_18980)"><path stroke="#1B1B1B" stroke-linecap="round" stroke-linejoin="round" d="M3.33325 4.66667C3.33325 5.37391 3.6142 6.05219 4.1143 6.55229C4.6144 7.05238 5.29267 7.33333 5.99992 7.33333C6.70716 7.33333 7.38544 7.05238 7.88554 6.55229C8.38563 6.05219 8.66659 5.37391 8.66659 4.66667C8.66659 3.95942 8.38563 3.28115 7.88554 2.78105C7.38544 2.28095 6.70716 2 5.99992 2C5.29267 2 4.6144 2.28095 4.1143 2.78105C3.6142 3.28115 3.33325 3.95942 3.33325 4.66667Z"/><path stroke="#1B1B1B" stroke-linecap="round" stroke-linejoin="round" d="M2 14V12.6667C2 11.9594 2.28095 11.2811 2.78105 10.781C3.28115 10.281 3.95942 10 4.66667 10H7.33333C8.04058 10 8.71885 10.281 9.21895 10.781C9.71905 11.2811 10 11.9594 10 12.6667V14"/><path stroke="#1B1B1B" stroke-linecap="round" stroke-linejoin="round" d="M10.6667 2.08643C11.2404 2.23329 11.7488 2.56689 12.1118 3.03463C12.4749 3.50237 12.672 4.07765 12.672 4.66976C12.672 5.26187 12.4749 5.83715 12.1118 6.30488C11.7488 6.77262 11.2404 7.10622 10.6667 7.25309"/><path stroke="#1B1B1B" stroke-linecap="round" stroke-linejoin="round" d="M14 14.0001V12.6668C13.9966 12.0782 13.7986 11.5073 13.4368 11.043C13.0751 10.5788 12.5699 10.2472 12 10.1001"/></g><defs><clipPath id="clip0_1333_18980"><rect width="16" height="16" fill="#fff"/></clipPath></defs></svg>