<svg xmlns="http://www.w3.org/2000/svg" width="21" height="21" fill="none" viewBox="0 0 21 21"><g clip-path="url(#clip0_2057_4662)"><path stroke="#757575" stroke-linecap="round" stroke-linejoin="round" stroke-width="1.63" d="M7.16675 6.125C7.16675 7.05326 7.51794 7.9435 8.14306 8.59987C8.76818 9.25625 9.61603 9.625 10.5001 9.625C11.3841 9.625 12.232 9.25625 12.8571 8.59987C13.4822 7.9435 13.8334 7.05326 13.8334 6.125C13.8334 5.19674 13.4822 4.3065 12.8571 3.65013C12.232 2.99375 11.3841 2.625 10.5001 2.625C9.61603 2.625 8.76818 2.99375 8.14306 3.65013C7.51794 4.3065 7.16675 5.19674 7.16675 6.125Z"/><path stroke="#757575" stroke-linecap="round" stroke-linejoin="round" stroke-width="1.63" d="M5.5 18.375V16.625C5.5 15.6967 5.85119 14.8065 6.47631 14.1501C7.10143 13.4937 7.94928 13.125 8.83333 13.125H12.1667C13.0507 13.125 13.8986 13.4937 14.5237 14.1501C15.1488 14.8065 15.5 15.6967 15.5 16.625V18.375"/></g><defs><clipPath id="clip0_2057_4662"><rect width="20" height="21" fill="#fff" transform="translate(0.5)"/></clipPath></defs></svg>